<svg width="512" height="512" viewBox="0 0 512 512" fill="none" xmlns="http://www.w3.org/2000/svg">
<rect width="512" height="512" fill="white"/>
<path d="M0 125.477L382.793 509C382.793 509 620.115 281.803 451.488 95.9853C255.153 -120.288 19.6271 105.816 0 125.477Z" fill="#EFE546"/>
<path d="M385.294 438H136.243C132.478 437.996 128.868 436.508 126.206 433.86C123.544 431.213 122.046 427.624 122.043 423.88V371.653C122.046 367.909 123.544 364.32 126.206 361.673C128.868 359.025 132.478 357.536 136.243 357.533H186.223L177.653 315.213C92.1398 307.698 63.0156 259.711 53.6811 220.436C41.6679 169.907 70.1771 131.964 136.147 110.478L134.644 103.003C133.98 99.6373 134.612 96.1465 136.415 93.2219C138.217 90.2974 141.057 88.1523 144.374 87.2115C240.398 60.2079 348.12 85.2138 378.857 93.531C382.187 94.4263 385.052 96.5402 386.88 99.4489C388.708 102.358 389.362 105.846 388.711 109.214L385.472 125.957C411.521 135.579 474.224 167.91 457.072 251.475C448.08 295.29 410.004 320.975 346.863 325.922L341.164 355.454H385.294C389.06 355.457 392.671 356.946 395.336 359.592C398 362.239 399.5 365.829 399.508 369.574V423.934C399.486 427.67 397.979 431.245 395.316 433.88C392.654 436.516 389.051 437.996 385.294 438ZM136.243 367.929C135.25 367.929 134.297 368.322 133.595 369.02C132.892 369.718 132.498 370.665 132.498 371.653V423.88C132.498 424.867 132.892 425.815 133.595 426.513C134.297 427.211 135.25 427.604 136.243 427.604H385.294C386.288 427.604 387.242 427.212 387.947 426.514C388.651 425.816 389.049 424.869 389.052 423.88V369.519C389.049 368.53 388.651 367.583 387.947 366.885C387.242 366.188 386.288 365.796 385.294 365.796H334.836C334.065 365.795 333.304 365.626 332.607 365.299C331.91 364.973 331.294 364.497 330.803 363.906C330.313 363.316 329.959 362.624 329.768 361.882C329.577 361.14 329.552 360.365 329.697 359.612L337.351 319.983C337.569 318.854 338.159 317.829 339.028 317.068C339.896 316.308 340.993 315.857 342.148 315.784C403.362 311.911 438.581 289.555 446.822 249.328C462.854 171.253 403.922 142.836 377.846 134.247C376.642 133.851 375.624 133.032 374.983 131.944C374.342 130.856 374.12 129.573 374.361 128.335L378.461 107.203C378.601 106.41 378.438 105.593 378.003 104.914C377.567 104.234 376.892 103.742 376.11 103.533C346.043 95.3792 240.644 70.9169 147.217 97.1867C146.428 97.4043 145.75 97.91 145.319 98.6028C144.889 99.2957 144.737 100.125 144.894 100.924L147.327 112.965C147.584 114.228 147.36 115.54 146.698 116.648C146.036 117.756 144.984 118.579 143.746 118.958C79.7712 138.569 52.8885 171.892 63.8493 218.017C79.5662 284.119 136.981 301.881 182.368 305.129C183.508 305.213 184.59 305.664 185.448 306.415C186.307 307.165 186.895 308.174 187.124 309.288L197.744 361.678C197.892 362.433 197.872 363.211 197.685 363.958C197.499 364.704 197.15 365.401 196.664 366C196.167 366.601 195.541 367.085 194.831 367.414C194.122 367.743 193.347 367.91 192.564 367.902L136.243 367.929ZM354.53 263.815C353.76 263.817 353 263.65 352.303 263.325C351.607 263 350.991 262.525 350.501 261.935C350.011 261.345 349.658 260.654 349.469 259.912C349.279 259.171 349.257 258.396 349.405 257.645L367.172 165.3C367.332 164.477 367.689 163.704 368.212 163.047C368.735 162.389 369.41 161.866 370.179 161.522C370.947 161.181 371.787 161.029 372.628 161.081C373.468 161.134 374.283 161.387 375.003 161.821C385.499 168.114 408.856 186.284 399.248 219.24C390.761 248.336 368.579 259.494 356.102 263.557C355.594 263.724 355.064 263.811 354.53 263.815ZM375.987 175.113L361.5 250.116C368.247 246.731 374.204 241.974 378.986 236.154C383.767 230.334 387.267 223.581 389.257 216.331C395.244 195.946 385.458 182.723 375.987 175.113ZM158.41 256.939C139.919 256.939 124.503 250.212 113.31 237.165C104.563 226.932 101.324 216.359 103.661 205.745C108.39 184.34 135.095 169.146 150.661 161.998C151.378 161.668 152.16 161.504 152.95 161.518C153.739 161.532 154.515 161.723 155.22 162.077C155.925 162.432 156.539 162.94 157.019 163.564C157.498 164.188 157.829 164.912 157.987 165.681L175.043 249.831C175.184 250.523 175.182 251.236 175.037 251.927C174.892 252.617 174.606 253.271 174.198 253.849C173.79 254.426 173.268 254.915 172.664 255.285C172.059 255.655 171.385 255.899 170.683 256.001C166.621 256.612 162.519 256.926 158.41 256.939ZM121.305 230.424C131.528 242.384 145.782 247.725 163.672 246.338L149.09 174.311C136.53 180.78 117.191 192.97 113.897 207.946C112.339 215.353 114.704 222.692 121.305 230.424Z" fill="#47BFE1" stroke="#47BFE1" stroke-width="10"/>
</svg>
