<?xml version="1.0" encoding="UTF-8"?>
<!-- Generated by Pixelmator Pro 3.8 -->
<svg width="1024" height="984" viewBox="0 0 1024 984" xmlns="http://www.w3.org/2000/svg">
    <path id="triangle" fill="#000000" fill-rule="evenodd" stroke="none" d="M 813.835266 415 C 817.191895 408.28949 827.084473 400.987366 874.5 367.909851 C 905.849976 346.039856 932.721497 327.856079 934.214417 327.501465 C 935.757263 327.13501 938.131042 327.427124 939.714417 328.178345 C 941.24646 328.905273 943.290955 331.117188 944.25769 333.093689 C 945.72583 336.095459 946.874023 349.605347 951.227722 415.105469 C 955.770447 483.44986 956.265686 493.944397 955.082825 496.799988 C 954.336426 498.60202 952.973267 500.479095 952.053711 500.971283 C 951.134094 501.46344 949.283325 502.131958 947.940857 502.456879 C 946.431641 502.822144 943.973267 502.265411 941.5 500.99826 C 939.299988 499.871124 910.5 481.739746 877.5 460.70636 C 824.490967 426.919678 817.286499 422.028931 815.667664 418.731873 L 813.835266 415 Z M 945.975769 496 C 946.954407 496 948.20929 495.4375 948.764404 494.75 C 949.451355 493.89917 948.091248 468.383484 944.505127 414.845886 C 941.607422 371.586121 938.931763 335.698608 938.559265 335.095886 C 938.186768 334.493164 936.895996 334.01062 935.690979 334.023621 C 934.45459 334.036926 909.352722 350.919678 878.075989 372.773621 C 847.592834 394.07312 822.170105 412.287476 821.581116 413.25 C 820.819153 414.495178 820.821045 415.504822 821.587769 416.75 C 822.18042 417.712524 850.009827 435.9375 883.430847 457.25 C 916.851929 478.5625 944.997131 496 945.975769 496 Z"/>
    <path id="arch" fill="#000000" fill-rule="evenodd" stroke="none" d="M 777.795471 685.859558 C 768.832947 685.782349 742.375 685.150757 719 684.456116 C 686.731384 683.497192 675.898132 682.861877 674 681.817139 C 672.446045 680.961792 670.970947 678.779663 670.101929 676.050659 C 669.006592 672.610901 668.848938 667.853516 669.373901 654.080078 C 669.742432 644.411011 670.729736 630.424988 671.567993 623 C 672.406189 615.575012 674.404114 602.940796 676.007813 594.924072 C 677.61145 586.907227 680.529846 575.432251 682.493103 569.424072 C 684.456421 563.415833 688.721069 552.991638 691.970154 546.259155 C 695.219238 539.526733 700.71759 529.867676 704.188782 524.794556 C 707.659973 519.721558 713.650024 512.380493 717.5 508.481262 C 721.349976 504.582001 727.875 498.995331 732 496.066467 C 736.125 493.137573 743.549988 488.800507 748.5 486.428528 C 753.450012 484.056549 761.099976 480.966492 765.5 479.561737 C 769.900024 478.157013 778.832214 476.105927 785.349365 475.003845 C 791.866516 473.901733 801.799744 473 807.423157 473 C 813.04657 473 821.889343 473.715668 827.073792 474.590363 C 832.258179 475.465057 839.855652 477.293152 843.957031 478.652771 C 848.05835 480.012421 855.708374 483.342834 860.957031 486.053711 C 866.205627 488.764618 873.618408 493.332947 877.429871 496.205627 C 881.241272 499.078278 887.482056 504.551056 891.29834 508.36731 C 895.114624 512.183594 901.4505 519.624634 905.378052 524.902954 C 909.305603 530.181335 914.626831 538.099976 917.203003 542.5 C 919.779175 546.900024 924.347534 555.674988 927.354919 562 C 930.362305 568.325012 934.657104 578.450012 936.898926 584.5 C 939.140747 590.549988 942.325378 600.028992 943.975891 605.564453 C 945.626465 611.099854 948.114746 620.669434 949.505432 626.830078 C 950.896118 632.990723 952.310303 640.675171 952.64801 643.906677 C 953.215271 649.33374 953.080444 649.899048 950.881042 651.314331 C 949.571472 652.156982 929.825012 656.973938 907 662.018555 C 884.174988 667.063232 863.839661 671.428406 861.810425 671.718933 C 859.781128 672.009399 857.013611 671.969238 855.660339 671.629639 C 854.077698 671.232361 852.807434 669.886353 852.099915 667.856812 C 851.494995 666.12146 851 660.819397 851 656.074585 C 851 651.329712 850.545837 643.634338 849.990784 638.973755 C 849.43573 634.313232 848.240295 627.349976 847.334229 623.5 C 846.428162 619.650024 844.851135 614.535767 843.829712 612.135132 C 842.808289 609.734436 841.016418 606.427368 839.847717 604.786133 C 838.679077 603.144897 836.322754 600.948303 834.61145 599.904785 C 832.838989 598.823975 829.656738 598.005859 827.216736 598.003723 C 824.649658 598.001465 821.04364 598.967957 818.216736 600.415771 C 815.622559 601.744507 811.617188 604.781982 809.315918 607.165771 C 807.014709 609.549622 803.985474 613.798828 802.584351 616.608582 C 801.183228 619.418335 799.400024 624.593262 798.621765 628.108582 C 797.843445 631.623901 796.957214 638.109131 796.652344 642.520203 C 796.347473 646.931274 796.489746 655.734375 796.968506 662.082642 C 797.447266 668.430908 798.14563 675.259399 798.520386 677.257019 C 799.09668 680.328918 798.807617 681.283264 796.646362 683.44458 C 794.101685 685.989258 794.022278 685.99939 777.795471 685.859558 Z"/>
    <path id="drop" fill="#000000" fill-rule="evenodd" stroke="none" d="M 737.638123 446 C 736.15033 446 725.787781 436.300415 703.994019 414.508301 C 683.054932 393.570679 672.397949 382.217529 672.195557 380.632446 C 671.956604 378.761169 673.139465 377.244385 677.695557 373.580017 C 680.888 371.012451 687.149536 367.123474 691.610168 364.937866 C 696.07074 362.752258 703.189758 360.211182 707.430298 359.290955 C 713.838501 357.90033 716.250977 357.808044 721.718323 358.744568 C 725.336243 359.364319 731.189575 361.295654 734.725769 363.03656 C 738.313354 364.802673 743.714478 368.705994 746.945374 371.867371 C 750.286255 375.136475 754.079956 380.196411 755.913879 383.829346 C 757.661987 387.292297 759.57782 392.543701 760.171387 395.499084 C 760.977112 399.51123 760.935425 402.598694 760.006775 407.686279 C 759.322754 411.433838 756.993286 418.324097 754.8302 422.998047 C 752.667053 427.671997 748.397705 434.75946 745.342712 438.748047 C 741.48877 443.779724 739.129883 446 737.638123 446 Z"/>
    <path id="diamond" fill="#000000" fill-rule="evenodd" stroke="none" d="M 821.971008 344.780029 C 820.03363 344.999573 805.24762 334.019348 753.5 293.932678 C 717.200012 265.812683 685.700012 241.328369 683.5 239.523193 C 680.873901 237.368347 679.5 235.423889 679.5 233.861877 C 679.5 232.125061 695.903198 213.211792 740.258423 163.806091 C 773.675537 126.583923 801.927612 95.840332 803.040833 95.487061 C 804.264282 95.098755 806.174194 95.567505 807.86969 96.672302 C 809.412415 97.677551 838.200073 121.380676 871.842346 149.346008 C 914.363831 184.6922 933.200134 200.949341 933.633606 202.676453 C 934.070374 204.416504 933.561707 206.110474 931.935852 208.330444 C 930.65918 210.073669 910.255371 236.025024 886.594055 266 C 862.9328 295.974976 839.268982 325.900024 834.007813 332.5 C 827.002502 341.287964 823.78064 344.574951 821.971008 344.780029 Z M 820.186401 322.63147 C 820.630859 321.837219 824.857056 302.357727 829.578003 279.343689 C 834.29895 256.329651 838.237671 235.25 838.33075 232.5 C 838.5 227.5 838.5 227.5 835 227.713013 C 833.075012 227.830139 819.799988 228.870361 805.5 230.024597 C 791.200012 231.178894 778.439453 232.341187 777.14325 232.607483 C 775.208496 233.005005 774.87085 233.575928 775.257751 235.795837 C 775.516968 237.283142 784.831421 256.950012 795.956543 279.5 C 807.081665 302.049988 816.90271 321.304504 817.781128 322.28772 C 819.13031 323.797913 819.503723 323.851257 820.186401 322.63147 Z M 805.339844 322 C 805.822144 322 805.944214 320.913818 805.611023 319.586243 C 805.277832 318.258667 796.2099 299.246216 785.460083 277.336243 C 774.710266 255.426331 765.056519 236.634888 764.007263 235.577576 C 762.137268 233.693115 761.57959 233.688049 735.799805 235.321716 C 721.3349 236.238342 707.137512 237.248352 704.25 237.566162 C 701.179749 237.904053 699.015564 238.632996 699.037476 239.32196 C 699.058044 239.96991 702.545532 243.226135 706.787476 246.558044 C 711.029358 249.889954 730.446777 264.964966 749.937317 280.058044 C 769.427856 295.151123 789.669495 310.762512 794.918762 314.75 C 800.16803 318.737488 804.857483 322 805.339844 322 Z M 832.184998 318.772766 C 832.908264 318.532349 835.75 315.6698 838.5 312.41156 C 841.25 309.153381 859.291321 286.465393 878.591919 261.993774 C 897.892456 237.522217 914.300415 216.507996 915.054016 215.295471 C 915.807678 214.083008 916.095093 212.76178 915.692749 212.359436 C 915.290466 211.957092 901.582458 214.464844 885.230652 217.932129 C 868.878784 221.399414 854.077637 224.81842 852.339233 225.529846 C 849.609131 226.647156 849.029297 227.550781 848.083557 232.161682 C 847.481323 235.097778 843.672668 254.150024 839.619812 274.5 C 835.566956 294.849976 831.940247 313.234741 831.560486 315.35498 C 831.030151 318.315918 831.174988 319.108582 832.184998 318.772766 Z M 709.25 227.572083 C 715.987488 227.180847 730.468567 226.232422 741.430176 225.464478 C 754.751892 224.531128 761.764282 223.642395 762.57843 222.784058 C 763.248291 222.07782 770.001831 200.349976 777.586182 174.5 C 785.170593 148.650024 791.572205 125.981384 791.811951 124.125366 C 792.08606 122.003418 791.852051 120.889771 791.18158 121.125366 C 790.595154 121.331421 769.164368 144.858643 743.557617 173.408081 C 717.950928 201.957458 697 225.983704 697 226.799744 C 697 228.069153 698.768311 228.180664 709.25 227.572083 Z M 782.598206 222.579224 C 787.494202 222.182983 798.700012 221.235046 807.5 220.472717 C 816.299988 219.710388 826.814026 218.784485 830.864502 218.4151 C 838.228943 217.743591 838.228943 217.743591 837.688599 214.121765 C 837.391418 212.129822 830.355591 190.256775 822.053528 165.515076 C 813.751404 140.773376 806.316589 119.888 805.531738 119.103149 C 804.295654 117.867126 803.967163 117.998962 803.077332 120.088074 C 802.512268 121.414612 795.916687 143.424988 788.420532 169 C 780.924377 194.575012 774.5448 217.254944 774.243774 219.399841 C 773.696472 223.299683 773.696472 223.299683 782.598206 222.579224 Z M 852.951721 215.615112 C 854.903259 215.29834 866.849976 212.787964 879.5 210.036499 C 892.150024 207.285095 905.789001 204.314697 909.808899 203.435608 C 915.975891 202.087097 917.069519 201.542725 916.808899 199.951599 C 916.638977 198.914429 906.599976 189.814392 894.5 179.729309 C 882.400024 169.644165 860.164673 151.179382 845.088135 138.69635 C 830.011597 126.213379 817.247986 116 816.724609 116 C 816.201233 116 815.963928 117.237488 816.197327 118.75 C 816.430725 120.262512 823.517212 142.200012 831.945068 167.5 C 840.372986 192.799988 847.74884 214.105469 848.335999 214.84552 C 849.048157 215.743225 850.584534 215.99939 852.951721 215.615112 Z"/>
    <path id="canavese-e2" fill="#000000" fill-rule="evenodd" stroke="none" d="M 876 829.025574 L 876 753.974426 L 911.25 754.237183 L 946.5 754.5 L 946.5 766 L 946.5 777.5 L 931.5 778 C 916.5 778.5 916.5 778.5 916.5 781 C 916.5 783.5 916.5 783.5 930.5 784 C 944.5 784.5 944.5 784.5 944.5 792 C 944.5 799.5 944.5 799.5 930.25 799.777466 C 916 800.054932 916 800.054932 916 802.527466 C 916 805 916 805 929.808899 805 C 939.359558 805 944.150818 805.389771 945.346436 806.264038 C 946.829224 807.348328 947.034241 809.019897 946.787598 818.014038 L 946.5 828.5 L 911.25 828.762817 L 876 829.025574 Z"/>
    <path id="canavese-e1" fill="#000000" fill-rule="evenodd" stroke="none" d="M 666 829 L 666 754 L 701.5 754 L 737 754 L 737 765.973938 L 737 777.947876 L 721.75 778.223938 C 706.5 778.5 706.5 778.5 706.5 781 C 706.5 783.5 706.5 783.5 720.791565 783.77771 L 735.08313 784.05542 L 734.791565 791.77771 C 734.5 799.5 734.5 799.5 720.25 799.777466 C 706 800.054932 706 800.054932 706 802.501404 C 706 804.947876 706 804.947876 721.25 805.223938 L 736.5 805.5 L 736.781738 817.25 L 737.063477 829 L 701.531738 829 L 666 829 Z"/>
    <path id="comics-c" fill="#000000" fill-rule="evenodd" stroke="none" d="M 104.568497 934.952271 C 101.230827 934.926025 96.477425 934.196899 94.005386 933.332031 C 91.533348 932.467102 87.647453 930.477478 85.370064 928.910583 C 83.092674 927.343689 79.818527 923.931763 78.094185 921.328491 C 76.369835 918.72522 74.405731 914.773804 73.729507 912.547607 C 73.053276 910.321411 72.5 904.900024 72.5 900.5 C 72.5 895.181396 73.105186 890.931702 74.305595 887.820984 C 75.298676 885.247559 77.615211 881.172241 79.453453 878.764771 C 81.515182 876.064575 85.149109 873.133179 88.938248 871.113586 C 93.669655 868.591797 96.748466 867.713501 102.34008 867.290649 C 107.455719 866.903748 111.227699 867.214966 115.113495 868.344604 C 118.146255 869.226257 122.509758 871.311035 124.810165 872.977417 C 127.110573 874.64386 130.360153 877.894958 132.031464 880.202148 C 133.702759 882.509277 134.940567 885.070068 134.782135 885.892761 C 134.617126 886.749634 131.7854 888.255005 128.152985 889.41687 C 121.811882 891.445251 121.811882 891.445251 119.011177 888.013672 C 117.470795 886.126343 114.707642 883.776123 112.870842 882.791077 C 111.034042 881.805969 107.822227 881 105.733482 881 C 103.644737 881 100.487717 881.617004 98.71788 882.371094 C 96.948044 883.125244 94.50898 884.818848 93.297729 886.134766 C 92.086479 887.450684 90.398979 890.194214 89.547729 892.231506 C 88.69648 894.26886 88 898.214661 88 901 C 88 903.785339 88.69648 907.73114 89.547729 909.768494 C 90.398979 911.805786 92.086479 914.549316 93.297729 915.865234 C 94.50898 917.181152 96.948044 918.874756 98.71788 919.628906 C 100.487717 920.382996 103.539673 921 105.5 921 C 107.460327 921 110.545944 920.38092 112.356911 919.624207 C 114.167885 918.867554 117.042778 916.558289 118.74556 914.492493 C 121.118835 911.613281 122.385254 910.848633 124.170769 911.216614 C 125.451843 911.480652 128.449234 912.29718 130.83165 913.031128 C 134.534897 914.171936 135.099991 914.696594 134.727005 916.647766 C 134.487045 917.903076 133.05394 920.551575 131.542313 922.533386 C 130.030701 924.515259 126.966652 927.460388 124.733315 929.078247 C 122.499985 930.696045 118.414673 932.690308 115.654854 933.509888 C 112.895035 934.329468 107.906174 934.978516 104.568497 934.952271 Z"/>
    <path id="comics-o" fill="#000000" fill-rule="evenodd" stroke="none" d="M 277 934.706909 C 271.031738 934.927185 267.159668 934.540955 264 933.410156 C 261.524994 932.524414 258.149994 930.974487 256.5 929.96582 C 254.850006 928.957153 252.08255 926.639771 250.350113 924.815979 C 248.617676 922.992188 246.271393 919.736938 245.136139 917.582031 C 244.000885 915.427124 242.554749 911.172241 241.922485 908.126587 C 241.290222 905.081055 241.055588 900.094116 241.401062 897.044617 C 241.746552 893.995056 243.381882 888.726013 245.035156 885.335571 C 246.688416 881.945129 249.698807 877.715576 251.724915 875.936646 C 253.751022 874.157715 257.904266 871.531738 260.954376 870.101135 C 265.72168 867.865051 267.833313 867.502563 276 867.518066 C 284.100494 867.533447 286.310242 867.916199 291 870.115906 C 294.115814 871.577393 298.486481 874.832886 301.082581 877.625977 C 303.602997 880.337708 306.527985 884.79364 307.582581 887.528198 C 308.962433 891.106079 309.499817 895.023254 309.499359 901.5 C 309.49881 909.119751 309.097015 911.35675 306.879547 916.086487 C 305.438995 919.159058 302.553192 923.380127 300.466675 925.466675 C 298.380127 927.553223 294.159058 930.415283 291.086487 931.826782 C 286.787476 933.801819 283.541077 934.465576 277 934.706909 Z M 275.789825 920.960876 C 278.172394 920.982605 281.814636 920.114868 283.981903 919.009216 C 286.128143 917.914307 289.023376 915.524841 290.415802 913.69928 C 291.808228 911.873718 293.458801 908.157043 294.08374 905.440063 C 294.920715 901.801147 294.928192 899.42041 294.112122 896.401062 C 293.502777 894.146606 291.987152 890.771606 290.744049 888.901062 C 289.500946 887.030457 286.462494 884.458069 283.991943 883.184631 C 280.525787 881.39801 278.315826 880.958862 274.314453 881.261597 C 271.035278 881.509644 267.877289 882.511475 265.724274 883.986755 C 263.851746 885.269836 261.280365 887.836426 260.010101 889.690186 C 258.677032 891.635681 257.500977 895.138062 257.228455 897.974182 C 256.968781 900.676575 257.061584 904.514771 257.434662 906.503479 C 257.822784 908.572266 259.693298 911.870056 261.806519 914.211182 C 263.837921 916.46167 266.850006 918.892212 268.5 919.612366 C 270.149994 920.33252 273.43042 920.939331 275.789825 920.960876 Z"/>
    <path id="comics-s" fill="#000000" fill-rule="evenodd" stroke="none" d="M 925.5 935.245605 C 923.849976 935.49408 920.309387 935.296082 917.631958 934.805664 C 914.95459 934.315308 910.625671 932.830566 908.012268 931.506226 C 905.398804 930.181885 902.055481 927.666199 900.582642 925.915833 C 899.109741 924.165405 898.044128 922.009216 898.2146 921.124268 C 898.38501 920.239319 899.76825 918.919067 901.288452 918.190491 C 902.808594 917.461914 905.576721 916.618408 907.439758 916.31604 C 910.089722 915.886047 911.573975 916.33606 914.257935 918.383179 C 916.822937 920.3396 918.863708 921 922.344421 921 C 925.735229 921 927.56842 920.43158 929.092468 918.907532 C 930.462036 917.537964 930.992249 916.069702 930.627258 914.657532 C 930.320557 913.470886 929.168335 911.764465 928.066711 910.86554 C 926.965088 909.966553 922.918457 908.460266 919.074158 907.518188 C 915.229858 906.57605 910.061462 904.522339 907.588928 902.954224 C 904.800537 901.185913 902.245911 898.469666 900.861816 895.801636 C 899.364014 892.914368 898.645264 889.798706 898.675781 886.325745 C 898.708435 882.604065 899.458191 879.893799 901.346497 876.671753 C 903.139404 873.612366 905.339966 871.529724 908.287415 870.102905 C 910.661011 868.953857 914.708313 867.620422 917.281433 867.139771 C 920.063477 866.619995 924.075623 866.650269 927.179688 867.214478 C 930.050659 867.736267 934.039795 869 936.044495 870.022705 C 938.049194 871.04541 941.13385 873.527344 942.899292 875.538086 C 944.664795 877.548889 945.969421 879.937866 945.798462 880.847046 C 945.61084 881.844727 943.246521 883.272583 939.834534 884.448853 C 934.181458 886.397705 934.181458 886.397705 930.286987 883.698853 C 927.594055 881.832703 925.119873 881 922.2677 881 C 919.851196 881 917.492065 881.650818 916.571411 882.571411 C 915.707153 883.43573 915 885.450317 915 887.048401 C 915 888.978455 915.755371 890.425659 917.25 891.359131 C 918.487488 892.132019 922.804626 893.551208 926.843567 894.512817 C 931.611511 895.648071 935.642883 897.371643 938.33783 899.427124 C 940.620728 901.168396 943.496216 904.37207 944.727844 906.546509 C 946.22113 909.183044 946.967102 912.165588 946.967102 915.5 C 946.967102 918.840637 946.220825 921.817688 944.718323 924.470459 C 943.481506 926.654175 940.945923 929.467651 939.08374 930.722534 C 937.221558 931.977478 934.078369 933.406921 932.098938 933.899109 C 930.119507 934.391296 927.150024 934.997192 925.5 935.245605 Z"/>
    <path id="comics-c2" fill="#000000" fill-rule="evenodd" stroke="none" d="M 762 934.625122 C 757.875 934.78241 753.150024 934.554932 751.5 934.119568 C 749.849976 933.684265 746.612854 932.358032 744.306274 931.172424 C 741.999756 929.986816 738.568909 927.427307 736.68219 925.484619 C 734.795471 923.541931 731.97467 919.150635 730.413757 915.726257 C 728.023926 910.483215 727.569763 908.157715 727.537842 901 C 727.505493 893.735107 727.907166 891.628174 730.302246 886.5 C 731.843506 883.200012 734.768494 878.773621 736.802246 876.663574 C 738.835999 874.553589 742.700439 871.701599 745.389771 870.325928 C 748.685669 868.639954 752.613464 867.648132 757.439514 867.283142 C 762.499329 866.900452 766.251831 867.221985 770.233276 868.379456 C 773.331909 869.280212 777.798096 871.490051 780.158142 873.2901 C 782.518188 875.090149 785.719055 878.369812 787.271179 880.578247 C 789.029053 883.079407 789.8479 885.232788 789.442627 886.288879 C 789.083191 887.225647 786.521851 888.658447 783.718628 889.490906 C 779.263611 890.813904 778.392578 890.819519 776.572632 889.536987 C 775.432678 888.733704 773.256226 886.950439 771.736023 885.574158 C 770.215881 884.197937 767.221802 882.547485 765.08252 881.906555 C 762.943237 881.265625 759.624817 881.0354 757.708191 881.394958 C 755.791626 881.754517 752.749878 883.050232 750.94873 884.274353 C 749.147644 885.498474 746.735535 888.299988 745.588562 890.5 C 744.098816 893.357422 743.503113 896.356628 743.503113 901 C 743.503113 905.643372 744.098816 908.642578 745.588562 911.5 C 746.735535 913.700012 749.147644 916.501526 750.94873 917.725647 C 752.749878 918.949768 755.791626 920.245483 757.708191 920.605042 C 759.624817 920.9646 762.993469 920.719299 765.194092 920.059998 C 767.394714 919.400696 771.165588 917.044983 773.573853 914.825195 C 777.952454 910.789124 777.952454 910.789124 782.926697 911.982422 C 785.662537 912.638733 788.45697 913.845703 789.136597 914.664551 C 790.132568 915.864624 790.009399 916.827087 788.501465 919.627136 C 787.472534 921.53772 784.856384 924.703918 782.687744 926.663147 C 780.519165 928.622314 776.664734 931.15094 774.122375 932.282288 C 771.119507 933.61853 766.872375 934.439392 762 934.625122 Z"/>
    <path id="comics-i" fill="#000000" fill-rule="evenodd" stroke="none" d="M 602 934 L 602 868 L 609.5 868 L 617 868 L 617 901 L 617 934 L 609.5 934 L 602 934 Z"/>
    <path id="comics-m" fill="#000000" fill-rule="evenodd" stroke="none" d="M 420 934 L 420 868 L 428.477631 868 C 436.955261 868 436.955261 868 444.099518 878.75 C 448.028839 884.662476 452.037598 890.336182 453.007874 891.358215 C 454.710419 893.15155 455.064117 892.784912 463.136017 880.858215 C 471.5 868.5 471.5 868.5 480.25 868.21106 L 489 867.922119 L 489 900.96106 L 489 934 L 481.519043 934 C 474.584473 934 473.999451 933.835693 473.509033 931.75 C 473.218048 930.512512 472.871979 921.307312 472.73999 911.294067 L 472.5 893.088135 L 463.588715 906.203979 C 454.677429 919.319885 454.677429 919.319885 452.708588 916.909912 C 451.625732 915.584473 447.628601 909.873108 443.82608 904.218079 C 440.02356 898.562988 436.482117 894.202026 435.956207 894.5271 C 435.401001 894.870239 435 903.270752 435 914.559021 L 435 934 L 427.5 934 L 420 934 Z"/>
    <path id="bottom-star" fill="#000000" fill-rule="evenodd" stroke="none" d="M 226.337875 714.806763 C 224.757065 715.033081 222.108414 712.93335 216.246506 706.806763 C 211.875122 702.238037 197.897079 687.25 185.184189 673.5 C 172.471313 659.75 161.012146 647.686646 159.719391 646.692505 C 157.423889 644.927246 156.271194 645.074036 110.434464 652.969604 C 84.620506 657.41626 61.889797 661.312256 59.921768 661.627563 C 57.391045 662.032898 55.880199 661.737305 54.760788 660.61792 C 53.890278 659.747437 53.399654 658.187744 53.670513 657.151978 C 53.941376 656.116211 68.768188 636.870728 86.618988 614.384399 C 118.225967 574.569458 119.066658 573.395386 118.756744 569.5 C 118.581711 567.299988 115.329979 553.647339 111.530663 539.160767 C 106.232788 518.960205 104.873665 512.434448 105.699104 511.160767 C 106.342957 510.167267 107.9254 509.565735 109.637695 509.663574 C 111.21196 509.753571 129.375 516.674377 150 525.043213 C 170.625 533.411987 188.737015 540.619385 190.248917 541.059509 C 192.567749 541.734558 193.741135 541.260315 197.748917 538.02832 C 200.362015 535.921021 211.266754 526.502563 221.981659 517.098389 C 236.993591 503.922943 242.088074 500 244.186356 500 C 246.49176 500 247.007263 500.52179 247.547668 503.402405 C 247.898727 505.273712 247.506027 518.88623 246.674988 533.652405 C 245.164017 560.5 245.164017 560.5 248.832016 563.812988 C 250.849411 565.635071 272.975006 581.949402 298 600.067017 C 323.024994 618.18457 343.930908 633.961426 344.457581 635.126709 C 345.211395 636.794678 344.974731 637.602051 343.345154 638.921631 C 341.620483 640.318115 334.120453 641.074707 298.387573 643.456665 C 274.799408 645.029053 254.576477 646.649536 253.447723 647.057861 C 251.791061 647.657043 249.411774 653.747009 241.104919 678.650085 C 235.445114 695.617554 230.289429 710.625 229.647827 712 C 229.00621 713.375 227.516739 714.638062 226.337875 714.806763 Z"/>
    <path id="canavese-c" fill="#000000" fill-rule="evenodd" stroke="none" d="M 119.5 831.542664 C 111.858597 831.805725 104.931084 831.464478 100.427315 830.603149 C 96.537338 829.859131 91.307259 828.344788 88.804909 827.237915 C 86.302567 826.130981 82.365181 823.517822 80.055176 821.430908 C 77.745171 819.343933 74.985832 815.932373 73.923317 813.849731 C 72.860802 811.766968 71.325043 807.236328 70.510521 803.781494 C 69.695992 800.32666 69.022911 794.934631 69.014778 791.799194 C 69.006653 788.663818 69.505974 783.713806 70.124382 780.799194 C 70.74279 777.884644 72.368713 773.276978 73.737556 770.559937 C 75.106392 767.842834 77.43988 764.40625 78.92308 762.923096 C 80.406273 761.43988 83.950645 759.045227 86.799461 757.601624 C 89.648277 756.15802 95.163239 754.307068 99.054939 753.488464 C 102.946632 752.6698 110.402153 752 115.622749 752 C 120.843346 752 128.275742 752.522034 132.139191 753.160034 C 137.673874 754.074097 139.49144 754.820374 140.709183 756.678955 C 141.990906 758.635071 142.141678 761.125549 141.592453 771.26886 C 141.22821 777.995972 140.48848 784.549927 139.948608 785.833252 C 138.977722 788.141052 138.847839 788.158691 128.002472 787.455811 C 118.684563 786.851868 116.659599 786.993042 114.518951 788.39563 C 113.13353 789.303406 112 790.880615 112 791.900635 C 112 792.920593 112.649666 794.294312 113.443695 794.953247 C 114.419434 795.763062 118.552246 796.072754 126.193695 795.908813 C 132.41217 795.77533 138.132324 795.877014 138.905167 796.134766 C 139.937302 796.479004 140.567841 799.897217 141.280396 809.011047 C 141.847824 816.268677 141.887177 822.87207 141.375229 824.920288 C 140.617889 827.950256 139.893845 828.604309 136 829.775757 C 133.524994 830.520386 126.099998 831.31543 119.5 831.542664 Z"/>
    <path id="canavese-a1" fill="#000000" fill-rule="evenodd" stroke="none" d="M 190.968628 830 C 178.315338 830 173.927399 829.667419 172.46405 828.597351 C 170.593552 827.229614 170.588669 826.949829 172.267349 817.347351 C 173.214172 811.931335 176.17215 796.116699 178.840637 782.203796 C 181.509125 768.290894 184.233551 756.365845 184.894897 755.703796 C 185.768127 754.82959 194.665192 754.420654 217.388824 754.210266 C 246.253616 753.942993 248.843124 754.059326 250.780319 755.710266 C 252.521423 757.194092 253.666306 761.773315 257.478241 782.5 C 260.00705 796.25 262.84201 811.927002 263.778168 817.33783 C 265.439056 826.937378 265.433502 827.209839 263.549011 828.58783 C 262.063782 829.673828 257.664246 830 244.5 830 C 231.824188 830 226.909668 829.654419 225.561066 828.668335 C 224.559418 827.935913 223.455673 825.573364 223.108307 823.418335 C 222.509491 819.703186 222.272003 819.483276 218.528259 819.177124 C 215.645523 818.941406 214.231613 819.330322 213.289886 820.618225 C 212.580444 821.58844 212 823.395752 212 824.634399 C 212 825.873108 210.999878 827.587097 209.777496 828.443298 C 207.982819 829.700317 204.362106 830 190.968628 830 Z M 217.968613 798 C 219.085876 798 220.041733 797.4375 220.092743 796.75 C 220.143738 796.0625 220.137238 793.474976 220.078278 791 C 220.019333 788.525024 219.732208 785.037476 219.440231 783.25 C 219.148254 781.462524 218.316833 780 217.592621 780 C 216.678955 780 216.063995 782.338074 215.583755 787.637634 C 215.203094 791.838318 215.126907 795.888306 215.414444 796.637634 C 215.701981 797.386963 216.851349 798 217.968613 798 Z"/>
    <path id="canavese-n" fill="#000000" fill-rule="evenodd" stroke="none" d="M 314 830 C 300.333344 830 298.822235 829.822205 297 828 C 295.07843 826.07843 295 824.666687 295 792 C 295 759.064575 295.064148 757.935852 297.048584 755.951416 C 299.020782 753.979248 300.025787 753.91394 324.000366 754.201416 C 340.423553 754.398315 349.278168 754.875183 350.003662 755.601868 C 350.608704 756.207886 351.742828 760.707886 352.523926 765.601868 C 353.305054 770.49585 354.447388 777.537476 355.062439 781.25 C 355.67749 784.962524 356.590057 788 357.090363 788 C 357.59613 788 358 781.340088 358 773 C 358 759.333313 358.177765 757.822205 360 756 C 361.822235 754.177795 363.333344 754 377 754 C 390.666656 754 392.177765 754.177795 394 756 C 395.92157 757.92157 396 759.333313 396 792 C 396 824.939697 395.936096 826.063904 393.950623 828.049377 C 391.979248 830.020752 390.972473 830.087341 367.498779 829.799377 C 350.171417 829.586792 342.748108 829.151245 341.895294 828.297119 C 341.234741 827.635559 339.666565 820.692261 338.410461 812.867554 C 337.154358 805.042786 335.864594 797.596558 335.544281 796.320374 C 335.223969 795.044189 334.520477 794 333.980957 794 C 333.380554 794 333 800.207153 333 810 C 333 824.666687 332.833344 826.166687 331 828 C 329.177765 829.822205 327.666656 830 314 830 Z"/>
    <path id="canavese-a2" fill="#000000" fill-rule="evenodd" stroke="none" d="M 445.968628 830 C 433.257996 830 428.930756 829.669861 427.450012 828.587097 C 425.560272 827.205322 425.657013 826.407349 431.84436 792.337097 C 437.093414 763.433594 438.515961 757.201904 440.196289 755.75 C 442.030487 754.1651 445.125427 754 473 754 C 500.865173 754 503.972473 754.165649 505.82843 755.75 C 507.509766 757.185303 508.7164 762.085449 512.538574 783 C 515.101624 797.025024 517.931763 812.705933 518.827698 817.846436 C 520.406921 826.907288 520.39801 827.235779 518.537231 828.596436 C 517.06665 829.671753 512.614563 830 499.5 830 C 486.824188 830 481.909668 829.654419 480.561066 828.668335 C 479.559418 827.935913 478.455688 825.573364 478.108307 823.418335 C 477.509491 819.703186 477.272003 819.483276 473.528259 819.177124 C 470.645508 818.941406 469.231598 819.330322 468.289886 820.618225 C 467.580444 821.58844 467 823.395752 467 824.634399 C 467 825.873108 465.999878 827.587097 464.777496 828.443298 C 462.982819 829.700317 459.362122 830 445.968628 830 Z M 472.968628 798 C 474.085876 798 475.041718 797.4375 475.092743 796.75 C 475.143738 796.0625 475.137238 793.474976 475.078278 791 C 475.019318 788.525024 474.732208 785.037476 474.440247 783.25 C 474.148254 781.462524 473.307648 780 472.572174 780 C 471.636536 780 471.022644 782.265869 470.527924 787.54541 C 470.139038 791.695313 470.072052 795.745361 470.379028 796.54541 C 470.686035 797.345459 471.851349 798 472.968628 798 Z"/>
    <path id="canavese-v" fill="#000000" fill-rule="evenodd" stroke="none" d="M 588.860779 829.986328 C 563.957275 829.998657 561.022827 829.826782 559.213867 828.25 C 557.576599 826.822876 555.998596 820.168457 550.660889 792.181091 C 547.061035 773.305725 544.345764 757.262573 544.627014 756.529663 C 544.908264 755.796753 546.119751 754.933899 547.319153 754.612183 C 548.518616 754.290527 556.8125 754.021179 565.75 754.013672 C 580.445007 754.001343 582.183533 754.183533 583.917786 755.917786 C 585.115417 757.115417 586.046204 759.837769 586.396545 763.167786 C 586.705078 766.100464 587.443298 775.463745 588.037048 783.974915 C 588.630737 792.486145 589.315308 799.648621 589.558289 799.891602 C 589.801208 800.134521 590.257324 800.07605 590.571838 799.761475 C 590.886353 799.447021 591.730103 789.83667 592.446899 778.405212 C 593.6698 758.902283 593.888 757.509094 595.98584 755.810364 C 597.944031 754.224731 600.294556 754 614.919678 754 C 627.507507 754 632.080505 754.338379 633.497742 755.374695 C 635.316895 756.704834 635.175781 757.81366 629.139709 789.624695 C 625.70874 807.706116 622.454529 823.915039 621.908081 825.644531 C 621.306641 827.548096 620.043396 829.022644 618.707275 829.380859 C 617.493286 829.70636 604.062378 829.978821 588.860779 829.986328 Z"/>
    <path id="canavese-s" fill="#000000" fill-rule="evenodd" stroke="none" d="M 800.5 802 C 798.174988 800.473755 796.132019 800.023743 794.460083 800.01532 C 792.788147 800.006897 788.738159 799.305237 785.460083 798.456055 C 782.182068 797.606873 777.867004 795.836548 775.871155 794.522034 C 773.731689 793.112915 771.303345 790.192322 769.954468 787.406006 C 768.379883 784.15332 767.666687 780.878479 767.666687 776.901367 C 767.666687 772.717529 768.348694 769.797424 770.138 766.320557 C 771.547058 763.582397 774.305054 760.343018 776.554626 758.783997 C 778.724609 757.28009 783.200012 755.311768 786.5 754.409912 C 789.799988 753.508057 798.125 752.533936 805 752.245117 C 812.067688 751.948303 822.03302 752.242249 827.930664 752.92157 C 833.667542 753.582336 839.236938 754.591614 840.30719 755.164368 C 842.088013 756.117432 842.214539 757.066223 841.799011 766.352905 C 841.549255 771.933777 840.778625 777.555298 840.086365 778.845154 C 838.968201 780.92865 838.419067 781.09729 835.163879 780.356689 C 833.148743 779.898193 827.564941 779.517944 822.755493 779.511536 C 817.621033 779.504761 813.98822 779.912842 813.955872 780.5 C 813.925598 781.049988 816.960632 782.055786 820.700439 782.735107 C 824.440186 783.414429 829.248901 784.747925 831.386414 785.698486 C 833.523987 786.649048 836.348999 788.273315 837.664307 789.307922 C 838.979614 790.342529 840.889343 792.833984 841.908081 794.844543 C 842.926819 796.855042 844.062622 800.316711 844.432129 802.53717 C 844.801575 804.757568 844.608643 808.807617 844.003357 811.53717 C 843.398071 814.266724 841.797668 818.180969 840.446838 820.235474 C 838.961426 822.494751 835.977478 824.991211 832.896057 826.552673 C 830.093933 827.972595 824.431396 829.779175 820.312683 830.5672 C 816.168213 831.360168 807.616211 831.952637 801.162048 831.89386 C 794.747925 831.83551 785.350342 831.226257 780.278564 830.540039 C 775.206787 829.853821 770.369324 828.721436 769.528564 828.023743 C 768.393555 827.081726 768.01123 824.791382 768.043579 819.127563 C 768.067505 814.932373 768.463684 809.55127 768.924011 807.169556 C 769.384277 804.787842 770.188721 802.411255 770.71167 801.888306 C 771.312744 801.287231 773.82489 801.500732 777.541321 802.46875 C 780.774719 803.310913 786.588135 803.993103 790.460083 803.98468 C 794.332031 803.976257 798.174988 803.526245 799 802.98468 L 800.5 802 Z"/>
    <path id="hand" fill="#000000" fill-rule="evenodd" stroke="none" d="M 195.759995 489.499054 C 198.674133 489.86264 202.428329 489.977112 208.256638 489.880157 C 214.621475 489.774261 217.570847 489.564362 220.753281 488.990723 C 223.044327 488.57785 226.494843 487.83783 228.421097 487.346313 C 230.347336 486.854767 233.60733 485.836578 235.665527 485.083618 C 237.723709 484.330658 241.937637 482.46756 245.029831 480.94342 C 248.121979 479.419281 252.85376 476.714813 255.544952 474.933563 C 258.236115 473.152283 262.470642 470.058716 264.955017 468.05896 C 267.439423 466.059143 271.591064 462.460022 274.180969 460.060852 C 276.770874 457.661682 281.11615 453.281555 283.837158 450.327148 C 286.558197 447.372803 290.715515 442.673645 293.075623 439.884521 C 295.43576 437.095459 299.471405 432.123901 302.04364 428.836792 C 304.615936 425.549622 309.097626 420.414612 312.00293 417.425598 C 314.908264 414.436646 319.598206 409.383667 322.425079 406.196716 C 325.251923 403.009827 329.299316 398.283386 331.419281 395.693542 C 333.539246 393.103638 336.94519 388.78418 338.988037 386.094666 C 341.030914 383.405151 344.11261 379.146973 345.836243 376.631958 C 347.559906 374.117004 350.040649 370.28656 351.34906 368.119751 C 352.657532 365.953064 354.929932 361.735229 356.398987 358.746887 C 357.86795 355.758606 359.662964 351.602051 360.387848 349.510254 C 361.112823 347.418457 362.045258 344.076965 362.460114 342.084717 C 362.876282 340.085938 363.225586 337.001404 363.239471 335.202515 C 363.254486 333.261475 363.013062 330.916626 362.642639 329.406982 C 362.300476 328.01239 361.437286 325.68219 360.724335 324.228577 C 359.968506 322.687622 358.533844 320.629883 357.2836 319.293335 C 355.899597 317.813782 354.262726 316.540344 352.667175 315.701904 C 351.156647 314.908203 349.216736 314.241333 347.67984 313.987549 C 345.631134 313.64917 344.625946 313.673767 342.260406 314.119934 C 340.663086 314.421082 338.05777 315.17395 336.470734 315.792908 C 334.883759 316.411743 331.944305 317.783508 329.938599 318.841248 C 327.932892 319.898987 324.094818 322.259216 321.409576 324.086121 C 318.724335 325.913086 314.395386 329.104248 311.789673 331.177734 C 309.18399 333.251221 306.681061 335.14624 306.227692 335.388916 C 305.488342 335.784546 305.429688 335.760315 305.659393 335.154114 C 305.800323 334.782288 307.360901 332.033081 309.127441 329.044739 C 310.893982 326.056396 314.150024 320.35144 316.363129 316.367004 C 318.576141 312.382568 322.632874 304.640076 325.378052 299.161438 C 328.12326 293.682861 331.394928 286.918335 332.648499 284.129272 C 333.902069 281.340149 336.193054 275.875183 337.739624 271.984924 C 339.286133 268.094666 341.39386 262.426636 342.423431 259.389343 C 343.452972 256.351929 344.86438 251.792419 345.559814 249.256958 C 346.25528 246.721558 347.2948 242.365112 347.869904 239.575989 C 348.445007 236.786926 349.199005 232.385864 349.545471 229.796021 C 349.891968 227.206177 350.179504 222.723694 350.184448 219.834961 C 350.190186 216.459534 349.966949 213.246216 349.559662 210.842712 C 349.21106 208.785645 348.686127 206.177673 348.393158 205.04718 C 348.100128 203.916626 347.350311 201.881958 346.726868 200.525757 C 346.103394 199.169617 344.961151 197.341797 344.188568 196.464111 C 343.370148 195.534363 341.834351 194.400818 340.509003 193.748352 C 339.218506 193.113037 337.385101 192.543457 336.271942 192.432007 C 335.059937 192.310669 333.360474 192.458191 331.826813 192.817749 C 330.461182 193.138 327.771667 194.210083 325.850159 195.200256 C 323.928589 196.19043 320.930939 198.073608 319.188721 199.385132 C 317.446472 200.696594 314.306915 203.317444 312.211945 205.209106 C 310.116974 207.100769 306.590485 210.635681 304.375214 213.064514 C 302.160034 215.493347 298.641357 219.518005 296.55603 222.00824 C 294.470642 224.498535 290.783661 229.116516 288.362701 232.270325 C 285.941711 235.424194 281.780426 241.047729 279.115356 244.766968 C 276.450256 248.486267 270.776123 256.789612 266.506104 263.21875 C 262.236115 269.647949 258.616333 274.8302 258.462097 274.734863 C 258.307861 274.639526 259.76825 268.238281 261.707397 260.509888 C 263.646515 252.781433 266.139893 242.220276 267.24823 237.040466 C 268.356567 231.860657 269.926147 224.036743 270.736145 219.653809 C 271.546204 215.270935 272.688873 208.343445 273.275513 204.259399 C 273.862122 200.175415 274.595764 194.470398 274.905853 191.581665 C 275.215942 188.692871 275.57309 182.987915 275.699554 178.90387 C 275.843201 174.262207 275.770813 169.645142 275.506409 166.588379 C 275.273773 163.898865 274.676147 159.905396 274.178314 157.713928 C 273.531555 154.866821 272.711792 152.592163 271.306335 149.745056 C 270.224518 147.553589 268.521118 144.760437 267.521027 143.538025 C 266.520996 142.315613 264.696259 140.643372 263.466156 139.821899 C 262.236023 139.000549 260.321259 138.064392 259.21109 137.741577 C 257.774689 137.324036 256.425446 137.212891 254.532623 137.356018 C 252.626266 137.500183 251.195465 137.874084 249.482117 138.675842 C 248.167297 139.291138 246.096146 140.505554 244.879623 141.374634 C 243.663055 142.243652 241.363708 144.319519 239.769928 145.98761 C 238.176132 147.655762 235.957214 150.243103 234.838943 151.737305 C 233.720657 153.231445 231.739716 156.083923 230.436874 158.076172 C 229.134003 160.068359 227.063736 163.491333 225.836288 165.6828 C 224.608841 167.874268 221.999756 172.927246 220.038269 176.911682 C 218.076782 180.896118 215.009216 187.579102 213.221451 191.762756 C 211.433685 195.946411 208.502792 203.19989 206.708313 207.881653 C 204.913879 212.563354 202.147781 220.06134 200.561462 224.543823 C 198.975113 229.026306 196.49881 236.239075 195.058502 240.572144 C 193.618195 244.905151 192.294006 248.450439 192.115845 248.450439 C 191.929306 248.450439 191.88385 245.570679 192.008575 241.658813 C 192.127747 237.923401 192.040192 231.281189 191.814072 226.898254 C 191.587952 222.51532 191.149673 216.728882 190.840164 214.039368 C 190.530609 211.349854 189.878494 207.111877 189.391006 204.621643 C 188.903473 202.131348 187.998138 198.495972 187.379074 196.542908 C 186.759995 194.589905 185.541122 191.596008 184.670502 189.889648 C 183.799835 188.18335 182.254074 185.663086 181.235458 184.289124 C 180.216843 182.915039 178.544922 181.051025 177.520081 180.146912 C 176.495224 179.242676 174.166382 177.758667 172.344879 176.84906 C 169.326355 175.341614 168.740356 175.178467 165.728378 175.006714 C 163.363495 174.871887 161.753006 174.983826 160.065262 175.400269 C 158.768127 175.720398 156.275589 176.721436 154.526382 177.625 C 152.777145 178.528381 150.270813 180.154419 148.956741 181.238281 C 147.64267 182.322205 145.546906 184.394897 144.299469 185.844238 C 143.052078 187.293518 141.001312 190.051575 139.742294 191.973145 C 138.483276 193.894775 136.494766 197.444031 135.32338 199.860596 C 134.151993 202.276978 132.369766 206.822571 131.362823 209.961731 C 130.355927 213.100952 128.844208 218.521912 128.003479 222.00824 C 127.162697 225.494629 125.431 232.340576 124.15522 237.221558 C 122.87944 242.102539 120.771645 250.007996 119.471237 254.789307 C 118.17083 259.570618 115.88784 267.720642 114.397919 272.900391 C 112.908005 278.0802 110.543259 285.985657 109.143013 290.46814 C 107.742722 294.950623 105.291756 302.204102 103.696426 306.586975 C 102.101051 310.96991 99.841499 317.408386 98.675194 320.894775 C 97.508896 324.381165 95.795509 329.922913 94.867668 333.209778 C 93.939835 336.496643 92.631866 341.631165 91.961143 344.619751 C 91.290375 347.608337 90.341316 352.254089 89.852104 354.943604 C 89.362892 357.633118 88.711586 361.795227 88.404724 364.192627 C 88.0979 366.590149 87.652336 371.209961 87.414581 374.458984 C 87.14875 378.09137 87.073669 382.968628 87.219498 387.124268 C 87.349983 390.841309 87.695976 395.740112 87.98838 398.010742 C 88.280785 400.28125 88.949249 404.274719 89.473877 406.885132 C 89.998459 409.495544 90.979668 413.457153 91.654327 415.688782 C 92.328979 417.920471 93.534767 421.38739 94.333801 423.393066 C 95.132881 425.398804 96.542191 428.544373 97.465614 430.383301 C 98.388985 432.222229 100.023666 435.170105 101.098175 436.934082 C 102.172722 438.698181 104.164055 441.632141 105.523361 443.454102 C 106.882706 445.276062 109.309044 448.233765 110.915253 450.026733 C 112.521461 451.819702 115.391113 454.652222 117.292244 456.321106 C 119.19342 457.990051 122.585007 460.713989 124.82917 462.374268 C 127.073288 464.034668 130.707092 466.470886 132.904205 467.788269 C 135.101334 469.10553 139.506973 471.462097 142.694534 473.024994 C 145.882111 474.58786 151.400848 477.023315 154.958466 478.437042 C 158.516083 479.85083 163.883972 481.828094 166.88707 482.831024 C 169.890167 483.833923 174.477356 485.209412 177.080872 485.887604 C 179.684341 486.565857 184.014954 487.538971 186.704453 488.050079 C 189.393967 488.561157 193.468964 489.213226 195.759995 489.499054 Z M 218.363693 479.725159 C 216.47879 480.008118 212.292633 480.316864 209.061081 480.411316 C 205.829514 480.505768 201.31102 480.431427 199.019989 480.246063 C 196.728958 480.06076 192.898438 479.581116 190.507782 479.180237 C 188.117126 478.779327 183.390121 477.731232 180.003357 476.851135 C 176.616592 475.971008 170.951843 474.258148 167.415009 473.044708 C 163.878174 471.831299 158.254684 469.6875 154.918365 468.28064 C 151.582016 466.87384 146.896301 464.705322 144.505646 463.461853 C 142.11499 462.218323 138.616974 460.244873 136.732346 459.076477 C 134.847656 457.90802 131.669159 455.72113 129.669022 454.216736 C 127.668839 452.71228 124.096016 449.605591 121.729416 447.312988 C 119.362816 445.020325 116.097824 441.488342 114.473976 439.464111 C 112.850082 437.439941 110.264786 433.677551 108.728882 431.103394 C 107.192978 428.529114 105.044319 424.310913 103.954117 421.729614 C 102.863914 419.148254 101.396721 415.037964 100.693771 412.595581 C 99.990768 410.153259 99.090477 406.55957 98.693108 404.609619 C 98.295731 402.659668 97.764511 399.040771 97.512611 396.567749 C 97.260712 394.094727 97.054619 387.996277 97.054619 383.015747 C 97.054619 378.035217 97.262878 371.702942 97.517433 368.944092 C 97.771942 366.185303 98.458405 361.09137 99.042816 357.624329 C 99.627266 354.157227 100.850342 348.266113 101.760803 344.532959 C 102.67131 340.799805 104.132881 335.298706 105.008812 332.308472 C 105.884697 329.318115 107.836151 323.326294 109.345261 318.993469 C 110.854408 314.660583 113.403801 307.325623 115.01059 302.693481 C 116.617325 298.06134 119.209915 290.033508 120.771866 284.853699 C 122.333809 279.67395 124.839561 271.034973 126.340271 265.655945 C 127.840935 260.276917 130.303787 251.23053 131.813339 245.552673 C 133.322845 239.874817 135.792557 230.257813 137.30159 224.18158 C 138.810608 218.105347 140.618744 211.585388 141.319626 209.692749 C 142.020538 207.80011 143.296066 204.830078 144.154175 203.092529 C 145.012238 201.35498 146.643112 198.502502 147.77829 196.753662 C 148.970886 194.916382 151.239029 192.194763 153.150635 190.307251 C 155.584396 187.904175 157.129242 186.712952 158.994507 185.801025 C 161.127121 184.758545 161.936844 184.558044 164.089798 184.539917 C 166.075165 184.523193 167.073257 184.716248 168.537796 185.400269 C 169.576355 185.885437 171.205643 187.10791 172.158417 188.116943 C 173.111252 189.126038 174.56044 191.09259 175.378891 192.487183 C 176.197388 193.881775 177.356873 196.427673 177.955566 198.144897 C 178.55426 199.862061 179.381851 202.877625 179.794708 204.846008 C 180.20755 206.814392 180.790939 210.462463 181.091171 212.952698 C 181.391403 215.442993 181.820343 221.066467 182.044434 225.449341 C 182.290543 230.263062 182.35643 237.43396 182.210907 243.560425 C 182.0784 249.138611 181.72728 257.45166 181.430618 262.033752 C 181.134018 266.615845 180.566498 273.787842 180.169479 277.971497 C 179.772461 282.155151 179.096573 288.494202 178.667496 292.05835 C 177.972855 297.828064 177.943756 298.698059 178.402008 299.994385 C 178.685089 300.795105 179.328003 301.754578 179.830734 302.126465 C 180.333481 302.498291 181.330734 302.897644 182.046875 303.013855 C 182.913696 303.154541 183.7948 303.013611 184.682571 302.592407 C 185.50296 302.203003 186.271805 301.456055 186.68045 300.651001 C 187.045807 299.931335 188.428101 295.478943 189.752167 290.756592 C 191.076233 286.034363 193.386902 278.047363 194.886993 273.007751 C 196.387085 267.96814 198.822479 260.014404 200.298996 255.332642 C 201.775528 250.65094 204.271317 242.98999 205.845291 238.308228 C 207.41922 233.626526 209.884964 226.536011 211.324692 222.551575 C 212.764389 218.567139 215.293869 211.884216 216.945755 207.7005 C 218.597641 203.516846 221.282654 196.996826 222.91243 193.21167 C 224.542206 189.426453 227.485611 183.069458 229.453369 179.085022 C 231.421188 175.100586 234.44281 169.477112 236.168182 166.588379 C 237.893555 163.699585 240.224777 160.04718 241.348679 158.471741 C 242.472565 156.896301 244.614639 154.303589 246.108795 152.710327 C 247.602966 151.117126 249.640457 149.27594 250.636566 148.618896 C 251.632675 147.961914 253.209305 147.223328 254.140244 146.977661 C 255.615707 146.588196 256.018158 146.614502 257.278137 147.182739 C 258.07312 147.541138 259.200775 148.345886 259.784027 148.970825 C 260.367279 149.595886 261.343292 150.939148 261.952911 151.955872 C 262.562469 152.972595 263.487213 154.985535 264.007904 156.428894 C 264.528595 157.872437 265.185394 160.545044 265.467438 162.368103 C 265.749512 164.191223 266.083252 167.801819 266.209137 170.391663 C 266.335022 172.981567 266.257111 178.18457 266.036041 181.953857 C 265.814941 185.723145 265.323883 191.52124 264.944672 194.83844 C 264.565521 198.155701 263.765167 203.955139 263.166107 207.726257 C 262.567078 211.497314 261.420654 218.005676 260.618591 222.189392 C 259.816498 226.373047 258.277435 233.708069 257.198517 238.489319 C 256.119537 243.27063 254.073425 251.828125 252.651596 257.505981 C 251.229782 263.183838 248.857834 272.230225 247.380646 277.609253 C 245.903412 282.988281 243.645096 290.893799 242.362076 295.177002 C 241.079086 299.460266 239.433029 304.916565 238.704178 307.302063 C 237.388428 311.608582 237.383286 311.650513 237.982254 313.21875 C 238.361938 314.213013 239.006256 315.054932 239.721024 315.490723 C 240.368881 315.885742 241.52005 316.183777 242.401337 316.18457 C 243.648056 316.185608 244.186569 315.958801 245.192368 315.008667 C 245.877808 314.361145 247.932999 311.22345 249.759445 308.035889 C 251.585938 304.848328 255.013779 299.030762 257.376892 295.107971 C 259.73999 291.185059 263.76236 284.6651 266.315552 280.61908 C 268.868713 276.572998 273.579407 269.350586 276.783783 264.569275 C 279.988098 259.788025 284.847717 252.778992 287.582916 248.993774 C 290.318085 245.208557 294.452545 239.680481 296.77066 236.708984 C 299.088745 233.737671 302.951538 229.010681 305.354675 226.20459 C 307.757782 223.398621 311.497711 219.254456 313.665649 216.995544 C 315.833527 214.736572 319.312927 211.415833 321.397614 209.61615 C 323.482269 207.816345 326.262299 205.654724 327.5755 204.812378 C 328.888672 203.969971 330.706055 203.001831 331.614197 202.660828 C 332.598633 202.291077 333.983215 202.086426 335.043274 202.153931 C 336.594727 202.252747 336.924042 202.420166 337.627838 203.467651 C 338.071472 204.12793 338.69223 205.513367 339.007263 206.54657 C 339.322327 207.579651 339.817322 210.136475 340.1073 212.228271 C 340.397247 214.320068 340.637665 217.766602 340.641571 219.887085 C 340.645447 222.007629 340.480927 225.430603 340.27597 227.493774 C 340.070984 229.556885 339.587646 233.037903 339.201874 235.22937 C 338.816071 237.420837 337.911682 241.495789 337.192139 244.284912 C 336.472565 247.073975 334.940552 252.208496 333.787689 255.694885 C 332.634796 259.181274 330.779602 264.329712 329.66507 267.136047 C 328.550568 269.942322 326.263092 275.335938 324.581909 279.121948 C 322.900665 282.907898 319.562164 289.902771 317.163086 294.66626 C 314.763947 299.429688 310.893829 306.75 308.562836 310.933655 C 306.231842 315.117371 302.526764 321.555786 300.329376 325.241394 C 298.131989 328.927063 294.709686 334.550476 292.724304 337.738037 C 290.738892 340.925598 287.302917 346.299683 285.088837 349.680481 C 282.874725 353.061279 279.528778 358.032837 277.653381 360.728271 C 275.778015 363.423706 273.99472 366.298462 273.690521 367.116455 C 273.200378 368.434631 273.198273 368.763611 273.672089 370.008484 C 273.981171 370.820557 274.72049 371.759399 275.424591 372.233948 C 276.145721 372.719849 277.18985 373.054688 277.984283 373.054688 C 278.799255 373.054688 279.769989 372.734741 280.456696 372.239685 C 281.078583 371.791382 284.158905 368.917969 287.30191 365.854187 C 290.444946 362.790405 295.461487 357.995605 298.449829 355.198975 C 301.438141 352.402405 306.002136 348.277039 308.59201 346.031555 C 311.181915 343.786072 315.256897 340.380798 317.647552 338.464294 C 320.038208 336.547668 324.427368 333.34967 327.401245 331.357544 C 330.375092 329.365417 334.203186 327.060303 335.908081 326.235046 C 337.613007 325.409851 340.066315 324.441162 341.359863 324.08252 C 342.653442 323.723816 344.530365 323.430908 345.530792 323.431641 C 346.666931 323.432495 347.765991 323.686829 348.458588 324.109192 C 349.06842 324.481079 350.141327 325.455872 350.842743 326.275269 C 351.544189 327.094788 352.430695 328.688354 352.812775 329.81665 C 353.337891 331.367188 353.498993 332.805786 353.472656 335.708618 C 353.445953 338.644165 353.211517 340.387939 352.477692 343.108582 C 351.949677 345.066345 350.86322 348.234375 350.063385 350.148682 C 349.263519 352.062866 347.728699 355.292542 346.65271 357.3255 C 345.57666 359.358582 343.393555 363.118042 341.8013 365.679993 C 340.209076 368.241882 337.321747 372.538452 335.384979 375.227966 C 333.448242 377.91748 329.707733 382.807495 327.072754 386.094666 C 324.437744 389.381775 319.853668 394.838623 316.885834 398.220947 C 313.917999 401.60321 308.950897 406.982178 305.847778 410.174255 C 302.744598 413.366272 298.356171 418.341431 296.095612 421.230164 C 293.835022 424.118835 290.428284 428.356873 288.524994 430.647888 C 286.621735 432.938904 283.173889 436.932434 280.86319 439.522339 C 278.55249 442.112244 274.392181 446.495605 271.618103 449.263306 C 268.844025 452.030945 264.781342 455.838745 262.589874 457.725037 C 260.398438 459.611389 257.097565 462.289246 255.254623 463.675781 C 253.411728 465.062378 250.151733 467.272705 248.010193 468.587646 C 245.868698 469.902527 242.160568 471.913025 239.769928 473.055359 C 237.379272 474.197693 233.979507 475.638397 232.21492 476.256958 C 230.450317 476.875488 227.38298 477.793121 225.398666 478.296143 C 223.414322 478.799133 220.248596 479.442169 218.363693 479.725159 Z M 193.809341 440.030273 C 195.380264 440.195984 197.74855 440.35321 199.072174 440.3797 C 200.395782 440.406189 203.166794 440.255371 205.229935 440.044495 C 207.293076 439.833679 210.855606 439.26593 213.146637 438.782898 C 215.437668 438.299805 219.349686 437.214111 221.839951 436.370178 C 224.330231 435.526245 228.918167 433.573853 232.035431 432.031433 C 235.152664 430.489075 239.672607 427.910645 242.079742 426.301575 C 244.486938 424.692505 247.885956 422.221252 249.633163 420.809814 C 251.380371 419.398438 254.090897 417.000366 255.656509 415.480774 C 257.222137 413.961182 258.810791 412.228943 259.186798 411.631287 C 259.562866 411.033569 259.871155 409.956055 259.871857 409.236816 C 259.872681 408.430298 259.518921 407.406921 258.948883 406.566956 C 258.44046 405.817749 256.785217 403.648132 255.270554 401.745544 C 253.755905 399.842957 250.855743 396.398926 248.825821 394.092163 C 246.795883 391.785278 242.866714 387.69751 240.094376 385.007996 C 237.322006 382.318481 233.343887 378.751404 231.254044 377.081299 C 229.164246 375.411072 225.528137 372.751709 223.173782 371.17157 C 220.819473 369.591431 217.151993 367.376892 215.023804 366.250366 C 212.89566 365.12384 209.687408 363.567566 207.894424 362.791992 C 206.10144 362.016541 202.948715 360.828003 200.888367 360.150879 C 198.828049 359.473816 194.916046 358.502014 192.195038 357.991455 C 189.137024 357.417603 185.246811 356.982788 182.008011 356.852783 C 178.797394 356.723938 175.290497 356.813171 172.952469 357.08313 C 170.853775 357.3255 167.343735 357.902405 165.152283 358.365051 C 162.960815 358.827637 159.321762 359.819519 157.065384 360.569092 C 154.809021 361.318726 150.500732 363.137817 147.491409 364.611511 C 144.482071 366.085266 140.378693 368.364075 138.372772 369.67572 C 136.366852 370.987305 133.379227 373.109314 131.733582 374.391235 C 130.087921 375.673157 127.738838 377.649231 126.513329 378.782288 C 125.287872 379.915405 123.986183 381.331482 123.620689 381.929077 C 123.255196 382.526733 122.955536 383.602173 122.954834 384.318848 C 122.953812 385.269592 123.478622 386.458374 124.896072 388.716125 C 125.964516 390.417969 128.162521 393.662048 129.780487 395.925293 C 131.398453 398.188477 133.930603 401.557861 135.407486 403.412842 C 136.884354 405.267822 139.78009 408.667969 141.842484 410.968811 C 143.904922 413.269592 147.403503 416.768616 149.617157 418.744385 C 151.830811 420.720093 154.846344 423.253906 156.318268 424.375061 C 157.790176 425.496216 160.461517 427.383362 162.254501 428.568604 C 164.047485 429.753845 167.796509 431.840393 170.585602 433.205383 C 173.374695 434.570374 177.368195 436.248291 179.460022 436.934143 C 181.551865 437.619934 184.993546 438.529419 187.108246 438.955078 C 189.222946 439.380737 192.238464 439.864624 193.809341 440.030273 Z M 200.468872 428.227966 C 198.663651 428.745544 195.966492 429.189087 193.948898 429.300171 C 192.05629 429.404358 189.35112 429.361572 187.937439 429.205139 C 186.523743 429.048645 184.408737 428.642029 183.237488 428.301514 C 182.066193 427.960999 179.944153 427.130188 178.521881 426.455261 C 177.099625 425.780334 174.976608 424.519104 173.804077 423.652466 C 172.631592 422.785889 170.663773 420.994812 169.431152 419.672363 C 168.198532 418.349854 166.507202 416.118469 165.672623 414.713745 C 164.838074 413.30896 163.689468 410.808289 163.120224 409.156738 C 162.550934 407.505127 161.902054 404.859741 161.678314 403.278137 C 161.442505 401.61145 161.369949 398.930664 161.505737 396.901978 C 161.634583 394.976685 162.069672 392.211914 162.47258 390.758057 C 162.875443 389.304199 163.748093 387.012512 164.411743 385.665283 C 165.075424 384.318115 166.37207 382.15979 167.293198 380.868958 C 168.21431 379.578125 170.019943 377.577148 171.30571 376.42218 C 172.591476 375.267334 174.992966 373.543274 176.642334 372.591003 C 178.291656 371.638672 180.945129 370.432007 182.53891 369.909363 C 184.932617 369.124451 186.31778 368.929688 190.502167 368.790161 C 194.422012 368.659363 196.224274 368.761536 198.471039 369.241699 C 200.067886 369.583069 202.496643 370.338196 203.86824 370.9198 C 205.239838 371.501404 207.454559 372.703613 208.789902 373.591248 C 210.125229 374.479065 212.426254 376.473633 213.903351 378.023865 C 215.380402 379.574097 217.2845 382.01709 218.134613 383.45282 C 218.984756 384.888489 220.206955 387.657532 220.850693 389.60614 C 221.97348 393.005066 222.021057 393.384949 222.021057 398.949097 C 222.021057 404.550171 221.979462 404.875793 220.808167 408.445801 C 220.141068 410.479004 218.886826 413.291565 218.021011 414.695923 C 217.155212 416.10022 215.78096 418.038879 214.967163 419.003967 C 214.153351 419.969055 212.467422 421.586365 211.220612 422.597961 C 209.973831 423.609558 207.737366 425.091492 206.250763 425.891235 C 204.764114 426.690918 202.162277 427.742493 200.468872 428.227966 Z M 225.824387 425.04126 C 223.931793 425.880127 222.016556 426.680786 221.568283 426.820496 C 221.046539 426.983093 220.753281 426.923828 220.753281 426.655701 C 220.753281 426.425293 221.813461 424.825073 223.109283 423.099609 C 224.405045 421.374084 226.038361 418.872742 226.738831 417.540955 C 227.439316 416.209229 228.431702 414.008667 228.944122 412.651001 C 229.456558 411.293213 230.18454 408.772827 230.561829 407.049988 C 230.939087 405.327148 231.349152 402.556152 231.473099 400.892212 C 231.603622 399.139221 231.516113 396.648132 231.26506 394.969055 C 231.026688 393.375305 230.743347 391.37854 230.635361 390.53186 C 230.480652 389.318665 230.554001 388.992432 230.981491 388.992432 C 231.279861 388.992432 233.786804 391.319519 236.552505 394.163818 C 239.318207 397.007996 243.194138 401.252563 245.16571 403.59613 C 247.137268 405.939697 248.821518 408.229187 248.908463 408.683899 C 249.037308 409.358032 248.49614 409.990906 245.976593 412.112549 C 244.27713 413.543701 241.614899 415.627625 240.060516 416.743652 C 238.506119 417.85968 235.441391 419.840027 233.249939 421.144409 C 231.058472 422.448792 227.716995 424.202393 225.824387 425.04126 Z M 153.25795 408.099609 C 153.398376 408.669922 153.2966 408.914612 152.918854 408.914612 C 152.621979 408.914612 150.922562 407.391052 149.142365 405.528931 C 147.362167 403.666809 144.517273 400.410278 142.820374 398.292236 C 141.123474 396.174072 138.394974 392.574402 136.756973 390.292969 C 135.119019 388.011536 133.751801 385.785217 133.718674 385.34552 C 133.679016 384.819458 134.150589 384.118896 135.09761 383.296814 C 135.88913 382.60968 137.67778 381.190063 139.072327 380.142029 C 140.466873 379.093994 143.319366 377.201294 145.411194 375.935791 C 147.503036 374.67041 150.960068 372.852234 153.093506 371.895386 C 155.226959 370.938538 158.486954 369.659485 160.337936 369.052917 C 162.188934 368.44635 164.518387 367.856506 165.514496 367.742126 C 166.235611 367.659363 166.669601 367.609558 166.755737 367.759521 C 166.88591 367.986206 166.221298 368.669312 164.552078 370.385071 C 163.026611 371.952942 160.944626 374.349609 159.925446 375.710938 C 158.90625 377.072266 157.261093 379.847046 156.269485 381.877197 C 155.277939 383.907349 154.044693 387.194458 153.529037 389.182007 C 152.917923 391.537354 152.519669 394.246399 152.385422 396.961304 C 152.261841 399.460938 152.354996 402.358154 152.618408 404.20575 C 152.859772 405.899109 153.147583 407.651306 153.25795 408.099609 Z"/>
    <path id="trophy" fill="#000000" fill-rule="evenodd" stroke="none" d="M 486.176971 693.702881 C 406.759308 693.856873 380.663788 693.615601 378.034637 692.702881 C 376.090027 692.027893 373.588715 690.041626 372.3349 688.176758 C 371.106018 686.348938 369.817871 682.968384 369.472382 680.664307 C 369.126862 678.360229 368.99173 667.480713 369.172089 656.487549 C 369.423096 641.187866 369.851807 635.817505 371 633.589966 C 371.825012 631.98938 373.769135 629.73938 375.320282 628.589966 C 377.937195 626.650696 379.667633 626.477966 399.320282 626.194519 C 410.969116 626.026489 420.905823 625.485657 421.401855 624.992676 C 421.937225 624.460571 421.223724 618.489258 419.646027 610.298157 C 418.184296 602.709167 416.428467 595.412231 415.744171 594.082642 C 414.646912 591.950745 413.201233 591.45105 403.5 589.850769 C 397.450012 588.852783 388.225006 586.693726 383 585.052856 C 377.774994 583.412109 369.759033 580.256348 365.186737 578.040161 C 360.614441 575.823975 354.089417 572.023804 350.686737 569.595337 C 347.284027 567.16687 341.536285 562.101929 337.91394 558.339966 C 334.291595 554.578003 329.696869 549.025024 327.70343 546 C 325.710022 542.974976 322.246704 536.577698 320.007233 531.783813 C 317.767761 526.989868 315.012543 519.564819 313.884552 515.283813 C 312.756561 511.002716 311.580048 503.49881 311.27005 498.608459 C 310.937408 493.360352 311.201508 487.030212 311.914581 483.160095 C 312.579071 479.553833 314.604218 473.430023 316.414948 469.551636 C 318.225647 465.673218 321.793823 459.691956 324.344238 456.259888 C 326.894653 452.82782 332.698029 447.077087 337.240662 443.480591 C 341.783295 439.884033 349.890472 434.683289 355.256592 431.923401 C 360.622711 429.163513 368.047699 425.781189 371.756592 424.407104 C 375.465454 423.03302 378.913666 421.308289 379.41925 420.574341 C 379.924835 419.840332 380.374817 416.71936 380.41925 413.638794 C 380.489044 408.796875 380.909058 407.628662 383.517975 405.020081 C 385.854218 402.684143 388.677856 401.459839 396.017975 399.60022 C 401.233093 398.278931 410.90918 396.280518 417.520355 395.159241 C 424.131561 394.037964 436.459991 392.575134 444.91687 391.908447 C 454.385345 391.162109 467.440674 390.935486 478.896515 391.318726 C 489.128418 391.661011 503.350006 392.627258 510.5 393.466003 C 517.650024 394.304688 527.775024 395.659607 533 396.476807 C 538.224976 397.294067 548.349976 399.126526 555.5 400.548889 C 562.650024 401.971313 571.99054 404.05481 576.256714 405.178894 C 580.522888 406.30304 585.119934 408.093079 586.47229 409.15686 C 587.824646 410.220642 589.368469 412.674988 589.903015 414.611023 C 590.583862 417.07666 590.480652 420.2005 589.558533 425.039917 C 588.57605 430.196228 588.528503 432.313293 589.371033 433.385559 C 589.991943 434.175781 594.597412 436.859131 599.605408 439.348572 C 604.613342 441.838013 612.351624 446.618286 616.801575 449.971436 C 621.393494 453.431519 627.583801 459.404846 631.115906 463.783997 C 634.538879 468.027832 639.276306 475.577301 641.643616 480.560638 C 644.010925 485.544006 646.595581 492.743988 647.387268 496.560638 C 648.178894 500.377289 649.124146 506.424988 649.487793 510 C 649.85144 513.575012 649.650452 520.549988 649.041138 525.5 C 648.431824 530.450012 647.258118 537.200012 646.432922 540.5 C 645.607727 543.799988 643.591125 549.377075 641.95166 552.893433 C 640.312195 556.409912 636.933044 562.142578 634.442505 565.632813 C 631.951965 569.122986 627.121033 574.240479 623.707092 577.004944 C 620.293213 579.769409 613.933167 583.888306 609.573669 586.157959 C 605.214233 588.427673 597.937561 591.546509 593.40332 593.088745 C 588.869141 594.63092 581.411011 596.607178 576.829651 597.480408 C 572.248352 598.353638 565.892944 599.343933 562.706482 599.68103 C 558.878113 600.08606 556.620667 600.84021 556.051208 601.904358 C 555.577148 602.790039 554.418274 607.710449 553.475891 612.838562 C 552.508606 618.10199 552.140747 622.531189 552.631165 623.009277 C 553.109009 623.475098 561.905823 624.001038 572.179565 624.178101 C 589.301575 624.473145 591.094299 624.674866 593.679565 626.597168 C 595.230774 627.75061 597.174988 629.883911 598 631.337891 C 599.2229 633.493164 599.5 638.602905 599.5 659 C 599.5 679.397095 599.2229 684.506836 598 686.662109 C 597.174988 688.116089 595.229614 690.24939 593.677002 691.402832 C 590.85675 693.497925 590.750549 693.500244 486.176971 693.702881 Z M 589.5 634.5 C 550.456543 634.007813 546.149475 633.672729 544.164063 632.371826 C 541.943359 630.916748 541.788208 630.315063 542.299927 625.142334 C 542.606873 622.039063 544.023804 613.882202 545.448669 607.016113 C 546.873474 600.149902 548.65625 593.915161 549.410278 593.161133 C 550.216125 592.355286 555.669922 591.207275 562.640625 590.376221 C 569.163269 589.598511 578.98999 587.823975 584.477844 586.432739 C 589.965637 585.041504 598.724121 581.812988 603.941162 579.258301 C 611.157166 575.72467 615.265381 572.856567 621.111816 567.270996 C 626.84845 561.790161 629.699402 558.099487 632.356323 552.714294 C 634.313965 548.74646 636.722168 542.135376 637.707825 538.023071 C 638.995361 532.651611 639.5 526.549438 639.5 516.352905 C 639.5 505.935974 639.024414 500.342407 637.712524 495.329803 C 636.72937 491.573395 634.292786 485.196106 632.297913 481.15799 C 629.911621 476.327759 626.116638 471.100952 621.204956 465.879761 C 617.098755 461.514832 610.425476 455.768188 606.375488 453.109375 C 602.325439 450.450562 595.521667 446.793396 591.25592 444.9823 C 586.990173 443.171143 582.429382 441.035767 581.12085 440.237 C 578.929565 438.899353 578.790527 438.339172 579.359192 433.142334 C 579.698853 430.039063 580.269287 425.32843 580.626953 422.674316 C 581.097656 419.180908 580.893799 417.46637 579.888611 416.464233 C 579.124878 415.70282 572.875 413.71814 566 412.053833 C 559.125 410.389526 548.151917 408.118835 541.615295 407.007874 C 535.078735 405.896912 522.703735 404.203125 514.115295 403.243958 C 502.776794 401.977661 490.42041 401.5 469 401.5 C 447.126892 401.5 436.009735 401.941345 426 403.207031 C 418.575012 404.145874 408.225006 405.880798 403 407.062439 C 397.774994 408.24408 392.484192 409.850952 391.242645 410.633301 C 389.258331 411.883667 389.071716 412.566467 389.69989 416.277893 C 390.092926 418.600037 390.365356 421.568359 390.305298 422.874146 C 390.245239 424.179932 389.364502 426.040161 388.348053 427.007935 C 387.331635 427.975708 382.843445 429.963135 378.374359 431.424438 C 373.905243 432.885803 366.480255 435.980469 361.874359 438.301514 C 357.268463 440.622559 350.954834 444.21991 347.844086 446.295593 C 344.733337 448.371277 339.108337 453.322388 335.344086 457.298096 C 331.551636 461.303528 327.242249 467.120911 325.679169 470.345032 C 324.127716 473.545135 322.171906 479.38916 321.332977 483.331726 C 320.362885 487.890594 319.988708 493.230164 320.305023 498 C 320.578583 502.125 321.782196 509.313324 322.979706 513.97406 C 324.177216 518.634766 326.918488 526.138794 329.071411 530.649658 C 331.224365 535.160522 335.620026 542.166016 338.839569 546.217407 C 342.059082 550.268921 347.574768 555.845703 351.096619 558.610291 C 354.6185 561.374878 359.75 564.986816 362.5 566.636841 C 365.25 568.286804 370.875 571.032349 375 572.738037 C 379.125 574.443726 386.231567 576.789917 390.792358 577.951782 C 395.353149 579.113586 403.856873 580.690979 409.689484 581.457031 C 417.300049 582.456543 420.794617 583.365112 422.066467 584.674927 C 423.257263 585.901245 425.055939 592.569092 427.549225 605 C 429.590027 615.174988 431.488678 625.446533 431.768463 627.825684 C 432.146271 631.038208 431.846832 632.582275 430.605011 633.825684 C 429.160767 635.27179 425.564087 635.568115 404.216431 636 L 379.5 636.5 L 379.230255 658.977356 C 379.081909 671.339966 379.180267 682.027466 379.448883 682.727356 C 379.839844 683.746216 400.656097 684 483.846161 684 C 570.792847 684 587.941406 683.775513 588.896301 682.625 C 589.697083 681.660034 589.957336 674.27771 589.768738 657.875 L 589.5 634.5 Z M 563.6922 547.662537 C 561.350464 548.042542 560.007141 547.713562 559.013977 546.516846 C 557.867798 545.135742 557.824219 543.655151 558.768127 538.169006 C 559.39917 534.501099 562.204895 519.575012 565.002991 505 C 567.801086 490.424988 570.857605 475.350006 571.795227 471.5 C 573.369751 465.034668 573.716736 464.475159 576.337646 464.17511 C 578.116821 463.971436 580.569885 464.773132 582.914001 466.324402 C 584.970276 467.685181 588.524963 470.925598 590.813354 473.525269 C 593.101685 476.125 596.206909 480.782806 597.713867 483.876007 C 600.136169 488.848175 600.456421 490.660645 600.476868 499.514099 C 600.499756 509.432251 600.45459 509.622162 595.758545 519.335571 C 592.225891 526.642578 589.54895 530.595093 585.258545 534.838989 C 582.09137 537.971802 576.682373 542.018799 573.238586 543.832275 C 569.7948 545.645752 565.498962 547.369324 563.6922 547.662537 Z M 387.112335 541.419434 C 390.075562 542.21637 395.875 542.891357 400 542.919434 C 404.224243 542.948242 408.591919 542.411865 410 541.691528 C 412.222595 540.554504 412.491333 539.807129 412.421967 534.956299 C 412.379059 531.955322 409.524841 515.549988 406.079285 498.5 C 402.24942 479.548553 399.207367 466.819824 398.252289 465.75 C 397.393036 464.787476 395.844818 464 394.811768 464 C 393.778717 464 390.585968 465.187317 387.716766 466.638428 C 384.847534 468.0896 379.799988 471.103516 376.5 473.33606 C 373.200012 475.568634 368.156158 479.733337 365.291443 482.590973 C 362.426758 485.448608 358.826752 490.3479 357.291443 493.478333 C 355.084717 497.977783 354.5 500.56604 354.5 505.834991 C 354.5 511.085938 355.084961 513.691162 357.257172 518.114258 C 358.77359 521.202148 362.264496 525.97876 365.014709 528.729004 C 367.764954 531.479248 372.64978 535.133667 375.869904 536.849976 C 379.089996 538.566284 384.149109 540.622559 387.112335 541.419434 Z M 571.758423 534.550537 C 572.716309 534.189148 575.663269 531.779968 578.30719 529.196777 C 580.951172 526.613525 584.399658 522.25 585.97052 519.5 C 587.541382 516.75 589.595886 511.832336 590.536072 508.571899 C 591.660583 504.67215 592.072205 500.732635 591.739014 497.05835 C 591.460449 493.986359 590.270813 489.45401 589.095398 486.98645 C 587.919983 484.51889 586.180176 481.508759 585.229126 480.297272 C 584.278137 479.085754 582.741638 477.811279 581.814758 477.465118 C 580.507568 476.976898 579.885864 477.695404 579.043518 480.667847 C 578.446228 482.775543 575.919678 495.254486 573.428894 508.398895 C 570.938171 521.543274 569.151489 532.952454 569.458557 533.752625 C 569.805481 534.656616 570.676331 534.95874 571.758423 534.550537 Z M 401.963257 533.043884 C 401.158478 533.552856 399.600006 533.923645 398.5 533.867798 C 397.399994 533.81189 394.081757 533.364502 391.126099 532.873535 C 388.170471 532.382507 383.445465 530.829773 380.626099 529.422974 C 377.806732 528.016113 373.802246 525.219116 371.727234 523.207397 C 369.652222 521.195618 366.839722 517.312622 365.477234 514.578491 C 364.114746 511.84433 363 507.890747 363 505.792755 C 363 503.694763 363.952667 499.951477 365.117065 497.474365 C 366.338196 494.876495 370.099609 490.331848 374.005341 486.73526 C 377.729523 483.305878 382.792755 479.416687 385.256989 478.092621 C 387.721191 476.768555 390.397614 475.938599 391.20459 476.24826 C 392.225067 476.639862 393.975281 483.310211 396.952789 498.15564 C 399.307343 509.89505 401.727142 522.339111 402.330139 525.809204 C 403.249725 531.101074 403.190552 532.267578 401.963257 533.043884 Z"/>
    <path id="top-star" fill="#000000" fill-rule="evenodd" stroke="none" d="M 648 366.771851 C 646.23938 366.963257 625.833069 355.799622 579 329.023987 C 542.424988 308.11322 511.994476 291.003357 511.376648 291.002197 C 510.758789 291.000977 496.358795 302.480835 479.376648 316.513 C 462.394501 330.545166 447.449402 342.303467 446.165375 342.642639 C 444.715424 343.025635 443.266205 342.694763 442.340973 341.769531 C 441.335449 340.764038 439.925171 333.368225 438.002197 319.016479 C 436.435242 307.321655 434.750732 297.350769 434.25885 296.858826 C 433.733032 296.333008 424.32666 298.456665 411.432251 302.012329 C 398.893036 305.470032 388.001038 307.940247 386 307.78009 C 382.83136 307.526489 382.503143 307.216003 382.533051 304.5 C 382.553436 302.650208 391.536743 283.345642 405.963989 254.14856 C 427.115509 211.343201 429.263092 206.5354 428.333038 204.071411 C 427.767181 202.572266 415.676788 182.255432 401.465485 158.922852 C 385.868439 133.315125 375.4599 115.218201 375.205841 113.266113 C 374.856995 110.585815 375.188507 109.881775 377.142487 109.153259 C 378.472229 108.65741 391.27063 108.608215 406.5 109.040283 C 421.350006 109.461609 433.7258 109.441589 434.001801 108.995728 C 434.277802 108.549927 433.894501 98.356018 433.150055 86.34259 C 432.344452 73.342102 432.141296 63.08313 432.648254 61 C 433.233887 58.593567 434.138611 57.408569 435.543915 57.207458 C 436.744934 57.035583 442.834747 60.220581 450.31076 64.930725 C 457.30838 69.339417 481.965515 84.909668 505.104431 99.531311 C 529.270203 114.80188 547.95459 125.985046 549.006531 125.808044 C 550.030273 125.635864 567.418701 104.689453 588.434387 78.3125 C 609.112488 52.359375 626.976868 30.824768 628.132996 30.457764 C 629.541016 30.010925 630.815491 30.403015 631.993042 31.645325 C 632.9599 32.665405 637.464355 43.174988 642.00293 55 C 646.541443 66.825012 650.759949 77.007629 651.37738 77.628113 C 652.092712 78.346924 660.027344 78.996887 673.248535 79.419678 C 684.660217 79.784607 704.910217 80.478699 718.248535 80.962158 C 731.586853 81.445618 743.787415 82.334778 745.360962 82.937988 C 747.730286 83.846375 748.152405 84.50824 747.817566 86.789734 C 747.535461 88.711548 728.072937 111.566101 683.456604 162.367676 C 648.280457 202.420288 619.112061 235.872925 618.637939 236.706787 C 618.066101 237.712524 618.40271 239.030518 619.637939 240.622314 C 620.662048 241.942017 631.625 253.594177 644 266.515991 C 656.375 279.437866 670.065796 293.847046 674.42395 298.536377 C 678.80304 303.248169 682.381897 307.99646 682.42395 309.150208 C 682.465759 310.298523 681.737183 311.729065 680.80481 312.329285 C 679.503479 313.167053 673.697266 312.186401 655.813354 308.108276 C 643.000366 305.186462 630.989563 302.548035 629.12262 302.245056 C 625.83783 301.711975 625.743958 301.788025 626.218018 304.597107 C 626.487488 306.193665 632.200806 319.565613 638.914368 334.3125 C 646.99884 352.07074 651.015991 362.032471 650.810364 363.8125 C 650.576477 365.837646 649.883911 366.567017 648 366.771851 Z M 540.5 221 C 545.297302 221 547.46936 220.484375 550.078308 218.726196 C 551.934082 217.475586 554.514526 214.888123 555.812744 212.976196 C 557.824341 210.01355 558.120361 208.536499 557.816711 202.9776 C 557.55365 198.16333 556.854248 195.604065 555.145935 193.204956 C 553.873047 191.417358 551.087402 189.06488 548.955627 187.977356 C 546.66748 186.810059 543.117432 186.006714 540.289856 186.016479 C 537.18866 186.0271 534.096985 186.827515 531.520386 188.286804 C 529.289063 189.550598 526.550598 192.289063 525.286804 194.520386 C 523.779419 197.181946 523.032898 200.156006 523.032898 203.5 C 523.032898 206.840637 523.779175 209.817688 525.281677 212.470459 C 526.518494 214.654175 529.052673 217.466675 530.913086 218.720459 C 533.531189 220.484741 535.698059 221 540.5 221 Z"/>
</svg>
