<?xml version="1.0" encoding="UTF-8"?>
<!-- Generated by Pixelmator Pro 3.8 -->
<svg width="1024" height="984" viewBox="0 0 1024 984" xmlns="http://www.w3.org/2000/svg">
    <path id="triangle" fill="#000000" fill-rule="evenodd" stroke="none" d="M 813.835266 415 C 817.191895 408.28949 827.084473 400.987366 874.5 367.909851 C 905.849976 346.039856 932.721497 327.856079 934.214417 327.501465 C 935.757263 327.13501 938.131042 327.427124 939.714417 328.178345 C 941.24646 328.905273 943.290955 331.117188 944.25769 333.093689 C 945.72583 336.095459 946.874023 349.605347 951.227722 415.105469 C 955.770447 483.44986 956.265686 493.944397 955.082825 496.799988 C 954.336426 498.60202 952.973267 500.479095 952.053711 500.971283 C 951.134094 501.46344 949.283325 502.131958 947.940857 502.456879 C 946.431641 502.822144 943.973267 502.265411 941.5 500.99826 C 939.299988 499.871124 910.5 481.739746 877.5 460.70636 C 824.490967 426.919678 817.286499 422.028931 815.667664 418.731873 L 813.835266 415 Z M 945.975769 496 C 946.954407 496 948.20929 495.4375 948.764404 494.75 C 949.451355 493.89917 948.091248 468.383484 944.505127 414.845886 C 941.607422 371.586121 938.931763 335.698608 938.559265 335.095886 C 938.186768 334.493164 936.895996 334.01062 935.690979 334.023621 C 934.45459 334.036926 909.352722 350.919678 878.075989 372.773621 C 847.592834 394.07312 822.170105 412.287476 821.581116 413.25 C 820.819153 414.495178 820.821045 415.504822 821.587769 416.75 C 822.18042 417.712524 850.009827 435.9375 883.430847 457.25 C 916.851929 478.5625 944.997131 496 945.975769 496 Z"/>
    <path id="arch" fill="#000000" fill-rule="evenodd" stroke="none" d="M 777.795471 685.859558 C 768.832947 685.782349 742.375 685.150757 719 684.456116 C 686.731384 683.497192 675.898132 682.861877 674 681.817139 C 672.446045 680.961792 670.970947 678.779663 670.101929 676.050659 C 669.006592 672.610901 668.848938 667.853516 669.373901 654.080078 C 669.742432 644.411011 670.729736 630.424988 671.567993 623 C 672.406189 615.575012 674.404114 602.940796 676.007813 594.924072 C 677.61145 586.907227 680.529846 575.432251 682.493103 569.424072 C 684.456421 563.415833 688.721069 552.991638 691.970154 546.259155 C 695.219238 539.526733 700.71759 529.867676 704.188782 524.794556 C 707.659973 519.721558 713.650024 512.380493 717.5 508.481262 C 721.349976 504.582001 727.875 498.995331 732 496.066467 C 736.125 493.137573 743.549988 488.800507 748.5 486.428528 C 753.450012 484.056549 761.099976 480.966492 765.5 479.561737 C 769.900024 478.157013 778.832214 476.105927 785.349365 475.003845 C 791.866516 473.901733 801.799744 473 807.423157 473 C 813.04657 473 821.889343 473.715668 827.073792 474.590363 C 832.258179 475.465057 839.855652 477.293152 843.957031 478.652771 C 848.05835 480.012421 855.708374 483.342834 860.957031 486.053711 C 866.205627 488.764618 873.618408 493.332947 877.429871 496.205627 C 881.241272 499.078278 887.482056 504.551056 891.29834 508.36731 C 895.114624 512.183594 901.4505 519.624634 905.378052 524.902954 C 909.305603 530.181335 914.626831 538.099976 917.203003 542.5 C 919.779175 546.900024 924.347534 555.674988 927.354919 562 C 930.362305 568.325012 934.657104 578.450012 936.898926 584.5 C 939.140747 590.549988 942.325378 600.028992 943.975891 605.564453 C 945.626465 611.099854 948.114746 620.669434 949.505432 626.830078 C 950.896118 632.990723 952.310303 640.675171 952.64801 643.906677 C 953.215271 649.33374 953.080444 649.899048 950.881042 651.314331 C 949.571472 652.156982 929.825012 656.973938 907 662.018555 C 884.174988 667.063232 863.839661 671.428406 861.810425 671.718933 C 859.781128 672.009399 857.013611 671.969238 855.660339 671.629639 C 854.077698 671.232361 852.807434 669.886353 852.099915 667.856812 C 851.494995 666.12146 851 660.819397 851 656.074585 C 851 651.329712 850.545837 643.634338 849.990784 638.973755 C 849.43573 634.313232 848.240295 627.349976 847.334229 623.5 C 846.428162 619.650024 844.851135 614.535767 843.829712 612.135132 C 842.808289 609.734436 841.016418 606.427368 839.847717 604.786133 C 838.679077 603.144897 836.322754 600.948303 834.61145 599.904785 C 832.838989 598.823975 829.656738 598.005859 827.216736 598.003723 C 824.649658 598.001465 821.04364 598.967957 818.216736 600.415771 C 815.622559 601.744507 811.617188 604.781982 809.315918 607.165771 C 807.014709 609.549622 803.985474 613.798828 802.584351 616.608582 C 801.183228 619.418335 799.400024 624.593262 798.621765 628.108582 C 797.843445 631.623901 796.957214 638.109131 796.652344 642.520203 C 796.347473 646.931274 796.489746 655.734375 796.968506 662.082642 C 797.447266 668.430908 798.14563 675.259399 798.520386 677.257019 C 799.09668 680.328918 798.807617 681.283264 796.646362 683.44458 C 794.101685 685.989258 794.022278 685.99939 777.795471 685.859558 Z"/>
    <path id="drop" fill="#000000" fill-rule="evenodd" stroke="none" d="M 737.638123 446 C 736.15033 446 725.787781 436.300415 703.994019 414.508301 C 683.054932 393.570679 672.397949 382.217529 672.195557 380.632446 C 671.956604 378.761169 673.139465 377.244385 677.695557 373.580017 C 680.888 371.012451 687.149536 367.123474 691.610168 364.937866 C 696.07074 362.752258 703.189758 360.211182 707.430298 359.290955 C 713.838501 357.90033 716.250977 357.808044 721.718323 358.744568 C 725.336243 359.364319 731.189575 361.295654 734.725769 363.03656 C 738.313354 364.802673 743.714478 368.705994 746.945374 371.867371 C 750.286255 375.136475 754.079956 380.196411 755.913879 383.829346 C 757.661987 387.292297 759.57782 392.543701 760.171387 395.499084 C 760.977112 399.51123 760.935425 402.598694 760.006775 407.686279 C 759.322754 411.433838 756.993286 418.324097 754.8302 422.998047 C 752.667053 427.671997 748.397705 434.75946 745.342712 438.748047 C 741.48877 443.779724 739.129883 446 737.638123 446 Z"/>
    <path id="diamond" fill="#000000" fill-rule="evenodd" stroke="none" d="M 821.971008 344.780029 C 820.03363 344.999573 805.24762 334.019348 753.5 293.932678 C 717.200012 265.812683 685.700012 241.328369 683.5 239.523193 C 680.873901 237.368347 679.5 235.423889 679.5 233.861877 C 679.5 232.125061 695.903198 213.211792 740.258423 163.806091 C 773.675537 126.583923 801.927612 95.840332 803.040833 95.487061 C 804.264282 95.098755 806.174194 95.567505 807.86969 96.672302 C 809.412415 97.677551 838.200073 121.380676 871.842346 149.346008 C 914.363831 184.6922 933.200134 200.949341 933.633606 202.676453 C 934.070374 204.416504 933.561707 206.110474 931.935852 208.330444 C 930.65918 210.073669 910.255371 236.025024 886.594055 266 C 862.9328 295.974976 839.268982 325.900024 834.007813 332.5 C 827.002502 341.287964 823.78064 344.574951 821.971008 344.780029 Z M 820.186401 322.63147 C 820.630859 321.837219 824.857056 302.357727 829.578003 279.343689 C 834.29895 256.329651 838.237671 235.25 838.33075 232.5 C 838.5 227.5 838.5 227.5 835 227.713013 C 833.075012 227.830139 819.799988 228.870361 805.5 230.024597 C 791.200012 231.178894 778.439453 232.341187 777.14325 232.607483 C 775.208496 233.005005 774.87085 233.575928 775.257751 235.795837 C 775.516968 237.283142 784.831421 256.950012 795.956543 279.5 C 807.081665 302.049988 816.90271 321.304504 817.781128 322.28772 C 819.13031 323.797913 819.503723 323.851257 820.186401 322.63147 Z M 805.339844 322 C 805.822144 322 805.944214 320.913818 805.611023 319.586243 C 805.277832 318.258667 796.2099 299.246216 785.460083 277.336243 C 774.710266 255.426331 765.056519 236.634888 764.007263 235.577576 C 762.137268 233.693115 761.57959 233.688049 735.799805 235.321716 C 721.3349 236.238342 707.137512 237.248352 704.25 237.566162 C 701.179749 237.904053 699.015564 238.632996 699.037476 239.32196 C 699.058044 239.96991 702.545532 243.226135 706.787476 246.558044 C 711.029358 249.889954 730.446777 264.964966 749.937317 280.058044 C 769.427856 295.151123 789.669495 310.762512 794.918762 314.75 C 800.16803 318.737488 804.857483 322 805.339844 322 Z M 832.184998 318.772766 C 832.908264 318.532349 835.75 315.6698 838.5 312.41156 C 841.25 309.153381 859.291321 286.465393 878.591919 261.993774 C 897.892456 237.522217 914.300415 216.507996 915.054016 215.295471 C 915.807678 214.083008 916.095093 212.76178 915.692749 212.359436 C 915.290466 211.957092 901.582458 214.464844 885.230652 217.932129 C 868.878784 221.399414 854.077637 224.81842 852.339233 225.529846 C 849.609131 226.647156 849.029297 227.550781 848.083557 232.161682 C 847.481323 235.097778 843.672668 254.150024 839.619812 274.5 C 835.566956 294.849976 831.940247 313.234741 831.560486 315.35498 C 831.030151 318.315918 831.174988 319.108582 832.184998 318.772766 Z M 709.25 227.572083 C 715.987488 227.180847 730.468567 226.232422 741.430176 225.464478 C 754.751892 224.531128 761.764282 223.642395 762.57843 222.784058 C 763.248291 222.07782 770.001831 200.349976 777.586182 174.5 C 785.170593 148.650024 791.572205 125.981384 791.811951 124.125366 C 792.08606 122.003418 791.852051 120.889771 791.18158 121.125366 C 790.595154 121.331421 769.164368 144.858643 743.557617 173.408081 C 717.950928 201.957458 697 225.983704 697 226.799744 C 697 228.069153 698.768311 228.180664 709.25 227.572083 Z M 782.598206 222.579224 C 787.494202 222.182983 798.700012 221.235046 807.5 220.472717 C 816.299988 219.710388 826.814026 218.784485 830.864502 218.4151 C 838.228943 217.743591 838.228943 217.743591 837.688599 214.121765 C 837.391418 212.129822 830.355591 190.256775 822.053528 165.515076 C 813.751404 140.773376 806.316589 119.888 805.531738 119.103149 C 804.295654 117.867126 803.967163 117.998962 803.077332 120.088074 C 802.512268 121.414612 795.916687 143.424988 788.420532 169 C 780.924377 194.575012 774.5448 217.254944 774.243774 219.399841 C 773.696472 223.299683 773.696472 223.299683 782.598206 222.579224 Z M 852.951721 215.615112 C 854.903259 215.29834 866.849976 212.787964 879.5 210.036499 C 892.150024 207.285095 905.789001 204.314697 909.808899 203.435608 C 915.975891 202.087097 917.069519 201.542725 916.808899 199.951599 C 916.638977 198.914429 906.599976 189.814392 894.5 179.729309 C 882.400024 169.644165 860.164673 151.179382 845.088135 138.69635 C 830.011597 126.213379 817.247986 116 816.724609 116 C 816.201233 116 815.963928 117.237488 816.197327 118.75 C 816.430725 120.262512 823.517212 142.200012 831.945068 167.5 C 840.372986 192.799988 847.74884 214.105469 848.335999 214.84552 C 849.048157 215.743225 850.584534 215.99939 852.951721 215.615112 Z"/>
    <path id="canavese-e2" fill="#000000" fill-rule="evenodd" stroke="none" d="M 876 829.025574 L 876 753.974426 L 911.25 754.237183 L 946.5 754.5 L 946.5 766 L 946.5 777.5 L 931.5 778 C 916.5 778.5 916.5 778.5 916.5 781 C 916.5 783.5 916.5 783.5 930.5 784 C 944.5 784.5 944.5 784.5 944.5 792 C 944.5 799.5 944.5 799.5 930.25 799.777466 C 916 800.054932 916 800.054932 916 802.527466 C 916 805 916 805 929.808899 805 C 939.359558 805 944.150818 805.389771 945.346436 806.264038 C 946.829224 807.348328 947.034241 809.019897 946.787598 818.014038 L 946.5 828.5 L 911.25 828.762817 L 876 829.025574 Z"/>
    <path id="canavese-e1" fill="#000000" fill-rule="evenodd" stroke="none" d="M 666 829 L 666 754 L 701.5 754 L 737 754 L 737 765.973938 L 737 777.947876 L 721.75 778.223938 C 706.5 778.5 706.5 778.5 706.5 781 C 706.5 783.5 706.5 783.5 720.791565 783.77771 L 735.08313 784.05542 L 734.791565 791.77771 C 734.5 799.5 734.5 799.5 720.25 799.777466 C 706 800.054932 706 800.054932 706 802.501404 C 706 804.947876 706 804.947876 721.25 805.223938 L 736.5 805.5 L 736.781738 817.25 L 737.063477 829 L 701.531738 829 L 666 829 Z"/>
    <path id="comics-c" fill="#000000" fill-rule="evenodd" stroke="none" d="M 104.568497 934.952271 C 101.230827 934.926025 96.477425 934.196899 94.005386 933.332031 C 91.533348 932.467102 87.647453 930.477478 85.370064 928.910583 C 83.092674 927.343689 79.818527 923.931763 78.094185 921.328491 C 76.369835 918.72522 74.405731 914.773804 73.729507 912.547607 C 73.053276 910.321411 72.5 904.900024 72.5 900.5 C 72.5 895.181396 73.105186 890.931702 74.305595 887.820984 C 75.298676 885.247559 77.615211 881.172241 79.453453 878.764771 C 81.515182 876.064575 85.149109 873.133179 88.938248 871.113586 C 93.669655 868.591797 96.748466 867.713501 102.34008 867.290649 C 107.455719 866.903748 111.227699 867.214966 115.113495 868.344604 C 118.146255 869.226257 122.509758 871.311035 124.810165 872.977417 C 127.110573 874.64386 130.360153 877.894958 132.031464 880.202148 C 133.702759 882.509277 134.940567 885.070068 134.782135 885.892761 C 134.617126 886.749634 131.7854 888.255005 128.152985 889.41687 C 121.811882 891.445251 121.811882 891.445251 119.011177 888.013672 C 117.470795 886.126343 114.707642 883.776123 112.870842 882.791077 C 111.034042 881.805969 107.822227 881 105.733482 881 C 103.644737 881 100.487717 881.617004 98.71788 882.371094 C 96.948044 883.125244 94.50898 884.818848 93.297729 886.134766 C 92.086479 887.450684 90.398979 890.194214 89.547729 892.231506 C 88.69648 894.26886 88 898.214661 88 901 C 88 903.785339 88.69648 907.73114 89.547729 909.768494 C 90.398979 911.805786 92.086479 914.549316 93.297729 915.865234 C 94.50898 917.181152 96.948044 918.874756 98.71788 919.628906 C 100.487717 920.382996 103.539673 921 105.5 921 C 107.460327 921 110.545944 920.38092 112.356911 919.624207 C 114.167885 918.867554 117.042778 916.558289 118.74556 914.492493 C 121.118835 911.613281 122.385254 910.848633 124.170769 911.216614 C 125.451843 911.480652 128.449234 912.29718 130.83165 913.031128 C 134.534897 914.171936 135.099991 914.696594 134.727005 916.647766 C 134.487045 917.903076 133.05394 920.551575 131.542313 922.533386 C 130.030701 924.515259 126.966652 927.460388 124.733315 929.078247 C 122.499985 930.696045 118.414673 932.690308 115.654854 933.509888 C 112.895035 934.329468 107.906174 934.978516 104.568497 934.952271 Z"/>
    <path id="comics-o" fill="#000000" fill-rule="evenodd" stroke="none" d="M 277 934.706909 C 271.031738 934.927185 267.159668 934.540955 264 933.410156 C 261.524994 932.524414 258.149994 930.974487 256.5 929.96582 C 254.850006 928.957153 252.08255 926.639771 250.350113 924.815979 C 248.617676 922.992188 246.271393 919.736938 245.136139 917.582031 C 244.000885 915.427124 242.554749 911.172241 241.922485 908.126587 C 241.290222 905.081055 241.055588 900.094116 241.401062 897.044617 C 241.746552 893.995056 243.381882 888.726013 245.035156 885.335571 C 246.688416 881.945129 249.698807 877.715576 251.724915 875.936646 C 253.751022 874.157715 257.904266 871.531738 260.954376 870.101135 C 265.72168 867.865051 267.833313 867.502563 276 867.518066 C 284.100494 867.533447 286.310242 867.916199 291 870.115906 C 294.115814 871.577393 298.486481 874.832886 301.082581 877.625977 C 303.602997 880.337708 306.527985 884.79364 307.582581 887.528198 C 308.962433 891.106079 309.499817 895.023254 309.499359 901.5 C 309.49881 909.119751 309.097015 911.35675 306.879547 916.086487 C 305.438995 919.159058 302.553192 923.380127 300.466675 925.466675 C 298.380127 927.553223 294.159058 930.415283 291.086487 931.826782 C 286.787476 933.801819 283.541077 934.465576 277 934.706909 Z M 275.789825 920.960876 C 278.172394 920.982605 281.814636 920.114868 283.981903 919.009216 C 286.128143 917.914307 289.023376 915.524841 290.415802 913.69928 C 291.808228 911.873718 293.458801 908.157043 294.08374 905.440063 C 294.920715 901.801147 294.928192 899.42041 294.112122 896.401062 C 293.502777 894.146606 291.987152 890.771606 290.744049 888.901062 C 289.500946 887.030457 286.462494 884.458069 283.991943 883.184631 C 280.525787 881.39801 278.315826 880.958862 274.314453 881.261597 C 271.035278 881.509644 267.877289 882.511475 265.724274 883.986755 C 263.851746 885.269836 261.280365 887.836426 260.010101 889.690186 C 258.677032 891.635681 257.500977 895.138062 257.228455 897.974182 C 256.968781 900.676575 257.061584 904.514771 257.434662 906.503479 C 257.822784 908.572266 259.693298 911.870056 261.806519 914.211182 C 263.837921 916.46167 266.850006 918.892212 268.5 919.612366 C 270.149994 920.33252 273.43042 920.939331 275.789825 920.960876 Z"/>
    <path id="comics-s" fill="#000000" fill-rule="evenodd" stroke="none" d="M 925.5 935.245605 C 923.849976 935.49408 920.309387 935.296082 917.631958 934.805664 C 914.95459 934.315308 910.625671 932.830566 908.012268 931.506226 C 905.398804 930.181885 902.055481 927.666199 900.582642 925.915833 C 899.109741 924.165405 898.044128 922.009216 898.2146 921.124268 C 898.38501 920.239319 899.76825 918.919067 901.288452 918.190491 C 902.808594 917.461914 905.576721 916.618408 907.439758 916.31604 C 910.089722 915.886047 911.573975 916.33606 914.257935 918.383179 C 916.822937 920.3396 918.863708 921 922.344421 921 C 925.735229 921 927.56842 920.43158 929.092468 918.907532 C 930.462036 917.537964 930.992249 916.069702 930.627258 914.657532 C 930.320557 913.470886 929.168335 911.764465 928.066711 910.86554 C 926.965088 909.966553 922.918457 908.460266 919.074158 907.518188 C 915.229858 906.57605 910.061462 904.522339 907.588928 902.954224 C 904.800537 901.185913 902.245911 898.469666 900.861816 895.801636 C 899.364014 892.914368 898.645264 889.798706 898.675781 886.325745 C 898.708435 882.604065 899.458191 879.893799 901.346497 876.671753 C 903.139404 873.612366 905.339966 871.529724 908.287415 870.102905 C 910.661011 868.953857 914.708313 867.620422 917.281433 867.139771 C 920.063477 866.619995 924.075623 866.650269 927.179688 867.214478 C 930.050659 867.736267 934.039795 869 936.044495 870.022705 C 938.049194 871.04541 941.13385 873.527344 942.899292 875.538086 C 944.664795 877.548889 945.969421 879.937866 945.798462 880.847046 C 945.61084 881.844727 943.246521 883.272583 939.834534 884.448853 C 934.181458 886.397705 934.181458 886.397705 930.286987 883.698853 C 927.594055 881.832703 925.119873 881 922.2677 881 C 919.851196 881 917.492065 881.650818 916.571411 882.571411 C 915.707153 883.43573 915 885.450317 915 887.048401 C 915 888.978455 915.755371 890.425659 917.25 891.359131 C 918.487488 892.132019 922.804626 893.551208 926.843567 894.512817 C 931.611511 895.648071 935.642883 897.371643 938.33783 899.427124 C 940.620728 901.168396 943.496216 904.37207 944.727844 906.546509 C 946.22113 909.183044 946.967102 912.165588 946.967102 915.5 C 946.967102 918.840637 946.220825 921.817688 944.718323 924.470459 C 943.481506 926.654175 940.945923 929.467651 939.08374 930.722534 C 937.221558 931.977478 934.078369 933.406921 932.098938 933.899109 C 930.119507 934.391296 927.150024 934.997192 925.5 935.245605 Z"/>
    <path id="comics-c2" fill="#000000" fill-rule="evenodd" stroke="none" d="M 762 934.625122 C 757.875 934.78241 753.150024 934.554932 751.5 934.119568 C 749.849976 933.684265 746.612854 932.358032 744.306274 931.172424 C 741.999756 929.986816 738.568909 927.427307 736.68219 925.484619 C 734.795471 923.541931 731.97467 919.150635 730.413757 915.726257 C 728.023926 910.483215 727.569763 908.157715 727.537842 901 C 727.505493 893.735107 727.907166 891.628174 730.302246 886.5 C 731.843506 883.200012 734.768494 878.773621 736.802246 876.663574 C 738.835999 874.553589 742.700439 871.701599 745.389771 870.325928 C 748.685669 868.639954 752.613464 867.648132 757.439514 867.283142 C 762.499329 866.900452 766.251831 867.221985 770.233276 868.379456 C 773.331909 869.280212 777.798096 871.490051 780.158142 873.2901 C 782.518188 875.090149 785.719055 878.369812 787.271179 880.578247 C 789.029053 883.079407 789.8479 885.232788 789.442627 886.288879 C 789.083191 887.225647 786.521851 888.658447 783.718628 889.490906 C 779.263611 890.813904 778.392578 890.819519 776.572632 889.536987 C 775.432678 888.733704 773.256226 886.950439 771.736023 885.574158 C 770.215881 884.197937 767.221802 882.547485 765.08252 881.906555 C 762.943237 881.265625 759.624817 881.0354 757.708191 881.394958 C 755.791626 881.754517 752.749878 883.050232 750.94873 884.274353 C 749.147644 885.498474 746.735535 888.299988 745.588562 890.5 C 744.098816 893.357422 743.503113 896.356628 743.503113 901 C 743.503113 905.643372 744.098816 908.642578 745.588562 911.5 C 746.735535 913.700012 749.147644 916.501526 750.94873 917.725647 C 752.749878 918.949768 755.791626 920.245483 757.708191 920.605042 C 759.624817 920.9646 762.993469 920.719299 765.194092 920.059998 C 767.394714 919.400696 771.165588 917.044983 773.573853 914.825195 C 777.952454 910.789124 777.952454 910.789124 782.926697 911.982422 C 785.662537 912.638733 788.45697 913.845703 789.136597 914.664551 C 790.132568 915.864624 790.009399 916.827087 788.501465 919.627136 C 787.472534 921.53772 784.856384 924.703918 782.687744 926.663147 C 780.519165 928.622314 776.664734 931.15094 774.122375 932.282288 C 771.119507 933.61853 766.872375 934.439392 762 934.625122 Z"/>
    <path id="comics-i" fill="#000000" fill-rule="evenodd" stroke="none" d="M 602 934 L 602 868 L 609.5 868 L 617 868 L 617 901 L 617 934 L 609.5 934 L 602 934 Z"/>
    <path id="comics-m" fill="#000000" fill-rule="evenodd" stroke="none" d="M 420 934 L 420 868 L 428.477631 868 C 436.955261 868 436.955261 868 444.099518 878.75 C 448.028839 884.662476 452.037598 890.336182 453.007874 891.358215 C 454.710419 893.15155 455.064117 892.784912 463.136017 880.858215 C 471.5 868.5 471.5 868.5 480.25 868.21106 L 489 867.922119 L 489 900.96106 L 489 934 L 481.519043 934 C 474.584473 934 473.999451 933.835693 473.509033 931.75 C 473.218048 930.512512 472.871979 921.307312 472.73999 911.294067 L 472.5 893.088135 L 463.588715 906.203979 C 454.677429 919.319885 454.677429 919.319885 452.708588 916.909912 C 451.625732 915.584473 447.628601 909.873108 443.82608 904.218079 C 440.02356 898.562988 436.482117 894.202026 435.956207 894.5271 C 435.401001 894.870239 435 903.270752 435 914.559021 L 435 934 L 427.5 934 L 420 934 Z"/>
    <path id="bottom-star" fill="#000000" fill-rule="evenodd" stroke="none" d="M 226.337875 714.806763 C 224.757065 715.033081 222.108414 712.93335 216.246506 706.806763 C 211.875122 702.238037 197.897079 687.25 185.184189 673.5 C 172.471313 659.75 161.012146 647.686646 159.719391 646.692505 C 157.423889 644.927246 156.271194 645.074036 110.434464 652.969604 C 84.620506 657.41626 61.889797 661.312256 59.921768 661.627563 C 57.391045 662.032898 55.880199 661.737305 54.760788 660.61792 C 53.890278 659.747437 53.399654 658.187744 53.670513 657.151978 C 53.941376 656.116211 68.768188 636.870728 86.618988 614.384399 C 118.225967 574.569458 119.066658 573.395386 118.756744 569.5 C 118.581711 567.299988 115.329979 553.647339 111.530663 539.160767 C 106.232788 518.960205 104.873665 512.434448 105.699104 511.160767 C 106.342957 510.167267 107.9254 509.565735 109.637695 509.663574 C 111.21196 509.753571 129.375 516.674377 150 525.043213 C 170.625 533.411987 188.737015 540.619385 190.248917 541.059509 C 192.567749 541.734558 193.741135 541.260315 197.748917 538.02832 C 200.362015 535.921021 211.266754 526.502563 221.981659 517.098389 C 236.993591 503.922943 242.088074 500 244.186356 500 C 246.49176 500 247.007263 500.52179 247.547668 503.402405 C 247.898727 505.273712 247.506027 518.88623 246.674988 533.652405 C 245.164017 560.5 245.164017 560.5 248.832016 563.812988 C 250.849411 565.635071 272.975006 581.949402 298 600.067017 C 323.024994 618.18457 343.930908 633.961426 344.457581 635.126709 C 345.211395 636.794678 344.974731 637.602051 343.345154 638.921631 C 341.620483 640.318115 334.120453 641.074707 298.387573 643.456665 C 274.799408 645.029053 254.576477 646.649536 253.447723 647.057861 C 251.791061 647.657043 249.411774 653.747009 241.104919 678.650085 C 235.445114 695.617554 230.289429 710.625 229.647827 712 C 229.00621 713.375 227.516739 714.638062 226.337875 714.806763 Z"/>
    <path id="canavese-c" fill="#000000" fill-rule="evenodd" stroke="none" d="M 119.5 831.542664 C 111.858597 831.805725 104.931084 831.464478 100.427315 830.603149 C 96.537338 829.859131 91.307259 828.344788 88.804909 827.237915 C 86.302567 826.130981 82.365181 823.517822 80.055176 821.430908 C 77.745171 819.343933 74.985832 815.932373 73.923317 813.849731 C 72.860802 811.766968 71.325043 807.236328 70.510521 803.781494 C 69.695992 800.32666 69.022911 794.934631 69.014778 791.799194 C 69.006653 788.663818 69.505974 783.713806 70.124382 780.799194 C 70.74279 777.884644 72.368713 773.276978 73.737556 770.559937 C 75.106392 767.842834 77.43988 764.40625 78.92308 762.923096 C 80.406273 761.43988 83.950645 759.045227 86.799461 757.601624 C 89.648277 756.15802 95.163239 754.307068 99.054939 753.488464 C 102.946632 752.6698 110.402153 752 115.622749 752 C 120.843346 752 128.275742 752.522034 132.139191 753.160034 C 137.673874 754.074097 139.49144 754.820374 140.709183 756.678955 C 141.990906 758.635071 142.141678 761.125549 141.592453 771.26886 C 141.22821 777.995972 140.48848 784.549927 139.948608 785.833252 C 138.977722 788.141052 138.847839 788.158691 128.002472 787.455811 C 118.684563 786.851868 116.659599 786.993042 114.518951 788.39563 C 113.13353 789.303406 112 790.880615 112 791.900635 C 112 792.920593 112.649666 794.294312 113.443695 794.953247 C 114.419434 795.763062 118.552246 796.072754 126.193695 795.908813 C 132.41217 795.77533 138.132324 795.877014 138.905167 796.134766 C 139.937302 796.479004 140.567841 799.897217 141.280396 809.011047 C 141.847824 816.268677 141.887177 822.87207 141.375229 824.920288 C 140.617889 827.950256 139.893845 828.604309 136 829.775757 C 133.524994 830.520386 126.099998 831.31543 119.5 831.542664 Z"/>
    <path id="canavese-a1" fill="#000000" fill-rule="evenodd" stroke="none" d="M 190.968628 830 C 178.315338 830 173.927399 829.667419 172.46405 828.597351 C 170.593552 827.229614 170.588669 826.949829 172.267349 817.347351 C 173.214172 811.931335 176.17215 796.116699 178.840637 782.203796 C 181.509125 768.290894 184.233551 756.365845 184.894897 755.703796 C 185.768127 754.82959 194.665192 754.420654 217.388824 754.210266 C 246.253616 753.942993 248.843124 754.059326 250.780319 755.710266 C 252.521423 757.194092 253.666306 761.773315 257.478241 782.5 C 260.00705 796.25 262.84201 811.927002 263.778168 817.33783 C 265.439056 826.937378 265.433502 827.209839 263.549011 828.58783 C 262.063782 829.673828 257.664246 830 244.5 830 C 231.824188 830 226.909668 829.654419 225.561066 828.668335 C 224.559418 827.935913 223.455673 825.573364 223.108307 823.418335 C 222.509491 819.703186 222.272003 819.483276 218.528259 819.177124 C 215.645523 818.941406 214.231613 819.330322 213.289886 820.618225 C 212.580444 821.58844 212 823.395752 212 824.634399 C 212 825.873108 210.999878 827.587097 209.777496 828.443298 C 207.982819 829.700317 204.362106 830 190.968628 830 Z M 217.968613 798 C 219.085876 798 220.041733 797.4375 220.092743 796.75 C 220.143738 796.0625 220.137238 793.474976 220.078278 791 C 220.019333 788.525024 219.732208 785.037476 219.440231 783.25 C 219.148254 781.462524 218.316833 780 217.592621 780 C 216.678955 780 216.063995 782.338074 215.583755 787.637634 C 215.203094 791.838318 215.126907 795.888306 215.414444 796.637634 C 215.701981 797.386963 216.851349 798 217.968613 798 Z"/>
    <path id="canavese-n" fill="#000000" fill-rule="evenodd" stroke="none" d="M 314 830 C 300.333344 830 298.822235 829.822205 297 828 C 295.07843 826.07843 295 824.666687 295 792 C 295 759.064575 295.064148 757.935852 297.048584 755.951416 C 299.020782 753.979248 300.025787 753.91394 324.000366 754.201416 C 340.423553 754.398315 349.278168 754.875183 350.003662 755.601868 C 350.608704 756.207886 351.742828 760.707886 352.523926 765.601868 C 353.305054 770.49585 354.447388 777.537476 355.062439 781.25 C 355.67749 784.962524 356.590057 788 357.090363 788 C 357.59613 788 358 781.340088 358 773 C 358 759.333313 358.177765 757.822205 360 756 C 361.822235 754.177795 363.333344 754 377 754 C 390.666656 754 392.177765 754.177795 394 756 C 395.92157 757.92157 396 759.333313 396 792 C 396 824.939697 395.936096 826.063904 393.950623 828.049377 C 391.979248 830.020752 390.972473 830.087341 367.498779 829.799377 C 350.171417 829.586792 342.748108 829.151245 341.895294 828.297119 C 341.234741 827.635559 339.666565 820.692261 338.410461 812.867554 C 337.154358 805.042786 335.864594 797.596558 335.544281 796.320374 C 335.223969 795.044189 334.520477 794 333.980957 794 C 333.380554 794 333 800.207153 333 810 C 333 824.666687 332.833344 826.166687 331 828 C 329.177765 829.822205 327.666656 830 314 830 Z"/>
    <path id="canavese-a2" fill="#000000" fill-rule="evenodd" stroke="none" d="M 445.968628 830 C 433.257996 830 428.930756 829.669861 427.450012 828.587097 C 425.560272 827.205322 425.657013 826.407349 431.84436 792.337097 C 437.093414 763.433594 438.515961 757.201904 440.196289 755.75 C 442.030487 754.1651 445.125427 754 473 754 C 500.865173 754 503.972473 754.165649 505.82843 755.75 C 507.509766 757.185303 508.7164 762.085449 512.538574 783 C 515.101624 797.025024 517.931763 812.705933 518.827698 817.846436 C 520.406921 826.907288 520.39801 827.235779 518.537231 828.596436 C 517.06665 829.671753 512.614563 830 499.5 830 C 486.824188 830 481.909668 829.654419 480.561066 828.668335 C 479.559418 827.935913 478.455688 825.573364 478.108307 823.418335 C 477.509491 819.703186 477.272003 819.483276 473.528259 819.177124 C 470.645508 818.941406 469.231598 819.330322 468.289886 820.618225 C 467.580444 821.58844 467 823.395752 467 824.634399 C 467 825.873108 465.999878 827.587097 464.777496 828.443298 C 462.982819 829.700317 459.362122 830 445.968628 830 Z M 472.968628 798 C 474.085876 798 475.041718 797.4375 475.092743 796.75 C 475.143738 796.0625 475.137238 793.474976 475.078278 791 C 475.019318 788.525024 474.732208 785.037476 474.440247 783.25 C 474.148254 781.462524 473.307648 780 472.572174 780 C 471.636536 780 471.022644 782.265869 470.527924 787.54541 C 470.139038 791.695313 470.072052 795.745361 470.379028 796.54541 C 470.686035 797.345459 471.851349 798 472.968628 798 Z"/>
    <path id="canavese-v" fill="#000000" fill-rule="evenodd" stroke="none" d="M 588.860779 829.986328 C 563.957275 829.998657 561.022827 829.826782 559.213867 828.25 C 557.576599 826.822876 555.998596 820.168457 550.660889 792.181091 C 547.061035 773.305725 544.345764 757.262573 544.627014 756.529663 C 544.908264 755.796753 546.119751 754.933899 547.319153 754.612183 C 548.518616 754.290527 556.8125 754.021179 565.75 754.013672 C 580.445007 754.001343 582.183533 754.183533 583.917786 755.917786 C 585.115417 757.115417 586.046204 759.837769 586.396545 763.167786 C 586.705078 766.100464 587.443298 775.463745 588.037048 783.974915 C 588.630737 792.486145 589.315308 799.648621 589.558289 799.891602 C 589.801208 800.134521 590.257324 800.07605 590.571838 799.761475 C 590.886353 799.447021 591.730103 789.83667 592.446899 778.405212 C 593.6698 758.902283 593.888 757.509094 595.98584 755.810364 C 597.944031 754.224731 600.294556 754 614.919678 754 C 627.507507 754 632.080505 754.338379 633.497742 755.374695 C 635.316895 756.704834 635.175781 757.81366 629.139709 789.624695 C 625.70874 807.706116 622.454529 823.915039 621.908081 825.644531 C 621.306641 827.548096 620.043396 829.022644 618.707275 829.380859 C 617.493286 829.70636 604.062378 829.978821 588.860779 829.986328 Z"/>
    <path id="canavese-s" fill="#000000" fill-rule="evenodd" stroke="none" d="M 800.5 802 C 798.174988 800.473755 796.132019 800.023743 794.460083 800.01532 C 792.788147 800.006897 788.738159 799.305237 785.460083 798.456055 C 782.182068 797.606873 777.867004 795.836548 775.871155 794.522034 C 773.731689 793.112915 771.303345 790.192322 769.954468 787.406006 C 768.379883 784.15332 767.666687 780.878479 767.666687 776.901367 C 767.666687 772.717529 768.348694 769.797424 770.138 766.320557 C 771.547058 763.582397 774.305054 760.343018 776.554626 758.783997 C 778.724609 757.28009 783.200012 755.311768 786.5 754.409912 C 789.799988 753.508057 798.125 752.533936 805 752.245117 C 812.067688 751.948303 822.03302 752.242249 827.930664 752.92157 C 833.667542 753.582336 839.236938 754.591614 840.30719 755.164368 C 842.088013 756.117432 842.214539 757.066223 841.799011 766.352905 C 841.549255 771.933777 840.778625 777.555298 840.086365 778.845154 C 838.968201 780.92865 838.419067 781.09729 835.163879 780.356689 C 833.148743 779.898193 827.564941 779.517944 822.755493 779.511536 C 817.621033 779.504761 813.98822 779.912842 813.955872 780.5 C 813.925598 781.049988 816.960632 782.055786 820.700439 782.735107 C 824.440186 783.414429 829.248901 784.747925 831.386414 785.698486 C 833.523987 786.649048 836.348999 788.273315 837.664307 789.307922 C 838.979614 790.342529 840.889343 792.833984 841.908081 794.844543 C 842.926819 796.855042 844.062622 800.316711 844.432129 802.53717 C 844.801575 804.757568 844.608643 808.807617 844.003357 811.53717 C 843.398071 814.266724 841.797668 818.180969 840.446838 820.235474 C 838.961426 822.494751 835.977478 824.991211 832.896057 826.552673 C 830.093933 827.972595 824.431396 829.779175 820.312683 830.5672 C 816.168213 831.360168 807.616211 831.952637 801.162048 831.89386 C 794.747925 831.83551 785.350342 831.226257 780.278564 830.540039 C 775.206787 829.853821 770.369324 828.721436 769.528564 828.023743 C 768.393555 827.081726 768.01123 824.791382 768.043579 819.127563 C 768.067505 814.932373 768.463684 809.55127 768.924011 807.169556 C 769.384277 804.787842 770.188721 802.411255 770.71167 801.888306 C 771.312744 801.287231 773.82489 801.500732 777.541321 802.46875 C 780.774719 803.310913 786.588135 803.993103 790.460083 803.98468 C 794.332031 803.976257 798.174988 803.526245 799 802.98468 L 800.5 802 Z"/>
    <path id="hand" fill="#000000" fill-rule="evenodd" stroke="none" d="M 180.597076 488.393372 C 184.94368 489.178314 193.933197 489.860901 200.573792 489.910278 C 207.412964 489.96109 216.734314 489.312531 222.073792 488.414337 C 227.258209 487.542236 235.413208 485.533936 240.196014 483.951477 C 244.978821 482.369049 252.886246 479.068298 257.768066 476.616486 C 262.649872 474.164703 271.163574 468.795166 276.687439 464.684143 C 282.211273 460.573181 291.321045 452.803772 296.931396 447.418823 C 302.541748 442.033875 311.319244 432.649231 316.436951 426.564026 C 321.554657 420.478821 329.468781 410.354431 334.023926 404.06543 C 338.579071 397.776428 345.5495 387.651428 349.513824 381.56543 C 353.478119 375.479431 359.800446 365.099976 363.563446 358.5 C 367.326416 351.900024 370.585266 345.063293 370.805328 343.307251 C 371.111267 340.866089 370.588196 339.497314 368.583405 337.492493 C 367.141266 336.050354 363.839813 333.932007 361.246796 332.784973 C 358.653778 331.637939 353.481384 330.481201 349.752594 330.214417 C 346.023773 329.947632 340.479492 330.230103 337.431915 330.842102 C 334.384369 331.454163 328.019501 333.769104 323.287781 335.98645 C 318.556091 338.203796 314.441467 339.77478 314.144165 339.477478 C 313.846863 339.180237 314.086823 337.263672 314.677368 335.218506 C 315.267883 333.17334 318.110077 325.424988 320.993317 318 C 323.876556 310.575012 328.205109 298.612976 330.612366 291.417664 C 333.019592 284.222351 336.331329 273.197388 337.971802 266.917664 C 339.612244 260.637939 341.898651 250.099976 343.052673 243.5 C 344.439331 235.56958 344.978271 229.244019 344.641815 224.847717 C 344.308838 220.496643 343.241943 216.437561 341.557556 213.113586 C 339.647095 209.343445 337.903992 207.481506 334.80484 205.900452 C 332.252808 204.598511 328.752747 203.769226 325.809662 203.769226 C 322.566681 203.769226 319.113831 204.684875 315.245972 206.570557 C 312.085693 208.111328 306.856995 212.007751 303.626678 215.229309 C 300.396332 218.450867 297.503601 220.836914 297.198334 220.531677 C 296.893097 220.22644 297.632751 213.569458 298.84198 205.738342 C 300.051239 197.907227 301.505005 186.549988 302.072571 180.5 C 302.809174 172.647949 302.784363 167.076416 301.98587 161.031067 C 301.370636 156.373169 299.937225 150.40033 298.800568 147.757996 C 297.663879 145.115723 295.430481 141.857117 293.837494 140.516724 C 292.244476 139.17627 289.451019 137.800049 287.629791 137.458374 C 285.808563 137.116699 282.471313 137.334534 280.213684 137.942444 C 277.716919 138.614746 273.991974 140.982544 270.704956 143.986694 C 267.732788 146.703064 263.00354 152.42981 260.195496 156.712769 C 257.387451 160.995728 252.316879 170.349976 248.927551 177.5 C 245.538208 184.650024 242.14296 191.158936 241.382553 191.964294 C 240.199478 193.217285 240 192.187195 240 184.824768 C 240 180.092651 239.292755 172.492615 238.428345 167.935791 C 237.563919 163.378967 235.715561 157.36676 234.320877 154.575317 C 232.926178 151.783875 230.675476 148.315979 229.319321 146.868835 C 227.96315 145.421753 224.9832 143.396729 222.69722 142.368835 C 220.080231 141.192139 216.463287 140.539124 212.931305 140.605591 C 208.626358 140.686646 205.869583 141.485229 201.07782 144.039185 C 197.499756 145.946289 192.92511 149.530334 190.363205 152.433594 C 187.904327 155.220093 183.223709 162.806885 179.961838 169.293091 C 176.699966 175.779236 172.407394 186.24176 170.422806 192.543091 C 168.438217 198.84436 166.43811 204 165.978134 204 C 165.518143 204 164.631348 201.412476 164.007462 198.25 C 163.383575 195.087524 162.232712 190.25 161.449997 187.5 C 160.667267 184.75 158.955017 180.220581 157.644958 177.434631 C 156.334915 174.648621 153.783981 170.684631 151.976212 168.625671 C 150.168442 166.566772 146.977188 164.008667 144.884521 162.941101 C 142.791855 161.873474 139.346603 161 137.228394 161 C 134.894791 161 132.61319 161.712524 131.438568 162.808105 C 130.37236 163.802551 126.155235 171.565063 122.067192 180.058105 C 117.979141 188.551147 112.66761 200.392151 110.263779 206.37146 C 107.859947 212.350769 103.643051 223.825806 100.892906 231.87146 C 98.142761 239.917175 94.349007 252.349976 92.462357 259.5 C 90.575699 266.650024 87.671234 279.225586 86.00798 287.445801 C 84.344734 295.665955 82.20002 309.381836 81.241943 317.925476 C 80.261642 326.667358 79.5 340.912842 79.5 350.506165 C 79.5 361.474365 80.125 371.875061 81.252754 379.674133 C 82.216774 386.340759 84.116859 395.63031 85.475174 400.317566 C 86.833481 405.004822 89.711884 412.938538 91.871613 417.94812 C 94.031342 422.957642 98.206253 430.901428 101.1492 435.600952 C 104.09214 440.300537 109.875 447.795593 114 452.256592 C 118.125 456.717651 125.089401 463.031555 129.47644 466.287476 C 133.86348 469.543457 141.425278 474.202423 146.280426 476.640839 C 151.135574 479.079254 159.064865 482.399994 163.901062 484.020264 C 168.737274 485.640533 176.250473 487.608429 180.597076 488.393372 Z M 215.918884 479.960388 C 210.346954 480.532166 203.02327 480.94162 199.644043 480.87027 C 196.264816 480.79892 190.131622 480.350586 186.01474 479.874023 C 181.897842 479.39743 174.475616 477.841248 169.520905 476.415833 C 164.566177 474.990387 156.909561 472.099426 152.506165 469.991455 C 148.102768 467.883484 141.350006 463.933167 137.5 461.213013 C 133.649994 458.492798 126.670227 452.269592 121.989395 447.383606 C 117.308563 442.49762 111.819702 435.984375 109.791916 432.909668 C 107.764137 429.834961 104.533768 424.188477 102.613319 420.361816 C 100.692871 416.535217 97.91555 409.825867 96.441498 405.452148 C 94.967445 401.078491 92.877792 393.450012 91.797821 388.5 C 90.404526 382.113831 89.668945 373.83667 89.265076 360 C 88.94017 348.868408 89.179382 334.268677 89.822487 325.979858 C 90.442101 317.993774 92.055885 304.943726 93.408684 296.979858 C 94.761482 289.01593 97.717407 275.299988 99.977409 266.5 C 102.237411 257.700012 106.4879 243.299988 109.422943 234.5 C 112.357994 225.700012 118.221138 210.400024 122.452164 200.5 C 126.683182 190.599976 131.614853 179.799988 133.411438 176.5 C 135.208008 173.200012 137.335571 170.371826 138.139328 170.215149 C 138.9431 170.058411 141.103134 170.958435 142.939407 172.215149 C 144.775696 173.471802 147.382599 176.626587 148.732529 179.225708 C 150.082458 181.82489 152.036469 187.224854 153.074783 191.225708 C 154.113083 195.226563 155.493546 204.416809 156.142471 211.648376 C 156.931885 220.445496 157.094116 233.47229 156.632736 251.011658 C 156.127747 270.208435 156.251236 277.597778 157.094009 278.613281 C 157.72699 279.375977 159.079422 280 160.099396 280 C 161.11937 280 162.601807 278.987488 163.393692 277.75 C 164.192642 276.501465 165.341919 270.38147 165.975815 264 C 166.604095 257.674988 168.026672 246.650024 169.1371 239.5 C 170.247528 232.349976 172.482208 220.875 174.103073 214 C 175.723923 207.125 178.203445 197.674988 179.613098 193 C 181.022751 188.325012 184.421402 179.823669 187.165649 174.108093 C 190.476685 167.212036 193.833862 161.941223 197.145248 158.439941 C 199.889786 155.537964 203.635391 152.451843 205.468796 151.581848 C 207.3022 150.711853 211.166428 150 214.055969 150 C 218.849838 150 219.630066 150.336792 222.970108 153.8479 C 225.219177 156.212158 227.316467 159.876526 228.40947 163.351501 C 229.847702 167.924011 230.183945 172.501648 230.165131 187.253601 C 230.148483 200.315674 229.562363 209.438293 228.102264 219.360779 C 226.980484 226.984253 225.042282 238.12793 223.795135 244.124573 C 222.093597 252.30603 221.799255 255.460938 222.615921 256.763794 C 223.214508 257.718689 224.642365 258.640076 225.788925 258.811279 C 227.106918 259.008057 228.410767 258.272522 229.334198 256.811279 C 230.137527 255.5401 231.958939 250.450012 233.381775 245.5 C 234.804626 240.549988 237.268875 232.450012 238.85788 227.5 C 240.446884 222.549988 243.328079 214.224976 245.260513 209 C 247.192947 203.775024 251.117615 194.099976 253.981995 187.5 C 256.846375 180.900024 261.246063 171.959473 263.759094 167.632202 C 266.272095 163.304871 270.084595 157.542419 272.231262 154.82666 C 274.37793 152.110901 277.566589 149.015625 279.317139 147.948181 C 281.067719 146.880798 283.434052 146.005798 284.575684 146.003723 C 285.717316 146.001709 287.601868 147.012512 288.76355 148.25 C 289.925262 149.487488 291.424561 152.553467 292.095337 155.063293 C 292.949646 158.259766 293.126831 164.250122 292.686981 175.063293 C 292.341614 183.553467 291.356293 195 290.497437 200.5 C 289.63855 206 287.80127 216.125 286.414612 223 C 285.027924 229.875 282.290924 241.799988 280.332367 249.5 C 278.37384 257.200012 276.535461 265.446594 276.247101 267.825684 C 275.871613 270.92395 276.156158 272.584717 277.249908 273.678467 C 278.185425 274.614014 279.569824 274.953918 280.823669 274.555969 C 282.091492 274.153564 283.52301 272.116577 284.585449 269.203186 C 285.528778 266.616455 287.421875 261.575012 288.792328 258 C 290.162811 254.424988 292.85553 248.349976 294.776154 244.5 C 296.696777 240.650024 299.827911 235.025024 301.734192 232 C 303.640503 228.974976 307.292664 224.326172 309.850098 221.66925 C 312.407532 219.012329 316.169586 215.974792 318.210175 214.91925 C 320.250763 213.863647 323.688385 213 325.849365 213 C 328.231476 213 330.707947 213.753906 332.139221 214.914734 C 334.406525 216.753601 334.5 217.357483 334.5 230.164734 C 334.5 241.393005 334.04657 245.396057 331.630188 255.5 C 330.051758 262.099976 326.514984 274.474976 323.77063 283 C 321.026306 291.525024 316.531403 304.575012 313.781982 312 C 311.032562 319.424988 306.322754 331.349976 303.315735 338.5 C 300.308746 345.650024 297.605743 352.918945 297.309082 354.653198 C 296.878265 357.171814 297.199219 358.036255 298.903961 358.948608 C 300.538818 359.823547 301.584442 359.78772 303.372528 358.79541 C 304.656403 358.082947 308.52478 355.360657 311.968933 352.745972 C 315.413055 350.131226 321.042145 346.650269 324.478027 345.010498 C 327.913879 343.370728 333.592102 341.294556 337.096252 340.396851 C 341.127014 339.364197 345.547577 338.953247 349.130127 339.278076 C 352.244598 339.560486 356.076904 340.421509 357.646393 341.191467 C 359.745117 342.221008 360.430298 343.212158 360.236511 344.938293 C 360.091614 346.229065 356.76239 352.733521 352.838226 359.392578 C 348.914093 366.051697 341.258179 378.07605 335.825073 386.113464 C 330.391998 394.150879 321.285309 406.525879 315.588043 413.613464 C 309.890747 420.70105 301.015228 430.788269 295.864655 436.029419 C 290.714111 441.27063 283.350006 448.187195 279.5 451.399597 C 275.649994 454.612061 269.125 459.494324 265 462.249084 C 260.875 465.003906 254.15715 468.80011 250.071457 470.685059 C 245.985748 472.570007 238.909424 475.194153 234.346298 476.51651 C 229.783157 477.838837 221.490829 479.38858 215.918884 479.960388 Z M 197.5 430.900391 C 200.800003 431.370544 205.75 431.546631 208.5 431.291748 C 211.25 431.036804 216.199997 430.173706 219.5 429.37384 C 222.800003 428.573914 228.639557 426.475098 232.476807 424.709717 C 236.314041 422.944397 242.164047 419.535828 245.476807 417.135132 C 248.789566 414.734497 254.121643 410.234497 257.325867 407.135132 C 260.53009 404.035828 263.791077 400.287781 264.572479 398.806213 C 265.550781 396.951294 265.71402 395.377991 265.096649 393.75415 C 264.603516 392.457153 260.537537 387.9505 256.061127 383.739441 C 251.584702 379.528381 244.452194 373.645203 240.21109 370.66571 C 235.969986 367.686279 229.125 363.554993 225 361.485046 C 220.875 359.415161 215.101547 356.896118 212.170105 355.887146 C 209.238663 354.878235 203.098221 353.529297 198.524673 352.889465 C 191.475555 351.90332 188.77211 351.984924 180.773315 353.42511 C 175.583618 354.359558 167.913086 356.612732 163.727692 358.43219 C 159.542297 360.251648 153.27887 363.783386 149.808945 366.280518 C 146.33902 368.777649 141.30809 373.069275 138.629089 375.817505 C 135.950089 378.565674 133.534668 381.983398 133.261505 383.412354 C 132.886246 385.375427 133.758606 387.292358 136.830704 391.255249 C 139.066925 394.139832 143.957336 399.495117 147.698273 403.155762 C 151.439224 406.816467 157.583359 412.120667 161.351898 414.94281 C 165.120438 417.765015 170.745438 421.349304 173.851898 422.907837 C 176.958359 424.466431 182.199997 426.710022 185.5 427.893555 C 188.800003 429.077148 194.199997 430.430176 197.5 430.900391 Z M 213.590027 417.720398 C 209.882751 419.608154 206.598389 420.398499 201.5 420.629639 C 197.649994 420.804138 193.375 420.576721 192 420.124268 C 190.625 419.671814 187.657394 418.360291 185.405319 417.209717 C 183.153244 416.059204 180.00325 413.624695 178.405319 411.799805 C 176.807388 409.974915 174.600006 406.475464 173.5 404.023315 C 172.065521 400.8255 171.5 397.411987 171.5 391.951172 C 171.5 385.954834 172.022095 383.2229 173.957916 379.089844 C 175.309784 376.203552 177.94725 372.497498 179.81897 370.854065 C 181.690689 369.210693 185.24411 366.883728 187.715469 365.683044 C 191.052338 364.06189 194.047989 363.5 199.354431 363.5 C 203.796585 363.5 208.234955 364.169678 211.085785 365.27002 C 213.607956 366.243469 217.761459 369.129883 220.315796 371.684204 C 222.870117 374.238525 225.756516 378.392029 226.730011 380.914246 C 227.820801 383.740295 228.5 388.198486 228.5 392.53241 C 228.5 397.411987 227.887741 400.929688 226.5 404.023315 C 225.399994 406.475464 223.190506 409.977295 221.590027 411.805115 C 219.989532 413.632935 216.389526 416.2948 213.590027 417.720398 Z M 248.092865 403.919556 C 244.843948 406.734131 240.0457 410.233093 237.430084 411.694946 C 233.117859 414.105103 232.724335 414.17334 233.209641 412.426453 C 233.503998 411.366943 234.753448 407.575012 235.986206 404 C 237.86731 398.5448 238.136749 396.17395 237.662476 389.25 C 237.199615 382.49292 237.356598 381 238.529938 381 C 239.317856 381 243.120941 383.979492 246.981262 387.621155 C 251.684525 392.057922 254 394.994385 254 396.522156 C 254 398.060547 252.07872 400.466553 248.092865 403.919556 Z M 162.53447 399.75 C 163.015015 402.251038 162.812851 403 161.657272 403 C 160.83136 403 156.499908 399.30481 152.031815 394.788391 C 145.959763 388.650757 143.982742 386.004883 144.203995 384.312317 C 144.375305 383.001709 146.966919 379.967285 150.356186 377.108887 C 153.577103 374.392517 159.120956 370.738098 162.675888 368.988037 C 166.23082 367.237915 169.426651 366.093323 169.777756 366.444397 C 170.12886 366.795532 168.983521 369.688721 167.232559 372.873718 C 165.481613 376.058716 163.353745 381.662476 162.503998 385.326538 C 161.654251 388.990601 161.172974 393.00354 161.434525 394.244202 C 161.69606 395.484924 162.19104 397.962524 162.53447 399.75 Z"/>
    <path id="trophy" fill="#000000" fill-rule="evenodd" stroke="none" d="M 486.176971 693.702881 C 406.759308 693.856873 380.663788 693.615601 378.034637 692.702881 C 376.090027 692.027893 373.588715 690.041626 372.3349 688.176758 C 371.106018 686.348938 369.817871 682.968384 369.472382 680.664307 C 369.126862 678.360229 368.99173 667.480713 369.172089 656.487549 C 369.423096 641.187866 369.851807 635.817505 371 633.589966 C 371.825012 631.98938 373.769135 629.73938 375.320282 628.589966 C 377.937195 626.650696 379.667633 626.477966 399.320282 626.194519 C 410.969116 626.026489 420.905823 625.485657 421.401855 624.992676 C 421.937225 624.460571 421.223724 618.489258 419.646027 610.298157 C 418.184296 602.709167 416.428467 595.412231 415.744171 594.082642 C 414.646912 591.950745 413.201233 591.45105 403.5 589.850769 C 397.450012 588.852783 388.225006 586.693726 383 585.052856 C 377.774994 583.412109 369.759033 580.256348 365.186737 578.040161 C 360.614441 575.823975 354.089417 572.023804 350.686737 569.595337 C 347.284027 567.16687 341.536285 562.101929 337.91394 558.339966 C 334.291595 554.578003 329.696869 549.025024 327.70343 546 C 325.710022 542.974976 322.246704 536.577698 320.007233 531.783813 C 317.767761 526.989868 315.012543 519.564819 313.884552 515.283813 C 312.756561 511.002716 311.580048 503.49881 311.27005 498.608459 C 310.937408 493.360352 311.201508 487.030212 311.914581 483.160095 C 312.579071 479.553833 314.604218 473.430023 316.414948 469.551636 C 318.225647 465.673218 321.793823 459.691956 324.344238 456.259888 C 326.894653 452.82782 332.698029 447.077087 337.240662 443.480591 C 341.783295 439.884033 349.890472 434.683289 355.256592 431.923401 C 360.622711 429.163513 368.047699 425.781189 371.756592 424.407104 C 375.465454 423.03302 378.913666 421.308289 379.41925 420.574341 C 379.924835 419.840332 380.374817 416.71936 380.41925 413.638794 C 380.489044 408.796875 380.909058 407.628662 383.517975 405.020081 C 385.854218 402.684143 388.677856 401.459839 396.017975 399.60022 C 401.233093 398.278931 410.90918 396.280518 417.520355 395.159241 C 424.131561 394.037964 436.459991 392.575134 444.91687 391.908447 C 454.385345 391.162109 467.440674 390.935486 478.896515 391.318726 C 489.128418 391.661011 503.350006 392.627258 510.5 393.466003 C 517.650024 394.304688 527.775024 395.659607 533 396.476807 C 538.224976 397.294067 548.349976 399.126526 555.5 400.548889 C 562.650024 401.971313 571.99054 404.05481 576.256714 405.178894 C 580.522888 406.30304 585.119934 408.093079 586.47229 409.15686 C 587.824646 410.220642 589.368469 412.674988 589.903015 414.611023 C 590.583862 417.07666 590.480652 420.2005 589.558533 425.039917 C 588.57605 430.196228 588.528503 432.313293 589.371033 433.385559 C 589.991943 434.175781 594.597412 436.859131 599.605408 439.348572 C 604.613342 441.838013 612.351624 446.618286 616.801575 449.971436 C 621.393494 453.431519 627.583801 459.404846 631.115906 463.783997 C 634.538879 468.027832 639.276306 475.577301 641.643616 480.560638 C 644.010925 485.544006 646.595581 492.743988 647.387268 496.560638 C 648.178894 500.377289 649.124146 506.424988 649.487793 510 C 649.85144 513.575012 649.650452 520.549988 649.041138 525.5 C 648.431824 530.450012 647.258118 537.200012 646.432922 540.5 C 645.607727 543.799988 643.591125 549.377075 641.95166 552.893433 C 640.312195 556.409912 636.933044 562.142578 634.442505 565.632813 C 631.951965 569.122986 627.121033 574.240479 623.707092 577.004944 C 620.293213 579.769409 613.933167 583.888306 609.573669 586.157959 C 605.214233 588.427673 597.937561 591.546509 593.40332 593.088745 C 588.869141 594.63092 581.411011 596.607178 576.829651 597.480408 C 572.248352 598.353638 565.892944 599.343933 562.706482 599.68103 C 558.878113 600.08606 556.620667 600.84021 556.051208 601.904358 C 555.577148 602.790039 554.418274 607.710449 553.475891 612.838562 C 552.508606 618.10199 552.140747 622.531189 552.631165 623.009277 C 553.109009 623.475098 561.905823 624.001038 572.179565 624.178101 C 589.301575 624.473145 591.094299 624.674866 593.679565 626.597168 C 595.230774 627.75061 597.174988 629.883911 598 631.337891 C 599.2229 633.493164 599.5 638.602905 599.5 659 C 599.5 679.397095 599.2229 684.506836 598 686.662109 C 597.174988 688.116089 595.229614 690.24939 593.677002 691.402832 C 590.85675 693.497925 590.750549 693.500244 486.176971 693.702881 Z M 589.5 634.5 C 550.456543 634.007813 546.149475 633.672729 544.164063 632.371826 C 541.943359 630.916748 541.788208 630.315063 542.299927 625.142334 C 542.606873 622.039063 544.023804 613.882202 545.448669 607.016113 C 546.873474 600.149902 548.65625 593.915161 549.410278 593.161133 C 550.216125 592.355286 555.669922 591.207275 562.640625 590.376221 C 569.163269 589.598511 578.98999 587.823975 584.477844 586.432739 C 589.965637 585.041504 598.724121 581.812988 603.941162 579.258301 C 611.157166 575.72467 615.265381 572.856567 621.111816 567.270996 C 626.84845 561.790161 629.699402 558.099487 632.356323 552.714294 C 634.313965 548.74646 636.722168 542.135376 637.707825 538.023071 C 638.995361 532.651611 639.5 526.549438 639.5 516.352905 C 639.5 505.935974 639.024414 500.342407 637.712524 495.329803 C 636.72937 491.573395 634.292786 485.196106 632.297913 481.15799 C 629.911621 476.327759 626.116638 471.100952 621.204956 465.879761 C 617.098755 461.514832 610.425476 455.768188 606.375488 453.109375 C 602.325439 450.450562 595.521667 446.793396 591.25592 444.9823 C 586.990173 443.171143 582.429382 441.035767 581.12085 440.237 C 578.929565 438.899353 578.790527 438.339172 579.359192 433.142334 C 579.698853 430.039063 580.269287 425.32843 580.626953 422.674316 C 581.097656 419.180908 580.893799 417.46637 579.888611 416.464233 C 579.124878 415.70282 572.875 413.71814 566 412.053833 C 559.125 410.389526 548.151917 408.118835 541.615295 407.007874 C 535.078735 405.896912 522.703735 404.203125 514.115295 403.243958 C 502.776794 401.977661 490.42041 401.5 469 401.5 C 447.126892 401.5 436.009735 401.941345 426 403.207031 C 418.575012 404.145874 408.225006 405.880798 403 407.062439 C 397.774994 408.24408 392.484192 409.850952 391.242645 410.633301 C 389.258331 411.883667 389.071716 412.566467 389.69989 416.277893 C 390.092926 418.600037 390.365356 421.568359 390.305298 422.874146 C 390.245239 424.179932 389.364502 426.040161 388.348053 427.007935 C 387.331635 427.975708 382.843445 429.963135 378.374359 431.424438 C 373.905243 432.885803 366.480255 435.980469 361.874359 438.301514 C 357.268463 440.622559 350.954834 444.21991 347.844086 446.295593 C 344.733337 448.371277 339.108337 453.322388 335.344086 457.298096 C 331.551636 461.303528 327.242249 467.120911 325.679169 470.345032 C 324.127716 473.545135 322.171906 479.38916 321.332977 483.331726 C 320.362885 487.890594 319.988708 493.230164 320.305023 498 C 320.578583 502.125 321.782196 509.313324 322.979706 513.97406 C 324.177216 518.634766 326.918488 526.138794 329.071411 530.649658 C 331.224365 535.160522 335.620026 542.166016 338.839569 546.217407 C 342.059082 550.268921 347.574768 555.845703 351.096619 558.610291 C 354.6185 561.374878 359.75 564.986816 362.5 566.636841 C 365.25 568.286804 370.875 571.032349 375 572.738037 C 379.125 574.443726 386.231567 576.789917 390.792358 577.951782 C 395.353149 579.113586 403.856873 580.690979 409.689484 581.457031 C 417.300049 582.456543 420.794617 583.365112 422.066467 584.674927 C 423.257263 585.901245 425.055939 592.569092 427.549225 605 C 429.590027 615.174988 431.488678 625.446533 431.768463 627.825684 C 432.146271 631.038208 431.846832 632.582275 430.605011 633.825684 C 429.160767 635.27179 425.564087 635.568115 404.216431 636 L 379.5 636.5 L 379.230255 658.977356 C 379.081909 671.339966 379.180267 682.027466 379.448883 682.727356 C 379.839844 683.746216 400.656097 684 483.846161 684 C 570.792847 684 587.941406 683.775513 588.896301 682.625 C 589.697083 681.660034 589.957336 674.27771 589.768738 657.875 L 589.5 634.5 Z M 563.6922 547.662537 C 561.350464 548.042542 560.007141 547.713562 559.013977 546.516846 C 557.867798 545.135742 557.824219 543.655151 558.768127 538.169006 C 559.39917 534.501099 562.204895 519.575012 565.002991 505 C 567.801086 490.424988 570.857605 475.350006 571.795227 471.5 C 573.369751 465.034668 573.716736 464.475159 576.337646 464.17511 C 578.116821 463.971436 580.569885 464.773132 582.914001 466.324402 C 584.970276 467.685181 588.524963 470.925598 590.813354 473.525269 C 593.101685 476.125 596.206909 480.782806 597.713867 483.876007 C 600.136169 488.848175 600.456421 490.660645 600.476868 499.514099 C 600.499756 509.432251 600.45459 509.622162 595.758545 519.335571 C 592.225891 526.642578 589.54895 530.595093 585.258545 534.838989 C 582.09137 537.971802 576.682373 542.018799 573.238586 543.832275 C 569.7948 545.645752 565.498962 547.369324 563.6922 547.662537 Z M 387.112335 541.419434 C 390.075562 542.21637 395.875 542.891357 400 542.919434 C 404.224243 542.948242 408.591919 542.411865 410 541.691528 C 412.222595 540.554504 412.491333 539.807129 412.421967 534.956299 C 412.379059 531.955322 409.524841 515.549988 406.079285 498.5 C 402.24942 479.548553 399.207367 466.819824 398.252289 465.75 C 397.393036 464.787476 395.844818 464 394.811768 464 C 393.778717 464 390.585968 465.187317 387.716766 466.638428 C 384.847534 468.0896 379.799988 471.103516 376.5 473.33606 C 373.200012 475.568634 368.156158 479.733337 365.291443 482.590973 C 362.426758 485.448608 358.826752 490.3479 357.291443 493.478333 C 355.084717 497.977783 354.5 500.56604 354.5 505.834991 C 354.5 511.085938 355.084961 513.691162 357.257172 518.114258 C 358.77359 521.202148 362.264496 525.97876 365.014709 528.729004 C 367.764954 531.479248 372.64978 535.133667 375.869904 536.849976 C 379.089996 538.566284 384.149109 540.622559 387.112335 541.419434 Z M 571.758423 534.550537 C 572.716309 534.189148 575.663269 531.779968 578.30719 529.196777 C 580.951172 526.613525 584.399658 522.25 585.97052 519.5 C 587.541382 516.75 589.595886 511.832336 590.536072 508.571899 C 591.660583 504.67215 592.072205 500.732635 591.739014 497.05835 C 591.460449 493.986359 590.270813 489.45401 589.095398 486.98645 C 587.919983 484.51889 586.180176 481.508759 585.229126 480.297272 C 584.278137 479.085754 582.741638 477.811279 581.814758 477.465118 C 580.507568 476.976898 579.885864 477.695404 579.043518 480.667847 C 578.446228 482.775543 575.919678 495.254486 573.428894 508.398895 C 570.938171 521.543274 569.151489 532.952454 569.458557 533.752625 C 569.805481 534.656616 570.676331 534.95874 571.758423 534.550537 Z M 401.963257 533.043884 C 401.158478 533.552856 399.600006 533.923645 398.5 533.867798 C 397.399994 533.81189 394.081757 533.364502 391.126099 532.873535 C 388.170471 532.382507 383.445465 530.829773 380.626099 529.422974 C 377.806732 528.016113 373.802246 525.219116 371.727234 523.207397 C 369.652222 521.195618 366.839722 517.312622 365.477234 514.578491 C 364.114746 511.84433 363 507.890747 363 505.792755 C 363 503.694763 363.952667 499.951477 365.117065 497.474365 C 366.338196 494.876495 370.099609 490.331848 374.005341 486.73526 C 377.729523 483.305878 382.792755 479.416687 385.256989 478.092621 C 387.721191 476.768555 390.397614 475.938599 391.20459 476.24826 C 392.225067 476.639862 393.975281 483.310211 396.952789 498.15564 C 399.307343 509.89505 401.727142 522.339111 402.330139 525.809204 C 403.249725 531.101074 403.190552 532.267578 401.963257 533.043884 Z"/>
    <path id="top-star" fill="#000000" fill-rule="evenodd" stroke="none" d="M 648 366.771851 C 646.23938 366.963257 625.833069 355.799622 579 329.023987 C 542.424988 308.11322 511.994476 291.003357 511.376648 291.002197 C 510.758789 291.000977 496.358795 302.480835 479.376648 316.513 C 462.394501 330.545166 447.449402 342.303467 446.165375 342.642639 C 444.715424 343.025635 443.266205 342.694763 442.340973 341.769531 C 441.335449 340.764038 439.925171 333.368225 438.002197 319.016479 C 436.435242 307.321655 434.750732 297.350769 434.25885 296.858826 C 433.733032 296.333008 424.32666 298.456665 411.432251 302.012329 C 398.893036 305.470032 388.001038 307.940247 386 307.78009 C 382.83136 307.526489 382.503143 307.216003 382.533051 304.5 C 382.553436 302.650208 391.536743 283.345642 405.963989 254.14856 C 427.115509 211.343201 429.263092 206.5354 428.333038 204.071411 C 427.767181 202.572266 415.676788 182.255432 401.465485 158.922852 C 385.868439 133.315125 375.4599 115.218201 375.205841 113.266113 C 374.856995 110.585815 375.188507 109.881775 377.142487 109.153259 C 378.472229 108.65741 391.27063 108.608215 406.5 109.040283 C 421.350006 109.461609 433.7258 109.441589 434.001801 108.995728 C 434.277802 108.549927 433.894501 98.356018 433.150055 86.34259 C 432.344452 73.342102 432.141296 63.08313 432.648254 61 C 433.233887 58.593567 434.138611 57.408569 435.543915 57.207458 C 436.744934 57.035583 442.834747 60.220581 450.31076 64.930725 C 457.30838 69.339417 481.965515 84.909668 505.104431 99.531311 C 529.270203 114.80188 547.95459 125.985046 549.006531 125.808044 C 550.030273 125.635864 567.418701 104.689453 588.434387 78.3125 C 609.112488 52.359375 626.976868 30.824768 628.132996 30.457764 C 629.541016 30.010925 630.815491 30.403015 631.993042 31.645325 C 632.9599 32.665405 637.464355 43.174988 642.00293 55 C 646.541443 66.825012 650.759949 77.007629 651.37738 77.628113 C 652.092712 78.346924 660.027344 78.996887 673.248535 79.419678 C 684.660217 79.784607 704.910217 80.478699 718.248535 80.962158 C 731.586853 81.445618 743.787415 82.334778 745.360962 82.937988 C 747.730286 83.846375 748.152405 84.50824 747.817566 86.789734 C 747.535461 88.711548 728.072937 111.566101 683.456604 162.367676 C 648.280457 202.420288 619.112061 235.872925 618.637939 236.706787 C 618.066101 237.712524 618.40271 239.030518 619.637939 240.622314 C 620.662048 241.942017 631.625 253.594177 644 266.515991 C 656.375 279.437866 670.065796 293.847046 674.42395 298.536377 C 678.80304 303.248169 682.381897 307.99646 682.42395 309.150208 C 682.465759 310.298523 681.737183 311.729065 680.80481 312.329285 C 679.503479 313.167053 673.697266 312.186401 655.813354 308.108276 C 643.000366 305.186462 630.989563 302.548035 629.12262 302.245056 C 625.83783 301.711975 625.743958 301.788025 626.218018 304.597107 C 626.487488 306.193665 632.200806 319.565613 638.914368 334.3125 C 646.99884 352.07074 651.015991 362.032471 650.810364 363.8125 C 650.576477 365.837646 649.883911 366.567017 648 366.771851 Z M 540.5 221 C 545.297302 221 547.46936 220.484375 550.078308 218.726196 C 551.934082 217.475586 554.514526 214.888123 555.812744 212.976196 C 557.824341 210.01355 558.120361 208.536499 557.816711 202.9776 C 557.55365 198.16333 556.854248 195.604065 555.145935 193.204956 C 553.873047 191.417358 551.087402 189.06488 548.955627 187.977356 C 546.66748 186.810059 543.117432 186.006714 540.289856 186.016479 C 537.18866 186.0271 534.096985 186.827515 531.520386 188.286804 C 529.289063 189.550598 526.550598 192.289063 525.286804 194.520386 C 523.779419 197.181946 523.032898 200.156006 523.032898 203.5 C 523.032898 206.840637 523.779175 209.817688 525.281677 212.470459 C 526.518494 214.654175 529.052673 217.466675 530.913086 218.720459 C 533.531189 220.484741 535.698059 221 540.5 221 Z"/>
</svg>
