<svg width="1021" height="288" viewBox="0 0 1021 288" fill="none" xmlns="http://www.w3.org/2000/svg">
<rect y="41" width="1021" height="206" rx="50" fill="#CAEDF6"/>
<path d="M628.87 94.5992L621.564 99.5653C621.564 99.5653 619.439 97.1967 617.303 95.5303C614.051 92.9942 611.201 91.9955 607.258 90.8746C601.304 89.182 591.43 89.9434 591.43 89.9434L587.168 82.8046C587.168 82.8046 555.628 74.1889 551.25 57.3531C546.443 38.8664 558.162 22.1792 575.602 15.1409C595.982 6.9157 620.499 17.3044 626.739 38.7301C630.762 52.5434 618.825 74.7346 618.825 74.7346L628.87 94.5992Z" fill="#73D0E7"/>
<path d="M640.624 142.935L682.368 154.811L711.228 127.644L715.366 163.176L752.36 182.46L713.959 196.377L714.779 234.613L685.085 209.296L636.662 211.676L658.5 181.053L640.624 142.935Z" fill="#73D0E7"/>
<path d="M406.543 155.957C401.514 171.333 392.582 183.011 392.582 183.011L355.776 115.69C355.776 115.69 364.279 116.877 372.91 114.432C377.352 113.174 382.032 109.67 384.967 106.882C391.618 100.566 397.938 92.3037 406.543 95.5572C413.354 98.1322 416.537 103.474 417.331 110.657C418.015 116.836 414.181 119.842 412.255 125.757C409.943 132.857 408.865 148.86 406.543 155.957Z" fill="#1D90AF"/>
<path d="M381.402 186.211C378.991 185.434 379.535 180.087 379.535 180.087L395.716 167.839C395.716 167.839 397.594 175.675 395.716 180.087C394.055 183.99 391.478 190.842 388.248 188.048C386.858 186.846 386.381 183.761 386.381 183.761C386.381 183.761 383.468 186.876 381.402 186.211Z" fill="#F1F1F1"/>
<path d="M397.099 167.507L395.716 167.839L397.1 167.508V167.511C397.1 167.512 397.101 167.514 397.102 167.516C397.103 167.521 397.104 167.529 397.106 167.538C397.11 167.555 397.117 167.581 397.124 167.613C397.138 167.677 397.159 167.769 397.184 167.887C397.234 168.122 397.303 168.459 397.379 168.877C397.532 169.71 397.715 170.87 397.837 172.176C398.074 174.716 398.113 178.088 397.025 180.644C396.229 182.514 395.102 185.379 393.748 187.377C393.08 188.361 392.213 189.362 391.106 189.838C390.518 190.091 389.858 190.197 389.164 190.066C388.48 189.937 387.864 189.597 387.317 189.124C386.448 188.372 385.913 187.232 385.587 186.323C385.553 186.347 385.52 186.374 385.486 186.398C384.935 186.786 384.257 187.193 383.524 187.451C382.799 187.706 381.888 187.862 380.966 187.565C379.853 187.206 379.19 186.346 378.806 185.533C378.425 184.724 378.243 183.81 378.152 183.021C378.059 182.216 378.051 181.452 378.066 180.897C378.073 180.618 378.086 180.385 378.097 180.22C378.103 180.138 378.109 180.072 378.113 180.025C378.115 180.001 378.116 179.982 378.117 179.968C378.118 179.962 378.119 179.956 378.119 179.952C378.119 179.95 378.119 179.948 378.119 179.946L378.12 179.944V179.943L378.183 179.327L396.592 165.391L397.099 167.507ZM380.916 180.825C380.914 180.872 380.911 180.92 380.909 180.971C380.897 181.443 380.904 182.065 380.977 182.695C381.051 183.339 381.185 183.908 381.38 184.32C381.572 184.727 381.745 184.827 381.838 184.857C381.949 184.892 382.177 184.909 382.579 184.767C382.973 184.628 383.411 184.38 383.847 184.074C384.274 183.772 384.654 183.446 384.929 183.192C385.065 183.066 385.173 182.961 385.245 182.889C385.281 182.853 385.307 182.826 385.324 182.809C385.332 182.8 385.337 182.794 385.34 182.791C385.342 182.789 385.343 182.788 385.343 182.788L385.342 182.789L387.34 180.654L387.787 183.545C387.787 183.548 387.788 183.553 387.79 183.561C387.792 183.578 387.797 183.605 387.804 183.642C387.817 183.715 387.838 183.825 387.867 183.962C387.927 184.239 388.02 184.616 388.149 185.023C388.433 185.915 388.804 186.648 389.179 186.972C389.439 187.197 389.609 187.254 389.692 187.27C389.763 187.284 389.848 187.282 389.982 187.225C390.318 187.08 390.804 186.648 391.393 185.78C392.549 184.075 393.542 181.562 394.407 179.53C395.197 177.674 395.236 174.922 395.004 172.441C394.933 171.681 394.837 170.973 394.742 170.359L380.916 180.825Z" fill="#115669"/>
<path d="M224.105 186.498C212.735 185.956 195.524 180.83 195.524 180.83L224.74 118.482C224.74 118.482 239.279 124.342 248.876 123.521C259.065 122.648 273.011 113.444 273.011 113.444L339.066 110.925C339.066 110.925 356.599 106.701 366.377 110.925C374.9 114.607 377.979 119.901 383.526 127.299C392.568 139.358 397.499 163.196 397.499 163.196C397.499 163.196 395.264 170.667 391.783 173.902C387.884 177.525 384.195 180.47 379.08 178.94C375.549 177.885 372.093 172.643 372.093 172.643C372.093 172.643 348.399 184.39 332.079 184.608C322.293 184.739 316.335 184.582 307.309 180.83C296.267 176.24 283.808 161.307 283.808 161.307C283.808 161.307 267.641 178.491 253.957 183.349C242.919 187.266 235.815 187.055 224.105 186.498Z" fill="#47BFE1"/>
<path d="M348.921 107.926C354.555 107.395 361.698 107.354 366.941 109.619C375.887 113.484 379.197 119.156 384.663 126.446C389.337 132.679 392.888 141.849 395.259 149.341C396.451 153.109 397.359 156.494 397.968 158.939C398.272 160.161 398.502 161.15 398.656 161.835C398.734 162.177 398.792 162.444 398.831 162.625C398.851 162.716 398.866 162.786 398.876 162.834C398.881 162.857 398.885 162.875 398.888 162.887C398.889 162.894 398.89 162.899 398.891 162.902C398.891 162.904 398.891 162.905 398.892 162.906V162.908L398.965 163.26L398.862 163.604L397.499 163.196C398.774 163.577 398.857 163.602 398.862 163.604L398.861 163.607L398.853 163.632C398.848 163.649 398.841 163.672 398.831 163.702C398.813 163.763 398.786 163.849 398.75 163.96C398.679 164.181 398.574 164.498 398.437 164.886C398.165 165.661 397.764 166.731 397.25 167.907C396.245 170.205 394.72 173.115 392.751 174.944C388.909 178.514 384.644 182.089 378.672 180.303C376.504 179.655 374.533 177.814 373.208 176.35C372.565 175.64 372.026 174.962 371.633 174.441C370.946 174.767 369.954 175.228 368.716 175.78C366.219 176.894 362.719 178.381 358.703 179.876C350.715 182.849 340.517 185.918 332.098 186.031C322.258 186.162 316.063 186.009 306.762 182.143C300.983 179.741 294.948 174.7 290.434 170.374C288.158 168.194 286.232 166.159 284.876 164.67C284.438 164.189 284.06 163.764 283.747 163.409C283.304 163.857 282.738 164.426 282.062 165.086C280.315 166.789 277.843 169.112 274.937 171.589C269.164 176.51 261.535 182.169 254.432 184.69C243.119 188.705 235.78 188.477 224.037 187.919C218.215 187.642 210.964 186.198 205.225 184.845C202.343 184.166 199.819 183.504 198.015 183.012C197.114 182.765 196.391 182.561 195.893 182.418C195.644 182.347 195.452 182.291 195.321 182.252C195.255 182.233 195.205 182.219 195.171 182.209C195.154 182.204 195.141 182.199 195.132 182.197C195.128 182.196 195.124 182.195 195.122 182.194C195.121 182.194 195.12 182.193 195.119 182.193L193.534 181.722L224.024 116.66L225.272 117.164C225.273 117.164 225.276 117.165 225.279 117.166C225.285 117.169 225.295 117.172 225.308 117.177C225.334 117.188 225.373 117.203 225.426 117.224C225.53 117.265 225.687 117.326 225.89 117.403C226.297 117.559 226.892 117.781 227.637 118.045C229.128 118.574 231.215 119.27 233.595 119.941C238.404 121.296 244.227 122.491 248.754 122.104C253.559 121.692 259.386 119.284 264.122 116.887C266.466 115.7 268.497 114.539 269.943 113.675C270.665 113.244 271.24 112.887 271.632 112.639C271.828 112.515 271.98 112.419 272.08 112.354C272.13 112.321 272.168 112.296 272.193 112.28C272.205 112.272 272.214 112.266 272.22 112.262C272.223 112.26 272.225 112.259 272.226 112.258L272.227 112.258L272.56 112.038L338.872 109.509C338.895 109.504 338.92 109.499 338.948 109.492C339.084 109.461 339.284 109.417 339.54 109.362C340.05 109.252 340.787 109.1 341.701 108.932C343.527 108.597 346.067 108.194 348.921 107.926ZM365.813 112.231C361.278 110.272 354.765 110.232 349.188 110.757C346.437 111.017 343.982 111.406 342.215 111.731C341.333 111.893 340.624 112.038 340.138 112.143C339.895 112.195 339.707 112.237 339.582 112.266C339.52 112.28 339.472 112.291 339.441 112.298C339.426 112.302 339.415 112.304 339.408 112.306C339.405 112.306 339.402 112.307 339.401 112.308L339.399 112.308L339.262 112.341L339.12 112.346L273.453 114.851C273.368 114.906 273.267 114.971 273.152 115.044C272.742 115.303 272.147 115.672 271.402 116.117C269.915 117.006 267.823 118.201 265.406 119.424C260.622 121.846 254.381 124.476 248.997 124.937C243.927 125.372 237.683 124.048 232.824 122.679C230.369 121.987 228.222 121.27 226.687 120.726C226.222 120.561 225.812 120.41 225.467 120.282L197.52 179.919C197.882 180.02 198.299 180.14 198.766 180.267C200.545 180.753 203.035 181.406 205.877 182.076C211.586 183.422 218.626 184.813 224.173 185.077C235.851 185.632 242.719 185.828 253.481 182.008C260.063 179.672 267.36 174.31 273.091 169.424C275.938 166.998 278.363 164.72 280.075 163.05C280.931 162.215 281.608 161.533 282.07 161.06C282.301 160.824 282.478 160.641 282.597 160.517C282.656 160.455 282.701 160.408 282.73 160.377C282.745 160.362 282.756 160.35 282.763 160.343C282.766 160.339 282.769 160.336 282.771 160.334L282.772 160.333L283.872 159.163L284.901 160.396L284.902 160.397C284.903 160.399 284.905 160.401 284.907 160.404C284.913 160.41 284.921 160.42 284.932 160.434C284.955 160.46 284.989 160.501 285.034 160.554C285.125 160.661 285.262 160.82 285.44 161.025C285.795 161.435 286.317 162.028 286.979 162.754C288.303 164.208 290.183 166.194 292.402 168.32C296.877 172.609 302.593 177.329 307.855 179.516C316.607 183.154 322.327 183.316 332.06 183.186C339.961 183.08 349.77 180.165 357.71 177.21C361.657 175.741 365.1 174.279 367.556 173.183C368.54 172.744 369.364 172.362 369.998 172.065C369.948 171.991 369.898 171.914 369.844 171.836C369.175 170.847 368.23 169.473 367.127 167.932C364.912 164.837 362.1 161.123 359.627 158.505C357.23 155.967 353.797 153.025 350.929 150.693C349.501 149.532 348.227 148.533 347.309 147.824C346.85 147.47 346.48 147.188 346.226 146.996C346.1 146.9 346.002 146.826 345.936 146.777L345.843 146.707C345.841 146.706 345.839 146.704 345.838 146.703L345.837 146.703C345.208 146.233 345.078 145.342 345.548 144.713C346.017 144.083 346.909 143.953 347.538 144.423L347.54 144.425C347.542 144.425 347.544 144.427 347.546 144.428C347.551 144.432 347.557 144.437 347.566 144.444C347.584 144.457 347.611 144.477 347.645 144.502C347.714 144.554 347.815 144.631 347.945 144.729C348.205 144.926 348.581 145.213 349.047 145.573C349.979 146.292 351.273 147.306 352.723 148.485C355.609 150.831 359.163 153.871 361.695 156.552C364.308 159.318 367.212 163.162 369.442 166.277C370.561 167.842 371.521 169.237 372.2 170.241C372.54 170.743 372.81 171.148 372.996 171.428C373.088 171.568 373.161 171.676 373.21 171.75C373.234 171.787 373.252 171.816 373.265 171.836C373.271 171.845 373.276 171.853 373.279 171.858L373.28 171.86L373.31 171.904C373.333 171.938 373.368 171.989 373.415 172.056C373.509 172.19 373.649 172.387 373.828 172.627C374.188 173.11 374.702 173.761 375.317 174.441C376.603 175.862 378.125 177.17 379.487 177.578C383.745 178.851 386.859 176.535 390.814 172.861C392.326 171.455 393.661 169.012 394.643 166.767C395.123 165.67 395.498 164.669 395.753 163.942C395.873 163.603 395.964 163.325 396.028 163.126C395.992 162.959 395.944 162.736 395.882 162.462C395.732 161.795 395.506 160.827 395.207 159.627C394.609 157.225 393.717 153.898 392.547 150.199C390.191 142.757 386.756 133.978 382.388 128.153C376.76 120.647 373.914 115.73 365.813 112.231Z" fill="#115669"/>
<path d="M236.709 158.703C235.546 163.325 231.041 169.494 231.041 169.494C231.041 169.494 225.551 173.825 221.595 175.842C213.072 180.185 207.183 181.694 197.664 180.92C190.761 180.358 186.753 179.161 180.66 175.842C178.141 176.476 175.866 176.992 171.844 175.842C164.983 173.879 161.632 168.367 156.729 163.147C152.053 158.168 145.394 149.817 145.394 149.817C145.394 149.817 138.708 133.919 145.394 130.774C148.514 129.307 154.21 130.774 154.21 130.774C154.21 130.774 153.109 121.287 156.729 117.444C160.385 113.564 169.954 114.271 169.954 114.271C169.954 114.271 168.699 102.481 173.733 99.0365C179.408 95.1527 190.736 103.48 190.736 103.48C190.736 103.48 188.737 91.219 193.885 87.6109C198.125 84.639 207.11 87.6109 207.11 87.6109L221.595 108.558C221.595 108.558 226.956 118.835 229.782 125.696C232.972 133.443 236.709 146.008 236.709 146.008C236.709 146.008 237.918 153.898 236.709 158.703Z" fill="#F1F1F1"/>
<path d="M197.603 84.9418C199.187 84.7884 200.824 84.892 202.276 85.0863C203.734 85.2814 205.047 85.5734 205.992 85.815C206.466 85.9362 206.852 86.0452 207.121 86.1252C207.255 86.1652 207.361 86.1983 207.435 86.2216C207.472 86.2331 207.501 86.2428 207.521 86.2493C207.531 86.2526 207.54 86.2548 207.546 86.2567C207.549 86.2576 207.551 86.2589 207.553 86.2595C207.553 86.2598 207.555 86.2602 207.555 86.2604C207.555 86.2631 207.537 86.3207 207.11 87.6106L207.557 86.2604L208.009 86.4105L222.764 107.749L222.815 107.822L222.856 107.9L222.86 107.908C222.862 107.913 222.866 107.921 222.872 107.931C222.882 107.951 222.898 107.98 222.918 108.019C222.958 108.097 223.017 108.212 223.094 108.36C223.247 108.656 223.469 109.086 223.743 109.624C224.292 110.699 225.053 112.204 225.903 113.924C227.599 117.357 229.664 121.677 231.096 125.154C232.714 129.081 234.46 134.202 235.795 138.318C236.464 140.381 237.032 142.201 237.434 143.505C237.635 144.157 237.795 144.681 237.904 145.042C237.958 145.222 238 145.362 238.029 145.457C238.043 145.504 238.054 145.541 238.061 145.565C238.065 145.578 238.068 145.587 238.069 145.593C238.07 145.596 238.071 145.599 238.071 145.601L238.072 145.602L238.1 145.697L238.115 145.793L238.116 145.796C238.116 145.797 238.116 145.799 238.117 145.801C238.117 145.806 238.118 145.813 238.119 145.821C238.122 145.838 238.125 145.863 238.13 145.894C238.139 145.957 238.152 146.048 238.168 146.164C238.199 146.398 238.243 146.735 238.292 147.153C238.388 147.987 238.505 149.151 238.582 150.47C238.735 153.067 238.748 156.424 238.088 159.05C237.453 161.576 235.942 164.424 234.659 166.564C234.007 167.651 233.393 168.589 232.941 169.256C232.715 169.589 232.529 169.856 232.398 170.041C232.334 170.133 232.282 170.205 232.247 170.254C232.229 170.278 232.215 170.298 232.206 170.311C232.201 170.318 232.197 170.322 232.195 170.326C232.193 170.328 232.192 170.33 232.191 170.331L232.19 170.333L231.041 169.495L231.922 170.611L231.921 170.612C231.92 170.613 231.918 170.614 231.917 170.615C231.914 170.617 231.91 170.621 231.904 170.625C231.893 170.634 231.876 170.647 231.855 170.663C231.812 170.697 231.749 170.746 231.669 170.809C231.508 170.934 231.274 171.114 230.982 171.335C230.397 171.779 229.576 172.392 228.629 173.069C226.751 174.411 224.318 176.05 222.24 177.109C217.923 179.309 214.2 180.83 210.309 181.689C206.411 182.55 202.412 182.733 197.549 182.337C190.633 181.775 186.47 180.568 180.47 177.353C179.37 177.622 178.208 177.871 176.882 177.932C175.323 178.005 173.594 177.822 171.453 177.209C167.717 176.141 164.964 174.106 162.554 171.729C161.356 170.548 160.231 169.27 159.12 167.988C157.999 166.695 156.894 165.4 155.693 164.121C153.323 161.598 150.466 158.237 148.213 155.523C147.084 154.163 146.102 152.959 145.402 152.095C145.052 151.663 144.772 151.316 144.58 151.076C144.484 150.956 144.41 150.863 144.359 150.8C144.334 150.769 144.315 150.745 144.302 150.729L144.283 150.706L144.281 150.704L144.158 150.55L144.082 150.369L144.081 150.367C144.081 150.366 144.081 150.364 144.081 150.363C144.079 150.36 144.078 150.357 144.076 150.352C144.072 150.343 144.066 150.33 144.059 150.313C144.046 150.28 144.026 150.232 144.001 150.17C143.951 150.047 143.879 149.867 143.792 149.639C143.616 149.183 143.375 148.531 143.106 147.741C142.572 146.165 141.924 144.012 141.49 141.742C141.059 139.493 140.817 137.021 141.169 134.849C141.524 132.659 142.532 130.548 144.788 129.487C146.726 128.575 149.273 128.623 151.115 128.809C151.677 128.866 152.201 128.94 152.663 129.015C152.624 128.059 152.608 126.815 152.693 125.462C152.785 123.975 152.997 122.32 153.44 120.76C153.879 119.212 154.573 117.658 155.694 116.469C156.826 115.267 158.349 114.485 159.88 113.965C161.423 113.441 163.072 113.149 164.559 112.988C166.052 112.827 167.419 112.792 168.411 112.798C168.418 112.798 168.424 112.798 168.431 112.798C168.426 112.678 168.42 112.553 168.415 112.422C168.375 111.223 168.375 109.579 168.539 107.813C168.704 106.056 169.036 104.124 169.686 102.375C170.332 100.636 171.337 98.9522 172.93 97.8625C174.742 96.6224 176.911 96.4223 178.962 96.6809C181.018 96.9401 183.111 97.6773 184.948 98.5052C186.492 99.2013 187.9 99.9826 189.013 100.654C188.942 99.5535 188.902 98.2335 188.959 96.8402C189.034 95.0122 189.277 93.0004 189.868 91.1748C190.457 89.3584 191.433 87.5928 193.069 86.4466C194.404 85.5103 196.031 85.094 197.603 84.9418ZM201.899 87.906C200.575 87.7288 199.171 87.6474 197.877 87.7726C196.573 87.899 195.486 88.2258 194.701 88.7755C193.763 89.4333 193.059 90.5538 192.574 92.0508C192.092 93.5387 191.871 95.2688 191.802 96.9569C191.733 98.6356 191.818 100.217 191.921 101.382C191.973 101.963 192.029 102.437 192.071 102.762C192.093 102.925 192.11 103.05 192.122 103.133C192.128 103.175 192.133 103.206 192.136 103.226C192.138 103.236 192.139 103.243 192.14 103.247C192.14 103.249 192.14 103.25 192.14 103.251L192.701 106.689L189.894 104.626C189.894 104.626 189.892 104.624 189.89 104.622C189.886 104.62 189.879 104.615 189.87 104.609C189.852 104.595 189.822 104.573 189.783 104.546C189.705 104.49 189.587 104.407 189.434 104.302C189.127 104.092 188.679 103.793 188.123 103.445C187.007 102.747 185.472 101.862 183.778 101.098C182.073 100.33 180.27 99.7132 178.606 99.5034C176.937 99.293 175.562 99.5084 174.536 100.21C173.612 100.843 172.887 101.925 172.352 103.365C171.821 104.795 171.523 106.457 171.372 108.077C171.222 109.689 171.221 111.208 171.258 112.327C171.277 112.885 171.305 113.34 171.329 113.652C171.34 113.808 171.351 113.928 171.358 114.008C171.362 114.047 171.365 114.078 171.367 114.097C171.367 114.106 171.368 114.113 171.368 114.117C171.369 114.118 171.368 114.119 171.368 114.12L171.549 115.814L169.85 115.689C169.849 115.689 169.848 115.689 169.847 115.689C169.844 115.689 169.839 115.689 169.832 115.688C169.817 115.687 169.793 115.686 169.761 115.684C169.697 115.68 169.6 115.674 169.474 115.669C169.221 115.658 168.85 115.646 168.393 115.643C167.476 115.638 166.222 115.669 164.866 115.816C163.504 115.964 162.075 116.223 160.795 116.658C159.505 117.096 158.46 117.682 157.764 118.42C157.075 119.152 156.549 120.226 156.177 121.537C155.808 122.836 155.616 124.274 155.532 125.638C155.447 126.998 155.47 128.249 155.515 129.162C155.537 129.617 155.566 129.985 155.587 130.237C155.598 130.362 155.608 130.459 155.614 130.522C155.617 130.554 155.62 130.578 155.621 130.593C155.622 130.6 155.622 130.605 155.622 130.608L155.623 130.61L155.81 132.229C155.869 132.179 155.932 132.133 156 132.092C156.675 131.689 157.549 131.911 157.951 132.585C157.952 132.587 157.954 132.589 157.955 132.592C157.958 132.597 157.962 132.604 157.968 132.613C157.98 132.632 157.997 132.661 158.02 132.699C158.066 132.775 158.133 132.889 158.221 133.034C158.397 133.327 158.654 133.752 158.976 134.282C159.622 135.341 160.53 136.819 161.579 138.489C163.684 141.836 166.338 145.925 168.581 148.974C171.142 152.455 174.731 156.702 177.698 160.098C179.177 161.792 180.495 163.266 181.443 164.317C181.917 164.842 182.299 165.262 182.561 165.55C182.617 165.611 182.667 165.666 182.711 165.715C182.927 165.78 183.239 165.871 183.623 165.973C184.414 166.181 185.499 166.43 186.688 166.595C187.883 166.761 189.139 166.835 190.286 166.719C191.444 166.602 192.379 166.302 193.036 165.814C197.114 162.781 197.646 156.38 194.119 152.706L194.069 152.654L194.025 152.598C189.994 147.447 187.776 144.514 183.92 139.23C181.239 135.556 177.923 130.781 175.283 126.932C173.961 125.006 172.806 123.309 171.982 122.094C171.57 121.486 171.24 120.999 171.014 120.663C170.9 120.495 170.813 120.365 170.754 120.277C170.724 120.233 170.702 120.199 170.687 120.177C170.679 120.165 170.673 120.157 170.669 120.151C170.667 120.148 170.666 120.146 170.665 120.144L170.664 120.143C170.225 119.492 170.398 118.607 171.05 118.168C171.702 117.73 172.586 117.903 173.024 118.555L173.025 118.557C173.026 118.559 173.028 118.561 173.03 118.564C173.033 118.569 173.039 118.578 173.046 118.589C173.061 118.611 173.084 118.644 173.113 118.688C173.172 118.775 173.26 118.904 173.372 119.071C173.598 119.405 173.926 119.892 174.337 120.498C175.159 121.71 176.311 123.402 177.628 125.323C180.266 129.167 183.563 133.914 186.218 137.553C190.018 142.76 192.21 145.661 196.147 150.693C200.504 153.949 205.684 153.916 210.024 150.592C211.839 149.202 212.921 147.611 213.363 145.926C213.805 144.242 213.645 142.328 212.733 140.227C210.587 135.283 207.82 131.097 205.583 128.141C204.466 126.666 203.485 125.504 202.787 124.713C202.438 124.318 202.16 124.017 201.971 123.816C201.877 123.716 201.806 123.641 201.758 123.592C201.735 123.567 201.717 123.549 201.706 123.538C201.7 123.533 201.697 123.528 201.695 123.526C201.694 123.525 201.692 123.525 201.692 123.524C201.139 122.967 201.143 122.066 201.7 121.513C202.258 120.96 203.158 120.963 203.711 121.52L203.712 121.521L203.714 121.523L203.738 121.547C203.754 121.563 203.776 121.586 203.804 121.615C203.86 121.673 203.941 121.758 204.045 121.869C204.252 122.089 204.55 122.413 204.919 122.831C205.658 123.667 206.685 124.885 207.851 126.425C210.179 129.499 213.08 133.883 215.342 139.094C216.462 141.675 216.746 144.246 216.114 146.649C215.484 149.05 213.976 151.148 211.754 152.85C207.782 155.893 203.133 156.697 198.801 155.268C200.17 159.821 198.731 165.124 194.734 168.096C193.511 169.006 192.01 169.405 190.572 169.55C189.123 169.696 187.624 169.597 186.298 169.413C185.366 169.284 184.498 169.108 183.764 168.937C183.823 169.384 183.871 169.874 183.892 170.387C183.952 171.851 183.813 173.792 182.874 175.402C187.962 178.012 191.671 179.005 197.779 179.502C202.435 179.881 206.14 179.697 209.696 178.911C213.26 178.124 216.744 176.718 220.949 174.575C222.828 173.617 225.118 172.082 226.975 170.755C227.895 170.097 228.693 169.501 229.261 169.07C229.545 168.854 229.772 168.68 229.926 168.56C229.955 168.538 229.98 168.517 230.004 168.499C230.025 168.47 230.049 168.437 230.075 168.4C230.196 168.229 230.371 167.977 230.585 167.66C231.015 167.026 231.6 166.133 232.22 165.101C233.479 163.001 234.802 160.453 235.329 158.356C235.878 156.177 235.892 153.187 235.742 150.637C235.669 149.384 235.558 148.274 235.466 147.479C235.42 147.083 235.378 146.765 235.349 146.549C235.335 146.45 235.324 146.373 235.316 146.318C235.312 146.305 235.308 146.29 235.303 146.274C235.276 146.181 235.234 146.043 235.18 145.864C235.073 145.508 234.915 144.989 234.716 144.343C234.318 143.049 233.752 141.243 233.088 139.196C231.757 135.093 230.04 130.058 228.467 126.238C227.073 122.854 225.044 118.606 223.353 115.185C222.51 113.478 221.754 111.984 221.209 110.917C220.937 110.384 220.718 109.958 220.567 109.666C220.491 109.519 220.433 109.406 220.394 109.33C220.386 109.316 220.378 109.302 220.372 109.29L206.221 88.8264C205.988 88.7582 205.67 88.6687 205.287 88.5709C204.416 88.3482 203.217 88.0823 201.899 87.906ZM150.828 131.639C149.043 131.458 147.182 131.505 145.999 132.061C144.912 132.573 144.249 133.628 143.977 135.304C143.702 136.997 143.878 139.089 144.283 141.208C144.685 143.305 145.29 145.323 145.8 146.827C146.054 147.576 146.283 148.191 146.447 148.617C146.525 148.819 146.588 148.979 146.633 149.089C146.677 149.144 146.732 149.213 146.797 149.294C146.988 149.531 147.265 149.875 147.612 150.304C148.307 151.161 149.282 152.356 150.402 153.706C152.648 156.412 155.459 159.716 157.766 162.173C159.017 163.504 160.169 164.855 161.269 166.125C162.379 167.406 163.441 168.608 164.551 169.703C166.757 171.878 169.11 173.581 172.235 174.475C174.116 175.013 175.536 175.147 176.749 175.09C177.867 175.038 178.858 174.822 179.974 174.545C180.823 173.689 181.12 172.2 181.05 170.505C181.015 169.649 180.889 168.853 180.771 168.268C180.721 168.019 180.672 167.811 180.634 167.657C180.584 167.602 180.525 167.539 180.46 167.467C180.194 167.176 179.809 166.753 179.331 166.223C178.375 165.164 177.047 163.678 175.555 161.97C172.579 158.562 168.925 154.241 166.29 150.659C163.982 147.523 161.283 143.361 159.172 140.003C158.114 138.32 157.198 136.831 156.548 135.763C156.222 135.228 155.963 134.798 155.784 134.502C155.695 134.354 155.627 134.239 155.58 134.161C155.556 134.123 155.538 134.093 155.526 134.073C155.52 134.063 155.515 134.055 155.512 134.05C155.511 134.048 155.51 134.045 155.509 134.044L155.508 134.042C155.229 133.575 155.249 133.013 155.511 132.578L153.856 132.152L153.847 132.149C153.839 132.147 153.826 132.144 153.807 132.14C153.771 132.131 153.714 132.117 153.64 132.1C153.491 132.066 153.272 132.017 152.997 131.963C152.446 131.855 151.681 131.725 150.828 131.639ZM232.19 170.333L232.075 170.49L231.922 170.61L231.041 169.495L232.19 170.333Z" fill="#115669"/>
<path d="M287.187 126.423C284.18 122.143 282.762 113.783 282.762 113.783L289.083 109.991L298.566 104.303L306.784 96.0867L311.841 89.1348C311.841 89.1348 321.699 92.5826 328.277 92.9268C332.476 93.1464 339.024 92.2948 339.024 92.2948C339.024 92.2948 340.805 95.4747 342.185 97.3507C343.739 99.4646 344.412 100.974 346.61 102.407C347.535 103.01 349.139 103.671 349.139 103.671C349.139 103.671 348.344 108.784 347.242 111.887C345.202 117.631 343.657 121.19 339.656 125.791C334.926 131.231 331.24 134.016 324.484 136.535C320.035 138.194 317.221 138.517 312.473 138.431C306.904 138.33 303.602 137.648 298.566 135.271C293.475 132.868 290.423 131.028 287.187 126.423Z" fill="#F1F1F1"/>
<path d="M312.311 87.792C312.312 87.7923 312.314 87.7932 312.316 87.7938C312.32 87.7952 312.326 87.7974 312.335 87.8003C312.353 87.8064 312.38 87.8159 312.416 87.8281C312.487 87.8525 312.593 87.8891 312.73 87.9355C313.007 88.0285 313.411 88.1625 313.918 88.3244C314.931 88.6486 316.349 89.0839 317.97 89.5301C321.239 90.4303 325.224 91.3426 328.351 91.5062C330.348 91.6107 332.954 91.4601 335.104 91.2757C336.17 91.1842 337.106 91.0862 337.776 91.0108C338.111 90.9732 338.379 90.9415 338.563 90.9191C338.654 90.908 338.724 90.8992 338.771 90.8932C338.795 90.8902 338.813 90.8882 338.825 90.8867C338.83 90.886 338.834 90.8852 338.837 90.8849L338.84 90.8839L339.795 90.7599L340.265 91.5998L340.266 91.6007C340.266 91.602 340.268 91.6044 340.269 91.6072C340.272 91.6126 340.277 91.6211 340.283 91.6322C340.296 91.6548 340.316 91.689 340.341 91.7331C340.391 91.8213 340.464 91.9502 340.556 92.1109C340.742 92.4327 341.003 92.8813 341.306 93.387C341.92 94.4093 342.682 95.626 343.331 96.5077C345.032 98.8216 345.474 99.9685 347.387 101.216C347.76 101.459 348.316 101.74 348.822 101.976C349.066 102.089 349.283 102.185 349.439 102.253C349.516 102.286 349.578 102.313 349.62 102.33C349.641 102.339 349.657 102.346 349.667 102.35C349.672 102.352 349.676 102.354 349.678 102.355L349.68 102.355L350.716 102.782L350.544 103.889V103.891C350.544 103.892 350.544 103.892 350.543 103.894C350.543 103.896 350.542 103.901 350.542 103.907C350.54 103.917 350.537 103.933 350.534 103.953C350.528 103.993 350.519 104.051 350.506 104.126C350.482 104.276 350.446 104.492 350.399 104.761C350.306 105.299 350.169 106.048 349.998 106.897C349.659 108.575 349.169 110.711 348.582 112.363C346.516 118.179 344.899 121.929 340.729 126.724C335.865 132.318 331.989 135.254 324.982 137.867C320.33 139.602 317.331 139.941 312.447 139.853C306.697 139.748 303.194 139.028 297.959 136.557C292.768 134.107 289.463 132.135 286.023 127.24C284.371 124.89 283.214 121.529 282.477 118.879C282.102 117.531 281.823 116.323 281.638 115.45C281.546 115.014 281.477 114.66 281.431 114.414C281.408 114.291 281.39 114.194 281.378 114.128C281.372 114.095 281.368 114.068 281.364 114.05C281.363 114.041 281.362 114.035 281.361 114.03C281.36 114.027 281.36 114.025 281.36 114.023V114.021L281.197 113.063L297.684 103.173L305.7 95.1575L311.313 87.4429L312.311 87.792ZM307.934 96.9234L307.869 97.0133L299.448 105.433L284.347 114.489C284.371 114.604 284.394 114.729 284.422 114.861C284.597 115.69 284.861 116.839 285.217 118.116C285.94 120.717 286.995 123.676 288.35 125.605C291.383 129.92 294.182 131.629 299.173 133.984C304.01 136.268 307.112 136.911 312.499 137.009C317.111 137.092 319.741 136.786 323.987 135.202C330.491 132.777 333.987 130.143 338.583 124.858C342.415 120.451 343.887 117.083 345.902 111.411C346.418 109.96 346.876 107.988 347.21 106.334C347.35 105.638 347.465 105.011 347.551 104.52C347.032 104.277 346.361 103.942 345.834 103.598C343.35 101.979 342.446 100.107 341.039 98.193C340.308 97.1987 339.489 95.8874 338.867 94.851C338.636 94.4649 338.43 94.1101 338.26 93.8176C338.206 93.8237 338.151 93.8315 338.094 93.8379C337.405 93.9154 336.443 94.0162 335.347 94.1102C333.173 94.2967 330.405 94.4624 328.203 94.3473C324.752 94.1667 320.519 93.1827 317.215 92.273C315.549 91.8142 314.092 91.3661 313.051 91.033C312.802 90.9534 312.577 90.8779 312.379 90.8126L307.934 96.9234Z" fill="#115669"/>
<path d="M348.742 86.0394C350.573 92.5605 350.003 103.358 350.003 103.358L343.065 98.8683L338.02 91.8124L327.298 93.0953L316.576 91.1709L314.054 87.9637L320.991 59.7402C320.991 59.7402 328.317 59.6336 332.344 61.6646C337.183 64.1055 339.941 67.4459 343.065 71.9276C346.569 76.9539 347.077 80.1149 348.742 86.0394Z" fill="#115669"/>
<path d="M349.333 119.147C347.599 120.153 344.397 120.427 344.397 120.427L346.865 112.751L349.333 102.517C349.333 102.517 352.284 100.029 354.268 100.598C357.519 101.531 356.858 106.141 356.119 109.553C355.222 113.696 352.907 117.074 349.333 119.147Z" fill="#F1F1F1"/>
<path d="M352.282 99.2868C352.974 99.0958 353.819 98.9896 354.66 99.2312C355.819 99.5638 356.675 100.251 357.24 101.16C357.783 102.033 358.021 103.046 358.106 104.021C358.275 105.952 357.879 108.145 357.509 109.854C356.535 114.353 353.997 118.086 350.046 120.378C348.96 121.008 347.525 121.362 346.482 121.561C345.937 121.665 345.452 121.736 345.103 121.78C344.928 121.802 344.786 121.817 344.685 121.828C344.635 121.833 344.595 121.837 344.567 121.84C344.553 121.841 344.542 121.842 344.534 121.843C344.53 121.843 344.526 121.843 344.523 121.844H344.519L342.389 122.026L345.495 112.367L347.95 102.184L348.06 101.731L348.416 101.43L348.418 101.428C348.419 101.427 348.421 101.426 348.422 101.425C348.425 101.423 348.428 101.42 348.432 101.417C348.44 101.41 348.452 101.4 348.465 101.389C348.493 101.366 348.532 101.335 348.581 101.296C348.679 101.219 348.816 101.112 348.987 100.988C349.326 100.741 349.806 100.414 350.363 100.103C350.913 99.795 351.578 99.4809 352.282 99.2868ZM353.876 101.966C353.726 101.923 353.457 101.914 353.038 102.03C352.631 102.142 352.185 102.343 351.75 102.586C351.321 102.826 350.939 103.085 350.663 103.286C350.641 103.302 350.62 103.319 350.599 103.334L348.248 113.084L348.236 113.136L348.219 113.186L346.459 118.66C347.281 118.476 348.083 118.228 348.619 117.917C351.817 116.062 353.909 113.04 354.729 109.253C355.098 107.55 355.401 105.731 355.273 104.271C355.209 103.551 355.048 103.023 354.824 102.663C354.623 102.339 354.342 102.1 353.876 101.966Z" fill="#115669"/>
<path d="M193.627 108.1L215.954 89.1348L221.057 96.0885L228.712 103.042L203.834 123.271C203.834 123.271 200.494 119.987 198.73 117.582C196.24 114.187 193.627 108.1 193.627 108.1Z" fill="#F1F1F1"/>
<path d="M222.118 95.1306L230.893 103.102L203.744 125.178L202.836 124.285L202.835 124.284C202.835 124.284 202.834 124.283 202.833 124.283C202.831 124.281 202.829 124.278 202.825 124.274C202.818 124.267 202.808 124.258 202.795 124.245C202.769 124.219 202.731 124.181 202.683 124.133C202.585 124.036 202.445 123.895 202.271 123.719C201.925 123.367 201.444 122.873 200.907 122.303C199.845 121.173 198.519 119.699 197.583 118.424C196.261 116.622 194.942 114.159 193.971 112.199C193.48 111.209 193.069 110.328 192.78 109.693C192.635 109.376 192.521 109.119 192.443 108.941C192.404 108.852 192.374 108.783 192.353 108.736C192.343 108.712 192.334 108.694 192.329 108.681C192.326 108.675 192.324 108.67 192.322 108.666C192.322 108.665 192.321 108.663 192.32 108.663V108.661L191.906 107.696L216.197 87.0623L222.118 95.1306ZM195.36 108.493C195.363 108.5 195.366 108.507 195.369 108.514C195.648 109.127 196.045 109.98 196.519 110.936C197.477 112.869 198.708 115.147 199.877 116.74C200.705 117.869 201.932 119.239 202.98 120.353C203.331 120.727 203.659 121.067 203.937 121.353L226.53 102.982L220.101 97.141L219.995 97.0456L219.91 96.9299L215.71 91.2071L195.36 108.493Z" fill="#115669"/>
<path d="M251.157 56.0185C255.334 38.8134 270.193 14.86 270.193 14.86L273.366 12.3271C273.366 12.3271 288.945 17.3739 296.209 24.3581C303.248 31.1261 305.777 36.6439 308.899 45.8872L308.908 45.9137C311.155 52.5629 312.521 56.6072 312.072 63.6171C311.435 73.5651 301.92 87.0458 301.92 87.0458C301.92 87.0458 294.037 96.2538 287.325 99.7099C281.608 102.654 277.857 103.442 271.462 104.142C262.785 105.092 249.253 101.61 249.253 101.61C249.253 101.61 246.953 73.3374 251.157 56.0185Z" fill="#F1F1F1"/>
<path d="M273.804 10.9742C273.805 10.9744 273.807 10.9747 273.808 10.9751C273.81 10.9759 273.814 10.9774 273.818 10.9788C273.827 10.9816 273.839 10.9857 273.854 10.9908C273.886 11.0012 273.932 11.0162 273.992 11.0362C274.112 11.0763 274.288 11.1357 274.513 11.2131C274.962 11.3678 275.609 11.5958 276.407 11.8909C278.002 12.481 280.206 13.3411 282.641 14.4236C287.467 16.5687 293.373 19.6585 297.195 23.3328C304.465 30.3228 307.088 36.0809 310.247 45.4322L310.256 45.4581C312.507 52.121 313.96 56.3968 313.492 63.7081C313.152 69.0059 310.484 75.0924 308.012 79.7309C306.762 82.0773 305.533 84.1055 304.617 85.5472C304.158 86.2685 303.777 86.8445 303.509 87.2418C303.375 87.4405 303.27 87.5948 303.197 87.7002C303.161 87.7529 303.132 87.7937 303.113 87.8215C303.103 87.8351 303.096 87.8456 303.091 87.853C303.088 87.8568 303.086 87.8602 303.084 87.8623L303.082 87.8651L303.081 87.866L303.043 87.9206L303 87.9706L302.999 87.9715L302.998 87.9734C302.997 87.9748 302.995 87.9764 302.992 87.979C302.988 87.9841 302.982 87.9918 302.974 88.0012C302.958 88.0201 302.934 88.048 302.903 88.0836C302.841 88.1547 302.75 88.2579 302.633 88.3901C302.399 88.6548 302.059 89.0353 301.63 89.5013C300.773 90.4329 299.559 91.7115 298.132 93.1008C295.306 95.851 291.531 99.1444 287.976 100.975C282.054 104.024 278.118 104.845 271.617 105.557C267.072 106.054 261.357 105.391 256.868 104.635C254.604 104.254 252.617 103.843 251.195 103.528C250.483 103.37 249.912 103.235 249.518 103.14C249.321 103.092 249.168 103.055 249.063 103.029C249.011 103.016 248.97 103.005 248.943 102.998C248.929 102.995 248.919 102.992 248.911 102.99C248.908 102.989 248.905 102.988 248.903 102.988C248.902 102.988 248.901 102.987 248.9 102.987L247.918 102.734L247.836 101.725L249.253 101.61L247.835 101.724V101.718C247.835 101.715 247.835 101.709 247.834 101.703C247.833 101.688 247.831 101.666 247.829 101.639C247.824 101.583 247.818 101.501 247.81 101.394C247.794 101.18 247.771 100.864 247.744 100.457C247.688 99.6432 247.614 98.4636 247.539 96.9947C247.388 94.0573 247.231 89.9595 247.206 85.3167C247.157 76.064 247.629 64.5203 249.774 55.6832C251.905 46.9041 256.734 36.487 260.98 28.3305C263.111 24.2377 265.109 20.6867 266.576 18.1582C267.309 16.8937 267.91 15.8839 268.328 15.1894C268.537 14.8423 268.7 14.5735 268.811 14.3912C268.867 14.3 268.91 14.23 268.939 14.1828C268.954 14.1594 268.965 14.1413 268.972 14.1291C268.976 14.1231 268.979 14.1184 268.981 14.1152C268.982 14.1136 268.983 14.1124 268.984 14.1115C268.984 14.1112 268.984 14.1099 270.156 14.8366L268.984 14.1097L269.114 13.9013L273.077 10.738L273.804 10.9742ZM271.275 15.8154C271.263 15.834 271.251 15.8545 271.238 15.8756C271.13 16.0525 270.97 16.3152 270.765 16.6562C270.354 17.3389 269.761 18.3353 269.036 19.5852C267.586 22.0856 265.609 25.5977 263.502 29.6436C259.275 37.765 254.585 47.9277 252.539 56.3536C250.48 64.8353 250.002 76.0879 250.051 85.3009C250.076 89.8907 250.231 93.9436 250.38 96.8483C250.454 98.3002 250.528 99.4645 250.582 100.264C250.587 100.336 250.591 100.406 250.596 100.472C250.928 100.55 251.337 100.645 251.811 100.751C253.198 101.058 255.136 101.458 257.34 101.829C261.786 102.578 267.175 103.181 271.307 102.729C277.595 102.04 281.162 101.284 286.674 98.4457C289.832 96.8199 293.354 93.7804 296.147 91.0626C297.529 89.718 298.706 88.4781 299.537 87.5752C299.951 87.1242 300.279 86.7579 300.502 86.5057C300.614 86.3796 300.699 86.2821 300.756 86.2167C300.771 86.1994 300.784 86.1841 300.795 86.1714C300.811 86.1489 300.831 86.1194 300.856 86.0834C300.923 85.9865 301.022 85.8411 301.15 85.6519C301.405 85.2732 301.773 84.7189 302.216 84.0212C303.104 82.6244 304.294 80.66 305.502 78.3928C307.947 73.8042 310.355 68.1766 310.652 63.5266C311.082 56.8181 309.802 53.0039 307.56 46.3684L307.552 46.3425C304.466 37.2072 302.031 31.929 295.223 25.383C291.781 22.0732 286.265 19.1472 281.486 17.0229C279.119 15.9708 276.973 15.1332 275.42 14.5588C274.679 14.2846 274.074 14.0707 273.645 13.9226L271.275 15.8154Z" fill="#115669"/>
<path d="M264.294 0C296.775 0 323.106 26.3314 323.106 58.8123C323.106 91.2929 296.775 117.624 264.294 117.624C231.814 117.623 205.483 91.2928 205.483 58.8123C205.483 26.3315 231.813 0.000179051 264.294 0ZM264.927 13.9125C240.479 13.9126 220.66 33.7319 220.66 58.1798C220.66 82.6275 240.479 102.446 264.927 102.446C289.375 102.446 309.194 82.6276 309.194 58.1798C309.194 33.7318 289.375 13.9125 264.927 13.9125Z" fill="#F1F1F1"/>
<path d="M264.294 0C296.775 0 323.106 26.3314 323.106 58.8123C323.106 91.2929 296.775 117.624 264.294 117.624C231.814 117.623 205.483 91.2928 205.483 58.8123C205.483 26.3315 231.813 0.000179051 264.294 0ZM263.163 1.28068C257.508 1.51797 251.922 2.57637 246.62 4.42266C223.755 12.1033 207.655 35.1856 208.283 58.8123C207.948 88.6388 234.773 115.008 264.294 114.305H264.295C293.817 115.008 320.642 88.6387 320.306 58.8123C320.934 35.1853 304.834 12.1032 281.968 4.42266C276.313 2.45335 270.335 1.38081 264.294 1.24457L263.163 1.28068ZM264.927 10.5936C269.91 10.5917 274.893 11.3695 279.636 12.9115C298.804 18.8882 312.806 38.0874 312.513 58.1798C313.125 83.5304 290.277 106.377 264.927 105.765C239.576 106.377 216.73 83.5301 217.341 58.1798C217.048 38.0877 231.05 18.8883 250.218 12.9115C254.961 11.3694 259.943 10.5917 264.927 10.5936C264.927 11.6999 264.927 12.8062 264.927 13.9125C240.479 13.9126 220.66 33.7319 220.66 58.1798C220.66 82.6275 240.479 102.446 264.927 102.446C289.375 102.446 309.194 82.6276 309.194 58.1798C309.194 33.7318 289.375 13.9125 264.927 13.9125V10.5936Z" fill="#115669"/>
<path d="M304.571 60.6875C304.571 66.9719 299.052 72.0664 292.244 72.0664C285.436 72.0664 279.917 66.9719 279.917 60.6875C279.917 54.4031 285.436 49.3086 292.244 49.3086C299.052 49.3086 304.571 54.4031 304.571 60.6875Z" fill="#115669"/>
<path d="M308.838 62.7006C308.838 59.2252 308.725 57.2854 308.341 54.1433C308.169 54.0952 307.974 54.0408 307.76 53.9821C306.831 53.728 305.53 53.3828 304.047 53.02C301.062 52.2898 297.403 51.5048 294.539 51.2245C285.429 50.3328 281.761 50.593 275.117 52.4672C272.888 53.0957 270.607 53.9378 268.881 55.0045C267.103 56.1029 266.256 57.2204 266.176 58.2937C266.11 59.1786 266.453 60.3009 267.745 61.6283C269.053 62.9714 271.257 64.4355 274.67 65.9065C278.183 67.4202 279.887 68.1135 281.821 68.6364C283.787 69.1678 285.998 69.5272 290.559 70.3245C293.837 70.8975 298.127 71.2167 301.638 71.3913C303.384 71.4781 304.923 71.5284 306.024 71.557C306.306 71.5643 306.559 71.569 306.779 71.5737C306.79 71.5415 306.803 71.5091 306.815 71.4755C307.043 70.8268 307.347 69.9221 307.65 68.9021C308.271 66.8157 308.838 64.4101 308.838 62.7006ZM311.683 62.7006C311.683 64.8585 311.003 67.6099 310.377 69.7133C310.058 70.7883 309.738 71.7384 309.499 72.4191C309.379 72.7598 309.279 73.0343 309.208 73.2248C309.173 73.3197 309.145 73.394 309.125 73.4452C309.116 73.4706 309.108 73.4907 309.102 73.5044C309.1 73.5113 309.098 73.5173 309.097 73.5211C309.096 73.523 309.095 73.5246 309.095 73.5257L309.094 73.5266V73.5276L308.738 74.4471L307.752 74.4369H307.719C307.698 74.4367 307.666 74.4356 307.625 74.4351C307.544 74.4339 307.423 74.4322 307.269 74.4295C306.959 74.4241 306.51 74.4153 305.951 74.4008C304.833 74.3717 303.271 74.3205 301.497 74.2323C297.965 74.0567 293.529 73.7314 290.069 73.1266C285.595 72.3445 283.206 71.9569 281.079 71.382C278.921 70.7985 277.039 70.0256 273.544 68.5197C269.95 66.9709 267.375 65.3253 265.707 63.6127C264.025 61.8845 263.196 60.0045 263.339 58.0835C263.523 55.6074 265.382 53.8226 267.385 52.5848C269.44 51.3152 272.013 50.3865 274.344 49.7289C281.412 47.7354 285.45 47.476 294.816 48.3927C297.892 48.6938 301.714 49.5208 304.723 50.2568C306.237 50.627 307.563 50.9791 308.511 51.2383C308.985 51.368 309.365 51.4741 309.627 51.5486C309.758 51.5858 309.86 51.6156 309.929 51.6356C309.964 51.6456 309.991 51.6535 310.009 51.6588C310.018 51.6613 310.025 51.6629 310.029 51.6643C310.032 51.665 310.033 51.6658 310.035 51.6662H310.037V51.6671L310.929 51.9282L311.048 52.8496C311.542 56.6844 311.683 58.7708 311.683 62.7006Z" fill="#115669"/>
<path d="M300.816 100.63C302.76 99.3348 305.419 99.6115 307.384 100.479C309.319 101.335 311.367 103.14 311.247 105.675C311.195 106.76 310.816 107.673 310.172 108.397C309.551 109.094 308.749 109.543 307.955 109.848C306.416 110.44 304.499 110.632 303.047 110.814C301.186 111.047 299.023 110.473 297.477 109.942C296.673 109.665 295.972 109.377 295.471 109.158C295.22 109.048 295.018 108.956 294.877 108.89C294.806 108.856 294.751 108.829 294.712 108.81C294.692 108.8 294.677 108.793 294.666 108.788C294.66 108.785 294.656 108.783 294.653 108.781C294.651 108.78 294.649 108.78 294.648 108.779L294.647 108.778H294.646V108.778L292.879 107.896L294.29 106.486C294.298 106.477 294.312 106.464 294.329 106.448C294.362 106.414 294.412 106.365 294.475 106.302C294.601 106.177 294.784 105.997 295.008 105.777C295.457 105.338 296.077 104.739 296.757 104.098C298.082 102.852 299.75 101.341 300.816 100.63ZM306.233 103.082C304.737 102.42 303.207 102.455 302.394 102.997C301.563 103.551 300.07 104.887 298.707 106.17C298.387 106.471 298.079 106.763 297.798 107.033C297.99 107.105 298.192 107.18 298.401 107.251C299.892 107.764 301.524 108.138 302.693 107.991C304.312 107.788 305.8 107.629 306.934 107.193C307.477 106.984 307.83 106.749 308.047 106.505C308.241 106.288 308.384 106.002 308.406 105.541C308.443 104.767 307.758 103.755 306.233 103.082Z" fill="#115669"/>
<path d="M320.051 102.127C322.521 101.58 325.432 101.83 327.818 102.317C330.122 102.788 332.831 103.629 334.857 105.019C335.878 105.72 336.8 106.611 337.371 107.737C337.958 108.896 338.127 110.218 337.765 111.649C337.42 113.012 336.707 114.063 335.724 114.813C334.765 115.545 333.621 115.938 332.47 116.137C330.202 116.529 327.575 116.219 325.407 115.866C323.106 115.491 320.367 114.859 318.252 113.648C317.183 113.036 316.195 112.232 315.526 111.164C314.839 110.066 314.541 108.772 314.741 107.312C314.946 105.817 315.615 104.627 316.615 103.752C317.588 102.9 318.806 102.402 320.051 102.127ZM327.248 105.105C325.044 104.654 322.581 104.481 320.666 104.905C319.719 105.114 318.993 105.452 318.489 105.893C318.012 106.31 317.673 106.873 317.559 107.699C317.448 108.514 317.612 109.136 317.936 109.654C318.279 110.201 318.852 110.714 319.665 111.179C321.316 112.124 323.631 112.695 325.864 113.058C328.015 113.408 330.228 113.637 331.986 113.333C332.849 113.184 333.516 112.92 333.998 112.552C334.456 112.202 334.816 111.709 335.008 110.951C335.204 110.174 335.104 109.558 334.832 109.023C334.545 108.455 334.021 107.896 333.247 107.365C331.682 106.292 329.406 105.546 327.248 105.105Z" fill="#115669"/>
<path d="M330.466 109.941C329.817 112.922 327.134 114.869 324.472 114.29C321.81 113.711 320.178 110.825 320.827 107.844C321.475 104.863 324.159 102.916 326.821 103.495C329.482 104.074 331.114 106.96 330.466 109.941Z" fill="#115669"/>
<path d="M498.036 141.152C478.234 161.783 456.29 201.312 456.29 201.312C456.29 201.312 472.684 216.102 484.837 223.105C499.206 231.385 524.433 238.452 524.433 238.452C524.433 238.452 543.712 198.527 559.733 175.222C568.453 162.539 576.922 151.588 584.596 145.756C592.806 139.517 608.845 135.934 608.845 135.934C608.845 135.934 620.464 131.235 618.361 126.419C617.028 123.367 610.994 122.122 610.994 122.122C610.994 122.122 623.604 119.003 623.579 112.914C623.565 109.374 619.282 104.933 619.282 104.933C619.282 104.933 626.342 102.171 626.956 97.26C627.57 92.349 612.016 89.0694 601.479 87.438C584.705 84.8411 574.729 89.8292 558.812 95.7253C531.025 106.019 518.554 119.774 498.036 141.152Z" fill="#F1F1F1"/>
<path d="M558.154 93.9468C573.915 88.1083 584.406 82.8754 601.769 85.5636C607.063 86.3831 613.703 87.6284 618.976 89.3121C621.595 90.1484 624.011 91.1344 625.768 92.305C627.416 93.4033 629.135 95.118 628.837 97.4953C628.427 100.778 625.932 103.107 623.985 104.486C623.394 104.904 622.812 105.261 622.286 105.56C622.511 105.855 622.749 106.176 622.986 106.518C624.078 108.1 625.466 110.513 625.476 112.906C625.485 115.134 624.33 116.932 622.947 118.28C621.565 119.627 619.791 120.692 618.13 121.505C617.619 121.755 617.108 121.984 616.611 122.195C617.003 122.414 617.391 122.657 617.76 122.925C618.663 123.579 619.58 124.471 620.1 125.66C620.99 127.699 620.319 129.611 619.308 131.036C618.318 132.43 616.841 133.621 615.45 134.556C614.032 135.51 612.561 136.291 611.46 136.829C610.906 137.099 610.437 137.313 610.104 137.459C609.938 137.533 609.805 137.589 609.711 137.628C609.665 137.648 609.627 137.664 609.601 137.674C609.589 137.68 609.578 137.683 609.571 137.686C609.567 137.688 609.564 137.689 609.561 137.69C609.56 137.69 609.56 137.692 609.559 137.692H609.558L608.846 135.934L609.557 137.693C609.46 137.732 609.36 137.762 609.259 137.784L609.26 137.785H609.258C609.256 137.786 609.254 137.787 609.251 137.787C609.245 137.789 609.235 137.791 609.221 137.794C609.193 137.8 609.15 137.81 609.093 137.823C608.979 137.85 608.808 137.89 608.587 137.944C608.145 138.051 607.499 138.212 606.698 138.424C605.094 138.85 602.871 139.482 600.399 140.305C595.397 141.969 589.586 144.346 585.743 147.266C578.344 152.889 570.028 163.594 561.296 176.297C553.35 187.854 544.568 203.581 537.752 216.463C534.349 222.895 531.444 228.601 529.392 232.698C528.365 234.747 527.551 236.394 526.995 237.527C526.717 238.093 526.503 238.532 526.359 238.828C526.287 238.976 526.232 239.089 526.196 239.164C526.178 239.202 526.164 239.23 526.155 239.249L526.142 239.275L526.141 239.276L524.434 238.452L526.141 239.277C525.767 240.052 524.921 240.472 524.088 240.317L523.922 240.278H523.921C523.92 240.278 523.918 240.276 523.916 240.276C523.913 240.275 523.907 240.274 523.901 240.272C523.888 240.269 523.869 240.264 523.845 240.257C523.795 240.243 523.722 240.221 523.626 240.194C523.435 240.139 523.152 240.059 522.79 239.953C522.065 239.741 521.016 239.43 519.713 239.031C517.107 238.235 513.481 237.086 509.403 235.676C501.28 232.867 491.239 228.982 483.89 224.748C477.675 221.167 470.441 215.638 464.809 211.054C461.982 208.752 459.537 206.672 457.799 205.166C456.93 204.413 456.237 203.803 455.76 203.381C455.522 203.17 455.338 203.006 455.213 202.894C455.151 202.838 455.103 202.795 455.07 202.766C455.054 202.751 455.042 202.74 455.033 202.733C455.029 202.729 455.025 202.725 455.023 202.723C455.022 202.722 455.021 202.722 455.02 202.721V202.72C455.024 202.716 455.095 202.636 456.29 201.312C454.632 200.392 454.632 200.391 454.632 200.391L454.633 200.39C454.634 200.388 454.635 200.386 454.636 200.383C454.639 200.378 454.644 200.371 454.649 200.361C454.66 200.341 454.677 200.311 454.698 200.273C454.741 200.196 454.804 200.083 454.888 199.934C455.055 199.637 455.302 199.199 455.623 198.635C456.266 197.507 457.205 195.875 458.393 193.853C460.769 189.809 464.143 184.202 468.139 177.948C476.112 165.468 486.63 150.296 496.667 139.839C517.168 118.48 529.909 104.41 558.154 93.9468ZM601.188 89.3121C585.004 86.8065 575.543 91.55 559.471 97.5037C532.142 107.628 519.94 121.068 499.403 142.465C489.638 152.639 479.284 167.547 471.335 179.99C467.37 186.196 464.021 191.762 461.664 195.774C460.485 197.781 459.554 199.397 458.919 200.512C458.839 200.653 458.764 200.786 458.693 200.91C459.118 201.285 459.653 201.754 460.283 202.299C461.999 203.785 464.413 205.84 467.203 208.112C472.806 212.673 479.846 218.04 485.784 221.461C492.804 225.507 502.56 229.296 510.643 232.091C514.668 233.483 518.248 234.617 520.821 235.404C521.871 235.725 522.753 235.987 523.428 236.186C523.479 236.081 523.534 235.971 523.591 235.855C524.151 234.714 524.969 233.058 526 231C528.063 226.884 530.98 221.151 534.399 214.689C541.228 201.783 550.095 185.895 558.17 174.148C566.877 161.484 575.5 150.287 583.449 144.246C587.816 140.927 594.131 138.393 599.201 136.706C601.764 135.853 604.064 135.199 605.724 134.758C606.555 134.538 607.227 134.37 607.694 134.257C607.927 134.201 608.109 134.158 608.234 134.129C608.245 134.126 608.255 134.123 608.265 134.121C608.34 134.089 608.446 134.045 608.577 133.987C608.871 133.858 609.294 133.665 609.796 133.42C610.807 132.926 612.11 132.232 613.333 131.409C614.583 130.568 615.617 129.682 616.215 128.84C616.791 128.029 616.784 127.547 616.623 127.178C616.476 126.841 616.138 126.433 615.534 125.995C614.943 125.567 614.21 125.192 613.453 124.879C612.704 124.569 611.983 124.341 611.446 124.191C611.179 124.116 610.963 124.061 610.816 124.026C610.805 124.023 610.794 124.021 610.784 124.018H603.014V120.225H610.747C610.821 120.205 610.913 120.181 611.022 120.15C611.345 120.059 611.811 119.922 612.373 119.737C613.503 119.367 614.992 118.818 616.463 118.098C617.951 117.37 619.325 116.514 620.3 115.564C621.274 114.614 621.686 113.739 621.683 112.922C621.678 111.776 620.917 110.198 619.864 108.674C619.374 107.964 618.88 107.349 618.508 106.912C618.483 106.883 618.459 106.857 618.435 106.83H608.846V103.037H618.895C619.059 102.963 619.282 102.861 619.547 102.729C620.158 102.423 620.971 101.973 621.792 101.391C623.529 100.161 624.87 98.6531 625.074 97.0249C625.084 96.9469 625.089 96.4097 623.665 95.4609C622.349 94.5844 620.332 93.7268 617.822 92.9254C612.838 91.3338 606.433 90.124 601.188 89.3121ZM456.29 201.312L455.019 202.72C454.364 202.129 454.203 201.163 454.631 200.392L456.29 201.312Z" fill="#115669"/>
<path d="M610.853 108.318L603.548 113.284C603.548 113.284 601.423 110.915 599.286 109.249C596.035 106.713 593.185 105.714 589.241 104.593C583.287 102.9 573.413 103.662 573.413 103.662L569.152 96.5231C569.152 96.5231 537.612 87.9074 533.234 71.0716C528.427 52.585 540.145 35.8977 557.585 28.8594C577.966 20.6342 602.483 31.0229 608.722 52.4486C612.745 66.2619 600.808 88.4531 600.808 88.4531L610.853 108.318Z" fill="#1D90AF"/>
<path d="M557.053 27.5402C578.135 19.032 603.59 29.7373 610.088 52.051C612.233 59.4165 610.11 68.792 607.621 76.0904C606.36 79.7852 604.973 83.037 603.903 85.3644C603.367 86.529 602.909 87.4644 602.584 88.111C602.52 88.2388 602.459 88.3544 602.405 88.4592L612.123 107.676C612.445 108.314 612.244 109.092 611.653 109.494L604.348 114.46C603.796 114.835 603.063 114.774 602.582 114.328L602.489 114.234L602.489 114.233C602.488 114.232 602.487 114.231 602.486 114.229C602.482 114.226 602.476 114.22 602.469 114.212C602.455 114.196 602.433 114.171 602.403 114.139C602.345 114.075 602.257 113.98 602.145 113.861C601.92 113.621 601.598 113.284 601.212 112.896C600.431 112.114 599.413 111.152 598.411 110.371C595.378 108.005 592.739 107.066 588.852 105.961C586.071 105.17 582.276 104.937 579.085 104.915C577.508 104.905 576.112 104.946 575.112 104.99C574.612 105.012 574.212 105.035 573.938 105.052C573.801 105.061 573.695 105.068 573.625 105.073C573.59 105.075 573.563 105.077 573.546 105.078C573.537 105.079 573.531 105.079 573.527 105.079C573.526 105.079 573.524 105.08 573.524 105.08H573.523C572.984 105.122 572.469 104.855 572.192 104.391L568.218 97.7332C567.995 97.668 567.71 97.5845 567.369 97.4795C566.482 97.2061 565.214 96.7971 563.681 96.2544C560.618 95.1701 556.479 93.5448 552.194 91.3808C547.915 89.2201 543.445 86.5001 539.748 83.2142C536.058 79.9344 533.049 76.0106 531.858 71.4297C526.82 52.0583 539.153 34.764 557.053 27.5402ZM600.042 90.4659C599.145 90.9341 597.89 91.5821 596.453 92.3003C593.59 93.7312 589.964 95.4627 587.017 96.6072C584.286 97.6677 580.736 98.7681 577.896 99.5973C576.471 100.013 575.214 100.364 574.313 100.611C573.944 100.712 573.634 100.796 573.397 100.859L574.191 102.19C574.419 102.178 574.686 102.162 574.987 102.148C576.023 102.103 577.468 102.06 579.104 102.071C582.338 102.092 586.457 102.323 589.63 103.225C593.629 104.361 596.691 105.421 600.161 108.127C601.296 109.012 602.409 110.068 603.226 110.886C603.418 111.079 603.594 111.26 603.753 111.424L609.02 107.843L600.192 90.3862C600.143 90.4118 600.093 90.439 600.042 90.4659ZM607.357 52.8464C601.375 32.3087 577.797 22.2365 558.118 30.1785C541.137 37.0314 530.034 53.1121 534.611 70.7139C535.608 74.5507 538.183 78.0176 541.638 81.0881C545.086 84.1524 549.322 86.7431 553.475 88.8407C557.622 90.935 561.643 92.5154 564.63 93.5726C566.122 94.1007 567.353 94.4973 568.207 94.7607C568.635 94.8924 568.968 94.9911 569.193 95.0561C569.305 95.0886 569.39 95.1125 569.446 95.1284C569.474 95.1362 569.495 95.1422 569.508 95.146C569.515 95.1478 569.52 95.1488 569.523 95.1497C569.524 95.15 569.525 95.1504 569.526 95.1506C569.881 95.2475 570.185 95.4785 570.373 95.7942L571.893 98.3407C571.971 98.3041 572.053 98.2735 572.139 98.2509H572.14C572.141 98.2506 572.143 98.2505 572.145 98.25C572.149 98.2489 572.155 98.2474 572.162 98.2453C572.178 98.2411 572.203 98.2343 572.235 98.2259C572.298 98.209 572.393 98.1836 572.515 98.1509C572.76 98.0854 573.116 97.9893 573.561 97.8675C574.45 97.6238 575.692 97.2773 577.099 96.8665C577.886 96.6366 578.722 96.3865 579.575 96.1247C579.481 95.9974 579.405 95.8534 579.357 95.6932V95.6923C579.356 95.6914 579.355 95.6896 579.355 95.6877C579.354 95.6837 579.352 95.6774 579.349 95.6692C579.344 95.6526 579.337 95.6274 579.327 95.5941C579.307 95.5275 579.276 95.428 579.235 95.2978C579.155 95.0374 579.036 94.6541 578.881 94.1653C578.571 93.1875 578.12 91.7874 577.554 90.1029C576.488 86.9312 575.017 82.7598 573.326 78.4999C568.696 77.9864 563.887 75.8195 560.571 72.7715C557.04 69.527 554.901 64.9352 557.221 60.2027C558.36 57.8804 560.009 56.3451 562.229 56.6375C563.218 56.7679 564.122 57.2556 564.921 57.8821C565.726 58.514 566.504 59.3504 567.25 60.3083C570.063 63.9209 572.895 69.8981 575.296 75.7718C576.138 75.7774 576.951 75.7117 577.721 75.57C579.203 75.2971 580.799 74.6441 582.388 73.6975C582.639 69.9573 582.882 64.6346 583.802 60.6333C584.281 58.5497 585.008 56.4991 586.268 55.2615C586.943 54.5989 587.802 54.139 588.836 54.0836C589.842 54.0298 590.841 54.3671 591.81 54.9596C593.704 56.1186 594.708 57.8237 594.933 59.773C595.15 61.6524 594.637 63.6605 593.742 65.5625C592.048 69.1642 588.787 72.8091 585.147 75.307C585.069 78.6442 586.009 82.7457 587.058 86.1951C587.612 88.0152 588.183 89.6089 588.615 90.7474C588.831 91.3161 589.011 91.7701 589.137 92.0799C589.2 92.2347 589.249 92.3535 589.283 92.4327C589.299 92.4723 589.311 92.5023 589.32 92.5216C589.324 92.5312 589.327 92.5385 589.329 92.5429L589.33 92.5448C591.318 91.6536 593.385 90.6534 595.181 89.7556C596.6 89.0466 597.84 88.4066 598.725 87.9443C599.16 87.7172 599.508 87.5318 599.75 87.4035C599.827 87.2548 599.927 87.0647 600.043 86.834C600.355 86.2132 600.798 85.3069 601.318 84.1754C602.36 81.9105 603.707 78.7513 604.928 75.1718C607.401 67.9213 609.234 59.2942 607.357 52.8464ZM582.337 76.9608C580.992 77.6224 579.608 78.1148 578.236 78.3675C577.64 78.4771 577.033 78.5476 576.418 78.5851C577.945 82.506 579.269 86.2762 580.25 89.1963C580.822 90.8988 581.279 92.3147 581.593 93.306C581.75 93.8016 581.871 94.1916 581.953 94.4579C581.994 94.591 582.026 94.6932 582.048 94.7626C582.058 94.7973 582.066 94.8243 582.072 94.8422C582.074 94.851 582.076 94.8579 582.077 94.8626C582.078 94.8649 582.079 94.8669 582.079 94.8681L582.08 94.8691V94.87L582.115 95.0117C582.135 95.1124 582.141 95.2132 582.139 95.3126C583.502 94.8661 584.828 94.4062 585.987 93.956C586.225 93.8636 586.467 93.7637 586.714 93.6634C586.713 93.6621 586.713 93.6604 586.712 93.6588C586.709 93.6524 586.706 93.6434 586.701 93.6319C586.691 93.6086 586.677 93.5748 586.658 93.531C586.622 93.4434 586.569 93.3155 586.502 93.1513C586.368 92.8229 586.179 92.3485 585.954 91.7567C585.506 90.5741 584.913 88.9181 584.337 87.0229C583.43 84.0444 582.528 80.3581 582.337 76.9608ZM561.857 59.4582C561.489 59.4099 560.731 59.5061 559.775 61.4547C558.241 64.583 559.438 67.8664 562.496 70.6769C564.995 72.974 568.539 74.7207 572.074 75.4283C569.832 70.0937 567.354 65.072 565.005 62.0557C564.344 61.2065 563.726 60.5609 563.164 60.1203C562.596 59.6745 562.162 59.4983 561.857 59.4582ZM588.988 56.9237C588.764 56.9358 588.533 57.0243 588.262 57.2904C587.63 57.9108 587.04 59.2429 586.574 61.2713C585.879 64.2959 585.599 68.1472 585.379 71.5557C587.878 69.4564 589.996 66.8431 591.168 64.3513C591.934 62.7229 592.242 61.2655 592.107 60.099C591.98 59.0025 591.459 58.0806 590.325 57.3867C589.671 56.9862 589.242 56.9101 588.988 56.9237Z" fill="#115669"/>
<path d="M564.232 105.187C568.999 102.986 575.332 100.688 580.782 100.983C587.458 101.344 594.766 101.829 600.492 106.554C602.249 108.004 603.936 109.525 604.986 111.369C606.104 113.333 606.433 115.533 605.775 118.155C605.209 120.409 604.437 122.085 602.837 123.196C601.423 124.177 599.528 124.549 597.519 124.989C595.491 125.433 592.968 125.102 590.986 124.893C588.751 124.658 587.071 124.555 585.93 124.935C584.284 125.483 582.481 127.151 580.962 128.977C580.238 129.848 579.638 130.681 579.22 131.296C579.011 131.602 578.85 131.853 578.742 132.024C578.688 132.109 578.647 132.174 578.621 132.216C578.609 132.237 578.599 132.252 578.594 132.262C578.591 132.266 578.588 132.269 578.587 132.271C578.051 133.171 576.887 133.465 575.988 132.929C575.088 132.393 574.794 131.23 575.329 130.33L576.83 131.224C575.412 130.378 575.334 130.332 575.33 130.329V130.328C575.331 130.328 575.332 130.327 575.332 130.326L575.347 130.3C575.357 130.284 575.37 130.262 575.388 130.234C575.422 130.177 575.472 130.097 575.536 129.996C575.664 129.794 575.849 129.508 576.083 129.163C576.551 128.475 577.225 127.54 578.046 126.552C579.62 124.66 582.003 122.245 584.732 121.337C586.8 120.648 589.357 120.908 591.384 121.121C593.664 121.361 595.429 121.564 596.708 121.284C599.038 120.774 600.026 120.53 600.674 120.08C601.136 119.759 601.605 119.188 602.096 117.231C602.532 115.493 602.293 114.304 601.69 113.245C601.019 112.066 599.835 110.93 598.078 109.48C593.456 105.665 587.436 105.141 580.577 104.77C576.12 104.529 570.516 106.464 565.822 108.631C563.518 109.694 561.511 110.776 560.081 111.592C559.367 111.999 558.799 112.339 558.412 112.575C558.219 112.693 558.07 112.786 557.972 112.848C557.923 112.879 557.886 112.902 557.862 112.917C557.85 112.925 557.842 112.93 557.837 112.934C557.834 112.935 557.832 112.936 557.831 112.937C556.951 113.504 555.776 113.25 555.209 112.37C554.642 111.49 554.896 110.317 555.776 109.749L556.803 111.343C555.791 109.772 555.776 109.749 555.776 109.748L555.777 109.747C555.778 109.747 555.78 109.746 555.781 109.746C555.784 109.744 555.786 109.742 555.79 109.739C555.799 109.734 555.811 109.727 555.826 109.718C555.855 109.699 555.898 109.671 555.953 109.636C556.065 109.566 556.227 109.466 556.435 109.339C556.85 109.085 557.451 108.725 558.201 108.297C559.7 107.442 561.805 106.307 564.232 105.187Z" fill="#115669"/>
<path d="M630.193 163.797L671.938 175.672L700.798 148.506L704.935 184.038L741.929 203.321L703.528 217.239L704.348 255.474L674.655 230.157L626.231 232.538L648.07 201.915L630.193 163.797Z" fill="#47BFE1"/>
<path d="M706.716 255.423C706.764 257.726 704.564 258.772 702.811 257.276C700.984 255.72 699.156 254.163 697.33 252.606C689.492 245.923 681.664 239.231 673.841 232.531C658.007 233.272 642.173 233.987 626.336 234.674C624.32 234.764 623.311 232.933 624.49 231.295C631.617 221.421 638.759 211.556 645.913 201.7C640.216 189.28 634.537 176.851 628.877 164.414C628.291 163.136 629.243 162.002 630.591 162.398C637.96 164.586 645.327 166.78 652.693 168.98C659.028 170.873 665.362 172.769 671.695 174.671C676.443 170.07 681.193 165.472 685.947 160.878C690.572 156.408 695.2 151.942 699.831 147.479C700.792 146.591 702.059 147.041 702.198 148.342C703.675 159.852 705.139 171.364 706.587 182.877C718.701 189.052 730.806 195.245 742.901 201.455C744.725 202.415 744.587 204.604 742.646 205.299C730.392 209.826 718.131 214.336 705.864 218.828C706.164 231.026 706.448 243.225 706.716 255.423ZM701.874 250.248C701.648 239.262 701.432 228.275 701.232 217.288C701.21 216.389 701.901 215.389 702.746 215.079C714.065 211.019 725.39 206.974 736.719 202.942C725.842 197.182 714.972 191.408 704.111 185.619C703.682 185.401 703.223 184.72 703.163 184.244C701.991 173.31 700.835 162.375 699.689 151.438C695.645 155.155 691.6 158.87 687.552 162.582C685.053 164.874 682.553 167.164 680.052 169.453L672.547 176.32L672.466 176.383C672.288 176.502 672.011 176.566 671.796 176.545L671.694 176.527L661.872 173.883C658.599 173.001 655.325 172.116 652.052 171.231C645.663 169.504 639.275 167.772 632.888 166.035C638.53 177.722 644.156 189.417 649.765 201.12C650.012 201.634 649.921 202.534 649.594 203.002C643.247 212.063 636.888 221.115 630.52 230.161C645.192 229.36 659.865 228.58 674.54 227.825C674.977 227.803 675.836 228.098 676.169 228.381C684.256 235.244 692.335 242.116 700.406 248.997C700.896 249.415 701.385 249.831 701.874 250.248Z" fill="#115669"/>
<path d="M734.323 135.82C751.971 128.238 796.397 58.791 796.397 58.791C796.397 58.791 816.358 69.1713 827.13 78.5031C839.36 89.0975 853.603 110.346 853.603 110.346C853.603 110.346 817.802 159.783 786.66 182.219C772.324 192.547 747.711 205.267 747.711 205.267C747.711 205.267 739.968 208.529 738.278 205.267C737.406 203.583 738.278 200.414 738.278 200.414L749.841 189.497L723.673 201.628C723.673 201.628 715.333 204.904 712.414 201.628C709.141 197.954 715.761 189.497 715.761 189.497C715.761 189.497 699.387 198.909 696.591 191.923C695.071 188.125 698.417 181.612 698.417 181.612L725.498 158.261H708.762C708.762 158.261 700.166 157.655 698.417 153.712C696.338 149.026 700.578 143.401 705.72 143.401C709.98 143.401 716.674 143.401 734.323 135.82Z" fill="#F1F1F1"/>
<path d="M794.799 57.7688C795.328 56.9419 796.402 56.6556 797.273 57.1085L797.273 57.1094L797.288 57.1168C797.299 57.1222 797.314 57.1306 797.334 57.1409C797.373 57.1615 797.431 57.1918 797.507 57.2317C797.658 57.3115 797.881 57.429 798.168 57.5817C798.741 57.887 799.57 58.3323 800.597 58.8957C802.651 60.0224 805.501 61.6225 808.692 63.5165C815.046 67.2883 822.851 72.2873 828.372 77.0697C834.64 82.4995 841.355 90.5887 846.458 97.243C849.021 100.585 851.197 103.593 852.734 105.765C853.503 106.852 854.112 107.73 854.53 108.339C854.739 108.642 854.9 108.878 855.01 109.04C855.064 109.12 855.106 109.182 855.135 109.224C855.149 109.245 855.159 109.261 855.166 109.272C855.17 109.277 855.173 109.282 855.175 109.285C855.176 109.286 855.177 109.288 855.177 109.289L855.178 109.29L855.256 109.415C855.617 110.057 855.576 110.855 855.139 111.458L853.603 110.345C855.139 111.458 855.139 111.459 855.138 111.459L855.137 111.461C855.136 111.463 855.134 111.465 855.132 111.468C855.127 111.475 855.12 111.484 855.112 111.496C855.094 111.521 855.067 111.558 855.032 111.606C854.962 111.701 854.859 111.843 854.723 112.029C854.45 112.4 854.047 112.945 853.524 113.646C852.479 115.05 850.953 117.077 849.025 119.579C845.169 124.581 839.702 131.485 833.258 139.094C820.397 154.279 803.538 172.398 787.769 183.758C780.51 188.987 770.696 194.791 762.739 199.269C758.753 201.512 755.216 203.432 752.676 204.791C751.405 205.47 750.383 206.01 749.678 206.38C749.326 206.565 749.052 206.707 748.867 206.804C748.774 206.852 748.704 206.888 748.656 206.913C748.632 206.925 748.613 206.935 748.601 206.942C748.595 206.945 748.59 206.948 748.587 206.949C748.586 206.95 748.584 206.951 748.583 206.951H748.583L747.711 205.267C748.448 207.014 748.447 207.015 748.446 207.015H748.445C748.445 207.015 748.444 207.016 748.443 207.017C748.441 207.018 748.439 207.018 748.436 207.02C748.43 207.022 748.423 207.025 748.413 207.029C748.394 207.037 748.367 207.048 748.334 207.061C748.268 207.088 748.174 207.125 748.057 207.17C747.821 207.261 747.487 207.385 747.083 207.521C746.282 207.793 745.171 208.127 743.982 208.353C742.819 208.574 741.445 208.719 740.168 208.516C738.873 208.31 737.397 207.689 736.594 206.139C735.879 204.758 735.953 203.043 736.066 202.004C736.129 201.425 736.222 200.912 736.3 200.545C736.339 200.36 736.374 200.209 736.401 200.1C736.414 200.046 736.426 200.003 736.434 199.971C736.438 199.955 736.442 199.942 736.444 199.932C736.446 199.927 736.447 199.922 736.448 199.919C736.448 199.917 736.449 199.916 736.449 199.915L736.45 199.913V199.912C736.454 199.913 736.539 199.935 738.104 200.366L736.45 199.911C736.542 199.577 736.724 199.274 736.977 199.035L740.065 196.118L724.47 203.348C724.436 203.364 724.401 203.379 724.366 203.392L723.673 201.627L724.365 203.393H724.364C724.364 203.394 724.363 203.394 724.362 203.394C724.36 203.395 724.356 203.397 724.353 203.398C724.347 203.4 724.339 203.403 724.329 203.407C724.309 203.415 724.281 203.425 724.245 203.439C724.174 203.465 724.073 203.503 723.945 203.549C723.69 203.64 723.327 203.763 722.885 203.9C722.005 204.172 720.785 204.504 719.451 204.727C718.132 204.947 716.611 205.077 715.163 204.891C713.722 204.705 712.146 204.177 710.998 202.889C709.683 201.413 709.477 199.563 709.674 197.952C709.842 196.584 710.316 195.208 710.864 193.981C709.903 194.382 708.875 194.779 707.824 195.129C705.531 195.893 702.953 196.504 700.668 196.385C698.321 196.263 695.906 195.316 694.83 192.628C694.298 191.3 694.232 189.85 694.346 188.545C694.461 187.223 694.774 185.915 695.121 184.786C695.47 183.651 695.868 182.651 696.177 181.937C696.333 181.578 696.467 181.287 696.564 181.083C696.613 180.981 696.653 180.9 696.681 180.843L696.725 180.756C696.726 180.753 696.727 180.751 696.727 180.749L696.729 180.748V180.747L696.73 180.746C696.842 180.529 696.994 180.335 697.178 180.176L720.395 160.158H708.763C708.719 160.158 708.674 160.156 708.63 160.153L708.763 158.261L708.629 160.153H708.624C708.622 160.153 708.62 160.152 708.617 160.152C708.61 160.151 708.601 160.151 708.591 160.15C708.57 160.148 708.541 160.146 708.505 160.143C708.431 160.136 708.328 160.127 708.198 160.114C707.938 160.088 707.569 160.046 707.125 159.982C706.24 159.857 705.029 159.644 703.748 159.295C702.477 158.95 701.066 158.451 699.818 157.726C698.586 157.009 697.345 155.974 696.683 154.481C695.313 151.392 696.076 148.101 697.825 145.687C699.569 143.279 702.452 141.505 705.72 141.505C707.794 141.505 710.38 141.506 714.602 140.599C718.86 139.685 724.824 137.836 733.574 134.077C735.488 133.255 737.927 131.509 740.785 128.926C743.615 126.368 746.746 123.093 750.042 119.335C756.634 111.821 763.802 102.482 770.444 93.3473C777.081 84.2183 783.172 75.3214 787.604 68.705C789.82 65.3976 791.62 62.6616 792.866 60.7533C793.488 59.7992 793.973 59.0519 794.301 58.5438C794.465 58.2899 794.59 58.0955 794.674 57.9651C794.716 57.9 794.748 57.8506 794.769 57.8178C794.779 57.8015 794.787 57.7889 794.792 57.7808C794.794 57.7767 794.797 57.7735 794.798 57.7715L794.799 57.7697C794.799 57.7693 794.8 57.7691 796.397 58.7911L794.799 57.7688ZM748.582 206.952C748.538 206.975 748.493 206.995 748.447 207.014L747.711 205.267L748.582 206.952ZM796.042 62.8267C794.789 64.7458 792.98 67.4947 790.755 70.8163C786.306 77.4582 780.187 86.3976 773.512 95.578C766.841 104.752 759.595 114.197 752.893 121.836C749.543 125.655 746.306 129.049 743.328 131.74C740.379 134.405 737.569 136.489 735.071 137.562C726.172 141.385 719.966 143.327 715.399 144.308C710.797 145.296 707.906 145.298 705.72 145.298C703.846 145.298 702.038 146.336 700.896 147.912C699.76 149.481 699.442 151.346 700.15 152.943C700.362 153.421 700.853 153.94 701.724 154.447C702.58 154.944 703.647 155.336 704.744 155.635C705.83 155.93 706.877 156.116 707.659 156.228C708.047 156.283 708.365 156.318 708.581 156.34C708.69 156.351 708.773 156.359 708.827 156.364C708.831 156.364 708.834 156.364 708.838 156.365H725.498C726.29 156.365 727 156.858 727.276 157.601C727.552 158.344 727.337 159.18 726.737 159.697L699.952 182.792C699.875 182.955 699.774 183.175 699.658 183.442C699.388 184.067 699.044 184.933 698.746 185.901C698.447 186.875 698.208 187.907 698.124 188.875C698.038 189.859 698.123 190.648 698.352 191.218C698.674 192.023 699.355 192.519 700.864 192.598C702.436 192.679 704.476 192.246 706.626 191.53C708.738 190.827 710.789 189.908 712.325 189.156C713.09 188.781 713.719 188.452 714.154 188.218C714.372 188.101 714.54 188.007 714.653 187.945C714.709 187.913 714.752 187.89 714.779 187.874C714.793 187.866 714.803 187.86 714.809 187.857C714.812 187.855 714.814 187.853 714.815 187.853L731.206 177.869C732.1 177.325 733.268 177.608 733.813 178.503C734.357 179.397 734.074 180.565 733.179 181.11L717.056 190.928C717.042 190.947 717.028 190.967 717.013 190.988C716.852 191.208 716.621 191.531 716.353 191.931C715.814 192.736 715.139 193.829 714.567 195.011C713.986 196.212 713.563 197.399 713.438 198.413C713.315 199.42 713.509 200.006 713.83 200.366L713.959 200.495C714.288 200.787 714.821 201.023 715.647 201.129C716.583 201.25 717.695 201.175 718.825 200.986C719.941 200.799 720.988 200.516 721.763 200.276C722.148 200.157 722.46 200.051 722.673 199.975C722.778 199.938 722.859 199.908 722.912 199.888C722.919 199.885 722.926 199.882 722.932 199.88L749.044 187.777C749.887 187.386 750.89 187.664 751.412 188.433C751.933 189.203 751.819 190.238 751.143 190.876L739.997 201.399C739.942 201.671 739.879 202.026 739.836 202.414C739.731 203.38 739.806 204.092 739.962 204.394C740.004 204.476 740.13 204.67 740.762 204.77C741.412 204.873 742.29 204.814 743.275 204.627C744.233 204.445 745.164 204.168 745.867 203.929C746.214 203.812 746.499 203.706 746.693 203.631C746.791 203.594 746.865 203.564 746.913 203.544H746.912C746.958 203.52 747.027 203.486 747.116 203.44C747.298 203.345 747.567 203.204 747.915 203.021C748.612 202.655 749.626 202.12 750.886 201.446C753.409 200.097 756.921 198.19 760.879 195.963C768.813 191.498 778.473 185.779 785.551 180.68C800.924 169.605 817.537 151.787 830.363 136.643C836.761 129.088 842.191 122.232 846.021 117.263C847.935 114.78 849.449 112.769 850.483 111.381C850.792 110.965 851.057 110.605 851.279 110.305C850.876 109.721 850.322 108.922 849.638 107.955C848.122 105.813 845.974 102.846 843.447 99.5516C838.372 92.9333 831.85 85.1013 825.888 79.9367C820.637 75.3873 813.075 70.5302 806.756 66.7789C803.61 64.9115 800.797 63.3331 798.772 62.222C798.105 61.856 797.523 61.5409 797.044 61.283C796.766 61.7118 796.432 62.2297 796.042 62.8267Z" fill="#115669"/>
<path d="M430.178 67.1997C437.931 66.0902 446.539 68.028 454.913 71.339C458.094 72.5969 461.274 74.0665 464.401 75.6718C464.452 75.0308 464.481 74.3565 464.481 73.6475C464.481 59.1441 457.844 42.7993 437.174 32.9806C421.258 25.4201 406.388 25.418 395.474 27.3106C390.014 28.2574 385.554 29.677 382.472 30.8545C380.931 31.4428 379.737 31.9697 378.938 32.3444C378.538 32.5316 378.238 32.6809 378.042 32.7806C377.944 32.8304 377.872 32.868 377.827 32.8917C377.805 32.9033 377.789 32.9119 377.78 32.9167C377.776 32.9188 377.773 32.9197 377.772 32.9204L377.771 32.9195C376.623 33.5453 375.184 33.124 374.557 31.9759C373.929 30.8268 374.352 29.3865 375.501 28.7589L376.517 30.6183C375.502 28.7585 375.502 28.7576 375.503 28.757C375.504 28.7568 375.505 28.7566 375.506 28.7561C375.508 28.755 375.511 28.7531 375.514 28.7515C375.52 28.7483 375.528 28.7444 375.538 28.7394C375.556 28.7293 375.582 28.7149 375.614 28.6978C375.68 28.6632 375.773 28.6151 375.893 28.5542C376.133 28.4325 376.479 28.2611 376.927 28.0514C377.822 27.632 379.122 27.0586 380.78 26.4253C384.094 25.1594 388.851 23.6468 394.664 22.6388C406.295 20.6219 422.203 20.6204 439.208 28.6978C461.709 39.386 469.223 57.5186 469.223 73.6475C469.223 75.2233 469.11 76.7019 468.889 78.0841C472.445 80.0796 475.895 82.2099 479.159 84.356C486.601 89.2503 493.128 94.2683 497.792 98.0592C500.126 99.9558 501.997 101.549 503.287 102.67C503.933 103.231 504.434 103.674 504.774 103.978L505.265 104.42C505.277 104.431 505.286 104.439 505.292 104.445C505.295 104.448 505.298 104.45 505.299 104.451C505.3 104.452 505.301 104.453 505.301 104.453C505.302 104.454 505.302 104.454 503.797 106.098L505.303 104.454C506.269 105.338 506.334 106.838 505.45 107.804C504.566 108.769 503.067 108.835 502.101 107.951L502.095 107.946C502.091 107.942 502.084 107.936 502.074 107.927C502.054 107.909 502.024 107.881 501.983 107.844C501.902 107.771 501.778 107.66 501.616 107.515C501.29 107.224 500.806 106.795 500.178 106.249C498.921 105.157 497.09 103.598 494.802 101.738C490.222 98.0153 483.825 93.1 476.553 88.3175C473.671 86.4223 470.66 84.5549 467.578 82.7929C467.099 83.9337 466.52 84.9806 465.843 85.9339C463.634 89.0447 460.545 90.9563 457.108 91.9642C450.357 93.9438 442.077 92.5122 435.201 89.8399C431.721 88.4874 428.483 86.7736 425.844 84.8959C423.251 83.0504 421.045 80.9101 419.881 78.6342C419.286 77.4725 418.909 76.1696 419.002 74.8041C419.097 73.3983 419.678 72.1174 420.675 71.0464C422.556 69.0255 425.836 67.8211 430.178 67.1997ZM453.169 75.7487C445.133 72.5711 437.427 70.9524 430.849 71.8937C426.777 72.4765 424.88 73.4888 424.146 74.2772C423.836 74.6108 423.749 74.883 423.733 75.1255C423.714 75.4085 423.782 75.8494 424.102 76.4747C424.766 77.7729 426.271 79.3803 428.594 81.0335C430.871 82.6541 433.753 84.1908 436.919 85.4209C443.334 87.914 450.451 88.9753 455.773 87.4146C458.373 86.6524 460.488 85.2855 461.977 83.1892C462.522 82.4215 463 81.5282 463.391 80.4917C460.012 78.7128 456.582 77.098 453.169 75.7487Z" fill="#47BFE1"/>
<path d="M724.318 70.385C735.212 72.7499 749.416 74.0231 761.638 69.0469C777.114 62.7455 782.699 54.4235 781.68 46.6181C781.65 46.3876 781.609 46.163 781.563 45.9433C783.713 44.9373 785.788 43.9051 787.753 42.8856C792.911 40.2097 797.399 37.5694 800.597 35.5986C802.197 34.6127 803.478 33.7927 804.36 33.2174C804.801 32.9298 805.143 32.7034 805.377 32.5477C805.493 32.4699 805.582 32.4093 805.644 32.3681L805.74 32.3033C805.74 32.3029 805.741 32.3022 804.405 30.3435L805.74 32.3022C806.822 31.5647 807.101 30.0901 806.364 29.0083C805.626 27.9267 804.151 27.6475 803.069 28.385C803.069 28.3853 803.068 28.3863 803.067 28.3872C803.064 28.3891 803.059 28.393 803.052 28.3975C803.039 28.4063 803.019 28.4198 802.992 28.438C802.937 28.4748 802.855 28.5305 802.745 28.6038C802.525 28.7505 802.197 28.9677 801.77 29.2455C800.918 29.8013 799.672 30.5996 798.11 31.562C794.984 33.4885 790.599 36.0674 785.57 38.6769C783.532 39.7341 781.403 40.7877 779.221 41.8018C778.797 41.416 778.328 41.0726 777.821 40.7742C775.859 39.6192 773.432 39.1708 770.994 39.0952C766.105 38.9437 760.263 40.2721 755.422 41.9925C752.981 42.86 750.719 43.8535 748.888 44.8652C747.158 45.8211 745.488 46.965 744.584 48.2397C744.127 48.885 743.568 49.9904 743.905 51.3008C744.252 52.6477 745.319 53.3604 746.143 53.7151C747.721 54.3939 750.16 54.5459 753.254 54.3886C760.735 54.0082 769.19 51.3095 777.039 47.9654C777.226 52.4636 773.893 58.9376 759.85 64.6558C748.964 69.0882 735.91 68.0504 725.324 65.7524C720.073 64.6126 715.523 63.183 712.287 62.0393C710.671 61.468 709.386 60.9694 708.511 60.6158C708.074 60.439 707.739 60.2989 707.516 60.204C707.405 60.1566 707.322 60.1208 707.268 60.0973C707.241 60.0855 707.222 60.0767 707.21 60.0713C707.204 60.0686 707.199 60.0665 707.197 60.0655L707.195 60.0657C706 59.532 704.598 60.0673 704.064 61.2626C703.53 62.4579 704.066 63.8604 705.262 64.3944L706.229 62.2295C705.321 64.2605 705.266 64.3861 705.264 64.3941L705.266 64.3957C705.267 64.3965 705.269 64.3976 705.272 64.3987C705.277 64.401 705.284 64.404 705.293 64.408C705.312 64.416 705.338 64.4274 705.371 64.4418C705.437 64.4708 705.533 64.5129 705.658 64.5659C705.906 64.6719 706.269 64.8233 706.736 65.0117C707.668 65.3886 709.018 65.9127 710.707 66.5096C714.082 67.7025 718.828 69.1933 724.318 70.385ZM773.743 44.2053C766.649 47.1225 759.338 49.3319 753.013 49.6536C751.785 49.7161 750.817 49.7122 750.068 49.6747C750.387 49.47 750.757 49.249 751.181 49.0149C752.739 48.1539 754.756 47.2603 757.01 46.4592C761.559 44.8425 766.776 43.7081 770.847 43.8343C771.968 43.869 772.934 43.9991 773.743 44.2053Z" fill="#47BFE1"/>
</svg>
