<svg width="184" height="193" viewBox="0 0 184 193" fill="none" xmlns="http://www.w3.org/2000/svg">
<path d="M21.7997 71.4512C21.3844 71.2608 20.9778 71.0676 20.5795 70.8719C20.493 71.18 20.3868 71.4831 20.261 71.7806C19.8753 72.6925 19.3233 73.5113 18.6205 74.2141C18.5043 74.3302 18.3848 74.4418 18.2625 74.5496C18.8256 74.8328 19.4032 75.1109 19.9964 75.383C20.5599 75.6415 21.1345 75.8932 21.7186 76.1388C21.9355 74.71 22.2047 73.2553 22.5259 71.7772C22.2821 71.6697 22.0396 71.5612 21.7997 71.4512Z" fill="#E73D24"/>
<path d="M9.57963 62.0541C8.46538 60.2766 7.90245 58.4615 7.90245 56.6327C7.90245 53.9891 9.07808 51.3738 11.3967 48.8596C13.8082 46.2446 17.3083 43.8742 21.7998 41.8143C22.0397 41.7042 22.2821 41.5958 22.5261 41.4882C22.2048 40.0102 21.9356 38.5555 21.7187 37.1266C21.1346 37.3722 20.5601 37.624 19.9965 37.8825C9.40816 42.7387 3.5769 49.3977 3.5769 56.6327C3.5769 59.6066 4.5629 62.4829 6.45865 65.1769C6.81161 64.5196 7.25805 63.9189 7.79167 63.3853C8.32429 62.8526 8.92368 62.4068 9.57963 62.0541Z" fill="#E73D24"/>
<path d="M73.6311 81.3799C75.1228 81.1601 76.5967 80.9093 78.0507 80.6273C81.107 80.0343 84.0157 79.3161 86.7597 78.4789C86.5805 77.0724 86.3432 75.6361 86.0494 74.1752C83.2403 75.0601 80.2545 75.8066 77.133 76.4077C76.0002 78.1137 74.8318 79.7722 73.6311 81.3799Z" fill="#E73D24"/>
<path d="M111.38 55.7444V55.7435C111.187 52.8285 110.041 50.0164 108.014 47.389V47.3886C107.993 47.3623 107.973 47.3365 107.953 47.3107C107.932 47.2844 107.913 47.2586 107.892 47.2328C107.861 47.1934 107.83 47.1544 107.799 47.1155C107.759 47.0647 107.718 47.0145 107.677 46.9646C107.636 46.9144 107.595 46.8641 107.553 46.8138C107.552 46.8111 107.549 46.8088 107.547 46.8061C107.508 46.7586 107.468 46.7115 107.428 46.6639C107.385 46.6127 107.341 46.562 107.297 46.5108C107.256 46.4624 107.214 46.4139 107.171 46.3654C107.165 46.3586 107.159 46.3518 107.153 46.3446C107.072 46.2522 106.989 46.1603 106.907 46.0688C106.862 46.0194 106.816 45.97 106.771 45.9207C106.691 45.8337 106.61 45.7472 106.528 45.6607C106.42 45.547 106.31 45.4342 106.199 45.3215C106.171 45.2929 106.142 45.2649 106.114 45.2363C106.065 45.187 106.015 45.1376 105.965 45.0882C105.901 45.0248 105.836 44.9619 105.771 44.8989C105.724 44.8536 105.677 44.8083 105.629 44.7635C105.624 44.7585 105.619 44.7535 105.614 44.7485C105.565 44.7028 105.517 44.657 105.468 44.6113C105.365 44.5157 105.262 44.4202 105.157 44.3255C105.108 44.2807 105.058 44.2358 105.008 44.1915C104.852 44.0524 104.694 43.9138 104.532 43.7761L104.532 43.7757C102.104 41.7022 99.0612 39.7919 95.4474 38.0948C95.2962 38.0232 95.144 37.9526 94.9904 37.8824C94.427 37.6242 93.8527 37.3724 93.2685 37.1265C93.2594 37.1858 93.2504 37.2456 93.2409 37.3049C93.0289 38.6763 92.7689 40.0718 92.4609 41.4885C92.7051 41.5958 92.9474 41.7041 93.1874 41.8141C97.6789 43.8744 101.179 46.2445 103.59 48.8596C104.902 50.2818 105.848 51.7361 106.422 53.2099C106.653 53.8045 106.825 54.4019 106.935 55.002C107.035 55.5437 107.085 56.0877 107.085 56.6325C107.085 59.2766 105.909 61.8917 103.59 64.4059C101.932 66.2044 99.7583 67.8874 97.101 69.4332C96.7455 69.6402 96.3809 69.8444 96.0081 70.0464C95.1164 70.5292 94.1761 70.9976 93.1874 71.4514C92.9474 71.5614 92.7051 71.6697 92.4609 71.777C92.7825 73.2553 93.0515 74.7101 93.2685 76.1386C93.8527 75.8931 94.427 75.6413 94.9904 75.3831C95.7201 75.0484 96.4275 74.7051 97.1119 74.3532C97.4933 74.1575 97.8669 73.9592 98.2338 73.7585C105.88 69.5741 110.406 64.3194 111.261 58.6231C111.361 57.9654 111.41 57.3015 111.41 56.6325C111.41 56.3355 111.4 56.0393 111.38 55.7444Z" fill="#E73D24"/>
<path d="M28.9378 74.1752C28.6441 75.6361 28.4068 77.0724 28.2275 78.4789C30.9716 79.3161 33.8802 80.0343 36.9366 80.6273C38.3905 80.9093 39.8645 81.1601 41.3562 81.3799C40.1555 79.7721 38.9871 78.1136 37.8543 76.4077C34.7328 75.8066 31.7469 75.06 28.9378 74.1752Z" fill="#E73D24"/>
<path d="M64.2116 30.9269C61.9973 30.7981 59.7558 30.7333 57.4933 30.7333C55.2308 30.7333 52.9894 30.7982 50.775 30.9269C49.5153 32.3981 48.2777 33.9404 47.0681 35.5467C50.4571 35.2243 53.9461 35.0589 57.4933 35.0589C61.0406 35.0589 64.5296 35.2243 67.9185 35.5467C66.7089 33.9404 65.4713 32.3981 64.2116 30.9269Z" fill="#E73D24"/>
<path d="M86.7597 34.7866C84.0157 33.9493 81.107 33.2311 78.0507 32.6382C76.5967 32.3562 75.1228 32.1054 73.6311 31.8856C74.8319 33.4933 76.0002 35.1518 77.133 36.8577C80.2545 37.4589 83.2403 38.2054 86.0494 39.0903C86.3431 37.6294 86.5805 36.1931 86.7597 34.7866Z" fill="#E73D24"/>
<path d="M22.7134 35.4036C22.7397 35.6115 22.7664 35.8194 22.7954 36.0281C22.8235 36.2351 22.8529 36.4426 22.8833 36.6505C23.0925 38.0735 23.3556 39.5237 23.6709 40.9984C23.7144 41.2004 23.7587 41.4024 23.8036 41.6053C23.8484 41.8069 23.8946 42.0084 23.9413 42.2109C24.588 45.0058 25.4205 47.8841 26.435 50.8271C26.6923 51.5735 26.9604 52.3203 27.2385 53.0672L27.2389 53.0676C27.4821 53.7221 27.734 54.3766 27.993 55.031C28.0302 54.945 28.0673 54.8589 28.1049 54.7729C28.83 53.0957 29.6054 51.4208 30.4297 49.7519C30.4691 49.6717 30.5085 49.592 30.5484 49.5123C29.508 46.5081 28.6615 43.5492 28.0234 40.6741C27.979 40.4735 27.9355 40.2733 27.8929 40.0731C27.8848 40.0346 27.8766 39.9966 27.8689 39.9581C27.8685 39.9576 27.8685 39.9576 27.8685 39.9572C27.8345 39.7946 27.801 39.6324 27.7679 39.4707C27.633 38.8059 27.5084 38.1455 27.3965 37.4902C27.3241 37.0708 27.257 36.6536 27.1945 36.2388C27.1402 35.8769 27.0895 35.5173 27.0424 35.159C27.0152 34.9525 26.9894 34.7469 26.9649 34.5417C26.94 34.3343 26.9164 34.1277 26.8943 33.9221C26.8653 33.6572 26.8381 33.3926 26.8132 33.13C26.3517 28.2104 26.6542 23.9938 27.7131 20.5979C28.0863 19.4008 28.5483 18.3297 29.0968 17.3885C29.715 16.3264 30.4428 15.4297 31.2775 14.7018H31.278C31.7214 14.3146 32.1951 13.9758 32.6979 13.6855C34.1603 12.8413 35.8515 12.4183 37.7528 12.4183C38.8285 12.4183 39.9712 12.5537 41.1769 12.825C44.1448 13.493 47.3564 14.9401 50.7451 17.134C50.7469 17.1349 50.7483 17.1362 50.7501 17.1372C50.7646 17.1467 50.7791 17.1562 50.7936 17.1652C50.8669 17.2132 50.9403 17.2613 51.0141 17.3097C51.1038 17.3686 51.1939 17.4284 51.2841 17.4886C51.3606 17.5393 51.4376 17.591 51.5146 17.6431C51.5228 17.6485 51.5309 17.6544 51.5395 17.6598C51.617 17.7124 51.6944 17.7649 51.7723 17.8183C52.0074 17.9791 52.2433 18.1435 52.4798 18.3116C52.6949 18.4642 52.91 18.62 53.1252 18.7776C54.2448 17.7604 55.3698 16.7997 56.4989 15.8975C55.9939 15.5144 55.4889 15.143 54.983 14.7838C54.9119 14.7331 54.8408 14.6833 54.7697 14.6339C54.4264 14.392 54.0844 14.1574 53.7438 13.9301C47.9561 10.0595 42.5039 8.08795 37.7551 8.08795C36.4906 8.0884 35.2759 8.22835 34.1178 8.50961H34.1173C32.8519 8.81714 31.6548 9.29315 30.5352 9.93946C30.0216 10.2361 29.5311 10.5645 29.0637 10.9245H29.0633C23.828 14.9528 21.5073 22.8873 22.5069 33.5344C22.5644 34.1517 22.6337 34.775 22.7134 35.4036Z" fill="#E73D24"/>
<path d="M75.6849 101.404C75.6849 101.188 75.6943 100.974 75.7119 100.761C75.0968 100.694 74.4628 100.587 73.8103 100.441C70.3398 99.6596 66.537 97.8136 62.5073 94.9539C62.2921 94.8012 62.0769 94.6454 61.8618 94.4879C60.7425 95.5051 59.6173 96.4656 58.4883 97.3678C58.9931 97.751 59.4983 98.1226 60.004 98.4815C66.0245 102.754 71.7158 105.009 76.6726 105.168C76.5301 104.915 76.4012 104.654 76.2872 104.385C75.8876 103.44 75.6849 102.437 75.6849 101.404Z" fill="#E73D24"/>
<path d="M70.0591 36.388C70.2206 36.6113 70.3816 36.8357 70.542 37.0612C72.5157 39.835 74.4035 42.7738 76.1771 45.8458C77.9507 48.9178 79.5519 52.0221 80.9672 55.1182C81.7534 53.2675 82.4703 51.4245 83.1147 49.598C82.119 47.616 81.0545 45.6424 79.9232 43.683C78.7919 41.7236 77.6151 39.8149 76.3964 37.9616C76.2408 37.725 76.0844 37.4895 75.9275 37.2547C75.77 37.0191 75.6119 36.7843 75.4531 36.5506C74.3088 34.8667 73.1298 33.2311 71.9185 31.648C71.7433 31.419 71.5673 31.1913 71.3908 30.9646C71.2134 30.7366 71.0354 30.5096 70.8566 30.2839C69.9204 29.102 68.9662 27.9508 67.995 26.8327C65.9533 24.4823 63.877 22.3224 61.7799 20.3647C60.6514 21.2231 59.5262 22.1468 58.408 23.1316C60.5789 25.122 62.7183 27.3345 64.7996 29.7372C64.986 29.9523 65.1719 30.1684 65.3573 30.3865C65.5406 30.6021 65.7232 30.8198 65.9055 31.0384C67.1519 32.5326 68.375 34.0944 69.5693 35.7172C69.733 35.9396 69.8964 36.1631 70.0591 36.388Z" fill="#E73D24"/>
<path d="M43.596 82.301C43.7734 82.529 43.9514 82.756 44.1302 82.9817C45.0663 84.1637 46.0205 85.3148 46.9918 86.4328C49.0334 88.7833 51.1097 90.9431 53.2069 92.9009C54.3354 92.0425 55.4605 91.1188 56.5788 90.134C54.4079 88.1436 52.2685 85.9311 50.1871 83.5284C50.0008 83.3133 49.8148 83.0972 49.6294 82.8791C49.4461 82.6634 49.2635 82.4458 49.0812 82.2273C47.8349 80.7331 46.6118 79.1712 45.4175 77.5485C45.2537 77.3259 45.0904 77.1024 44.9277 76.8776C44.7661 76.6543 44.6051 76.4298 44.4447 76.2043C42.471 73.4306 40.5833 70.4917 38.8097 67.4197C37.036 64.3478 35.4348 61.2435 34.0195 58.1473C33.2333 59.998 32.5164 61.841 31.8721 63.6675C32.8678 65.6495 33.9323 67.6231 35.0636 69.5825C36.1949 71.542 37.3718 73.4506 38.5904 75.304C38.746 75.5406 38.9024 75.7761 39.0593 76.011C39.2168 76.2466 39.3749 76.4813 39.5337 76.715C40.678 78.3989 41.857 80.0345 43.0683 81.6176C43.2434 81.8466 43.4194 82.0743 43.596 82.301Z" fill="#E73D24"/>
<path d="M61.3242 93.3225C61.4764 93.1831 61.6281 93.0426 61.7799 92.9009C63.8768 90.9429 65.9534 88.7835 67.9947 86.4328C68.9662 85.3146 69.9205 84.1637 70.8567 82.9816C71.0351 82.7561 71.2131 82.5287 71.3907 82.3009C71.5673 82.074 71.7435 81.8466 71.9183 81.6175C73.1299 80.0345 74.3088 78.3991 75.4528 76.7151C75.6118 76.4814 75.7699 76.2464 75.9275 76.0109C76.0842 75.7763 76.2409 75.5407 76.3963 75.3039C77.615 73.4505 78.7917 71.542 79.9231 69.5827C81.0545 67.6229 82.1188 65.6496 83.1148 63.6676C83.2416 63.4144 83.3675 63.1613 83.4925 62.9081C83.6175 62.6535 83.7421 62.3995 83.8648 62.1449C84.4799 60.8727 85.0664 59.5977 85.6239 58.3214C85.8694 57.7585 86.1094 57.1955 86.3436 56.6325C86.4541 56.3667 86.5633 56.1003 86.6715 55.834C86.7802 55.5664 86.888 55.2987 86.994 55.031C87.5492 53.6293 88.0692 52.2275 88.552 50.8271C89.3636 48.4733 90.0584 46.1607 90.6349 43.8993C90.7794 43.3332 90.9162 42.7702 91.0457 42.2109C91.0924 42.0084 91.1386 41.8069 91.1834 41.6053C91.2287 41.4024 91.2726 41.2 91.3161 40.9984C91.6105 39.6211 91.8596 38.2651 92.0616 36.9326C92.0761 36.8384 92.0901 36.7442 92.1037 36.6505C92.1341 36.4426 92.1635 36.2351 92.192 36.0286C92.2065 35.9213 92.221 35.8144 92.2346 35.7079C92.2482 35.6065 92.2609 35.505 92.2736 35.4036C92.3533 34.7749 92.4226 34.1517 92.4806 33.5344C92.5512 32.7835 92.6047 32.0461 92.6418 31.3228C92.664 30.8994 92.6803 30.4809 92.6907 30.0669C92.6961 29.8703 92.6998 29.6747 92.7025 29.4804C92.4543 29.5832 92.2025 29.672 91.9466 29.7476C91.5471 29.8663 91.1395 29.951 90.7251 30.0021C90.4126 30.0406 90.096 30.0601 89.7767 30.0601C89.2998 30.0601 88.8296 30.0166 88.3686 29.931C88.3418 30.9614 88.2771 32.028 88.1738 33.13C88.1489 33.3926 88.1217 33.6572 88.0927 33.9221C88.0705 34.1277 88.047 34.3343 88.0221 34.5417C87.9976 34.7469 87.9718 34.9525 87.9446 35.159C87.7594 36.5689 87.5166 38.0083 87.2191 39.4707C87.1783 39.6709 87.1366 39.872 87.0941 40.0731C87.0515 40.2729 87.008 40.4735 86.9636 40.6741C86.3255 43.5492 85.479 46.5081 84.4386 49.5123C84.3458 49.7809 84.2516 50.0503 84.1556 50.3198C84.06 50.5861 83.9631 50.8534 83.8648 51.1206C83.194 52.9467 82.4531 54.7874 81.6451 56.6325C81.6224 56.6842 81.5998 56.7353 81.5771 56.787C81.4884 56.9885 81.3991 57.1905 81.3086 57.3925C81.1962 57.6439 81.0821 57.8957 80.9671 58.1475C79.5517 61.2436 77.9507 64.3479 76.1771 67.4195C75.9492 67.814 75.7201 68.2058 75.4882 68.5958C74.4945 70.2711 73.4668 71.9043 72.4102 73.4904C72.0768 73.9913 71.7403 74.4873 71.4011 74.9782C71.1167 75.3904 70.8304 75.7989 70.5419 76.2042C70.3816 76.4298 70.2208 76.654 70.0591 76.8773C69.8965 77.1024 69.733 77.3257 69.569 77.5485C68.9137 78.4394 68.2493 79.3121 67.5762 80.165C67.1931 80.6528 66.8063 81.1338 66.4172 81.6079C66.2474 81.8158 66.0766 82.0219 65.9054 82.2271C65.7234 82.4458 65.5404 82.6632 65.3574 82.8788C65.1717 83.0971 64.986 83.3132 64.7994 83.5283C63.8832 84.5859 62.9556 85.6072 62.019 86.5886C61.7332 86.8876 61.447 87.1833 61.1598 87.475C60.2499 88.3998 59.3319 89.2871 58.4079 90.134C58.2711 90.2595 58.1344 90.3831 57.9976 90.5068C57.9826 90.5204 57.9677 90.534 57.9527 90.5476C57.7997 90.6852 57.6466 90.8216 57.4935 90.957C57.3504 91.0838 57.2068 91.2093 57.0637 91.3343C56.0872 92.183 55.1062 92.9865 54.122 93.741C53.9571 93.8679 53.7918 93.9929 53.6265 94.117C53.4594 94.242 53.2923 94.3656 53.1251 94.4879C52.91 94.6455 52.6949 94.8013 52.4797 94.9539C48.6227 97.6909 44.9736 99.4994 41.6248 100.334C41.4749 100.372 41.3254 100.407 41.1768 100.441C40.5772 100.575 39.9938 100.676 39.4268 100.744C38.852 100.813 38.2941 100.847 37.7528 100.847C35.8519 100.847 34.1599 100.424 32.6979 99.58C32.3247 99.3644 31.9673 99.1221 31.6267 98.8531C30.0664 97.623 28.8526 95.838 28.0039 93.5259C27.9015 93.2474 27.8046 92.9616 27.7131 92.6676C27.2158 91.0734 26.8856 89.2984 26.723 87.355C26.5387 85.1583 26.5681 82.7457 26.8132 80.1355C26.8381 79.8728 26.8652 79.6083 26.8942 79.3434C26.9164 79.1373 26.94 78.9312 26.9649 78.7238C26.9893 78.5186 27.0152 78.313 27.0423 78.1065C27.2276 76.6966 27.4703 75.2572 27.7679 73.7947C27.8087 73.5946 27.8503 73.3935 27.8929 73.1924C27.9083 73.1199 27.9237 73.0474 27.9396 72.975C27.9672 72.8473 27.9948 72.7195 28.0233 72.5914C28.6615 69.7163 29.508 66.7569 30.5483 63.7532C30.6412 63.4846 30.7354 63.2152 30.8319 62.9457C30.927 62.6794 31.0239 62.4121 31.1222 62.1449C31.7929 60.3188 32.5339 58.4781 33.3424 56.6325C33.4529 56.3798 33.5647 56.1262 33.6784 55.873C33.7907 55.6216 33.9049 55.3698 34.0199 55.118C35.4353 52.0219 37.0363 48.9176 38.8099 45.8459C39.8901 43.9754 41.0124 42.1538 42.171 40.3892C42.9147 39.2561 43.6733 38.146 44.4451 37.0612C44.6054 36.8357 44.7666 36.6111 44.9279 36.3882C45.0905 36.1631 45.254 35.9398 45.4179 35.717C46.2214 34.625 47.038 33.5611 47.8655 32.5267C48.2686 32.0235 48.6735 31.5276 49.0815 31.0384C49.1925 30.9057 49.303 30.7735 49.4144 30.6417C49.4855 30.5565 49.5575 30.4714 49.6296 30.3862C49.8153 30.1684 50.0009 29.9523 50.1875 29.7372C50.3547 29.5443 50.5218 29.3527 50.6898 29.1624C52.3978 27.224 54.1437 25.4141 55.9124 23.751C56.1343 23.5422 56.3562 23.3357 56.5791 23.1315C56.6619 23.0554 56.7448 22.9802 56.8277 22.905C56.8965 22.8425 56.9654 22.7805 57.0342 22.7179C57.1873 22.5803 57.3404 22.4439 57.4935 22.3085C58.3952 21.5109 59.3015 20.7514 60.211 20.0335C60.4288 19.8614 60.6467 19.692 60.865 19.5245C60.9818 19.4348 61.0982 19.3465 61.2146 19.2586C61.2631 19.2215 61.312 19.1852 61.3605 19.1485C61.5276 19.0235 61.6947 18.8999 61.8618 18.7776C62.077 18.62 62.2921 18.4642 62.5072 18.3116C66.5368 15.4519 70.3399 13.6058 73.8101 12.825C75.0162 12.5537 76.1585 12.4183 77.2341 12.4183C78.2541 12.4183 79.2138 12.5401 80.1101 12.7833C80.5241 12.8956 80.9249 13.0338 81.3117 13.1982C81.6482 13.3413 81.9739 13.5034 82.2891 13.6855C83.3924 14.3223 84.3526 15.1928 85.166 16.2884C85.6674 15.9098 86.2122 15.595 86.7956 15.3481C87.6122 15.0026 88.4727 14.8047 89.3582 14.7576C88.321 13.099 87.0488 11.7199 85.5505 10.6478C85.1968 10.3942 84.8304 10.1582 84.4518 9.93946C84.3331 9.87107 84.2135 9.80449 84.0931 9.73973C82.0373 8.63507 79.7329 8.08795 77.2323 8.08795H77.2319C72.1461 8.0884 66.2515 10.3503 60.004 14.7838C59.4985 15.143 58.9931 15.5144 58.4881 15.8975C58.3214 16.0243 58.1547 16.1516 57.9881 16.2807C57.8232 16.4089 57.6583 16.5379 57.4935 16.6684C56.3657 17.5611 55.2411 18.514 54.122 19.5245C53.9689 19.6626 53.8158 19.8021 53.6627 19.943C53.5106 20.0824 53.3588 20.2228 53.2071 20.3646C51.1101 22.3226 49.0335 24.482 46.9922 26.8327C46.0207 27.9509 45.0665 29.1018 44.1303 30.2839C43.9518 30.5094 43.7738 30.7368 43.5963 30.9646C43.4197 31.1915 43.2439 31.4189 43.0687 31.648C41.8571 33.231 40.6782 34.8664 39.5341 36.5504C39.3752 36.7841 39.2171 37.0191 39.0595 37.2546C38.9028 37.4893 38.7465 37.7248 38.5907 37.9616C38.5296 38.0545 38.4689 38.1473 38.4077 38.2406C37.2542 40.0061 36.1386 41.8218 35.0639 43.6828C34.4443 44.7558 33.8451 45.8333 33.2658 46.9139C32.7875 47.8066 32.3228 48.7011 31.8722 49.5979C31.8446 49.6531 31.8165 49.7088 31.7893 49.7641C31.6901 49.962 31.5923 50.1595 31.4945 50.3574C31.3695 50.6119 31.2449 50.866 31.1222 51.1206C31.1172 51.1305 31.1122 51.1409 31.1077 51.1509C30.3024 52.8172 29.546 54.4884 28.8409 56.161C28.7747 56.3182 28.7086 56.4754 28.6434 56.6325C28.5329 56.8988 28.4237 57.1651 28.3155 57.4315C28.2906 57.4926 28.2661 57.5533 28.2416 57.6144C28.1579 57.821 28.075 58.028 27.993 58.2345C27.4377 59.6362 26.9178 61.038 26.435 62.4384C25.4748 65.2238 24.6777 67.9508 24.0472 70.6044C24.011 70.7548 23.9761 70.9047 23.9412 71.0546C23.8946 71.2571 23.8484 71.4586 23.8036 71.6602C23.7587 71.8631 23.7143 72.0651 23.6709 72.2671C23.3556 73.7418 23.0925 75.192 22.8832 76.615C22.8529 76.8229 22.8235 77.0304 22.7954 77.2369C22.7664 77.4461 22.7397 77.654 22.7134 77.8619C22.6405 78.4376 22.5762 79.0087 22.5218 79.5748C22.5168 79.6269 22.5118 79.679 22.5069 79.7311C21.4181 91.3293 24.2691 99.7086 30.5352 103.326C32.153 104.26 33.932 104.839 35.8447 105.066C36.4675 105.14 37.1047 105.177 37.7551 105.177C38.0445 105.177 38.3362 105.17 38.6306 105.155C43.5125 104.913 49.0906 102.663 54.983 98.4817C55.4889 98.1225 55.9939 97.7511 56.4989 97.368C56.6656 97.2411 56.8322 97.1139 56.9989 96.9843C57.1638 96.8566 57.3286 96.7275 57.4935 96.5971C58.6212 95.7044 59.7458 94.7515 60.865 93.741C61.0181 93.6029 61.1711 93.4634 61.3242 93.3225Z" fill="#E73D24"/>
<path d="M62.0419 61.1824C64.5547 58.6697 64.5546 54.5958 62.0419 52.0831C59.5292 49.5703 55.4553 49.5703 52.9425 52.0831C50.4298 54.5958 50.4298 58.6697 52.9425 61.1824C55.4552 63.6952 59.5292 63.6952 62.0419 61.1824Z" fill="#E73D24"/>
<path d="M85.3714 17.7137C85.2165 17.8593 85.0688 18.0123 84.9289 18.1724C83.941 19.3035 83.3423 20.7833 83.3423 22.4031C83.3423 25.0233 84.9086 27.2775 87.156 28.281C87.3555 28.37 87.5604 28.4491 87.7699 28.5178C87.97 28.5835 88.1744 28.6395 88.3827 28.6855C88.8315 28.7846 89.2979 28.8374 89.7766 28.8374C90.8295 28.8374 91.8233 28.5845 92.7006 28.1361C92.9089 28.0296 93.1104 27.9118 93.3048 27.7841C93.5126 27.6476 93.712 27.4995 93.902 27.3405C95.3131 26.1602 96.2109 24.3866 96.2109 22.4031C96.2109 19.4564 94.2301 16.9724 91.5273 16.2099C91.2811 16.1405 91.0289 16.0853 90.7716 16.0454C90.5359 16.0088 90.2959 15.9853 90.0523 15.975C89.9608 15.9712 89.869 15.9688 89.7766 15.9688C88.2957 15.9688 86.9318 16.4694 85.8444 17.3102C85.6803 17.4372 85.5224 17.5718 85.3714 17.7137Z" fill="#E73D24"/>
<path d="M19.5803 69.675C19.6097 69.4572 19.6287 69.2362 19.636 69.012C19.6383 68.9413 19.6396 68.8707 19.6396 68.7996C19.6396 68.3321 19.5898 67.8765 19.4951 67.4377C19.3828 66.9159 19.2071 66.4177 18.9765 65.9516H18.9761C17.9258 63.8266 15.7364 62.3655 13.2055 62.3655C12.6018 62.3655 12.018 62.4488 11.4641 62.6042C11.4283 62.6141 11.393 62.6245 11.3576 62.635C11.3151 62.6476 11.2725 62.6608 11.2304 62.6744C11.2299 62.6744 11.2295 62.6748 11.229 62.6748C11.1932 62.6861 11.1579 62.6979 11.1226 62.7101C11.1067 62.7156 11.0909 62.721 11.0755 62.7264C11.0556 62.7332 11.0356 62.7405 11.0157 62.7477C10.9994 62.7536 10.9831 62.7595 10.9668 62.7658C10.9278 62.7799 10.8889 62.7948 10.8499 62.8102C10.6543 62.8872 10.4636 62.9733 10.2784 63.0684C10.2571 63.0793 10.2362 63.0901 10.2149 63.1015V63.1019C8.9101 63.7876 7.86976 64.909 7.28686 66.2723C7.20126 66.4729 7.12517 66.679 7.06041 66.8892C7.05497 66.9055 7.04999 66.9222 7.04501 66.9385C6.97299 67.1777 6.91412 67.4222 6.86973 67.6723C6.80496 68.0382 6.771 68.415 6.771 68.7996C6.771 68.815 6.771 68.8308 6.77145 68.8462V68.8471C6.78594 70.8888 7.75155 72.7041 9.24752 73.8731C9.65967 74.1956 10.113 74.4687 10.5972 74.6834C11.3943 75.0375 12.2771 75.2341 13.2055 75.2341C14.1526 75.2341 15.0516 75.0294 15.861 74.6621C16.0842 74.5606 16.3007 74.4469 16.5095 74.3215C16.707 74.2033 16.8977 74.0746 17.0807 73.936C18.2514 73.0515 19.1097 71.7766 19.4625 70.3041C19.5119 70.0981 19.5513 69.8884 19.5803 69.675Z" fill="#E73D24"/>
<path d="M89.4728 99.4472C89.3965 99.208 89.3069 98.9748 89.2043 98.7486C88.5702 97.3509 87.4509 96.2205 86.0616 95.5715C85.8764 95.485 85.6864 95.4071 85.4922 95.3382C85.2961 95.2687 85.0958 95.2085 84.8915 95.158C84.3951 95.0352 83.8762 94.9696 83.3418 94.9696C80.4058 94.9696 77.9292 96.9362 77.1571 99.6239C77.0997 99.8234 77.0519 100.027 77.0139 100.234C76.9771 100.434 76.9498 100.637 76.932 100.843C76.9161 101.028 76.9075 101.215 76.9075 101.404C76.9075 102.803 77.3544 104.098 78.1129 105.154C78.2587 105.357 78.4159 105.551 78.5837 105.735C78.7642 105.933 78.9571 106.12 79.1609 106.294C80.2855 107.257 81.7456 107.838 83.3418 107.838C86.8953 107.838 89.7761 104.958 89.7761 101.404C89.7761 101.002 89.7389 100.609 89.6685 100.228C89.6193 99.9617 89.5537 99.701 89.4728 99.4472Z" fill="#E73D24"/>
<path d="M36.0847 32.8079H36.0842C36.0838 32.8079 36.0838 32.8079 36.0833 32.8084C33.3378 33.3663 30.7154 34.0276 28.2275 34.7867C28.2674 35.0983 28.31 35.4112 28.3553 35.7256C28.415 36.1395 28.4798 36.5558 28.5491 36.9747C28.6651 37.6735 28.795 38.3787 28.9377 39.0903C31.7055 38.2184 34.6444 37.4811 37.7161 36.8846C37.7618 36.8755 37.808 36.8669 37.8542 36.8578C38.9869 35.1517 40.1555 33.4932 41.3561 31.8853C39.8642 32.1054 38.3905 32.3559 36.9366 32.6381C36.6513 32.6934 36.3673 32.75 36.0847 32.8079Z" fill="#E73D24"/>
<path d="M56.924 82.5306C57.1133 82.5319 57.3035 82.5324 57.4933 82.5324C57.6015 82.5324 57.7098 82.5324 57.818 82.5315C57.8936 82.5315 57.9688 82.531 58.0445 82.5306C58.0956 82.531 58.1468 82.5306 58.198 82.5301C58.2501 82.5297 58.3026 82.5297 58.3547 82.5292C58.4584 82.5283 58.5621 82.5274 58.6654 82.5265C58.6939 82.526 58.7225 82.526 58.751 82.5256H58.7637C58.9285 82.5238 59.093 82.5215 59.2574 82.5188C59.3443 82.5179 59.4313 82.5165 59.5178 82.5147C59.5676 82.5138 59.617 82.5129 59.6668 82.512C59.7664 82.5106 59.8656 82.5088 59.9648 82.5066C59.977 82.5061 59.9897 82.5061 60.002 82.5056C60.0024 82.5056 60.0024 82.5056 60.0029 82.5056H60.0042C61.4164 82.4753 62.8195 82.4196 64.2118 82.3385C64.3359 82.1936 64.4595 82.0477 64.5832 81.9015C64.6819 81.7846 64.7806 81.6673 64.8794 81.5496C64.9917 81.4155 65.1036 81.281 65.2154 81.1455C65.258 81.0944 65.3001 81.0432 65.3423 80.992C65.3848 80.9404 65.4269 80.8892 65.4691 80.8376C65.5673 80.718 65.6652 80.598 65.7625 80.4775C66.4899 79.5812 67.2092 78.6609 67.9184 77.7188C64.5297 78.0413 61.0405 78.2066 57.4933 78.2066C55.6898 78.2066 53.9012 78.164 52.133 78.0793L52.1326 78.0789C51.523 78.0503 50.9156 78.0159 50.311 77.977C49.2208 77.9068 48.1397 77.8207 47.0681 77.7188C48.2778 79.3253 49.5152 80.8675 50.7748 82.3385C52.1887 82.4205 53.6136 82.4771 55.048 82.507C55.0607 82.5075 55.0738 82.5075 55.0865 82.5079C55.1214 82.5088 55.1558 82.5093 55.1907 82.5097C55.3392 82.5129 55.4887 82.5152 55.6377 82.5174C55.6486 82.5179 55.659 82.5179 55.6698 82.5179C55.7622 82.5192 55.8542 82.521 55.9461 82.522C56.0385 82.5233 56.1305 82.5247 56.2228 82.5256C56.2555 82.526 56.2881 82.526 56.3211 82.5265C56.4905 82.5283 56.6599 82.5297 56.8298 82.5301C56.861 82.5306 56.8923 82.531 56.924 82.5306Z" fill="#E73D24"/>
<path d="M92.2734 77.8619C92.2476 77.654 92.2204 77.4461 92.1919 77.2368C92.1634 77.0303 92.1339 76.8229 92.1036 76.615C91.8943 75.1919 91.6312 73.7417 91.316 72.267C91.2725 72.0655 91.2285 71.863 91.1833 71.6601C91.1384 71.4586 91.0922 71.257 91.0456 71.0546C90.3988 68.2597 89.5664 65.3814 88.5518 62.4384C88.536 62.3926 88.5201 62.3469 88.5043 62.3011L88.5038 62.3007C88.0351 60.946 87.531 59.5905 86.9938 58.2344C86.9259 58.393 86.857 58.551 86.7882 58.7095C86.0549 60.3944 85.2714 62.0769 84.4385 63.7532C84.5186 63.9846 84.5979 64.2156 84.6753 64.4466C85.2044 66.0155 85.6799 67.5712 86.0998 69.1084C86.2089 69.507 86.314 69.9046 86.4154 70.3005C86.6125 71.0695 86.7954 71.8331 86.9635 72.5913C87.0079 72.792 87.0513 72.9921 87.0939 73.1923C87.1365 73.3934 87.1782 73.5945 87.2189 73.7947C87.2719 74.0551 87.3231 74.3147 87.3724 74.5733C87.391 74.6711 87.4096 74.7689 87.4277 74.8663C87.4463 74.9641 87.4639 75.0615 87.4816 75.1589C87.4834 75.1688 87.4852 75.1793 87.487 75.1892C87.4961 75.2404 87.5056 75.2916 87.5147 75.3423C87.5242 75.3935 87.5332 75.4447 87.5418 75.4959C87.56 75.5982 87.5776 75.7001 87.5948 75.8016C87.728 76.5779 87.8448 77.3464 87.9445 78.1064C87.9716 78.313 87.9975 78.5186 88.0219 78.7238C88.0468 78.9312 88.0704 79.1377 88.0926 79.3433C88.1216 79.6083 88.1487 79.8728 88.1736 80.1355C88.4807 83.4105 88.4495 86.3739 88.0817 88.9908C88.0799 89.0026 88.0785 89.0149 88.0767 89.0266C88.0713 89.0642 88.0659 89.1014 88.0604 89.1385C88.05 89.2123 88.0387 89.2857 88.0274 89.3591C88.0165 89.4311 88.0052 89.5026 87.9934 89.5742C87.9852 89.6236 87.9771 89.6734 87.9685 89.7228C87.959 89.7807 87.949 89.8382 87.9386 89.8958C87.9282 89.9569 87.9173 90.0176 87.906 90.0783C87.8947 90.1385 87.8838 90.1988 87.872 90.259C87.8625 90.3088 87.853 90.3577 87.843 90.4071C87.8412 90.4166 87.8394 90.4261 87.8376 90.4356C87.6827 91.2147 87.4947 91.9588 87.2737 92.6671C87.0744 93.3058 86.8502 93.9077 86.6011 94.4738C87.4019 94.8502 88.1256 95.3588 88.7566 95.9893C89.2158 96.4485 89.6098 96.9576 89.9359 97.5097C91.0836 95.3661 91.8835 92.8175 92.3192 89.9103C92.7725 86.888 92.8319 83.4775 92.4804 79.731C92.4224 79.1138 92.3531 78.4905 92.2734 77.8619Z" fill="#E73D24"/>
<path d="M92.192 36.0285C92.1634 36.2351 92.134 36.4425 92.1036 36.6504C92.0901 36.7442 92.076 36.8384 92.0615 36.9326C92.0869 36.9403 92.1122 36.948 92.1376 36.9557C92.5117 37.0693 92.8795 37.1853 93.2409 37.3049C94.0045 37.5558 94.7401 37.8194 95.4475 38.0947C98.4992 39.2832 101.022 40.6936 102.973 42.305C103.552 42.7842 104.072 43.2747 104.532 43.7756L104.532 43.7761C104.694 43.9138 104.852 44.0524 105.008 44.1914C105.058 44.2358 105.108 44.2806 105.157 44.3255C105.262 44.4201 105.365 44.5157 105.468 44.6112C105.517 44.657 105.565 44.7027 105.614 44.7485C105.619 44.7535 105.624 44.7584 105.629 44.7634C105.677 44.8083 105.724 44.8536 105.771 44.8989C105.836 44.9618 105.901 45.0248 105.965 45.0882C106.015 45.1375 106.065 45.1869 106.114 45.2363C106.142 45.2648 106.171 45.2929 106.199 45.3214C106.31 45.4342 106.42 45.547 106.528 45.6606C106.61 45.7472 106.691 45.8337 106.771 45.9206C106.817 45.97 106.862 46.0194 106.907 46.0687C106.99 46.1602 107.072 46.2522 107.153 46.3445C107.159 46.3518 107.165 46.3586 107.171 46.3654C107.214 46.4138 107.256 46.4623 107.298 46.5108C107.341 46.5619 107.385 46.6127 107.428 46.6639C107.468 46.7114 107.508 46.7585 107.547 46.8061C107.549 46.8088 107.552 46.811 107.553 46.8138C107.595 46.864 107.637 46.9143 107.677 46.9646C107.718 47.0149 107.759 47.0651 107.799 47.1154C107.83 47.1544 107.861 47.1933 107.892 47.2327C107.913 47.2585 107.932 47.2843 107.953 47.3106C107.973 47.3364 107.993 47.3622 108.014 47.3885C107.409 45.2249 105.98 43.2031 103.752 41.3625C101.009 39.0966 97.2211 37.2206 92.4927 35.7858C92.4071 35.7595 92.321 35.7337 92.2345 35.7079C92.221 35.8143 92.2065 35.9212 92.192 36.0285Z" fill="#333333"/>
<path d="M21.6875 79.2854C21.9624 79.3837 22.2405 79.4802 22.5218 79.5748C22.5761 79.0087 22.6404 78.4376 22.7134 77.8619C22.7396 77.654 22.7664 77.4461 22.7953 77.2369C22.8234 77.0304 22.8529 76.8229 22.8832 76.615C23.0924 75.192 23.3556 73.7418 23.6708 72.2671C23.7143 72.0651 23.7587 71.8631 23.8035 71.6602C23.8484 71.4586 23.8946 71.2571 23.9412 71.0546C23.9761 70.9047 24.011 70.7548 24.0472 70.6044C23.8914 70.1932 23.6998 69.7955 23.4733 69.4137C22.9679 68.5618 22.3107 67.8254 21.5195 67.2234C20.7532 66.641 19.8981 66.2134 18.9768 65.9517C19.2074 66.4177 19.3831 66.9159 19.4954 67.4377C21.4647 68.3132 22.9489 70.1583 23.2609 72.451C23.2704 72.5212 23.2781 72.5914 23.2854 72.6616C23.3085 72.8848 23.3198 73.1068 23.3198 73.3264C23.3198 73.5416 23.3094 73.7549 23.2881 73.9655C23.1373 75.4719 22.4588 76.8515 21.4185 77.8859C21.2554 78.0476 21.0842 78.2007 20.9044 78.3447C20.7142 78.4969 20.5154 78.6391 20.3079 78.7695C19.5552 79.2428 18.6919 79.5671 17.754 79.6948C14.4001 80.1518 11.299 77.9371 10.5975 74.6834C10.1133 74.4687 9.65995 74.1956 9.2478 73.8731C9.25958 74.033 9.27634 74.1929 9.29808 74.3527C9.43757 75.3768 9.77363 76.3428 10.2972 77.2251C10.8027 78.0766 11.4598 78.8135 12.2511 79.415C13.0423 80.0164 13.9282 80.453 14.8839 80.7121C15.8739 80.9807 16.8952 81.0459 17.9188 80.9064C18.9424 80.7669 19.9089 80.4308 20.7912 79.9073C21.106 79.7207 21.4049 79.5128 21.6875 79.2854Z" fill="#333333"/>
<path d="M65.7135 51.3803C65.2082 50.5287 64.5508 49.792 63.7595 49.1905C62.9683 48.589 62.0825 48.1525 61.1268 47.8935C60.1367 47.625 59.1156 47.5596 58.0919 47.6991C57.0682 47.8385 56.1018 48.1746 55.2196 48.6982C54.368 49.2034 53.6313 49.8608 53.0297 50.6521C52.4281 51.4434 51.9918 52.3292 51.7327 53.2848C51.4643 54.2749 51.3989 55.296 51.5383 56.3197C51.6778 57.3435 52.0139 58.3098 52.5374 59.1921C53.0427 60.0436 53.7001 60.7804 54.4913 61.3819C55.2826 61.9835 56.1683 62.4199 57.124 62.6789C58.1142 62.9474 59.1352 63.0128 60.159 62.8733C61.1827 62.7339 62.1491 62.3977 63.0313 61.8743C63.8829 61.369 64.6196 60.7116 65.2212 59.9203C65.8227 59.1291 66.2591 58.2433 66.5182 57.2876C66.7866 56.2975 66.852 55.2764 66.7126 54.2527C66.5731 53.2289 66.237 52.2625 65.7135 51.3803ZM59.9939 61.6616C56.4728 62.1412 53.2296 59.6756 52.75 56.1546C52.2704 52.6335 54.7359 49.3903 58.257 48.9107C61.778 48.4311 65.0212 50.8966 65.5009 54.4177C65.9805 57.9387 63.515 61.1819 59.9939 61.6616Z" fill="#333333"/>
<path d="M19.2835 86.4606C19.9043 86.4515 20.4021 85.9389 20.3933 85.3179C20.3888 85.0165 20.3857 84.7108 20.3841 84.4091C20.3839 84.3808 20.3827 84.3526 20.3805 84.3246C20.3592 84.0557 20.2435 83.8061 20.0497 83.6145C19.8358 83.4029 19.5523 83.2873 19.2514 83.289C18.6851 83.2921 18.207 83.718 18.1394 84.2797C18.1338 84.3265 18.1311 84.3743 18.1314 84.4216C18.1331 84.7315 18.1363 85.0442 18.1407 85.3508C18.1499 85.9722 18.6625 86.4697 19.2835 86.4606Z" fill="#333333"/>
<path d="M19.8077 90.8437C20.4114 90.7746 20.8501 90.2372 20.8024 89.6357C20.8014 89.6227 20.8001 89.6096 20.7987 89.5965C20.7644 89.2977 20.7311 88.9938 20.6995 88.6934C20.6346 88.0757 20.0793 87.626 19.4616 87.6909C18.9126 87.7486 18.4893 88.1898 18.455 88.7401C18.4511 88.8027 18.4526 88.8664 18.4591 88.9288C18.4917 89.2392 18.5259 89.55 18.5605 89.8529C18.6312 90.4699 19.1907 90.9144 19.8077 90.8437Z" fill="#333333"/>
<path d="M21.8674 93.6932C21.8619 93.6235 21.8497 93.5533 21.8306 93.4835C21.7562 93.2126 21.6794 92.9263 21.596 92.6084C21.4383 92.0077 20.8213 91.6472 20.2206 91.8048C19.7046 91.9402 19.3518 92.4246 19.3816 92.9565C19.3858 93.0314 19.3977 93.1069 19.417 93.1802C19.503 93.508 19.5819 93.8024 19.6582 94.0803C19.8227 94.6791 20.4438 95.0326 21.0427 94.8681C21.5718 94.7227 21.9093 94.2211 21.8674 93.6932Z" fill="#333333"/>
<path d="M23.3297 98.0967C23.4056 97.9239 23.4365 97.739 23.422 97.556C23.4134 97.4473 23.3888 97.3393 23.3481 97.2349L23.3168 97.1544C23.2172 96.8995 23.1202 96.6441 23.0284 96.3952C22.8136 95.8125 22.1647 95.5132 21.5819 95.728C21.1148 95.9003 20.8128 96.3672 20.8477 96.8634C20.855 96.9696 20.8777 97.0741 20.9148 97.1746C21.0122 97.4388 21.1143 97.7076 21.2181 97.9735L21.2488 98.0522C21.358 98.3326 21.5698 98.5536 21.8452 98.6747C22.1207 98.7958 22.4267 98.8023 22.7071 98.6931C22.9875 98.584 23.2086 98.3722 23.3297 98.0967Z" fill="#333333"/>
<path d="M24.8558 100.143C24.5435 99.6066 23.8527 99.4239 23.3158 99.7361C22.8843 99.9871 22.6712 100.482 22.7854 100.967C22.8108 101.076 22.8522 101.179 22.9085 101.276C23.0902 101.589 23.2489 101.855 23.3935 102.09C23.7191 102.619 24.4142 102.784 24.9432 102.459C25.1995 102.301 25.3789 102.053 25.4486 101.76C25.4697 101.672 25.48 101.582 25.4796 101.493C25.4789 101.289 25.422 101.088 25.3121 100.909C25.177 100.689 25.0277 100.439 24.8558 100.143Z" fill="#333333"/>
<path d="M28.0715 104.433C27.9181 104.226 27.7479 103.989 27.5512 103.709C27.1941 103.201 26.4901 103.079 25.982 103.436C25.5736 103.723 25.4037 104.234 25.5591 104.708C25.5937 104.814 25.6439 104.913 25.7083 105.005C25.9161 105.301 26.097 105.552 26.2613 105.774C26.631 106.273 27.3378 106.378 27.8368 106.009C28.0786 105.83 28.2362 105.567 28.2805 105.269C28.2939 105.179 28.2965 105.089 28.2885 105.001C28.2703 104.797 28.1964 104.602 28.0715 104.433Z" fill="#333333"/>
<path d="M117.918 46.8768C117.907 46.8308 117.893 46.785 117.877 46.7407C117.769 46.45 117.66 46.1572 117.551 45.8706C117.33 45.2897 116.678 44.9971 116.098 45.2178C115.517 45.4383 115.225 46.0901 115.445 46.6708C115.552 46.9525 115.659 47.2388 115.764 47.5217C115.774 47.5483 115.785 47.5744 115.796 47.5999C115.908 47.8454 116.102 48.0405 116.35 48.1544C116.623 48.2802 116.929 48.2921 117.211 48.1877C117.742 47.9914 118.046 47.4278 117.918 46.8768Z" fill="#333333"/>
<path d="M116.098 42.7924C116.081 42.7322 116.057 42.6729 116.03 42.6164C115.893 42.3359 115.755 42.0553 115.619 41.7825C115.342 41.2267 114.664 41 114.108 41.2771C113.565 41.5482 113.336 42.2032 113.586 42.7523C113.591 42.7641 113.597 42.776 113.603 42.7878C113.737 43.057 113.872 43.3312 114.005 43.6028C114.277 44.1612 114.952 44.3942 115.51 44.1222C116.007 43.8806 116.254 43.3213 116.098 42.7924Z" fill="#333333"/>
<path d="M111.199 39.3024C111.228 39.366 111.264 39.4278 111.306 39.4868C111.468 39.7161 111.638 39.9589 111.825 40.2292C112.178 40.74 112.881 40.8681 113.392 40.5148C113.831 40.2114 113.997 39.6356 113.787 39.1459C113.758 39.0769 113.721 39.0101 113.678 38.9477C113.485 38.669 113.31 38.4193 113.144 38.1842C112.784 37.6775 112.08 37.5574 111.573 37.9165C111.126 38.2338 110.98 38.8205 111.199 39.3024Z" fill="#333333"/>
<path d="M108.599 36.4795L108.656 36.5445C108.836 36.7501 109.015 36.957 109.186 37.1596C109.587 37.6339 110.299 37.6936 110.773 37.2926C111.153 36.9712 111.278 36.4292 111.075 35.9748C111.032 35.8775 110.975 35.7871 110.906 35.7052C110.724 35.4902 110.537 35.2724 110.348 35.058L110.292 34.9945C110.094 34.7682 109.82 34.6328 109.519 34.6131C109.219 34.5934 108.929 34.6917 108.703 34.8901C108.477 35.0884 108.341 35.363 108.322 35.6633C108.309 35.8517 108.343 36.0359 108.419 36.203C108.465 36.3021 108.525 36.3952 108.599 36.4795Z" fill="#333333"/>
<path d="M105.315 32.1144C105.128 32.3502 105.044 32.6446 105.079 32.9435C105.089 33.0341 105.11 33.1216 105.141 33.2051C105.211 33.397 105.333 33.5666 105.498 33.6968C105.7 33.8571 105.925 34.0415 106.188 34.2606C106.665 34.6585 107.376 34.5943 107.774 34.1175C108.094 33.7342 108.126 33.1963 107.852 32.779C107.792 32.6861 107.717 32.6027 107.631 32.531C107.354 32.2995 107.114 32.1035 106.898 31.932C106.411 31.546 105.701 31.6279 105.315 32.1144Z" fill="#333333"/>
<path d="M101.303 30.8677C101.389 31.053 101.526 31.2114 101.701 31.3271C101.916 31.4695 102.156 31.6338 102.437 31.8296C102.946 32.1852 103.649 32.0602 104.005 31.551C104.291 31.1416 104.276 30.6031 103.968 30.2108C103.899 30.1234 103.818 30.0467 103.726 29.9826C103.43 29.7757 103.174 29.6011 102.944 29.4487C102.426 29.1059 101.726 29.2483 101.383 29.7662C101.217 30.0171 101.159 30.3177 101.219 30.6126C101.237 30.7018 101.265 30.7873 101.303 30.8677Z" fill="#333333"/>
<path d="M98.3476 26.3074L99.9503 24.7047C100.288 24.3672 100.288 23.82 99.9503 23.4826C99.6128 23.1451 99.0656 23.1451 98.7281 23.4826L97.1254 25.0852C96.7879 25.4227 96.7879 25.9699 97.1254 26.3074C97.463 26.6449 98.0102 26.6449 98.3476 26.3074Z" fill="#333333"/>
<path d="M105.144 19.512L106.746 17.9093C107.084 17.5718 107.084 17.0247 106.746 16.6872C106.409 16.3496 105.861 16.3496 105.524 16.6872L103.921 18.2898C103.584 18.6273 103.584 19.1745 103.921 19.512C104.259 19.8495 104.806 19.8495 105.144 19.512Z" fill="#333333"/>
<path d="M105.524 26.3074C105.861 26.6449 106.409 26.6449 106.746 26.3074C107.084 25.9699 107.084 25.4227 106.746 25.0852L105.144 23.4826C104.806 23.1451 104.259 23.1451 103.921 23.4826C103.584 23.8201 103.584 24.3673 103.921 24.7048L105.524 26.3074Z" fill="#333333"/>
<path d="M98.7281 19.512C99.0656 19.8495 99.6128 19.8495 99.9503 19.512C100.288 19.1745 100.288 18.6273 99.9503 18.2898L98.3476 16.6872C98.0101 16.3496 97.463 16.3496 97.1254 16.6872C96.7879 17.0247 96.7879 17.5719 97.1254 17.9093L98.7281 19.512Z" fill="#333333"/>
<path d="M107.479 73.7037L106.347 74.8358C106.109 75.0742 106.109 75.4607 106.347 75.6991C106.586 75.9375 106.972 75.9375 107.211 75.6991L108.343 74.5671C108.581 74.3286 108.581 73.9421 108.343 73.7037C108.104 73.4653 107.718 73.4653 107.479 73.7037Z" fill="#333333"/>
<path d="M112.279 68.9037L111.147 70.0357C110.909 70.2741 110.909 70.6607 111.147 70.8991C111.386 71.1375 111.772 71.1375 112.011 70.8991L113.143 69.767C113.381 69.5286 113.381 69.1421 113.143 68.9037C112.904 68.6653 112.518 68.6653 112.279 68.9037Z" fill="#333333"/>
<path d="M112.011 73.7037C111.772 73.4653 111.386 73.4653 111.147 73.7037C110.909 73.9421 110.909 74.3286 111.147 74.5671L112.279 75.6991C112.518 75.9375 112.904 75.9375 113.143 75.6991C113.381 75.4607 113.381 75.0742 113.143 74.8358L112.011 73.7037Z" fill="#333333"/>
<path d="M107.211 68.9037C106.972 68.6653 106.586 68.6653 106.347 68.9037C106.109 69.1421 106.109 69.5286 106.347 69.767L107.479 70.8991C107.718 71.1375 108.104 71.1375 108.343 70.8991C108.581 70.6607 108.581 70.2741 108.343 70.0357L107.211 68.9037Z" fill="#333333"/>
<path d="M1.31087 77.2802L0.17881 78.4123C-0.0596033 78.6507 -0.0596033 79.0372 0.17881 79.2756C0.417223 79.514 0.80374 79.514 1.04215 79.2756L2.17421 78.1436C2.41262 77.9051 2.41262 77.5186 2.17421 77.2802C1.9358 77.0418 1.54928 77.0418 1.31087 77.2802Z" fill="#333333"/>
<path d="M6.11091 72.4801L4.97886 73.6122C4.74045 73.8506 4.74045 74.2371 4.97886 74.4755C5.21727 74.7139 5.60379 74.7139 5.8422 74.4755L6.97426 73.3435C7.21267 73.1051 7.21267 72.7186 6.97426 72.4801C6.73584 72.2417 6.34933 72.2417 6.11091 72.4801Z" fill="#333333"/>
<path d="M5.8422 77.2803C5.60379 77.0418 5.21727 77.0418 4.97886 77.2803C4.74045 77.5187 4.74045 77.9052 4.97886 78.1436L6.11091 79.2757C6.34933 79.5141 6.73584 79.5141 6.97426 79.2757C7.21267 79.0372 7.21267 78.6507 6.97426 78.4123L5.8422 77.2803Z" fill="#333333"/>
<path d="M1.04215 72.4801C0.80374 72.2417 0.417223 72.2417 0.17881 72.4801C-0.0596033 72.7186 -0.0596033 73.1051 0.17881 73.3435L1.31087 74.4755C1.54928 74.7139 1.9358 74.7139 2.17421 74.4755C2.41262 74.2371 2.41262 73.8506 2.17421 73.6122L1.04215 72.4801Z" fill="#333333"/>
<path d="M57.7601 108.826L56.628 109.958C56.3896 110.196 56.3896 110.583 56.628 110.821C56.8664 111.06 57.253 111.06 57.4914 110.821L58.6234 109.689C58.8618 109.451 58.8618 109.064 58.6234 108.826C58.385 108.587 57.9985 108.587 57.7601 108.826Z" fill="#333333"/>
<path d="M62.5604 104.026L61.4283 105.158C61.1899 105.396 61.1899 105.783 61.4283 106.021C61.6667 106.259 62.0533 106.259 62.2917 106.021L63.4237 104.889C63.6621 104.651 63.6621 104.264 63.4237 104.026C63.1853 103.787 62.7988 103.787 62.5604 104.026Z" fill="#333333"/>
<path d="M62.2917 108.826C62.0533 108.587 61.6667 108.587 61.4283 108.826C61.1899 109.064 61.1899 109.451 61.4283 109.689L62.5604 110.821C62.7988 111.06 63.1853 111.06 63.4237 110.821C63.6621 110.583 63.6621 110.196 63.4237 109.958L62.2917 108.826Z" fill="#333333"/>
<path d="M57.4914 104.026C57.253 103.787 56.8664 103.787 56.628 104.026C56.3896 104.264 56.3896 104.651 56.628 104.889L57.7601 106.021C57.9985 106.259 58.385 106.259 58.6234 106.021C58.8618 105.783 58.8618 105.396 58.6234 105.158L57.4914 104.026Z" fill="#333333"/>
<path d="M30.5392 6.97426L31.6713 5.8422C31.9097 5.60379 31.9097 5.21727 31.6713 4.97886C31.4329 4.74045 31.0463 4.74045 30.8079 4.97886L29.6759 6.11091C29.4375 6.34933 29.4375 6.73584 29.6759 6.97426C29.9143 7.21267 30.3008 7.21267 30.5392 6.97426Z" fill="#333333"/>
<path d="M35.3395 2.17421L36.4716 1.04215C36.71 0.803737 36.71 0.417223 36.4716 0.17881C36.2332 -0.0596033 35.8466 -0.0596033 35.6082 0.17881L34.4762 1.31087C34.2378 1.54928 34.2378 1.93579 34.4762 2.17421C34.7146 2.41262 35.1011 2.41262 35.3395 2.17421Z" fill="#333333"/>
<path d="M35.6082 6.97426C35.8466 7.21267 36.2332 7.21267 36.4716 6.97426C36.71 6.73584 36.71 6.34933 36.4716 6.11091L35.3395 4.97886C35.1011 4.74045 34.7146 4.74045 34.4762 4.97886C34.2378 5.21727 34.2378 5.60379 34.4762 5.8422L35.6082 6.97426Z" fill="#333333"/>
<path d="M30.8079 2.17421C31.0463 2.41262 31.4329 2.41262 31.6713 2.17421C31.9097 1.93579 31.9097 1.54928 31.6713 1.31087L30.5392 0.17881C30.3008 -0.0596033 29.9143 -0.0596033 29.6759 0.17881C29.4375 0.417223 29.4375 0.803738 29.6759 1.04211L30.8079 2.17421Z" fill="#333333"/>
<path d="M96.6408 146.647H95.3342C94.9239 146.647 94.5922 146.766 94.5922 146.913V192.734C94.5922 192.881 94.9239 193 95.3342 193H96.6408C97.0496 193 97.3828 192.881 97.3828 192.734V146.913C97.3828 146.766 97.0511 146.647 96.6408 146.647Z" fill="#BF5156"/>
<path d="M96.8799 146.647C96.6022 146.647 96.377 146.766 96.377 146.913V192.734C96.377 192.881 96.6007 193 96.8799 193C97.1576 193 97.3828 192.881 97.3828 192.734V146.913C97.3828 146.766 97.1576 146.647 96.8799 146.647Z" fill="#923539"/>
<path d="M94.953 146.647C94.754 146.647 94.592 146.766 94.592 146.913V192.734C94.592 192.881 94.754 193 94.953 193C95.152 193 95.314 192.881 95.314 192.734V146.913C95.314 146.766 95.152 146.647 94.953 146.647Z" fill="#E73D24"/>
<path d="M147.836 137.366C147.836 137.366 150.767 129.749 158.691 125.741C166.615 121.734 174.069 124.397 175.797 126.089C177.525 127.782 178.791 128.342 179.282 125.729C179.773 123.115 175.783 111.274 161.775 105.467C147.767 99.6618 130.515 105.623 124.735 115.007C118.955 124.391 117.24 131.877 117.198 138.766C117.157 145.655 119.031 148.635 125.253 148.878C131.476 149.12 134.864 147.472 139.061 144.771C143.258 142.071 147.836 137.366 147.836 137.366Z" fill="#EF7E6C"/>
<path d="M157.168 115.859C149.887 115.899 142.523 118.292 137.215 123.091C128.032 131.392 129.015 144.579 129.015 144.579C129.015 144.579 128.986 146.678 130.713 148.512C133.848 147.891 136.278 146.563 139.061 144.772C143.258 142.071 147.836 137.366 147.836 137.366C147.836 137.366 150.766 129.749 158.69 125.741C166.615 121.734 174.069 124.397 175.797 126.09C177.526 127.782 178.791 128.343 179.282 125.729C179.307 125.594 179.319 125.428 179.319 125.245C177.747 123.27 175.412 121.33 172.147 119.506C167.751 117.052 162.481 115.829 157.168 115.859Z" fill="#F8F4B4"/>
<path d="M154.402 121.151C149.262 121.189 144.226 122.96 139.925 127.473C132.649 135.108 133.1 143.93 133.708 147.636C135.541 146.927 137.224 145.953 139.062 144.771C143.258 142.07 147.837 137.365 147.837 137.365C147.837 137.365 150.767 129.749 158.691 125.741C161.306 124.418 163.863 123.833 166.186 123.688C162.388 122.122 158.363 121.121 154.402 121.151Z" fill="#EFE546"/>
<path d="M103.355 116.978C103.355 116.978 92.9798 96.8161 75.3201 97.0889C57.6605 97.3617 49.9548 114.848 49.5438 121.202C49.1327 127.556 50.9145 128.87 53.609 128.76C56.3026 128.651 57.9849 123.792 63.6124 123.409C69.2398 123.026 71.7139 125.254 73.3468 129.055C74.9797 132.857 82.3875 141.842 82.3875 141.842C82.3875 141.842 94.8642 149.736 98.8299 148.213C102.795 146.691 106.085 132.259 105.621 126.186C105.156 120.115 103.355 116.978 103.355 116.978Z" fill="#EF7E6C"/>
<path d="M72.1679 115.907C69.5274 115.897 66.643 116.328 63.4349 117.139C53.9133 119.545 52.237 125.437 53.1253 128.764C53.2826 128.769 53.4437 128.768 53.6093 128.761C56.303 128.651 57.9845 123.792 63.612 123.409C69.2394 123.026 71.7143 125.253 73.3479 129.054C74.9816 132.856 82.3879 141.841 82.3879 141.841C82.3879 141.841 88.5776 145.755 93.6238 147.538C95.8668 143.382 95.2688 134.654 88.9423 125.728C84.0687 118.854 78.9161 115.935 72.1679 115.907Z" fill="#F8F4B4"/>
<path d="M70.7323 118.904C66.7507 118.978 64.2006 121.064 62.7212 123.513C63.0069 123.467 63.3032 123.431 63.6117 123.41C69.2392 123.027 71.714 125.254 73.3477 129.056C74.9814 132.857 82.3876 141.843 82.3876 141.843C82.3876 141.843 83.807 142.735 85.8153 143.855C89.6419 142.678 92.5818 141.026 92.5818 141.026C92.5818 141.026 87.917 123.665 75.7876 119.739C73.8917 119.126 72.2132 118.876 70.7323 118.904Z" fill="#EFE546"/>
<path d="M118.677 92.2023C110.723 92.2494 100.724 95.924 95.8105 111.72C90.196 129.772 92.5607 142.063 93.8129 144.813C95.0644 147.564 96.1905 149.468 104.363 151.049C105.457 151.26 106.714 151.325 108.062 151.283C108.065 151.283 108.066 151.283 108.069 151.283C109.705 151.232 111.481 151.021 113.29 150.711C115.092 150.403 116.923 149.998 118.677 149.555C118.687 149.553 118.695 149.551 118.704 149.549C118.711 149.547 118.717 149.546 118.724 149.544C119.304 149.398 119.875 149.246 120.435 149.093C122.093 148.641 123.626 148.177 124.958 147.753C125.017 147.734 125.075 147.716 125.132 147.698C125.979 147.427 126.714 147.181 127.35 146.963C127.378 146.954 127.406 146.944 127.434 146.935C127.48 146.919 127.463 146.924 127.508 146.908C128.779 146.471 129.566 146.175 129.566 146.175C129.699 145.554 129.767 144.893 129.783 144.196V144.195C129.788 143.963 129.787 143.728 129.782 143.489C129.769 143.01 129.734 142.516 129.681 142.01C129.521 140.494 129.193 138.865 128.785 137.172C128.513 136.044 128.205 134.888 127.888 133.719C127.572 132.55 127.247 131.366 126.939 130.185C126.784 129.594 126.634 129.003 126.491 128.416V128.414C126.489 128.4 126.485 128.386 126.481 128.373C126.343 127.799 126.211 127.226 126.091 126.658C125.967 126.076 125.855 125.499 125.757 124.927C125.609 124.068 125.492 123.222 125.42 122.396C125.347 121.57 125.318 120.765 125.343 119.983C125.358 119.473 125.386 118.979 125.422 118.504C125.457 118.058 125.501 117.628 125.552 117.21C125.556 117.169 125.562 117.126 125.566 117.084C125.567 117.081 125.567 117.077 125.568 117.074C125.621 116.65 125.682 116.239 125.752 115.842C125.824 115.429 125.903 115.03 125.989 114.643C126.075 114.258 126.167 113.885 126.263 113.524C126.264 113.522 126.264 113.521 126.265 113.519C126.363 113.157 126.467 112.808 126.575 112.468C126.682 112.128 126.794 111.798 126.91 111.477C127.013 111.187 127.121 110.907 127.23 110.631C127.242 110.601 127.254 110.568 127.266 110.537C128.273 108.002 129.434 105.983 130.131 103.715C131.501 99.2658 130.194 93.3101 121.939 92.3763C120.909 92.2615 119.813 92.1954 118.677 92.2023Z" fill="#F8F4B4"/>
<path d="M130.35 147.55C123.417 139.263 121.474 123.636 122.214 116.415C122.953 109.195 125.884 104.133 125.884 104.133C125.884 104.133 119.558 98.731 114.703 97.5874C109.847 96.4438 103.38 104.876 100.858 115.288C98.3354 125.7 97.9464 134.312 98.3544 139.783C98.7617 145.253 95.6319 147.319 101.559 149.35C107.486 151.381 106.709 152.397 115.746 152.405C124.783 152.414 130.35 147.55 130.35 147.55Z" fill="#EFE546"/>
<path d="M113.907 119.707C110.683 119.707 108.07 122.321 108.071 125.545C108.071 127.041 108.646 128.478 109.676 129.563L106.355 138.507C105.115 141.849 101.4 143.551 98.0589 142.311C97.6014 142.14 97.1637 141.918 96.7565 141.65L83.2897 132.78C83.529 132.133 83.6521 131.448 83.6529 130.759C83.6529 127.535 81.0397 124.922 77.8165 124.921C74.5924 124.921 71.9785 127.535 71.9778 130.759C71.9793 133.603 74.0309 136.033 76.8355 136.511L92.9276 166.336C92.9276 166.336 101.092 170.054 113.799 170.054C126.507 170.054 134.671 166.336 134.671 166.336L150.717 136.596C150.728 136.596 150.738 136.596 150.748 136.597C153.972 136.596 156.585 133.983 156.585 130.759C156.584 127.535 153.971 124.922 150.748 124.922C147.524 124.922 144.91 127.535 144.91 130.759C144.911 131.263 144.979 131.765 145.109 132.252L130.84 141.65C127.865 143.611 123.863 142.787 121.901 139.811C121.633 139.403 121.411 138.966 121.241 138.507L117.98 129.721C119.107 128.623 119.743 127.118 119.745 125.545C119.745 122.321 117.131 119.707 113.908 119.707H113.907Z" fill="#CEC212"/>
<path d="M112.683 119.901C110.015 120.473 108.1 122.817 108.071 125.545C108.071 127.041 108.646 128.478 109.676 129.563L106.355 138.508C105.471 140.824 103.337 142.431 100.865 142.638C102.591 142.967 104.915 142.969 107.409 141.707C112.504 139.131 114.161 130.568 114.161 130.568C114.161 130.568 113.169 129.788 111.841 128.618C110.769 127.671 108.965 122.151 112.683 119.901ZM75.5863 125.424C73.4223 126.317 72.0014 128.418 71.9771 130.759C71.9786 133.603 74.0302 136.033 76.8348 136.511L92.9269 166.337C92.9269 166.337 95.5202 167.481 99.9448 168.5L80.2374 136.426L81.2632 134.411C81.2632 134.411 78.6759 134.146 76.2884 131.49C74.8394 129.879 74.5317 127.177 75.5863 125.424Z" fill="#837B0B"/>
<path d="M150.747 124.921C147.523 124.921 144.91 127.535 144.91 130.759C144.911 131.263 144.979 131.765 145.109 132.252L130.84 141.65C129.229 142.705 127.231 142.985 125.393 142.413C126.069 142.959 127.143 143.381 128.806 143.537C135.459 144.159 148.199 134.822 148.199 134.822C148.199 134.822 147.293 133.621 147.501 131.358C147.684 129.368 150.977 123.689 155.252 127.109C154.155 125.741 152.502 124.937 150.747 124.921Z" fill="#837B0B"/>
<path d="M102.202 99.4581C106.295 96.3496 116.871 99.3122 120.038 103.69C123.205 108.067 124.39 111.851 126.025 112.902C127.66 113.954 131.259 108.671 131.594 103.191C131.929 97.712 130.73 95.7394 126.575 93.6202C122.419 91.5017 117.354 91.387 110.468 93.7137C103.581 96.0418 102.202 99.4581 102.202 99.4581Z" fill="#EF7E6C"/>
<path d="M127.076 110.878C129.855 110.878 132.109 113.132 132.109 115.912C132.109 118.691 129.855 120.945 127.076 120.945C124.296 120.945 122.043 118.691 122.043 115.912C122.042 113.132 124.295 110.878 127.076 110.878Z" fill="#E73D24"/>
<path d="M53.0332 128.778C55.8135 128.778 58.0665 131.032 58.0665 133.812C58.0665 136.592 55.8135 138.845 53.0332 138.845C50.2537 138.845 48 136.591 48 133.812C48 131.031 50.2537 128.778 53.0332 128.778Z" fill="#E73D24"/>
<path d="M178.548 128.153C181.328 128.153 183.581 130.407 183.581 133.187C183.581 135.966 181.328 138.22 178.548 138.22C175.769 138.22 173.515 135.966 173.515 133.187C173.515 130.407 175.769 128.153 178.548 128.153Z" fill="#E73D24"/>
<path d="M113.843 137.891C115.319 137.891 116.515 139.335 116.515 141.116C116.515 142.897 115.318 144.341 113.843 144.341C112.367 144.341 111.171 142.897 111.171 141.116C111.171 139.336 112.367 137.891 113.843 137.891Z" fill="#E73D24"/>
<path d="M86.4475 138.94C87.9239 138.94 89.1199 140.384 89.1199 142.165C89.1199 143.947 87.9231 145.39 86.4475 145.39C84.9719 145.39 83.7759 143.947 83.7759 142.165C83.7759 140.384 84.9726 138.94 86.4475 138.94Z" fill="#EF7E6C"/>
<path d="M141.922 138.977C143.398 138.977 144.594 140.422 144.594 142.203C144.594 143.984 143.398 145.427 141.922 145.427C140.446 145.427 139.25 143.984 139.25 142.203C139.249 140.422 140.446 138.977 141.922 138.977Z" fill="#EF7E6C"/>
<path d="M87.0234 111.996C88.8691 111.996 90.3653 113.493 90.3653 115.338C90.3653 117.184 88.8691 118.68 87.0234 118.68C85.1778 118.68 83.6824 117.184 83.6824 115.338C83.6824 113.493 85.1778 111.996 87.0234 111.996Z" fill="#F5EE8E"/>
<path d="M74.4679 105.021C76.5126 105.021 78.1706 106.678 78.1706 108.723C78.1706 110.768 76.5134 112.426 74.4679 112.426C72.4231 112.426 70.7651 110.768 70.7651 108.723C70.7651 106.679 72.4231 105.021 74.4679 105.021Z" fill="#F5EE8E"/>
<path d="M82.6406 102.311C83.965 102.311 85.0394 103.384 85.0394 104.71C85.0394 106.035 83.965 107.109 82.6406 107.109C81.3154 107.109 80.241 106.035 80.241 104.71C80.241 103.384 81.3154 102.311 82.6406 102.311Z" fill="#F5EE8E"/>
<path d="M66.7174 100.796C67.9027 100.796 68.8632 101.757 68.8632 102.942C68.8632 104.127 67.902 105.089 66.7174 105.089C65.5312 105.089 64.5708 104.127 64.5708 102.942C64.5708 101.757 65.5312 100.796 66.7174 100.796Z" fill="#F5EE8E"/>
<path d="M58.7168 109.869C59.6583 109.869 60.4219 110.632 60.4219 111.574C60.4219 112.515 59.6583 113.279 58.7168 113.279C57.7754 113.279 57.0117 112.515 57.0117 111.574C57.011 110.632 57.7754 109.869 58.7168 109.869Z" fill="#F5EE8E"/>
<path d="M136.884 108.85C138.591 108.85 139.975 110.234 139.975 111.941C139.975 113.648 138.591 115.032 136.884 115.032C135.177 115.032 133.793 113.648 133.793 111.941C133.793 110.234 135.177 108.85 136.884 108.85Z" fill="#F5EE8E"/>
<path d="M146.744 107.118C148.528 107.118 149.973 108.564 149.973 110.347C149.973 112.13 148.528 113.575 146.744 113.575C144.96 113.575 143.515 112.13 143.515 110.347C143.515 108.564 144.96 107.118 146.744 107.118Z" fill="#F5EE8E"/>
<path d="M160.601 104.808C162.033 104.808 163.194 106.687 163.194 109.003C163.194 111.32 162.033 113.198 160.601 113.198C159.169 113.198 158.008 111.32 158.008 109.003C158.008 106.687 159.169 104.808 160.601 104.808Z" fill="#F5EE8E"/>
<path d="M132.376 120.403C133.847 120.403 135.04 121.596 135.04 123.067C135.04 124.538 133.848 125.73 132.376 125.73C130.905 125.73 129.712 124.538 129.712 123.067C129.712 121.596 130.905 120.403 132.376 120.403Z" fill="#F5EE8E"/>
<path d="M153.962 111.231C155.111 111.231 156.041 112.162 156.041 113.309C156.041 114.457 155.111 115.388 153.962 115.388C152.814 115.388 151.884 114.457 151.884 113.309C151.884 112.162 152.814 111.231 153.962 111.231Z" fill="#F5EE8E"/>
<path d="M150.476 135.14L133.349 165.634L129.219 166.587L150.476 135.14Z" fill="#FFDBA6"/>
</svg>
