<svg width="175" height="187" viewBox="0 0 175 187" fill="none" xmlns="http://www.w3.org/2000/svg">
<path d="M149.104 19.2009C149.107 19.2037 149.107 19.2065 149.104 19.2092C148.963 21.4281 148.766 25.0226 148.585 27.2359C147.995 34.0255 147.601 40.8262 147.138 47.6241C147.115 47.8321 147.149 48.0596 146.988 48.2204C146.932 48.2787 146.863 48.3148 146.791 48.3314C144.75 49.9206 142.547 51.2963 140.392 52.7247C137.014 54.8936 133.689 57.1485 130.341 59.3673C126.924 61.6166 123.449 63.7855 120.154 66.2152C120.146 66.2207 120.14 66.2263 120.129 66.2346C120.048 66.3206 119.932 66.3566 119.815 66.3677C119.76 66.426 119.693 66.4731 119.607 66.4953C119.3 66.5785 119.072 66.2984 118.814 66.1763C116.296 64.7618 113.783 63.3362 111.337 61.7969C107.446 59.4034 103.604 56.9321 99.7794 54.4304C96.5483 52.3447 93.2644 50.3256 90.1858 48.0152C90.1248 47.9736 90.0748 47.9181 90.0416 47.8516C89.7808 47.8488 89.5229 47.6158 89.5922 47.1637C89.6006 37.681 90.7072 27.369 91.237 18.3661C91.2397 18.3106 91.2508 18.2662 91.2647 18.2219C91.2564 18.0555 91.334 17.8835 91.5365 17.7836C93.3809 16.5827 95.1726 15.3096 96.992 14.0726C103.665 9.43252 112.21 4.19609 119.241 0.127307C119.291 0.0967978 119.344 0.0773769 119.397 0.0690563C119.488 -0.0113763 119.607 -0.0307823 119.735 0.0607445C125.951 4.48731 145.207 16.1805 148.899 18.7211C149.082 18.8182 149.146 19.0206 149.104 19.2009Z" fill="#E83F3C"/>
<path d="M91.3388 44.9527C91.4281 37.7787 92.0816 31.024 92.7433 23.8799C92.9014 22.1753 94.393 21.3804 95.8397 22.2962C105.365 28.3253 115.089 34.0366 118.275 36.1256C118.96 36.5749 119.352 37.3532 119.305 38.1714C119.11 41.594 118.972 50.101 118.365 58.5009C118.239 60.2405 118.377 63.4294 116.913 62.4815C109.748 57.8441 95.9151 49.2517 92.3639 46.8892C91.716 46.4588 91.3288 45.7299 91.3388 44.9527Z" fill="#FC7465"/>
<path d="M123.057 41.616C123.165 40.1732 123.302 38.6655 124.079 37.4452C124.8 36.3136 125.982 35.5719 127.124 34.8686C130.179 32.9875 133.234 31.1071 136.289 29.2261C138.994 27.5608 142.669 25.2028 145.374 23.5375C145.843 23.2485 146.555 23.1426 146.857 23.6041C147.039 23.8815 146.157 38.4281 145.62 45.2898C145.531 46.4325 146.022 47.3306 143.6 48.8943C137.255 52.9931 129.157 57.5766 122.811 61.6753C122.553 61.8423 121.786 61.9549 121.747 60.9409C121.735 60.6336 122.566 48.1682 123.057 41.616Z" fill="#FC7465"/>
<path d="M98.6554 15.3701C98.6554 15.3701 113.183 6.1259 117.355 3.31132C119.406 1.92788 120.236 2.43378 121.261 3.09721C126.602 6.55525 143.114 17.6849 143.114 17.6849C145.032 18.9274 145.074 20.7358 143.114 21.9112C136.515 25.8679 129.809 29.762 124.003 33.1807C123.073 33.7282 121.508 33.767 120.558 33.255C113.157 29.2683 104.587 24.0657 97.6836 19.759C95.7726 18.5663 96.7689 16.6021 98.6554 15.3701Z" fill="#FC7465"/>
<path d="M101.029 42.9246C101.765 41.3925 103.147 40.1838 104.764 39.6596C105.616 39.3834 106.615 39.3129 107.348 39.8272C107.827 40.1633 108.124 40.7019 108.335 41.2472C108.936 42.7937 108.966 44.5755 108.311 46.1004C107.657 47.6247 106.298 48.8545 104.686 49.2477C103.074 49.6405 101.249 49.1413 100.139 47.9092C99.1851 46.8514 98.8118 45.3892 98.6964 43.9697C98.4823 41.3315 99.1003 38.5646 100.747 36.4922C102.393 34.4199 104.795 32.7818 107.399 33.2572C107.725 33.3166 108.403 33.7864 108.666 33.9894C108.927 34.1924 109.107 34.5319 109.036 34.8559C108.916 35.4106 107.607 35.3074 107.053 35.4316C103.626 36.1999 101.029 37.8957 101.029 42.9246Z" fill="white"/>
<path d="M128.16 48.9975C129.816 48.0523 131.576 47.2879 133.398 46.7221C133.474 48.0084 133.697 49.2859 134.06 50.5224C134.186 50.9495 134.377 51.4243 134.795 51.5763C135.17 51.7128 135.604 51.5192 135.857 51.2108C136.111 50.9023 136.221 50.503 136.305 50.1124C136.639 48.5581 136.661 46.9379 136.37 45.3752C138.124 44.4733 139.878 43.5708 141.632 42.6688C142.156 42.3998 142.713 42.0963 142.971 41.5672C143.216 41.0629 143.128 40.4455 142.864 39.9507C142.6 39.4559 142.182 39.0627 141.755 38.6999C139.648 36.9104 137.134 35.6301 134.489 34.8247C134.066 34.6955 133.581 34.5851 133.202 34.8142C132.801 35.0566 132.684 35.5808 132.66 36.0484C132.588 37.4562 133.012 38.8402 133.129 40.2447C133.246 41.6498 132.965 43.2352 131.839 44.0828C130.779 44.8799 129.214 44.8394 128.275 45.7757C127.408 46.6416 127.456 48.2447 128.16 48.9975Z" fill="white"/>
<path d="M108.198 18.7006C110.64 20.8073 113.211 22.7627 115.893 24.5522C117.132 25.3781 118.454 26.1913 119.936 26.335C120.346 26.3749 120.841 26.3156 121.033 25.9506C121.277 25.4857 120.837 24.9654 120.432 24.6315C118.559 23.0883 116.547 21.7137 114.428 20.5294C113.736 20.1422 112.952 19.6652 112.84 18.8803C112.714 18.0005 113.534 17.2577 114.368 16.9488C116.116 16.3014 118.079 16.7879 119.8 17.5046C121.522 18.2213 123.178 19.1709 125.017 19.4816C126.856 19.7928 129.005 19.2797 129.957 17.676C130.657 16.4967 130.545 14.9452 129.878 13.747C129.21 12.5488 128.056 11.6791 126.802 11.1243C124.988 10.3222 122.763 10.1641 121.092 11.232C120.526 11.5931 120.001 12.2659 120.264 12.8833C120.445 13.3094 120.95 13.5185 121.413 13.5118C121.876 13.5052 122.317 13.3304 122.76 13.1929C123.964 12.8184 125.363 12.7391 126.407 13.4469C127.451 14.1547 127.832 15.8532 126.892 16.6942C126.035 17.4602 124.702 17.1568 123.611 16.7935C121.766 16.1783 119.926 15.5149 118.011 15.1698C116.096 14.8254 114.078 14.8137 112.252 15.4844C110.425 16.1556 108.815 17.5795 108.198 18.7006Z" fill="white"/>
<path d="M104.671 42.0448C103.869 42.2528 103.092 42.6211 102.517 43.2169C101.942 43.8126 101.593 44.6564 101.71 45.4757C101.828 46.295 102.468 47.0477 103.286 47.1786C103.705 47.2457 104.136 47.1542 104.533 47.0044C105.289 46.7188 105.976 46.199 106.358 45.4862C106.74 44.7739 106.782 43.8615 106.369 43.1659C105.957 42.4697 105.066 42.062 104.671 42.0448Z" fill="#FC7465"/>
<path d="M135.691 43.1194C135.581 41.6855 135.47 40.2521 135.36 38.8188C135.35 38.6928 135.346 38.5503 135.434 38.4598C135.531 38.36 135.692 38.3722 135.829 38.3949C137.268 38.6324 138.641 39.252 139.771 40.1728C139.869 40.2527 139.973 40.3498 139.978 40.4757C139.982 40.5944 139.897 40.6953 139.815 40.7808C138.616 42.0361 137.002 42.8875 135.691 43.1194Z" fill="#FC7465"/>
<path d="M121.357 37.3581C121.196 37.5195 121.233 37.7536 121.208 37.9622C120.802 44.9742 120.003 51.9591 119.726 58.9795C119.703 60.4716 119.523 61.991 119.631 63.4721C119.785 63.8997 120.477 63.765 120.46 63.3051C120.633 54.7365 121.627 46.2162 122.095 37.6643C122.108 37.2949 121.612 37.0841 121.357 37.3581Z" fill="#212329"/>
<path d="M147.594 20.3092C147.357 20.2437 147.019 20.5056 146.973 20.5178C141.09 24.0424 134.076 28.5472 128.176 32.044C126.499 33.0403 124.808 34.0149 123.139 35.0228C122.663 35.3018 123.08 36.0462 123.572 35.7639C131.341 31.2819 140.182 25.6749 147.82 20.9926C148.017 20.7696 147.881 20.3774 147.594 20.3092Z" fill="#212329"/>
<path d="M121.365 35.4487C116.251 32.7013 97.3464 21.0508 93.6626 18.7221C93.3531 18.5263 92.9254 18.848 93.0369 19.203C93.2011 19.558 93.4679 19.5686 93.5633 19.6784C96.9049 21.8418 118.475 34.8857 120.909 36.2287C121.411 36.5149 121.879 35.7649 121.365 35.4487Z" fill="#212329"/>
<path d="M148.901 18.7211C145.206 16.1805 125.95 4.48675 119.736 0.062403C119.412 -0.168355 119.138 0.313127 119.262 0.700313C119.311 0.887805 119.482 0.981547 119.632 1.0825C126.026 5.39258 144.926 17.2639 148.228 19.3551C148.399 19.4633 148.58 19.607 148.794 19.5387C149.162 19.4467 149.239 18.9053 148.901 18.7211Z" fill="#212329"/>
<path d="M140.252 37.1368C138.645 36.2909 137.026 35.4544 135.347 34.761C134.45 34.4149 133.167 33.7387 132.411 34.6734C131.875 35.476 132.133 36.4967 132.197 37.3942C132.333 39.0034 132.595 41.1158 132.539 42.325C132.414 43.3152 132.319 43.1232 131.134 43.6585C129.768 44.2659 128.201 44.8212 127.335 46.1153C126.904 46.7854 127.181 47.6086 127.334 48.3242C127.349 48.5416 127.398 48.4762 127.466 48.8717C127.477 48.9843 127.538 49.0886 127.626 49.159C127.91 49.397 128.373 49.139 128.319 48.7718C128.168 48.0607 127.928 47.156 128.031 46.7566C128.059 46.6773 128.094 46.6007 128.137 46.5286C128.273 46.3772 128.358 46.2074 128.798 45.8774C129.706 45.1923 130.762 44.799 132.02 44.2637C132.78 44.0052 133.305 43.5432 133.41 42.7161C133.564 40.8811 133.225 39.0384 133.095 37.2089C133.006 36.3164 132.906 35.6608 133.112 35.2614C133.173 35.1016 133.501 34.9812 134.454 35.3867C135.805 35.8949 137.093 36.5466 138.387 37.1834C139.863 37.9329 141.214 38.6002 142.062 39.6075C142.895 40.5444 142.793 41.0242 142.454 41.3726C141.709 42.0077 141.248 42.142 140.334 42.6395C139.34 43.1515 138.343 43.6574 137.336 44.1422C136.923 44.3791 136.415 44.5272 136.115 44.9138C135.95 45.154 135.905 45.4519 135.894 45.7376C135.871 46.3605 135.902 46.9835 135.932 47.6058C136 48.9377 136.114 50.0604 135.638 50.6617C135.366 50.9751 135.41 50.9324 135.138 51.0738C135.101 51.0822 135.08 51.0888 135.067 51.0933C135.061 51.0944 135.055 51.096 135.05 51.0966C135.025 51.0999 134.999 51.1005 134.974 51.1016C134.96 51.1005 134.944 51.0988 134.927 51.0966C134.911 51.0883 134.885 51.0766 134.861 51.0666C134.171 50.5197 134.219 48.4102 133.862 46.8259C133.327 45.6228 131.22 46.9857 130.417 47.3501C129.947 47.597 129.482 47.8516 129.014 48.1001C128.728 48.2127 128.442 48.4512 128.583 48.7901C128.794 49.2361 129.219 49.0558 129.541 48.8489C129.899 48.6587 130.254 48.4651 130.612 48.2759C131.427 47.846 132.403 47.3413 133.034 47.2547C133.23 48.1938 133.212 50.3711 134.009 51.5088C134.551 52.2654 135.6 52.0912 136.162 51.4494C136.813 50.8037 136.934 49.838 136.904 48.9615C136.881 47.9647 136.79 46.9701 136.796 45.9728C136.799 45.8901 136.81 45.6411 136.835 45.5085C136.836 45.5035 136.837 45.5013 136.84 45.4935C136.846 45.4746 136.855 45.4558 136.863 45.4375C136.865 45.4353 136.865 45.4347 136.867 45.4325C136.849 45.3937 137.985 44.8395 138.629 44.5278C139.65 44.0174 140.668 43.4988 141.677 42.9646C142.51 42.4909 143.051 42.2407 143.446 41.5285C144.259 39.673 141.654 37.8818 140.252 37.1368Z" fill="#FFF4E6"/>
<path d="M140.282 39.9918C139.739 39.4365 138.924 39.2762 138.254 38.919C137.38 38.5396 136.498 38.1064 135.56 37.925C134.923 37.8573 134.655 38.5013 134.825 39.0372C134.926 39.8332 135.105 41.9893 135.224 43.2435C135.292 43.8004 136.14 43.7028 136.079 43.1437C135.976 42.052 135.929 40.9559 135.802 39.8664C135.78 39.6817 135.697 38.8236 135.688 38.9013C135.688 38.894 135.688 38.8868 135.688 38.8796C136.476 39.1226 139.029 40.1776 139.518 40.5054C139.514 40.511 139.509 40.516 139.504 40.5216C139.3 40.7662 138.149 41.4734 137.557 41.8867C137.266 42.0326 137.015 42.3005 137.242 42.6228C137.505 42.9301 137.817 42.7237 137.887 42.6721C137.921 42.6522 137.956 42.6322 137.99 42.6122C137.993 42.6106 137.992 42.6117 137.998 42.6084C138.061 42.5762 138.123 42.5418 138.184 42.5063C138.013 42.6017 138.151 42.5268 138.247 42.4719C138.277 42.4558 138.321 42.4308 138.355 42.4092C138.378 42.3953 138.392 42.3876 138.4 42.3821C138.413 42.3748 138.426 42.3676 138.438 42.361C138.505 42.3238 138.571 42.2855 138.637 42.2461C139.315 41.7669 141.001 41.0175 140.282 39.9918Z" fill="#FFF4E6"/>
<path d="M106.487 39.0539C105.664 39.0544 104.797 39.3057 104.184 39.8726C103.776 40.2853 104.399 40.9038 104.811 40.4989C105.201 40.16 106.156 39.7644 106.988 40.0851C107.696 40.3757 108.5 41.7032 108.486 43.3545C108.471 44.8256 108.057 46.2518 107.23 47.5453C106.892 48.0124 106.47 48.4201 105.735 48.7829C105.727 48.8406 104.741 49.0636 104.632 49.0441C103.056 49.1612 101.742 48.4795 100.618 47.3467C98.6326 45.3171 98.7064 41.6665 99.8064 39.1476C101.31 35.755 104.028 33.3121 107.119 33.651C108.104 33.8202 108.615 34.1508 108.739 34.6478C108.739 34.6512 108.738 34.6556 108.738 34.6589C108.737 34.6645 108.736 34.67 108.735 34.675C108.733 34.6778 108.732 34.6811 108.731 34.6839C108.71 34.7066 108.69 34.7288 108.667 34.7488C108.641 34.766 108.613 34.781 108.589 34.7926C108.602 34.7876 108.614 34.7826 108.633 34.7754C108.591 34.8143 108.386 34.852 108.28 34.8692C102.958 35.1648 99.3832 39.3861 100.468 44.6941C101.214 47.5026 104.064 49.3104 106.257 46.6811C107.181 45.5273 107.889 43.6679 106.872 42.3677C105.753 41.1163 103.642 41.6532 102.54 42.6894C102.296 42.9662 102.536 43.4333 102.898 43.4228C103.222 43.3956 103.442 43.0877 103.729 42.9562C103.871 42.8725 104.017 42.7959 104.168 42.7305C104.17 42.7299 104.171 42.7294 104.172 42.7288C104.868 42.4504 105.511 42.5596 105.852 42.7083C106.182 42.9013 106.096 42.8764 106.221 43.0139C106.4 43.3357 106.329 43.1576 106.435 43.5598C106.603 44.5394 105.818 46.361 104.521 46.9157C103.705 47.3107 102.51 46.8198 101.857 45.6427C100.977 44.1622 101.032 42.4692 101.53 40.6437C102.23 38.2673 104.27 36.5144 106.896 35.9824C107.629 35.7744 108.151 35.9359 109.032 35.5903C109.532 35.3595 109.796 34.7532 109.577 34.2379C108.673 32.257 105.651 32.5333 103.975 33.2622C102.359 33.9439 101.114 35.2519 100.134 36.6742C98.555 39.0056 97.7102 41.9428 98.3098 44.738C98.9061 48.2248 102.931 51.1648 106.342 49.5018C107.692 48.8151 108.494 47.4627 108.938 46.0598C109.689 43.8271 109.609 41.2722 108.005 39.7157C107.588 39.3357 107.052 39.0866 106.487 39.0539Z" fill="#FFF4E6"/>
<path d="M129.316 12.3697C128.083 10.8276 126.143 9.92176 124.178 9.87294C122.578 9.82967 120.702 10.2757 119.858 11.7645C119.036 13.3277 120.417 14.33 121.917 14.0393C122.597 13.9389 123.154 13.5102 123.763 13.2267C124.377 13.0298 124.431 13.0176 125.075 13.0453C126.548 13.1746 127.838 14.6867 127.141 15.942C126.592 16.9687 124.632 16.6748 122.822 16.2149C120.684 15.6763 119.247 14.563 116.966 14.2052C113.941 13.7104 110.845 15.0434 108.85 17.3149C108.585 17.5972 108.324 17.8846 108.065 18.1725C107.936 18.2978 107.888 18.5097 107.97 18.6712C108.047 18.8842 108.295 18.9923 108.509 18.9357C108.768 18.8475 108.904 18.5691 109.098 18.3905C110.168 17.225 110.9 16.4989 112.248 15.8299C117.846 13.1795 120.198 17.7664 126.024 17.5135C128.737 17.2971 128.886 13.9905 126.804 12.7236C125.283 11.7567 123.756 12.043 122.304 12.9643C121.624 13.3232 120.823 13.1313 120.648 12.9643C120.307 12.6065 120.742 11.8882 121.315 11.4844C122.301 10.8614 123.093 10.7571 124.386 10.7965C127.343 10.9002 130.147 13.6466 129.901 16.8057C129.628 18.2052 128.031 19.2863 125.96 19.1632C124.143 19.0922 122.392 18.1686 120.482 17.3509C118.411 16.5322 116.001 15.6075 113.819 16.5283C112.521 17.0348 111.704 18.6284 112.735 19.7894C113.741 20.8073 115.112 21.3748 116.294 22.1608C118.172 23.3041 120.996 25.0586 120.69 25.7198C120.638 25.8502 120.248 25.995 119.607 25.8119C118.869 25.6011 117.785 24.8423 116.869 24.2487C115.351 23.2308 113.819 22.2329 112.299 21.2178C111.228 20.5849 110.236 19.7711 109.137 19.2109C108.7 19.1227 108.468 19.7833 108.866 19.9936C111.89 21.919 114.828 23.9758 117.845 25.9106C118.815 26.5325 120.65 27.3728 121.466 26.1375C122.202 24.4457 119.024 22.9086 117.892 22.1026C116.511 21.1568 114.552 20.1567 113.566 19.3407C113.016 18.7949 113.037 18.2917 113.636 17.701C114.927 16.5733 117.526 17.1146 119.8 18.0499C121.469 18.7166 123.952 20.1128 126.226 20.084C128.177 20.1223 130.372 19.0589 130.786 17.0026C131.008 15.3512 130.346 13.6472 129.316 12.3697Z" fill="#FFF4E6"/>
<path d="M56.1849 41.9577C56.1849 44.4678 56.2154 47.1664 56.1322 49.768C55.8909 57.4174 55.7189 65.0723 55.7883 72.7245C55.7883 72.8688 55.7328 72.9714 55.6496 73.0379C55.0089 74.1585 53.8801 75.5147 53.1368 76.6186C51.5836 78.757 50.0665 80.9203 48.5771 83.1004C45.8174 87.1053 42.5973 91.751 39.5659 95.6673C39.4549 95.7754 39.3301 95.8115 39.2136 95.7948C39.1748 96.0944 38.7948 96.2386 38.5535 96.0888C38.5424 96.0999 38.5313 96.1055 38.5175 96.1138C38.2762 96.258 38.0099 96.1055 37.7603 96.0583C30.6684 94.0725 23.0661 92.131 16.099 89.7374C13.098 88.7001 10.0998 87.6656 7.0905 86.656C4.86058 85.946 2.62233 85.2582 0.450653 84.3845C-0.251052 84.1044 0.0762326 83.7882 0.0762326 76.43C0.0762326 68.8027 0.47008 61.1838 0.583795 53.5566C0.567154 53.1073 0.56438 52.9326 0.722472 52.7218C0.958222 52.4028 0.960993 52.3501 1.20506 52.0367C2.13697 50.8358 2.7 50.1119 3.59585 48.9442C8.31087 42.7176 13.5806 36.9376 18.8087 31.1437C18.8975 31.0466 19.0167 31.0105 19.1332 31.0161C19.1915 30.9884 19.258 30.98 19.3412 31.005C26.5968 33.3597 51.5836 39.5447 55.8687 40.8566C56.2598 40.9648 56.1849 41.2754 56.1849 41.9577Z" fill="#E83F3C"/>
<path d="M1.98341 80.4877L2.66571 58.9429C2.77276 55.9181 5.60455 56.8361 8.52342 57.6354L33.5485 64.4883C35.5388 65.0336 36.6621 65.1512 36.7209 67.2141L36.6937 87.1037C36.7852 90.3088 37.5884 94.3227 34.5209 93.3886L5.3039 84.0306C3.2709 83.411 1.90852 82.6117 1.98341 80.4877Z" fill="#FC7465"/>
<path d="M6.62965 49.3769L19.4578 34.0775C20.1534 33.2843 21.5175 33.3042 22.5359 33.5788L48.2311 40.6064C50.1465 41.1234 52.9788 42.0431 51.7512 43.6018L39.2265 60.2763C38.5203 61.1733 36.6421 62.3759 35.5504 62.042L6.09714 53.5688C4.17729 52.9814 5.30612 50.8857 6.62965 49.3769Z" fill="#FC7465"/>
<path d="M39.6829 64.221L53.8934 47.09C54.8087 46.015 55.2957 48.6354 55.2813 50.0288C55.2042 57.524 54.9557 65.0619 54.9451 72.5627C54.9446 72.8772 54.842 73.1812 54.6484 73.4341C50.9013 78.3372 45.3997 85.5373 41.7509 90.9706C40.9371 92.1827 40.1688 90.2451 40.1167 88.8006C39.8355 80.9898 39.562 73.1573 39.334 65.2034C39.3246 64.8467 39.4483 64.4967 39.6829 64.221Z" fill="#FC7465"/>
<path d="M37.7281 64.6964C37.5811 64.8712 37.6383 65.1013 37.6311 65.311C37.8341 72.332 37.7808 81.8563 38.112 88.8739C38.2179 90.3622 38.219 92.5383 38.406 94.051C38.5968 94.4637 39.2746 94.2696 39.2181 93.8125C38.6489 85.2611 38.7638 73.4974 38.4892 64.9366C38.4703 64.5683 37.9589 64.4013 37.7281 64.6964Z" fill="#212329"/>
<path d="M54.8799 72.6186C52.8175 75.5391 50.6913 78.4136 48.6666 81.3602C46.5726 84.38 44.5767 87.4698 42.3901 90.4247C41.2862 91.8669 40.154 93.6542 38.9387 95.0393C38.5332 95.4454 39.1511 96.0772 39.5666 95.6673C42.5992 91.7516 45.8187 87.1048 48.5778 83.1009C50.0678 80.9198 51.5855 78.757 53.1381 76.6197C53.9097 75.4715 55.0951 74.0564 55.7225 72.9098C55.8101 72.4405 55.1106 72.1898 54.8799 72.6186Z" fill="#212329"/>
<path d="M36.9929 63.4577C31.3676 62.0249 5.48219 54.3344 1.34518 52.9632C0.997379 52.8478 0.660112 53.2633 0.854259 53.5806C1.09889 53.8851 1.3607 53.8313 1.47996 53.9151C5.24421 55.2086 34.0524 63.6086 36.7388 64.3242C37.2952 64.4806 37.5687 63.6402 36.9929 63.4577Z" fill="#212329"/>
<path d="M27.1185 44.8939C27.2594 44.6165 27.4003 44.3386 27.5412 44.0613C27.3277 43.6724 26.8085 43.572 26.3675 43.6219C25.9265 43.6719 25.4916 43.8277 25.0506 43.7789C24.6096 43.7301 24.1509 43.364 24.2241 42.9263C24.2668 42.6723 24.472 42.4792 24.6823 42.3306C26.4279 41.0997 28.994 41.717 30.7619 40.5183C31.2195 40.2082 31.6011 39.7878 32.0893 39.5282C32.5774 39.2686 33.2464 39.2153 33.6319 39.6119C34.155 40.1511 33.8133 41.0442 33.4317 41.691C31.326 45.2616 28.7067 48.5294 25.6796 51.3612C25.3346 51.684 24.9735 52.008 24.5314 52.1739C24.0893 52.3397 23.544 52.3136 23.2001 51.9897C22.8551 51.6646 22.799 51.1194 22.9377 50.6656C23.0764 50.2124 23.3759 49.8286 23.6694 49.4563C25.0545 47.7001 26.5522 46.0094 27.1185 44.8939Z" fill="white"/>
<path d="M15.092 74.6102C14.8113 75.075 14.0325 74.9341 13.7297 74.4831C13.4268 74.0322 13.4623 73.4419 13.5222 72.9022C13.7502 70.8487 14.1696 68.8163 14.772 66.8398C14.8663 66.5303 14.9911 66.1913 15.2801 66.0466C15.5313 65.9212 15.8309 65.9822 16.1044 66.046C16.8832 66.2274 17.662 66.4088 18.4408 66.5902C19.8559 66.9197 21.2803 67.2525 22.6083 67.8422C22.9678 68.0019 23.3688 68.2527 23.3827 68.6459C23.3949 68.9976 23.0615 69.2833 22.7154 69.3493C22.3692 69.4148 22.0159 69.3177 21.6747 69.2312C20.7822 69.0043 19.8597 68.8423 18.9428 68.9283C18.0259 69.0143 17.1084 69.3704 16.486 70.0488C15.8636 70.7272 15.5891 71.7551 15.9346 72.6082C17.505 71.8804 19.4964 72.4313 20.6552 73.7171C21.814 75.0029 22.1806 76.8839 21.84 78.5813C21.6681 79.4378 21.3214 80.2732 20.7434 80.9283C20.1021 81.6549 19.2141 82.1203 18.3049 82.4565C17.1494 82.8836 15.8841 83.1266 14.6826 82.8542C13.4812 82.5819 12.3645 81.711 12.0617 80.5172C11.9718 80.1628 11.9568 79.7773 12.0972 79.4395C12.2375 79.1016 12.5559 78.8243 12.9215 78.8038C13.3586 78.7794 13.7402 79.1105 13.9721 79.481C14.2039 79.8521 14.3398 80.2787 14.59 80.6376C15.3416 81.7171 17.0191 81.8624 18.1207 81.1429C19.2218 80.4235 19.771 79.0578 19.8009 77.7426C19.8259 76.6382 19.4615 75.4367 18.5351 74.8343C17.5344 74.1825 16.2225 74.4099 15.092 74.6102Z" fill="white"/>
<path d="M44.5181 64.8118C44.5608 64.9682 44.6035 65.1246 44.6468 65.281C45.1105 65.25 45.4522 64.8378 45.6708 64.4273C45.8888 64.0168 46.0579 63.5564 46.4202 63.2658C46.7829 62.9751 47.4303 62.9773 47.6183 63.4028C47.7792 63.7661 47.5196 64.1666 47.2805 64.4839C46.4252 65.6216 45.6691 66.8336 45.0245 68.1023C44.8675 68.4118 44.7144 68.7313 44.6706 69.0758C44.6268 69.4202 44.7083 69.798 44.9618 70.0349C45.394 70.4392 46.0968 70.2817 46.6254 70.0155C47.1541 69.7492 47.6938 69.3887 48.2806 69.4619C48.7494 69.5207 49.1504 69.8635 49.3657 70.2834C49.5809 70.7033 49.6319 71.1909 49.6053 71.6624C49.516 73.2744 48.5086 74.8031 47.0636 75.522C46.6498 75.7278 46.1539 75.8693 45.7329 75.6785C45.1815 75.4294 44.898 74.6739 44.2945 74.6295C43.899 74.6001 43.5457 74.9257 43.4142 75.3001C43.2827 75.6746 43.3238 76.0851 43.3776 76.4778C43.4669 77.1229 43.6222 77.8246 44.1381 78.2229C44.6201 78.5957 45.2947 78.5984 45.891 78.4709C47.2777 78.1735 48.4848 77.2627 49.3274 76.1222C50.17 74.9812 50.6759 73.6222 50.9993 72.2415C51.1829 71.4588 51.3116 70.6478 51.1951 69.8524C51.0786 69.0569 50.6875 68.272 50.0147 67.8321C49.3418 67.3922 48.3705 67.3784 47.7759 67.9187C48.5902 66.3327 48.857 64.5288 49.0656 62.7582C49.1554 61.9933 49.171 61.0708 48.5414 60.6265C48.1031 60.3169 47.5019 60.3724 46.9937 60.5466C45.2142 61.1573 44.071 63.1787 44.5181 64.8118Z" fill="white"/>
<path d="M33.051 38.9268C32.0515 38.7681 31.1517 39.421 30.3973 39.9962C29.8204 40.4927 29.755 40.4749 28.7365 40.6314C28.4076 40.7273 26.6558 40.7756 25.8837 41.0324C25.2657 41.2349 24.7071 41.5899 24.2323 42.0309C23.6809 42.5051 23.063 43.5352 23.9971 43.9546C24.721 44.192 25.5137 44.0961 26.2642 44.0822C26.6591 44.0966 26.8733 43.5719 26.587 43.3028C26.4966 43.2224 26.3879 43.1658 26.2642 43.1691C25.9125 43.1863 25.5608 43.1991 25.2091 43.1947C24.8092 43.1808 24.6766 43.1869 24.4902 43.1492C24.9318 42.4824 25.6185 42.0031 26.5782 41.7979C27.3958 41.6315 29.238 41.6609 30.3979 41.1517C31.1545 40.5398 32.1175 39.812 32.6883 39.812C33.3661 39.8326 33.5092 40.1893 32.7887 41.3919C31.393 43.5719 29.8215 45.6354 28.2772 47.7111C27.5461 48.6341 25.8088 50.9583 24.8125 51.6351C24.3061 52.0051 24.0393 51.8731 23.8263 51.7932C23.1279 51.462 23.195 51.345 23.236 51.1492C24.0171 49.454 26.0451 47.1569 27.3692 45.2964C27.6266 44.9464 27.6704 44.8843 27.7419 44.7917C27.834 44.6857 27.9305 44.5703 27.9239 44.4211C27.9366 44.0589 27.4529 43.8592 27.2055 44.1238C26.4145 45.0612 25.5092 46.25 24.3593 47.7777C23.7935 48.5393 23.2177 49.2959 22.7307 50.1113C22.4151 50.6355 22.0889 51.3184 22.4778 51.8892C22.8394 52.41 23.4796 52.7068 24.0931 52.8C24.5152 52.8294 24.9229 52.6541 25.2702 52.4272C26.6697 51.4043 27.6493 49.9233 28.7393 48.5975C30.1654 46.7359 31.5489 44.841 32.8846 42.914C33.4221 42.0603 34.1876 41.1844 34.1732 40.1254C34.1361 39.5241 33.6407 39.0144 33.051 38.9268Z" fill="#FFF4E6"/>
<path d="M23.4995 67.6462C22.7795 67.0327 21.7826 66.9517 20.9023 66.7048C19.2759 66.3543 17.7022 65.7907 16.0775 65.4385C14.237 65.0984 14.1044 66.2178 13.9435 67.7083C13.837 68.6813 13.3611 70.9711 13.1808 72.4017C13.1569 72.6502 13.0943 72.9048 13.1431 73.1539C13.2246 73.4551 13.619 73.596 13.8631 73.3918C14.0423 73.2476 14.0827 73.0723 14.0417 72.9192C14.0495 72.7317 14.0767 72.5443 14.0983 72.3579C14.197 71.6689 14.5759 69.5904 14.7545 68.44C14.9087 67.5635 14.8554 67.2562 15.084 66.4719C15.0995 66.4441 15.1178 66.4136 15.1312 66.3892C15.1367 66.3831 15.1417 66.3781 15.1467 66.3726C15.3214 66.2727 15.256 66.2983 15.6825 66.301C16.5351 66.4186 18.4167 67.0371 19.6736 67.3461C21.1553 67.7033 22.8161 68.0528 22.9619 68.3961C23.0696 68.8039 23.0474 68.9231 22.2408 68.9448C21.2457 68.9054 20.2189 68.6491 18.9631 68.5121C18.3446 68.435 17.6784 68.3368 17.0954 68.6153C16.5762 68.856 16.265 69.3735 16.0508 69.8822C15.7247 70.6244 15.4684 71.3977 15.3092 72.1931C15.2166 72.5359 15.3553 72.9542 15.7336 73.0346C16.0847 73.0973 16.4314 72.9514 16.777 72.9043C16.8807 72.8416 18.1493 72.8233 18.2231 72.8832C20.4957 73.2809 21.6617 75.1275 21.6345 77.3746C21.6451 79.4431 20.1152 81.7186 18.3174 82.3304C16.9118 82.7902 15.7524 82.7964 14.3756 82.3592C14.0151 82.2766 12.9095 81.338 12.6555 80.8859C12.1895 80.202 12.1951 79.7632 12.5068 79.2229C12.5224 79.2063 12.5395 79.188 12.5567 79.1719C12.5972 79.1442 12.6416 79.1225 12.686 79.102C12.7104 79.0942 12.7398 79.0859 12.7697 79.0782C12.8064 79.0798 12.8679 79.0798 12.9112 79.0787C12.9622 79.0881 13.0127 79.0992 13.061 79.117C13.0881 79.1303 13.1159 79.1425 13.1414 79.158C13.3311 79.2346 13.624 79.7194 13.8769 80.3839C14.1072 80.8848 14.4838 81.3214 14.9542 81.6104C17.7189 82.9522 20.4358 80.3418 20.2811 77.5172C20.1435 73.8134 16.5268 73.0302 13.7477 74.6677C13.5974 74.8374 13.629 75.1109 13.7832 75.2679C13.9773 75.4725 14.258 75.3993 14.4755 75.2795C14.2353 75.3666 15.1017 75.0332 15.2781 74.9877C17.0221 74.4197 18.6763 74.9988 19.1267 76.3368C19.9865 78.6727 18.4744 81.343 15.9771 81.0235C15.4612 80.9625 14.8261 80.5437 14.4283 79.3755C14.1443 78.6782 13.4598 78.0481 12.6616 78.1768C11.8445 78.2577 11.403 79.0942 11.3863 79.847C11.363 81.231 12.5823 82.3393 13.6673 83.0271C15.2088 83.7798 17.1159 83.7371 18.7084 83.1564C20.0225 82.6544 21.0704 81.5826 21.7527 80.3717C23.8495 76.5326 21.6545 71.4071 16.8718 71.9751C16.6699 71.9968 16.4713 72.0361 16.2727 72.0761C16.3393 71.797 16.4136 71.5203 16.5018 71.2473C16.7098 70.5811 17.0094 69.9238 17.1919 69.6853C17.4526 69.1755 18.6308 69.3752 19.2365 69.4606C20.4586 69.5228 22.8848 70.4314 23.7186 69.2942C24.0569 68.7845 23.9599 68.0489 23.4995 67.6462Z" fill="#FFF4E6"/>
<path d="M50.2347 67.365C49.6716 67.1303 49.0426 67.0926 48.4463 67.2141C49.2245 65.3054 49.9923 63.2646 49.5235 61.1999C48.6476 58.4164 45.6778 60.3684 44.7841 62.1069C44.3304 62.9678 43.8938 63.963 44.0591 64.9548C44.1046 65.1578 44.1556 65.4002 44.3503 65.5112C44.6826 65.7219 45.1302 65.3741 45.0143 65.0008C44.8595 64.4661 44.9017 64.4616 45.0476 63.8232C45.2767 63.0848 45.3993 62.792 45.9007 62.0686C46.3595 61.3398 47.5427 60.6103 48.0014 60.7207C49.1458 60.9243 48.8457 63.7244 48.0591 65.7114C47.8256 66.4358 47.4273 67.1154 47.2531 67.8531C47.237 68.2625 47.6997 68.481 48.0397 68.2969C49.2229 67.8137 50.1609 68.0501 50.5791 68.9026C51.0884 69.9488 50.7511 72.5271 50.1054 73.7829C49.0043 76.2969 45.8835 78.965 44.4463 77.7303C43.6819 77.1384 43.6863 75.3017 44.0674 74.8779C44.0913 74.8496 44.1196 74.8253 44.1473 74.8008C44.1512 74.7981 44.154 74.7964 44.1584 74.7931C44.1639 74.7897 44.17 74.787 44.1756 74.7842C44.1784 74.7836 44.1811 74.7825 44.1845 74.782C44.1939 74.7814 44.2039 74.782 44.2133 74.7825C44.22 74.7842 44.2294 74.7864 44.2383 74.7886C44.4701 74.899 44.6282 75.3533 45.0409 75.8975C45.7776 76.7346 46.9674 76.2913 47.7046 75.6878C48.6992 74.9473 49.3782 73.8473 49.7487 72.6752C50.3206 70.98 50.192 68.7995 47.8411 69.1972C47.2731 69.312 46.7478 69.5771 46.2374 69.844C46.0638 69.9355 45.8591 70.0259 45.8103 70.2356C45.726 70.5174 45.9584 70.8169 46.2508 70.8136C46.7683 70.6793 47.2986 70.2717 47.5554 70.2273C48.2827 69.925 48.7431 70.1047 48.8529 70.1895C48.9 70.2284 48.9417 70.2744 48.9805 70.3216C48.9943 70.3438 49.0076 70.3687 49.0193 70.3903C49.3199 71.4149 48.9006 72.6713 48.2261 73.8018C47.6381 74.8158 46.2752 75.6107 45.9717 75.4498C45.6289 75.2529 45.756 75.3616 45.5069 74.9561C45.1996 74.2855 44.4568 73.5411 43.688 74.0098C42.9957 74.4686 42.882 75.406 42.8976 76.1732C42.9258 77.5755 43.8516 79.036 45.3921 78.9567C48.0774 78.7498 50.598 75.5547 51.3347 73.1256C51.8067 71.3522 52.3026 68.2858 50.2347 67.365Z" fill="#FFF4E6"/>
<path d="M46.2913 62.6738C45.8537 63.0521 45.5391 63.5652 45.3245 64.0983C45.2868 64.2109 45.2307 64.3302 45.2596 64.4506C45.2895 64.8583 45.8864 64.9725 46.0772 64.6153C46.1992 64.3646 46.4111 63.7871 46.8771 63.3716C46.8948 63.3589 46.9126 63.3467 46.9315 63.3356C47.104 64.2814 45.9979 66.2095 44.9489 67.6229C44.6189 68.0955 44.351 68.663 44.4098 69.2526C44.4469 69.7474 44.7836 70.7764 45.4221 70.2678C45.6456 70.0559 45.5325 69.7741 45.4088 69.5439C45.2917 69.1628 45.3222 69.3148 45.3161 69.0008C45.2596 68.7562 45.8614 67.8886 46.3546 67.2146C47.028 66.1063 47.7563 64.9231 47.8711 63.6052C47.9571 62.6605 47.0718 62.0082 46.2913 62.6738Z" fill="#FFF4E6"/>
<path d="M57.6743 150.979C58.7387 152.724 60.2808 154.227 62.1308 155.12C63.6801 155.889 65.438 155.958 67.1298 155.773C67.8903 155.663 69.2161 156.016 69.7697 156.932C71.2185 159.916 73.6116 164.204 75.2768 167.071C77.5788 171.016 79.8005 175.013 82.1485 178.932C83.213 180.676 84.2936 182.432 85.6604 183.958C86.6322 185.048 88.0057 185.715 89.4374 185.949C92.5559 186.37 95.8365 184.606 98.4658 182.985C103.16 180.092 108.178 173.383 109.316 170.36C110.029 168.467 110.609 166.461 110.756 164.433C111.315 159.444 106.269 157.021 102.363 155.472C98.8008 154.005 95.142 152.788 91.466 151.641C88.1122 150.598 84.7129 149.682 81.4324 148.42C73.0807 145.208 78.4647 140.62 70.4203 136.511C69.2937 135.936 68.0323 135.651 66.787 135.46C63.2252 134.878 59.4477 136.614 57.5295 139.666C55.3672 143.025 55.6451 147.625 57.6743 150.979Z" fill="#8D9099"/>
<path d="M67.4827 136.097C63.3485 136.317 59.6131 140.407 59.2847 144.534C58.9563 148.661 61.6178 152.466 65.6655 153.337C67.8022 153.797 70.5969 153.285 72.555 154.256C74.3245 155.134 75.4384 156.916 76.4124 158.634C79.1599 163.481 81.5379 168.525 84.0829 173.481C84.9649 175.198 85.8829 176.928 87.2026 178.337C88.5222 179.746 90.3101 180.82 92.2393 180.879C95.5992 180.983 102.006 177.805 106.14 170.492C107.256 168.517 108.056 165.983 107.839 163.724C107.543 160.627 104.203 157.629 101.767 155.693C103.561 156.152 105.36 156.701 106.929 157.688C108.496 158.674 109.827 160.15 110.291 161.944C110.764 163.778 110.295 165.719 109.66 167.502C107.41 173.818 102.992 179.34 97.3227 182.92C94.4171 184.755 90.7089 186.091 87.6014 184.624C85.473 183.62 84.1134 181.521 82.8659 179.525C79.1127 173.519 75.2714 166.216 71.8699 160.004C70.3295 157.191 70.0133 155.433 67.5443 155.196C66.3561 155.082 65.1646 155.208 63.9725 155.145C61.9251 155.037 60.0014 153.909 58.7139 152.314C57.4265 150.718 56.7408 148.692 56.5472 146.65C56.2516 143.531 57.1618 140.196 59.4395 138.045C61.7171 135.894 65.4542 135.231 67.4827 136.097Z" fill="#72767F"/>
<path d="M74.3488 140.791C74.9546 141.647 74.9313 142.799 74.7177 143.825C74.5041 144.852 74.1242 145.854 74.0954 146.902C74.0665 147.95 74.4969 149.109 75.4544 149.537C76.1161 149.834 76.9044 149.72 77.5578 149.405C78.2113 149.091 78.7576 148.595 79.294 148.107C78.2268 148.076 77.2877 147.328 76.7247 146.421C76.1616 145.514 75.9053 144.456 75.6302 143.424C75.3551 142.393 75.0406 141.342 74.3488 140.791Z" fill="#72767F"/>
<path d="M71.3144 157.949C72.709 160.822 74.2405 163.626 75.8414 166.389C78.0424 170.163 80.1759 173.977 82.4002 177.738C83.4797 179.543 84.2785 180.883 85.5305 182.512C86.6854 184.021 87.6394 184.751 89.5194 185.125C92.2923 185.64 96.4332 183.498 98.8628 181.752C101.489 179.865 110.927 171.26 109.93 163.043C109.462 159.185 104.889 157.439 101.295 155.934C95.2273 153.468 88.8703 151.842 82.6737 149.752C81.3091 149.264 79.9346 148.79 78.6376 148.138C77.4872 147.601 76.4599 146.758 75.9274 145.584C75.716 145.041 75.4131 144.418 75.4725 144.074C75.5807 143.735 76.091 143.689 76.2419 144.024C76.8953 146.681 78.6571 147.372 81.4339 148.42C84.725 149.652 88.1121 150.598 91.4653 151.642C95.1413 152.787 98.8013 154.004 102.363 155.471C106.269 157.02 111.218 159.434 110.757 164.434C110.571 166.457 110.219 168.107 109.19 170.676C107.781 174.192 102.84 180.29 98.4662 182.986C95.8369 184.607 92.5564 186.37 89.4389 185.949C88.005 185.715 86.6343 185.049 85.6603 183.957C84.294 182.431 83.2129 180.675 82.1484 178.933C79.8009 175.012 77.5804 171.017 75.2772 167.071C73.612 164.204 72.0134 161.296 70.5661 158.311C70.3492 157.827 71.0515 157.453 71.3144 157.949Z" fill="black"/>
<path d="M58.7421 143.068C58.5802 143.562 58.4986 144.078 58.447 144.594C57.9606 148.347 60.9244 152.264 63.8028 153.563C64.0141 153.651 64.2487 153.781 64.4695 153.658C64.8112 153.488 64.7546 152.942 64.3841 152.847C62.0332 151.691 59.4133 148.783 59.3584 145.587C59.3473 144.875 59.4073 144.235 59.4938 143.826C59.531 143.506 59.7817 143.087 59.4538 142.846C59.227 142.636 58.8176 142.771 58.7421 143.068Z" fill="#40444D"/>
<path d="M60.7859 139.675C60.2878 140.209 59.7591 140.788 59.5017 141.477C59.4036 141.939 60.0886 142.184 60.3166 141.773C60.7099 141.132 60.8752 140.89 61.2602 140.47C61.4865 140.125 62.1677 139.884 61.9913 139.403C61.6823 138.76 61.096 139.358 60.7859 139.675Z" fill="#40444D"/>
<path d="M99.7789 178.89C99.5127 178.909 99.3329 179.155 99.1138 179.284C97.0071 180.79 94.806 182.049 92.6437 182.802C91.5293 183.219 90.5209 183.414 90.1747 183.47C89.7454 183.631 89.9024 184.324 90.36 184.293C91.1111 184.324 91.7773 184.084 92.7036 183.788C95.3978 182.937 98.958 180.724 100.144 179.579C100.366 179.308 100.124 178.869 99.7789 178.89Z" fill="#40444D"/>
<path d="M103.026 175.481C102.469 176.308 101.784 176.969 101.166 177.706C100.986 178.115 101.572 178.477 101.865 178.142C102.252 177.884 103.591 176.297 103.791 175.884C103.986 175.421 103.301 175.058 103.026 175.481Z" fill="#40444D"/>
<path d="M105.063 159.619C105.188 159.912 105.501 160.084 105.704 160.324C106.566 161.169 107.328 162.582 107.41 163.626C107.435 163.849 107.434 164.074 107.43 164.298C107.413 164.37 107.377 164.384 107.482 164.641C107.675 164.983 108.235 164.894 108.311 164.509C108.609 162.815 107.677 161.134 106.601 159.887C106.173 159.453 105.853 159.077 105.482 159.043C105.195 159.044 104.979 159.345 105.063 159.619Z" fill="#40444D"/>
<path d="M139.107 120.158C139.3 118.178 139.505 116.198 139.714 114.219C139.718 114.198 139.718 114.179 139.721 114.159C139.723 114.154 139.727 114.149 139.728 114.144C139.837 113.88 139.632 113.673 139.433 113.532C136.328 110.885 133.061 108.447 129.798 106.003C128.662 105.203 127.602 104.254 126.426 103.53C126.295 103.49 126.176 103.521 126.085 103.589C126.017 103.598 125.946 103.623 125.872 103.67C121.118 105.849 116.44 108.192 111.881 110.755C111.151 111.176 110.404 111.574 109.705 112.046C109.575 112.137 109.425 112.231 109.374 112.383C109.341 112.435 109.317 112.492 109.311 112.561C109.195 113.726 108.948 117.385 109.051 119.425C109.083 119.564 109.181 119.659 109.3 119.708C109.821 120.212 112.028 122.064 113.197 123.132C115.131 124.805 117.021 126.594 119.065 128.11C119.721 128.322 128.299 124.424 128.138 124.518C127.558 124.859 135.674 121.96 135.376 122.139C135.364 122.508 136.386 123.439 136.386 123.439C137.046 123.066 137.694 122.672 138.339 122.274C138.51 122.206 138.626 122.074 138.676 121.931C138.718 121.915 138.759 121.894 138.795 121.863C138.884 121.782 138.952 121.68 138.962 121.556C139.012 121.09 139.06 120.624 139.107 120.158Z" fill="#FFF4E6"/>
<path d="M109.877 112.647C114.085 116.38 118.474 119.909 122.874 123.113C128.471 120.52 133.917 117.6 139.174 114.372C138.601 116.766 138.401 119.249 138.585 121.704C137.994 122.054 137.402 122.405 136.811 122.756C136.696 121.78 135.667 121.121 134.685 121.075C133.703 121.03 132.765 121.443 131.869 121.846C127.582 123.777 123.296 125.708 119.094 127.667C116.56 125.473 114.025 123.278 111.49 121.084C110.847 120.527 110.187 119.948 109.822 119.179C108.868 117.164 110.276 114.789 109.877 112.647Z" fill="#D3C2B3"/>
<path d="M129.73 114.978C130.514 114.395 130.987 113.505 131.055 112.611C131.124 111.715 130.803 110.823 130.222 110.112C129.508 109.238 128.421 108.641 127.245 108.349C126.069 108.058 124.807 108.061 123.586 108.246C122.703 108.379 121.828 108.609 121.036 108.996C119.082 109.95 117.758 111.924 117.846 113.879C117.934 115.834 119.478 117.646 121.577 118.153C123.093 118.519 124.772 118.226 126.196 117.556C127.62 116.887 128.691 115.752 129.73 114.978Z" fill="#5B6785"/>
<path d="M126.467 109.713C124.758 109.286 122.858 109.916 121.432 110.93C120.394 111.668 119.486 112.731 119.545 113.892C119.582 114.623 120.013 115.301 120.63 115.765C121.246 116.229 122.035 116.492 122.842 116.598C124.211 116.779 125.688 116.507 126.835 115.766C127.981 115.026 128.759 113.804 128.762 112.562C128.764 111.32 127.952 110.084 126.467 109.713Z" fill="#FFF4E6"/>
<path d="M129.095 116.467C129.626 116.007 130.083 115.481 130.448 114.908C130.52 114.824 130.55 114.714 130.534 114.612C130.491 114.281 129.974 114.178 129.754 114.455C129.017 115.564 128.356 116.145 127.155 116.888C125.382 117.961 122.961 118.353 120.837 117.344C120.198 117.048 119.27 116.461 118.756 115.747C118.033 114.744 117.642 113.311 118.294 112.11C119.626 109.315 123.961 107.703 127.106 108.877C128.822 109.468 129.978 110.547 130.703 112.112C130.818 112.375 130.94 112.77 130.91 112.662C130.936 112.77 130.967 112.884 131.076 112.948C131.33 113.128 131.748 112.898 131.688 112.608C131.633 111.757 130.783 110.234 129.621 109.329C128.44 108.385 126.875 107.801 125.271 107.706C122.554 107.639 119.641 108.776 118.08 110.863C116.763 112.57 116.804 114.416 117.96 116.106C119.512 118.213 122.735 119.254 125.507 118.429C126.858 118.066 128.082 117.351 129.095 116.467Z" fill="#3C4661"/>
<path d="M129.26 112.703C129.296 111.782 128.804 110.944 128.093 110.313C127.189 109.591 125.911 109.301 124.694 109.332C123.032 109.414 121.295 109.975 120.184 111.157C118.77 112.58 118.653 114.745 120.289 115.94C124.256 118.836 129.159 115.279 129.26 112.703ZM120.542 115.197C119.208 113.696 120.071 111.73 121.976 110.71C124.556 109.395 128.243 109.797 128.431 112.659C128.509 113.844 126.988 115.577 125.498 116.12C123.14 116.978 121.625 116.312 120.542 115.197Z" fill="#3C4661"/>
<path d="M146.885 140.052C146.856 140.338 146.735 140.497 146.309 140.752C140.566 143.829 134.54 146.328 128.624 149.038C128.347 149.18 128.105 149.021 128.018 148.803C126.68 147.608 117.098 136.602 117.098 136.602C116.894 136.358 116.708 136.122 116.604 135.814C116.585 135.741 116.588 135.671 116.608 135.606L116.609 135.595C116.667 133.554 116.452 130.947 116.646 128.918C116.647 128.899 116.65 128.879 116.654 128.861C116.654 128.858 116.657 128.852 116.657 128.85C116.661 128.833 116.662 128.819 116.668 128.803C116.671 128.786 116.678 128.77 116.684 128.754C116.762 128.527 116.957 128.281 117.279 128.122C122.9 125.314 129.649 122.381 134.78 120.582C134.996 120.473 135.536 120.616 135.641 120.735C139.306 124.843 144.459 130.599 146.553 133.492C146.553 133.492 147.081 133.833 147.094 134.421C147.094 134.424 147.094 134.427 147.094 134.427C147.119 135.608 146.999 137.229 146.988 138.417C146.966 139.101 146.929 139.368 146.885 140.052Z" fill="#FFF4E6"/>
<path d="M117.038 128.874C117.079 131.356 117.121 133.838 117.162 136.32C120.911 140.388 124.659 144.456 128.408 148.524C128.53 146.279 128.652 144.034 128.774 141.79C124.773 137.492 120.866 133.104 117.038 128.874Z" fill="#D3C2B3"/>
<path d="M146.672 134.295C146.618 136.279 146.563 138.263 146.509 140.246C140.529 143.049 134.549 145.852 128.57 148.654C128.591 146.426 128.613 144.199 128.635 141.971C134.79 139.622 140.881 137.105 146.672 134.295Z" fill="#E8DACC"/>
<path d="M137.259 133.846C138.197 133.348 138.851 132.471 139.073 131.521C139.294 130.571 139.095 129.559 138.588 128.699C137.965 127.643 136.895 126.822 135.68 126.315C134.465 125.809 133.108 125.604 131.765 125.601C130.795 125.599 129.818 125.702 128.903 125.987C126.645 126.691 124.898 128.594 124.671 130.708C124.443 132.823 125.804 135.024 127.976 135.914C129.545 136.558 131.397 136.52 133.037 136.035C134.677 135.55 136.014 134.508 137.259 133.846Z" fill="#5B6785"/>
<path d="M134.62 127.653C132.854 126.912 130.709 127.276 129.01 128.131C127.773 128.754 126.622 129.747 126.495 131.004C126.414 131.795 126.766 132.594 127.352 133.194C127.938 133.794 128.741 134.206 129.592 134.453C131.033 134.872 132.664 134.823 134.018 134.216C135.372 133.61 136.408 132.425 136.615 131.091C136.823 129.758 136.154 128.296 134.62 127.653Z" fill="#FFF4E6"/>
<path d="M136.33 135.342C136.977 134.935 137.554 134.445 138.041 133.89C138.132 133.811 138.183 133.698 138.182 133.586C138.19 133.223 137.652 133.027 137.37 133.288C136.395 134.359 135.589 134.874 134.177 135.475C132.095 136.335 129.43 136.359 127.314 134.924C126.677 134.501 125.776 133.718 125.341 132.866C124.73 131.669 124.546 130.065 125.444 128.882C127.335 126.099 132.258 125.08 135.443 126.859C137.19 127.777 138.254 129.127 138.775 130.927C138.855 131.229 138.922 131.674 138.907 131.552C138.917 131.672 138.933 131.799 139.038 131.886C139.281 132.121 139.768 131.944 139.752 131.622C139.832 130.699 139.17 128.922 138.071 127.759C136.959 126.55 135.374 125.665 133.665 125.3C130.758 124.78 127.441 125.521 125.42 127.506C123.723 129.123 123.463 131.114 124.428 133.12C125.748 135.639 129.039 137.289 132.153 136.858C133.664 136.692 135.097 136.124 136.33 135.342Z" fill="#3C4661"/>
<path d="M137.128 131.325C137.318 130.342 136.928 129.36 136.268 128.565C135.416 127.64 134.09 127.118 132.777 126.951C130.979 126.766 129.02 127.083 127.632 128.17C125.879 129.465 125.397 131.772 126.958 133.325C130.742 137.09 136.595 134.076 137.128 131.325ZM127.351 132.569C126.165 130.737 127.416 128.766 129.63 127.984C132.619 126.996 136.514 128.035 136.245 131.141C136.133 132.427 134.214 134.039 132.524 134.376C129.849 134.91 128.33 133.945 127.351 132.569Z" fill="#3C4661"/>
<path d="M147.092 134.197C146.958 133.755 146.255 133.864 146.25 134.324C146.084 136.07 146.122 137.829 145.999 139.579C146.005 139.675 145.992 139.783 145.98 139.895C141.719 142.148 130.771 147.06 128.992 147.896C129.011 147.496 129.031 147.096 129.05 146.696C129.085 145.3 129.25 143.884 129.197 142.495C129.064 142.055 128.362 142.163 128.357 142.622C128.262 144.104 128.191 145.586 128.118 147.069C128.109 147.261 128.1 147.453 128.091 147.645C126.703 146.132 117.248 135.305 117.248 135.305C116.926 135.124 116.515 135.457 116.606 135.813C116.708 136.122 116.896 136.359 117.098 136.602C117.098 136.602 126.68 147.606 128.02 148.802C128.106 149.021 128.348 149.18 128.623 149.039C134.542 146.327 140.565 143.828 146.31 140.753C146.767 140.543 146.87 140.302 146.886 140.051C146.929 139.368 146.964 139.1 146.99 138.416C147.001 137.152 147.136 135.452 147.092 134.197Z" fill="#212329"/>
<path d="M146.447 133.904C143.362 135.397 129.926 141.235 129.926 141.235C129.214 141.639 129.602 142.408 130.427 142.086C130.427 142.086 145.076 135.674 146.864 134.625C147.213 134.18 147.026 133.677 146.447 133.904Z" fill="#212329"/>
<path d="M97.6167 99.9625C97.6123 100.249 97.5041 100.418 97.1003 100.707C91.6298 104.245 85.8297 107.231 80.1556 110.418C79.8921 110.582 79.6375 110.443 79.5332 110.233C78.101 109.151 67.6481 98.9696 67.6481 98.9696C67.424 98.7438 67.2199 98.5231 67.0906 98.2252C67.0662 98.1536 67.0634 98.0843 67.0779 98.0177L67.0773 98.0066C66.9674 95.9675 66.5398 93.3876 66.5658 91.3496C66.5653 91.3302 66.5675 91.3107 66.5697 91.2913C66.5697 91.2886 66.572 91.283 66.572 91.2802C66.5742 91.2636 66.5736 91.2497 66.5786 91.2325C66.5808 91.2159 66.5858 91.1987 66.5908 91.182C66.6496 90.9496 66.8238 90.6884 67.1317 90.5036C72.5034 87.2436 78.9891 83.7662 83.9548 81.5518C84.1617 81.4253 84.7114 81.5235 84.8263 81.6339C88.8163 85.427 94.4244 90.7399 96.7492 93.4508C96.7492 93.4508 97.3033 93.747 97.3643 94.3322C97.3643 94.335 97.3643 94.3378 97.3643 94.3378C97.4869 95.5132 97.5002 97.1385 97.5873 98.3234C97.6189 99.0073 97.6051 99.2774 97.6167 99.9625Z" fill="#FFF4E6"/>
<path d="M80.0754 109.848C80.0593 107.668 80.0427 105.486 80.0266 103.306C85.6508 100.264 91.2744 97.223 96.8986 94.1815C96.8426 96.3155 96.7866 98.4494 96.7305 100.583C91.2079 103.726 85.6846 106.868 80.0754 109.848Z" fill="#E8DACC"/>
<path d="M67.1877 91.4358C70.8516 94.9476 74.5154 98.4595 78.1787 101.971C78.76 102.529 79.3575 103.109 79.6626 103.854C80.4686 105.823 78.9958 108.249 79.9854 110.133C75.8212 106.01 71.6576 101.888 67.4701 97.8022C67.4939 95.5883 67.5183 93.3734 67.1877 91.4358Z" fill="#D3C2B3"/>
<path d="M83.0509 94.6082C82.5905 95.9056 82.1295 97.2031 81.6691 98.5006C81.4899 99.0059 81.2598 99.5717 80.801 99.7991C80.3234 100.036 79.7853 99.7714 79.5429 99.3309C79.3011 98.8905 79.2916 98.3236 79.3321 97.7805C79.3937 96.9496 79.5579 96.1136 79.8186 95.3021C79.9384 94.9293 80.081 94.5355 80.0105 94.1738C79.8996 93.6014 79.3233 93.3579 78.8207 93.1615C77.6381 92.6994 76.5153 92.0992 75.4753 91.3737C75.0537 91.0797 74.601 90.6165 74.7774 90.0529C74.9544 89.486 75.6239 89.2896 76.1603 89.2547C77.2131 89.1865 78.2543 89.319 79.2201 89.6435C79.691 89.8016 80.2851 89.9714 80.6723 89.5564C80.9097 89.3018 80.9574 88.9274 81.0168 88.5874C81.1788 87.6588 81.5399 86.7446 82.0624 85.9403C82.3209 85.5431 82.672 85.1388 83.0981 85.0899C83.6888 85.0223 84.0521 85.6568 84.203 86.2482C84.4815 87.3404 84.4532 88.5585 84.1226 89.7173C83.9717 90.2471 83.7559 90.8062 83.8746 91.3093C84.0028 91.8513 84.4953 92.1713 85.0068 92.2812C85.5182 92.3916 86.0646 92.3372 86.5932 92.3749C87.3388 92.4276 88.051 92.6656 88.6612 93.0666C88.9513 93.2569 89.2375 93.5204 89.2653 93.9015C89.2997 94.3724 88.9031 94.8389 88.4704 95.0114C88.0377 95.1845 87.5834 95.1346 87.153 95.0702C85.8244 94.8705 84.5242 94.5532 83.0509 94.6082Z" fill="#5B6785"/>
<path d="M74.5294 91.0956C74.6941 91.3974 74.9637 91.8733 75.3753 91.6514C75.5966 91.5549 75.7231 91.2714 75.6781 91.0429C75.646 90.8804 75.5262 90.7789 75.4352 90.6568C75.4147 90.6213 75.3725 90.5476 75.3431 90.4821C75.3475 90.4999 75.3448 90.4976 75.3365 90.4671C75.3259 90.4427 75.317 90.4194 75.3137 90.4022C75.3215 90.4189 75.3259 90.4316 75.3309 90.4449C75.3281 90.435 75.327 90.4305 75.3237 90.4166C75.2516 90.0278 75.2954 90.0311 75.357 89.8597C75.3636 89.8492 75.3681 89.8414 75.3731 89.8331C75.3869 89.817 75.4008 89.8009 75.4158 89.7859C75.4491 89.7615 75.4979 89.7321 75.5362 89.7099C75.6066 89.6761 75.6776 89.6451 75.7503 89.6195C76.5091 89.3377 77.2924 89.7682 78.3258 90.2009C79.0757 90.4444 80.2195 91.1483 80.8913 90.1698C81.3262 89.3405 81.2407 88.3659 81.6357 87.5111C82.1582 86.2475 83.0391 85.107 83.433 85.7133C83.9361 86.1831 83.8856 87.632 83.5545 89.0815C83.4724 89.5097 83.5206 89.2673 83.4479 89.6678C83.4269 89.7482 83.4152 89.8592 83.423 89.8242C83.3897 90.0184 83.322 90.2242 83.3864 90.3983C83.499 90.8127 84.1247 90.7167 84.2345 90.2735C84.5457 88.6233 85.1742 86.7295 84.3732 85.2862C84.0265 84.6538 83.2488 84.2893 82.5504 84.7492C81.5886 85.3827 81.0167 86.5459 80.6295 87.6237C80.3588 88.4458 80.2667 89.5014 80.1613 89.6572C80.1596 89.66 80.158 89.6622 80.1563 89.665C78.9548 89.7577 77.1082 87.885 75.2128 88.8829C74.4306 89.2268 74.1577 90.3401 74.5294 91.0956Z" fill="#3C4661"/>
<path d="M76.1069 92.2667C76.4031 92.6311 76.9145 92.7426 77.3167 92.9573C78.0755 93.3012 79.3824 93.7871 79.6953 94.0939C79.6969 94.0961 79.6975 94.0967 79.6986 94.0983C79.7008 94.1022 79.7025 94.1061 79.7047 94.11C79.7097 94.1322 79.7136 94.1555 79.7164 94.1788C79.6953 94.5781 79.6564 94.6663 79.5128 95.2549C79.2166 96.7321 78.3534 99.2349 79.6121 100.179C80.2195 100.558 81.1197 100.363 81.6096 99.6781C82.2885 98.7035 82.5759 97.5126 82.8993 96.3981C83.0618 95.8007 83.1605 95.2455 83.338 94.9603C83.3425 94.9554 83.3452 94.952 83.3502 94.9465C83.3536 94.9431 83.3558 94.9415 83.3586 94.9382C83.5072 94.8616 83.4318 94.8566 83.8229 94.8977C84.9755 95.1173 86.0894 95.4768 87.2598 95.631C88.098 95.692 88.4619 95.7541 89.1536 95.3303C90.2136 94.5199 89.8852 92.8735 89.011 92.2994C88.1285 91.7902 87.0762 91.6116 86.0711 91.4124C85.2618 91.246 84.1939 91.0036 83.723 90.9659C83.1505 90.8527 82.8749 91.8152 83.4434 91.9394C84.0392 92.0348 85.3744 92.3499 86.3512 92.5268C87.5793 92.8092 88.5268 92.9928 88.762 93.5763C88.8818 93.9086 88.8829 93.7838 88.8574 94.2697C88.8557 94.2747 88.8541 94.2786 88.853 94.2825C88.8224 94.3441 88.7858 94.4023 88.7476 94.4594C88.7359 94.4722 88.7265 94.4839 88.7081 94.501C88.2056 94.9997 85.5014 94.151 83.7014 93.872C82.4982 93.9064 82.319 94.9381 82.08 95.9022C81.7604 97.1292 81.4842 98.1749 80.9833 99.0186C80.7048 99.4551 80.2677 99.4685 80.0686 99.2127C79.8628 99.0707 79.8789 97.9469 79.9976 97.37C80.1396 96.5135 80.3742 95.6665 80.5601 94.815C80.6283 94.47 80.6893 94.1133 80.6222 93.7805C80.4447 93.1043 79.738 92.8941 79.1949 92.645C78.8083 92.4769 77.4931 91.9649 76.7714 91.5417C76.3992 91.312 75.89 91.8612 76.1069 92.2667Z" fill="#3C4661"/>
<path d="M97.3425 94.11C97.1733 93.6807 96.4816 93.8471 96.5138 94.3058C96.4916 96.0598 96.6746 97.8093 96.6957 99.5633C96.709 99.6587 96.7062 99.768 96.7023 99.8801C92.6419 102.475 82.1341 108.27 80.4289 109.249C80.4156 108.849 80.4023 108.449 80.3889 108.049C80.3091 106.654 80.3562 105.23 80.1898 103.85C80.0206 103.422 79.3306 103.588 79.3627 104.045C79.3905 105.529 79.4415 107.012 79.4903 108.496C79.4975 108.688 79.5042 108.881 79.5103 109.073C78.0026 107.679 67.6906 97.6651 67.6906 97.6651C67.355 97.512 66.9722 97.8776 67.092 98.2248C67.2196 98.5238 67.426 98.7446 67.6479 98.9709C67.6479 98.9709 78.1008 109.151 79.5347 110.233C79.639 110.444 79.8919 110.583 80.1554 110.42C85.8312 107.231 91.629 104.245 97.1023 100.709C97.5405 100.463 97.6237 100.213 97.6187 99.9622C97.6054 99.2776 97.6187 99.0081 97.5888 98.3241C97.4945 97.0621 97.4895 95.357 97.3425 94.11Z" fill="#212329"/>
<path d="M96.6761 93.8709C93.7239 95.6121 80.8126 102.534 80.8126 102.534C80.1358 102.995 80.5862 103.73 81.3811 103.34C81.3811 103.34 95.4552 95.7475 97.1504 94.5554C97.4627 94.0828 97.2341 93.5969 96.6761 93.8709Z" fill="#212329"/>
<path d="M174.692 120.864C174.886 118.892 174.801 116.897 174.965 114.922C174.969 114.864 174.975 114.805 174.978 114.745C175.03 114.575 174.993 114.38 174.82 114.261C171.715 112.49 162.454 107.115 158.626 104.931L158.026 104.957C154.346 108.23 150.811 111.224 147.253 114.633C146.487 115.389 145.649 116.191 145.079 116.804C145.029 116.833 144.981 116.87 144.94 116.923C144.872 117.009 144.855 117.117 144.843 117.222C144.769 117.89 144.715 118.561 144.644 119.23C144.566 120.383 144.611 121.823 144.597 122.972C144.548 123.133 144.583 123.319 144.748 123.432C149.054 126.373 159.74 133.071 161.124 133.812C161.289 133.9 161.448 134.035 161.646 133.995C161.722 133.984 161.79 133.951 161.847 133.906C161.91 133.895 161.974 133.871 162.031 133.821C162.67 133.303 163.215 132.677 163.799 132.099C165.103 130.783 166.471 129.536 167.812 128.26C170.069 126.119 172.454 124.106 174.552 121.804C174.672 121.666 174.677 121.013 174.692 120.864Z" fill="#FFF4E6"/>
<path d="M145.607 117.095C150.855 120.149 156.103 123.202 161.351 126.255C161.639 126.422 161.939 126.601 162.112 126.887C162.334 127.256 162.297 127.719 162.253 128.147C162.061 129.993 161.87 131.838 161.679 133.684C156.06 130.162 150.44 126.639 144.82 123.117C144.988 120.936 145.155 118.756 145.607 117.095Z" fill="#D3C2B3"/>
<path d="M174.214 114.737C174.552 117.044 174.637 119.389 174.465 121.714C170.072 125.151 165.94 128.922 162.118 132.984C161.752 130.735 161.431 128.252 162.654 126.33C163.088 125.648 163.689 125.091 164.282 124.542C167.753 121.336 171.223 118.129 174.214 114.737Z" fill="#E8DACC"/>
<path d="M159.505 110.259C157 112.371 154.762 114.707 152.826 117.227C152.668 117.433 152.507 117.661 152.551 117.925C152.629 118.398 153.355 118.706 153.886 118.616C154.417 118.527 154.784 118.177 155.12 117.843C155.995 116.973 156.87 116.104 157.745 115.234C159.195 116.052 160.734 116.742 162.32 117.285C163.026 117.526 163.776 117.743 164.478 117.667C165.156 117.594 165.712 117.253 166.138 116.841C166.98 116.024 167.387 114.817 166.907 113.67C166.357 112.352 164.836 111.426 163.423 110.624C162.748 110.24 162.042 109.847 161.277 109.731C160.512 109.614 159.85 109.969 159.505 110.259Z" fill="#5B6785"/>
<path d="M159.235 114.161C159.643 113.3 160.226 112.515 160.957 111.846C161.125 111.691 161.31 111.539 161.557 111.478C162.041 111.358 162.6 111.618 163.066 111.887C163.569 112.176 164.064 112.498 164.431 112.908C164.799 113.319 165.028 113.833 164.927 114.288C164.818 114.785 164.339 115.134 163.798 115.324C162.377 115.823 160.401 115.303 159.235 114.161Z" fill="#FFF4E6"/>
<path d="M165.43 114.493C165.581 113.583 164.883 112.664 163.974 112.065C163.73 111.896 163.473 111.74 163.208 111.597C163.097 111.532 162.96 111.507 162.843 111.535C162.705 111.565 162.616 111.662 162.596 111.78C162.574 111.927 162.688 112.096 162.858 112.17C162.855 112.169 162.846 112.165 162.837 112.159C162.901 112.197 162.965 112.234 163.03 112.271C162.823 112.153 163.079 112.298 163.15 112.344C164.386 113.074 164.792 113.851 164.553 114.506C164.103 115.552 162.329 115.512 160.73 114.746C160.222 114.521 159.79 114.267 159.607 114.154C160.137 113.546 160.66 112.931 161.206 112.333C161.425 112.077 161.751 111.775 161.753 111.679C161.851 111.432 161.491 111.142 161.198 111.218C160.998 111.261 160.852 111.511 160.585 111.783C159.984 112.479 159.025 113.473 158.718 113.997C158.685 114.083 158.704 114.167 158.752 114.24C158.769 114.316 158.813 114.391 158.897 114.45C159.656 115.055 161.479 115.945 162.857 115.996C164.076 116.098 165.287 115.526 165.43 114.493Z" fill="#3C4661"/>
<path d="M158.955 110.176C156.832 112.305 154.814 114.511 152.904 116.788C152.731 117.008 152.737 117.012 152.688 117.083C152.767 116.968 152.534 117.256 152.595 117.343C152.634 117.633 153.118 117.794 153.313 117.58C155.327 115.186 157.451 112.864 159.668 110.609C160.027 110.221 159.275 109.76 158.955 110.176Z" fill="#3C4661"/>
<path d="M165.122 111.34C164.005 110.499 162.638 109.962 161.3 109.496C160.965 109.386 160.628 109.284 160.289 109.195C160.058 109.122 159.813 109.238 159.793 109.432C159.764 109.639 159.972 109.834 160.218 109.874C160.515 109.956 160.811 110.042 161.105 110.138C161.46 110.272 162.972 110.81 163.656 111.214C165.838 112.35 167.246 114.568 165.991 116.066C164.729 117.537 162.698 117.269 160.415 116.182C159.802 115.901 159.217 115.572 158.619 115.266C158.254 115.082 157.842 114.846 157.44 114.935C157.272 114.979 157.145 115.085 157.039 115.196C156.819 115.419 156.596 115.64 156.377 115.864C155.749 116.518 155.024 117.478 154.211 118.136C153.811 118.461 153.495 118.297 153.455 118.295C153.406 118.288 153.357 118.278 153.308 118.265C153.275 118.252 153.244 118.236 153.213 118.22C153.172 118.192 153.134 118.162 153.097 118.129C153.07 118.102 153.037 118.067 153.021 118.045C153.012 118.034 153.005 118.023 152.997 118.012C152.975 117.964 152.949 117.916 152.901 117.881C152.671 117.645 152.223 117.785 152.285 118.068C152.561 119.046 154.04 119.272 154.791 118.581C154.796 118.575 154.804 118.573 154.81 118.567C154.815 118.562 154.82 118.557 154.825 118.551C154.834 118.542 154.843 118.533 154.852 118.523C155.728 117.616 157.164 116.297 157.749 115.627C157.754 115.623 157.76 115.622 157.765 115.618C159.179 116.209 162.329 118.254 164.678 117.7C165.703 117.471 166.561 116.88 166.987 116.078C167.864 114.529 166.768 112.561 165.122 111.34Z" fill="#3C4661"/>
<path d="M151.671 88.1363C151.866 86.1643 151.781 84.169 151.945 82.1943C151.949 82.1366 151.955 82.0772 151.958 82.0173C152.01 81.8476 151.973 81.6523 151.8 81.5336C148.695 79.763 139.434 74.3873 135.605 72.204L135.006 72.23C131.326 75.5028 127.791 78.4971 124.233 81.9058C123.467 82.6619 122.629 83.4634 122.059 84.0769C122.009 84.1058 121.961 84.1424 121.92 84.1956C121.852 84.2822 121.835 84.3892 121.823 84.4952C121.749 85.1631 121.695 85.8337 121.624 86.5027C121.546 87.6559 121.591 89.0954 121.577 90.2447C121.528 90.4062 121.563 90.5914 121.728 90.7046C126.034 93.6462 136.72 100.344 138.104 101.084C138.269 101.172 138.428 101.308 138.626 101.267C138.702 101.256 138.77 101.224 138.827 101.179C138.89 101.167 138.954 101.144 139.011 101.094C139.65 100.576 140.195 99.9493 140.779 99.3713C142.083 98.0561 143.451 96.8086 144.792 95.5328C147.049 93.3921 149.434 91.3791 151.532 89.0771C151.652 88.9378 151.657 88.2855 151.671 88.1363Z" fill="#FFF4E6"/>
<path d="M122.083 90.4267C122.208 88.3987 122.333 86.3702 122.458 84.3422C128.387 86.8849 133.172 91.6665 139.187 93.9974C138.965 96.2268 138.744 98.4567 138.522 100.686C133.991 97.9358 129.459 95.1856 124.928 92.4348C123.91 91.8174 122.884 91.1928 122.083 90.4267Z" fill="#D3C2B3"/>
<path d="M138.963 100.289C139.699 97.9874 138.723 95.2815 139.894 93.167C140.319 92.3998 140.986 91.8007 141.64 91.2172C144.935 88.2822 148.23 85.3467 151.525 82.4117C150.755 84.4675 151.63 86.9698 150.497 88.8502C150.188 89.3645 149.75 89.786 149.317 90.2015C145.816 93.5591 142.316 96.9162 138.963 100.289Z" fill="#E8DACC"/>
<path d="M129.313 85.2872C130.765 87.1843 132.982 88.311 135.12 89.3754C135.512 89.5701 135.918 89.7687 136.354 89.7865C136.791 89.8042 137.268 89.5901 137.418 89.1796C137.641 88.5645 137.06 87.9715 136.529 87.5887C135.103 86.5603 133.586 85.6589 132.001 84.8978C132.467 83.8589 133.268 82.9741 134.256 82.4072C135.502 83.4783 137.001 84.2533 138.596 84.6493C138.942 84.7353 139.343 84.7936 139.627 84.5778C139.946 84.3359 139.963 83.8367 139.772 83.4844C139.582 83.1322 139.24 82.892 138.91 82.6651C138.109 82.1143 137.309 81.5635 136.508 81.0121C136.344 80.899 136.163 80.7592 136.148 80.5606C136.133 80.372 136.274 80.2111 136.406 80.0752C136.857 79.6076 137.37 79.1106 138.018 79.0612C138.579 79.0185 139.099 79.3247 139.578 79.6192C140.517 80.1984 141.456 80.7775 142.396 81.3566C142.805 81.609 143.313 81.8669 143.74 81.6467C144.056 81.4836 144.204 81.0925 144.169 80.7392C144.133 80.3858 143.948 80.0647 143.737 79.7784C142.733 78.4155 141.138 77.6406 139.607 76.9167C138.958 76.6094 138.258 76.2943 137.548 76.4036C136.847 76.5118 136.279 77.0121 135.762 77.498C134.207 78.9619 132.72 80.4951 131.234 82.0283C130.383 82.9059 129.481 83.8971 129.313 85.2872Z" fill="#5B6785"/>
<path d="M142.965 78.506C141.975 77.6895 140.88 76.9978 139.737 76.4181C138.831 75.9389 137.719 75.6144 136.743 76.0814C135.923 76.4431 134.576 78.0312 133.463 79.0497C132.036 80.5252 130.415 81.8715 129.284 83.5988C128.951 84.1663 128.689 84.8785 128.936 85.5259C129.449 86.5177 130.548 87.2083 131.476 87.7835C132.631 88.4403 133.759 89.1514 134.955 89.7339C135.508 89.968 136.08 90.328 136.701 90.2548C137.306 90.0983 137.982 89.4809 137.899 88.8081C137.826 88.27 137.404 87.8673 136.972 87.5794C136.362 87.1778 136.028 86.9853 135.551 86.6919C134.519 86.0578 133.191 85.35 132.269 84.8519C132.531 84.5468 132.811 84.2567 133.077 83.956C133.255 83.7963 133.386 83.5078 133.182 83.3154C132.885 83.0058 132.573 83.3653 132.375 83.5994C132.075 83.9328 131.771 84.2622 131.487 84.6089C131.378 84.7448 131.381 84.8907 131.443 85.0067C131.428 85.127 131.465 85.2524 131.581 85.3384C132.923 86.1266 134.651 87.0047 135.675 87.6837C137.362 88.6755 137.407 88.9789 136.587 89.4582C136.55 89.4632 136.512 89.4693 136.474 89.4682C136.3 89.4654 134.765 88.7981 134.05 88.3416C132.26 87.2743 130.381 86.44 129.665 85.2019C129.36 84.336 131.08 82.5277 132.348 81.253C133.468 80.123 134.613 79.0186 135.744 77.9003C136.503 77.1226 137.026 76.6611 137.787 76.6655C139.382 76.6539 143.912 79.7375 143.8 81.0172C143.763 81.2363 143.564 81.3656 143.12 81.2069C141.429 80.4137 140.245 79.5511 138.757 78.7002C138.544 78.5937 138.326 78.3746 138.073 78.4772C137.74 78.5915 137.726 79.0951 138.05 79.2288C139.291 79.9339 140.233 80.5635 141.595 81.3345C142.136 81.5985 142.651 81.963 143.253 82.0689C143.601 82.151 144.458 81.9685 144.594 81.2036C144.726 80.072 143.731 79.1961 142.965 78.506Z" fill="#3C4661"/>
<path d="M139.483 82.8111C138.572 82.0051 137.1 80.9384 136.25 80.478C136.306 80.3715 136.405 80.2328 136.664 79.9244C136.788 79.7624 136.986 79.6387 137.051 79.4413C137.12 79.2593 137.011 79.0485 136.839 78.9697C136.682 78.8971 136.479 78.9453 136.372 79.0812C136.537 78.9198 136.233 79.2105 136.169 79.2859C135.912 79.5816 135.663 79.8895 135.485 80.24C135.152 81.0166 135.837 81.0976 136.162 81.3472C136.778 81.6873 137.81 82.4871 138.611 83.1228C140.459 84.5895 139.11 84.7703 136.993 83.5705C136.37 83.2155 135.736 82.8804 135.121 82.5121C134.626 82.2658 134.652 82.141 134.17 81.9968C133.82 81.9635 133.637 82.4578 133.919 82.6674C134.757 83.2305 135.355 83.5583 136.338 84.1058C137.249 84.6011 138.831 85.5491 139.838 84.9539C140.197 84.6971 140.365 84.2117 140.225 83.7902C140.008 83.2726 139.713 83.0552 139.483 82.8111Z" fill="#3C4661"/>
</svg>
