<svg width="191" height="151" viewBox="0 0 191 151" fill="none" xmlns="http://www.w3.org/2000/svg">
<path d="M170.987 54.6267C170.987 54.6267 135.207 43.7423 100.657 36.4634C70.8687 30.1888 51.5348 56.491 41.0735 77.5835C32.905 94.0523 24.4989 103.232 71.963 104.866C119.427 106.499 163.365 83.4246 170.987 54.6267Z" fill="#A52612"/>
<path d="M42.3357 97.2295C43.3937 93.8875 44.6684 90.6322 46.1564 87.455C49.0301 81.3208 51.1893 75.4242 54.6024 69.5779C62.2888 56.413 68.383 50.6464 78.8165 45.0013C83.6916 42.3635 94.3315 39.0319 118.941 45.232C132.829 48.7318 146.263 53.7976 159.973 57.92C162.961 58.8184 165.965 59.5954 168.977 60.3012C169.799 58.4369 170.479 56.5447 170.987 54.6249C170.987 54.6249 135.207 43.7405 100.656 36.4617C70.8683 30.187 51.5344 56.4893 41.0732 77.5817C35.624 88.5667 30.0951 96.3033 41.087 100.728C41.5276 99.5586 41.9681 98.3949 42.3357 97.2295Z" fill="#FF9D12"/>
<path d="M60.1311 107.299C62.5019 106.449 67.3197 73.4698 93.041 58.959C119.751 43.8897 150.592 55.4782 164.131 75.3463C177.671 95.2143 181.417 113.763 150.049 126.726C118.682 139.688 60.1311 107.299 60.1311 107.299Z" fill="#A52612"/>
<path d="M22.6118 97.3526C22.6118 97.3526 29.36 87.3475 52.7781 77.8939C76.1962 68.4403 95.5109 72.424 111.777 82.6858C128.043 92.9476 141.624 104.489 158.476 101.725C175.33 98.9604 170.202 93.5893 156.135 77.8939C151.178 72.3633 138.23 51.2258 161.268 49.3961C176.714 48.1699 190.311 46.5241 190.311 46.5241C190.311 46.5241 180.011 99.994 175.798 118.58C171.584 137.167 146.771 162.628 96.8654 144.654C53.0555 128.875 22.6118 97.3526 22.6118 97.3526Z" fill="#A52612"/>
<path d="M179.563 99.5396C177.496 88.6153 172.479 80.7538 166.875 73.7958C160.625 66.0349 153.289 61.5171 151.818 52.2317C142.807 58.6035 152.11 73.4004 156.137 77.894C170.204 93.5876 175.332 98.9587 158.478 101.725C141.624 104.489 128.043 92.9476 111.779 82.6858C107.283 79.8502 102.544 77.5176 97.5611 75.7903C102.63 80.4486 106.779 86.2116 109.663 92.1758C113.112 99.309 115.395 107.63 110.854 114.751C106.817 121.081 99.8451 125.209 93.1595 128.22C86.8987 131.038 80.2303 133.051 73.4492 134.271C80.6951 138.084 88.5376 141.655 96.8674 144.655C146.775 162.631 171.588 137.169 175.8 118.582C176.83 114.04 178.225 107.406 179.742 99.9853C179.676 99.8362 179.593 99.6957 179.563 99.5396Z" fill="#A52612"/>
<path d="M27.1071 101.661C30.3294 98.0239 45.7473 89.7374 59.684 86.4492C73.626 83.1593 86.0868 84.8693 91.7527 86.8342C101.602 90.2525 131.362 107.306 141.976 108.596C150.615 109.645 162.212 109.179 169.022 102.918C172.539 99.6853 173.556 94.8397 172.257 90.2959C171.091 86.2168 167.647 82.8315 165.013 79.6699C160.991 74.8434 155.54 68.2583 158.637 61.5951C161.175 56.1408 168.296 54.9493 173.616 54.2313C178.629 53.555 183.923 53.6451 189.046 53.0572C189.834 49.0025 190.311 46.5259 190.311 46.5259C190.311 46.5259 176.714 48.1717 161.268 49.3979C138.23 51.2275 151.178 72.3651 156.135 77.8957C170.202 93.5893 175.33 98.9604 158.476 101.727C141.622 104.491 128.041 92.9493 111.777 82.6875C95.5109 72.4275 76.1979 68.4421 52.7781 77.8957C29.36 87.3493 22.6118 97.3544 22.6118 97.3544C22.6118 97.3544 24.1866 98.9777 27.1071 101.661Z" fill="#FFBD4A"/>
<path d="M140.803 31.3629C136.169 23.7442 128.582 12.0186 128.556 8.57261C127.285 11.233 126.79 14.0009 126.999 16.6544C125.249 15.789 123.447 15.1698 121.492 14.6183C124.477 22.988 120.859 29.5801 119.94 31.0507C119.798 28.81 120.407 25.9953 120.337 24.4916C120.261 22.8128 119.964 21.115 119.451 19.516C118.298 15.9295 116.107 12.7678 113.164 10.4196C107.854 6.18447 100.369 5.22716 93.3967 4.40858C84.9316 0.749226 79.179 0 79.179 0L82.632 10.4335C80.9514 9.40853 79.0368 8.6784 76.803 8.34021C72.495 7.68812 68.0778 8.25695 63.8045 7.29962C58.8341 6.18621 55.0116 2.48004 50.7158 0.0537731C53.867 3.31771 56.9159 5.96943 60.5822 7.61006C50.8303 6.20356 45.2961 2.03258 45.2961 2.03258C45.2961 2.03258 44.4238 5.51158 47.6218 10.5341C44.9528 9.98778 42.1814 9.84209 39.2626 10.2999C33.1596 11.259 27.8197 14.2333 22.8995 17.8233C16.5572 20.7161 12.3568 25.4247 12.1729 25.2235L27.0376 29.1742C27.0376 29.1742 16.8556 30.8409 10.8862 41.0229C4.91673 51.2049 0 59.5434 0 59.5434C0 59.5434 9.83341 63.8167 17.5579 64.3578C25.2825 64.8989 40.0343 51.1615 40.0343 51.1615L34.7482 64.3578C34.7482 64.3578 45.9986 58.756 50.9153 53.5757C55.8303 48.3954 60.1313 40.6708 60.1313 40.6708V54.7151C60.1313 54.7151 72.8089 53.7821 80.3895 49.0977C88.3447 44.1828 91.6034 39.273 91.6034 39.273L87.4325 51.0297C87.4325 51.0297 100.193 54.122 107.179 54.0231C114.165 53.9243 128.865 52.6652 128.865 52.6652C128.865 52.6652 123.422 58.012 121.315 59.1063C136.414 64.3734 148.19 62.7206 148.19 62.7206C148.19 62.7206 148.178 43.4856 140.803 31.3629ZM29.8489 15.7942C29.3199 15.8601 28.8048 15.9572 28.2914 16.0595C31.4132 14.2108 34.7361 12.7557 38.3364 12.036C42.1328 11.2764 45.6603 11.5625 49.0335 12.4834C49.8955 13.5639 50.9222 14.6912 52.2038 15.8618C44.4793 14.9374 41.4356 14.3426 29.8489 15.7942ZM71.81 9.51086C75.0184 9.58023 78.2685 9.73458 81.1353 11.1966C81.9486 11.6111 82.6805 12.121 83.3743 12.6759L84.8536 17.1452C84.8536 17.1452 79.6819 12.1366 71.81 9.51086ZM118.537 27.8839C116.617 23.1666 112.092 14.7051 102.868 9.24551C101.159 8.23442 99.5014 7.33258 97.9076 6.52613C104.224 7.47652 110.481 9.15012 114.477 13.7859C118.041 17.9222 118.971 22.6984 118.537 27.8839Z" fill="#F8F4B4"/>
<path d="M17.9545 15.2696L17.9099 15.2044C17.9099 15.2044 17.9185 15.2301 17.9545 15.2696Z" fill="#F8F4B4"/>
<path d="M32.0724 24.1361C31.6042 24.287 21.0701 23.6592 14.2821 31.6005C9.38098 37.3341 0.706055 43.3642 0.706055 43.3642C0.706055 43.3642 7.96237 40.0864 15.1024 35.2876C22.2425 30.4888 29.0305 30.4888 29.0305 30.4888L32.0724 24.1361Z" fill="#F8F4B4"/>
<path d="M17.9099 61.7389C18.3782 61.8568 25.2806 64.4167 32.0721 58.9589C38.8636 53.501 41.7859 47.9288 41.7859 47.9288C41.7859 47.9288 41.2014 54.0144 40.8493 54.3665C40.4973 54.7168 37.4554 60.4018 28.7943 62.7691C20.135 65.1347 17.9099 61.7389 17.9099 61.7389Z" fill="#F8F4B4"/>
<path d="M59.939 33.7493C60.4385 34.2175 60.513 45.1193 55.9484 50.9708C51.3837 56.8222 47.4053 60.5683 47.4053 60.5683C47.4053 60.5683 60.65 52.96 62.2889 43.3624C63.9279 33.7666 59.939 33.7493 59.939 33.7493Z" fill="#F8F4B4"/>
<path d="M147.99 65.4763C147.16 65.1155 140.425 53.3397 134.368 43.6763C128.31 34.0128 118.287 35.5563 108.87 28.4752C99.4529 21.3924 96.4994 15.2044 96.4994 15.2044C96.4994 15.2044 96.4994 19.3233 99.3263 23.7232C102.153 28.1214 106.461 31.6004 106.461 31.6004C106.461 31.6004 95.2073 30.3465 83.8911 26.9369C77.7413 25.0847 71.3435 21.63 67.1604 19.9928C55.6152 15.4715 41.7842 23.2914 41.7842 23.2914C41.7842 23.2914 55.7314 20.8183 62.6807 23.7631C69.4722 26.642 73.4437 28.9469 73.4437 28.9469C73.4437 28.9469 54.5747 24.195 38.6487 30.1245C24.1569 35.5199 17.9534 50.8597 17.9534 50.8597C17.9534 50.8597 34.0545 38.7405 44.658 37.5542C55.2614 36.368 67.5142 41.72 81.1804 40.3395C94.8466 38.959 97.8608 36.42 105.417 37.5542C117.143 39.3128 118.634 45.7938 118.634 45.7938C118.634 45.7938 110.398 46.1667 102.859 47.8663C95.3183 49.5642 93.0412 58.9588 93.0412 58.9588C93.0412 58.9588 98.7296 50.525 108.27 50.3221C119.942 50.074 125.951 53.4906 134.669 59.408C142.38 64.6421 147.99 65.4763 147.99 65.4763Z" fill="#FFD0AD"/>
<path d="M33.4663 46.3021C33.4663 46.3021 36.7649 40.964 46.5429 42.1415C56.3225 43.3191 72.3439 36.134 72.3439 36.134L74.092 37.5474C74.092 37.5474 61.8566 44.9788 52.9042 44.5609C43.9536 44.1446 39.3577 43.7475 33.4663 46.3021Z" fill="#FFD0AD"/>
<path d="M78.3309 34.9547C78.3309 34.9547 77.2938 40.8547 72.8176 44.5609C68.3414 48.2671 64.3352 48.9746 64.3352 48.9746C64.3352 48.9746 71.2862 49.5643 75.9983 44.3216C80.7103 39.0788 82.9736 36.5381 82.9736 36.5381L78.3309 34.9547Z" fill="#FFD0AD"/>
</svg>
