<svg width="209" height="179" viewBox="0 0 209 179" fill="none" xmlns="http://www.w3.org/2000/svg">
<path d="M45.2599 41.6168C46.7332 37.9224 53.0223 33.9918 54.4352 33.5029C55.3718 33.1789 55.7098 33.2766 57.3818 33.2622C71.2308 33.1433 128.42 37.216 129.936 37.3637C131.635 37.5293 130.792 38.7084 131.214 40.0843C131.635 41.46 158.364 122.824 158.364 125.183C158.364 127.541 153.242 136.949 151.283 137.355C149.323 137.761 82.8952 146.801 79.3577 147.195C75.8201 147.588 69.138 147.981 68.0609 145.512C67.0618 143.221 44.3777 43.8287 45.2599 41.6168Z" fill="#EF7E6C"/>
<path d="M157.42 125.894C151.536 126.539 145.648 127.183 139.764 127.824L137.626 128.056L108.444 131.248C107.12 131.393 105.799 131.535 104.474 131.68C95.5636 132.655 86.6529 133.63 77.742 134.601C77.7931 134.84 77.8442 135.08 77.8953 135.32C78.0564 136.059 76.9165 136.373 76.7594 135.63C75.1949 128.347 73.6267 121.06 72.0622 113.772C69.2675 100.762 66.4728 87.7512 63.6742 74.7368C62.3654 68.6325 61.0525 62.5322 59.7436 56.4279C58.4189 50.2804 57.0983 44.129 55.7776 37.9774C55.6164 37.2188 55.4513 36.4602 55.2902 35.7015C55.129 34.9626 56.269 34.6481 56.4262 35.3911C56.5913 36.1576 56.7564 36.9201 56.9215 37.6865C58.3208 44.2035 59.7241 50.7284 61.1233 57.2493C61.1587 57.4066 61.1902 57.5637 61.2255 57.7209C63.9849 70.5742 66.7481 83.4274 69.5113 96.2845C72.1724 108.67 74.8334 121.059 77.4944 133.449C83.2253 132.824 88.9562 132.195 94.687 131.57C98.0989 131.197 101.511 130.823 104.922 130.454C111.95 129.683 118.978 128.917 126.006 128.15C129.744 127.741 133.486 127.333 137.224 126.924C143.958 126.189 150.687 125.454 157.42 124.715C158.175 124.633 158.167 125.816 157.42 125.894Z" fill="#2B0B0B"/>
<path d="M155.482 115.242C153.501 115.179 149.693 113.988 148.513 113.591C147.263 113.167 146.018 112.731 144.771 112.282C142.083 111.319 139.402 110.329 136.721 109.346C131.816 107.55 126.887 105.675 121.813 104.405C119.922 103.934 110.685 100.844 110.017 105.53C109.23 111.032 124.831 114.79 128.491 117.321C131.773 119.593 135.868 123.976 137.224 126.924C133.486 127.333 129.744 127.742 126.006 128.15C118.978 128.917 111.95 129.683 104.922 130.454C109.793 117.388 97.8237 111.052 91.346 106.721C87.2189 103.957 82.2899 98.8395 84.0744 94.9168C88.005 86.2694 101.118 89.2959 105.339 87.1734C108.153 85.7623 108.896 83.5061 106.428 81.2932C100.846 76.2973 93.8381 73.3415 87.0617 70.3464C81.6925 67.9762 76.3192 65.5549 70.8949 63.1965C67.4949 61.7147 64.1028 60.0323 61.2255 57.7211C61.1901 57.5639 61.1587 57.4067 61.1233 57.2494C59.724 50.7285 58.3207 44.2036 56.9214 37.6866C58.9536 37.5452 62.0508 38.7047 63.5878 39.8328C73.8546 47.3561 77.0817 51.2355 84.8605 54.8243C100.19 61.8994 124.953 44.6046 135.491 53.1891C138.53 62.5049 142.767 75.5034 146.768 87.9006C145.962 88.101 145.153 88.282 144.339 88.4352C142.26 88.8204 140.153 89.0602 138.038 89.1389C134.088 89.2922 130.169 88.3763 126.223 88.6869C125.401 88.7499 124.061 88.8401 123.581 89.6577C123.023 90.6168 123.99 91.851 124.56 92.5585C127.689 96.4538 132.63 98.1794 137.606 98.6353C140.723 98.9222 146.634 98.8908 150.361 99.0677C152.326 105.207 154.103 110.808 155.482 115.242Z" fill="#647DF9"/>
<path d="M197.974 80.3669C197.284 78.3726 196.46 76.4259 195.528 74.55C189.471 62.3482 181.863 55.6739 173.153 45.459C168.673 40.2054 163.594 35.147 158.11 30.9244C156.244 29.4875 154.3 28.1498 152.268 26.9568C151.356 26.4209 150.388 25.9223 149.336 25.8048C146.809 25.5221 144.524 28.1575 144.832 30.6094C144.955 31.5902 145.435 32.46 145.975 33.27C146.099 33.4568 147.107 35.3283 147.194 35.3471C141.496 32.8139 135.339 31.4095 129.124 32.6064C127.847 32.8523 126.594 33.3976 125.705 34.3467C122.938 37.3023 125.878 40.8559 129.533 40.6749C132.055 40.5502 135.049 40.0813 137.26 41.6594C136.874 41.3834 134.478 42.2693 133.982 42.3964C132.756 42.7112 131.54 43.0689 130.34 43.4764C127.979 44.2787 125.158 44.8637 124.449 47.6495C124.045 49.2329 124.588 51.0203 125.804 52.1121C123.761 54.3082 124.516 58.612 127.704 59.2432C128.937 59.4873 130.215 59.196 131.396 58.7651C136.574 56.8751 141.473 55.3173 147.06 55.244C149.194 55.2159 151.41 55.3 153.466 55.9268C154.686 56.2988 155.857 56.925 156.693 57.8887C157.729 59.0844 158.563 61.8208 156.994 62.9486C156.062 63.618 154.618 63.8177 153.516 64.0257C152.215 64.2713 150.901 64.3606 149.59 64.3263C149.459 64.3277 149.113 65.4611 149.055 65.5973C148.513 66.8562 147.643 67.9637 146.93 69.1282C145.975 70.689 145.17 72.3404 144.156 73.8614C143.959 74.1338 143.743 74.3731 143.52 74.5976C151.682 78.2602 159.289 83.0309 165.968 89.0859C169.579 92.3593 172.722 95.9752 175.889 99.6607C179.55 103.921 184.527 107.848 190.051 109.258C193.86 110.231 196.404 108.585 197.954 105.107C201.47 97.2176 200.742 88.3658 197.974 80.3669Z" fill="#FFB7B3"/>
<path d="M127.252 51.7208C134.256 46.9774 142.698 44.0482 151.223 45.338C153.935 45.7484 156.58 46.5485 159.083 47.6697C159.769 47.9775 160.37 46.9617 159.678 46.6515C155.25 44.6674 150.451 43.6493 145.593 43.891C141.2 44.1095 136.919 45.2969 132.935 47.1331C130.745 48.1424 128.653 49.3509 126.657 50.7025C126.032 51.1258 126.622 52.1478 127.252 51.7208Z" fill="#2B0B0B"/>
<path d="M137.972 41.4246C143.98 39.7173 150.817 38.8302 156.724 41.3808C157.414 41.6785 158.015 40.663 157.32 40.3626C151.094 37.675 144.01 38.4824 137.658 40.2875C136.929 40.4946 137.239 41.6327 137.972 41.4246Z" fill="#2B0B0B"/>
<path d="M147.947 36.3614C150.053 36.8955 152.217 37.7195 153.973 39.0224C154.229 39.2123 154.631 39.0646 154.78 38.8109C154.955 38.5107 154.825 38.1946 154.568 38.0043C153.66 37.3304 152.639 36.8137 151.602 36.371C150.517 35.9081 149.404 35.5145 148.261 35.2245C147.525 35.0376 147.211 36.1746 147.947 36.3614Z" fill="#2B0B0B"/>
<path d="M188.102 14.7604C185.606 16.3837 183.114 18.011 180.633 19.658C173.157 24.6262 166.153 30.1646 159.046 35.7146C152.966 40.4628 146.802 45.1206 141.079 50.3169C140.871 50.5055 140.663 50.6982 140.454 50.8869C139.782 51.504 139.114 52.129 138.458 52.7657C138.061 53.139 137.66 53.5125 137.263 53.8939C136.842 54.2869 136.425 54.68 136.005 55.077C133.395 57.5572 126.528 62.7731 128.835 65.3005C129.044 65.5285 129.358 65.6111 129.763 65.5678C129.81 65.5639 129.854 65.56 129.905 65.5482C129.956 65.5403 130.007 65.5325 130.062 65.5168C130.125 65.505 130.187 65.4892 130.254 65.4696C130.494 65.4027 130.757 65.3084 131.037 65.1866C131.103 65.1591 131.174 65.1276 131.245 65.0923C131.552 64.9508 131.874 64.7817 132.216 64.5892C132.412 64.4792 132.617 64.3573 132.825 64.2315C133.395 63.8857 134.004 63.4886 134.645 63.0484C134.9 62.8716 135.164 62.6908 135.427 62.502C135.443 62.4941 135.459 62.4824 135.47 62.4706C135.62 62.3645 135.773 62.2584 135.922 62.1483C136.434 61.7867 136.956 61.4055 137.487 61.0124C137.907 60.7018 138.336 60.3836 138.764 60.0612C139.492 59.5226 140.223 58.9724 140.958 58.4259C141.539 57.9936 142.121 57.5651 142.695 57.1445C142.962 56.9519 143.226 56.7553 143.489 56.5588C144.075 56.1226 144.656 55.6784 145.234 55.2304C149.452 51.9561 153.469 48.3714 157.573 44.8889C167.132 36.7878 176.463 28.2779 185.767 19.6973C186.887 18.6675 187.996 17.6259 189.041 16.5134C189.961 15.5308 191.168 14.4184 191.569 13.0583C190.303 13.3414 189.186 14.0528 188.102 14.7604Z" fill="#F99F4E"/>
<path d="M145.234 55.2304C144.656 55.6784 144.074 56.1226 143.489 56.5588C143.225 56.7554 142.962 56.9519 142.694 57.1445C142.121 57.5651 141.539 57.9936 140.957 58.4259C140.222 58.9724 139.491 59.5226 138.764 60.0612C138.335 60.3835 137.907 60.7018 137.486 61.0124C136.956 61.4055 136.433 61.7867 135.922 62.1484C135.773 62.2584 135.619 62.3645 135.47 62.4706C135.458 62.4824 135.442 62.4943 135.427 62.5021C135.163 62.6907 134.9 62.8715 134.644 63.0484C134.004 63.4887 133.394 63.8857 132.825 64.2315C132.616 64.3572 132.412 64.4792 132.215 64.5892C131.873 64.7819 131.551 64.9509 131.244 65.0923C131.174 65.1276 131.103 65.1592 131.036 65.1866C130.757 65.3085 130.494 65.4028 130.254 65.4697C130.187 65.4893 130.124 65.505 130.061 65.5168C130.006 65.5325 129.955 65.5404 129.904 65.5482C129.853 65.5601 129.81 65.564 129.763 65.5679C129.358 65.6111 129.043 65.5285 128.835 65.3005C126.528 62.7732 133.394 57.5572 136.004 55.077C136.425 54.68 136.842 54.287 137.262 53.8939C137.659 53.5126 138.06 53.1392 138.457 52.7657C139.113 52.129 139.782 51.5041 140.454 50.8869C140.662 50.6983 140.87 50.5057 141.079 50.317C141.181 50.537 141.287 50.7493 141.401 50.9615C142.274 52.408 143.406 53.6698 144.801 54.676C145.018 54.8294 145.159 55.0259 145.234 55.2304Z" fill="#F99F4E"/>
<path d="M130.57 65.7505C130.557 64.782 130.297 63.828 129.756 63.0293C128.155 60.663 124.739 60.9184 122.309 61.6355C118.901 62.6417 115.618 64.1104 112.177 65.032C111.659 65.1707 111.088 65.3388 110.788 65.8096C110.097 66.8957 111.964 67.4579 112.556 67.778C113.814 68.4584 115.123 69.0436 116.445 69.5743C116.526 69.6068 116.607 69.6368 116.688 69.6684C120.14 71.5773 124.73 72.5808 128.116 70.5105C129.699 69.5424 130.595 67.6192 130.57 65.7505Z" fill="#5C150A"/>
<path d="M147.252 75.7535C147.881 75.4683 148.513 75.1868 149.127 74.8709C149.779 74.5356 150.395 74.1551 151.013 73.7622C151.081 73.7143 151.139 73.6731 151.19 73.6368C151.415 73.4432 151.634 73.2423 151.843 73.0314C151.969 72.9042 152.085 72.7673 152.204 72.6335C152.242 72.5744 152.3 72.4867 152.38 72.3697C152.463 72.2312 152.533 72.0855 152.608 71.9424C152.628 71.8838 152.651 71.8157 152.681 71.7265C152.728 71.5657 152.759 71.4015 152.795 71.2383C152.798 71.1847 152.802 71.1233 152.808 71.0515C152.799 70.9458 152.746 70.2352 152.739 69.9493C152.652 69.6254 152.484 68.9024 152.451 68.792C152.394 68.6044 151.874 67.2861 151.959 67.4447C151.474 66.3853 150.902 65.3106 150.232 64.333C148.011 64.3456 145.791 63.9862 143.645 63.3884C140.603 62.5409 137.958 61.5076 134.405 60.8185C132.711 60.4904 130.779 61.22 129.707 62.5716C128.446 64.1622 128.62 66.8283 129.808 68.4089C130.965 69.949 132.955 70.5341 134.698 71.1279C138.756 72.5111 142.715 74.1392 146.539 76.0194C147.068 75.8021 148.057 75.3883 147.252 75.7535Z" fill="#FFB7B3"/>
<path d="M98.3841 149.037C96.0335 145.254 91.0515 142.736 87.9139 140.104C83.5832 136.472 79.475 132.551 76.2316 127.894C70.8466 120.162 67.2216 111.325 64.8669 102.233C63.5719 97.2326 62.5499 92.2059 60.8372 87.3187C60.0135 84.9682 58.5716 84.3004 56.2294 84.4338C56.0621 83.1788 55.7265 81.9463 55.2343 80.7794C54.175 78.2681 51.7752 77.4156 49.3661 78.6216C49.5608 78.5241 47.9125 76.0496 45.161 76.0496C40.0512 76.0496 39.6581 79.9802 39.6581 79.9802C35.7275 79.5871 33.5791 82.7423 33.0712 85.1398C32.6334 87.2064 32.506 89.3225 32.2586 91.4162C31.8416 94.9435 31.6548 98.4983 31.7047 102.05C31.8039 109.107 32.8402 116.153 34.843 122.923C37.2401 131.025 41.0303 138.708 46.0832 145.485C55.1516 157.648 70.4592 168.593 86.4251 165.257C89.4972 164.615 92.6682 163.529 95.0873 161.53C97.6437 159.417 100.042 155.982 99.6397 152.526C99.4902 151.245 99.0395 150.092 98.3841 149.037Z" fill="#FFB7B3"/>
<path d="M40.4838 81.5316C42.1627 82.164 42.7185 83.9916 43.0003 85.6017C43.4377 88.1021 43.3897 90.686 43.523 93.2137C43.6146 94.9538 43.76 96.6885 44.0027 98.4146C44.1079 99.1629 45.2444 98.8445 45.1397 98.1011C44.7126 95.0645 44.674 91.9998 44.5069 88.9429C44.3878 86.7649 44.2994 84.2732 43.1485 82.3465C42.5992 81.4267 41.7964 80.7708 40.7973 80.3944C40.0864 80.1267 39.7792 81.2661 40.4838 81.5316Z" fill="#2B0B0B"/>
<path d="M49.1719 80.0814C49.2228 80.1647 49.2668 80.2507 49.3101 80.3382C49.3324 80.3834 49.3742 80.4863 49.3298 80.3784C49.3539 80.4371 49.3767 80.4965 49.398 80.5562C49.4948 80.8286 49.5741 81.1062 49.6437 81.3867C49.8251 82.1185 49.9482 82.8648 50.0572 83.6103C50.3545 85.6428 50.5304 87.6937 50.7165 89.7385C51.1717 94.739 51.5616 99.7639 52.4534 104.71C52.881 107.081 53.4208 109.456 54.3722 111.677C54.6701 112.373 55.6862 111.773 55.3905 111.082C54.5679 109.161 54.1001 107.08 53.709 105.034C53.2415 102.59 52.9226 100.12 52.6516 97.6468C52.1454 93.0276 51.8889 88.3766 51.2612 83.7714C51.0722 82.3854 50.9397 80.711 50.1901 79.4862C49.7945 78.84 48.7743 79.4317 49.1719 80.0814Z" fill="#2B0B0B"/>
<path d="M55.7736 85.6798C56.0421 89.7077 56.4611 93.7273 57.0543 97.7206C57.6197 101.526 58.3254 105.338 59.4459 109.023C59.9521 110.688 60.5489 112.341 61.3569 113.885C61.7089 114.558 62.7269 113.962 62.3752 113.29C60.8733 110.419 60.0682 107.175 59.3838 104.028C58.5424 100.159 57.9676 96.2318 57.5354 92.2971C57.2936 90.0958 57.1001 87.8894 56.9527 85.6798C56.9026 84.9266 55.723 84.921 55.7736 85.6798Z" fill="#2B0B0B"/>
<path d="M102.206 131.375C101.817 130.161 101.153 128.957 100.173 127.788C93.562 119.898 82.0581 118.716 72.5365 117.407C69.4849 116.987 66.4259 116.619 63.3793 116.164C54.5552 114.847 46.0033 111.667 37.0067 111.59C25.1797 111.489 8.67186 117.739 3.66627 129.405C1.66197 134.077 1.70875 139.676 4.16647 144.125C7.8411 150.778 15.683 153.527 22.7114 154.926C31.0652 156.589 39.6266 156.935 48.1446 156.899C65.7711 156.826 85.4815 156.652 98.5207 142.943C101.766 139.531 103.495 135.396 102.206 131.375Z" fill="#F1F1F1"/>
<path d="M76.0826 126.31C75.9927 125.926 75.7569 125.56 75.4707 125.28C73.1884 123.049 69.3694 124.971 67.5144 126.857C67.0599 127.32 66.6346 127.895 66.6632 128.543C66.6932 129.215 67.2304 129.785 67.8559 130.034C68.4813 130.283 69.1792 130.265 69.8481 130.191C71.4527 130.012 76.6367 128.674 76.0826 126.31Z" fill="#F99F4E"/>
<path d="M91.546 134.79C91.0239 133.518 89.7611 132.603 88.2306 132.181C85.4244 131.408 82.1662 130.449 79.2464 131.156C76.0338 131.933 73.5894 133.889 70.882 135.637C69.0226 136.837 66.4104 139.466 68.2261 141.815C69.1231 142.976 70.8082 143.163 72.2624 142.971C73.7166 142.779 75.1679 142.306 76.6198 142.514C79.8722 142.979 81.822 145.077 85.259 143.685C86.975 142.99 88.4321 141.768 89.6798 140.4C90.4785 139.524 91.2173 138.557 91.584 137.43C91.9056 136.442 91.8589 135.552 91.546 134.79Z" fill="#F99F4E"/>
<path d="M60.6886 139.937C58.1826 136.395 50.3066 137.413 46.6151 137.76C43.2754 138.074 39.2274 138.686 36.5891 140.958C29.2877 147.246 42.6357 150.473 46.8149 150.515C49.4695 150.541 52.1673 150.419 54.687 149.583C58.1528 148.434 63.6089 144.066 60.6886 139.937Z" fill="#647DF9"/>
<path d="M31.612 132.429C31.6056 132.1 31.5886 131.771 31.5634 131.445C31.3465 128.642 30.3644 125.626 27.9535 124.178C20.3907 119.638 2.45173 133.328 11.4482 140.035C14.6969 142.457 20.446 142.352 24.2275 141.55C26.8102 141.003 29.3342 139.59 30.6026 137.274C31.4052 135.809 31.6451 134.111 31.612 132.429Z" fill="#FF6E61"/>
<path d="M42.6374 115.171C42.3976 117.027 41.9574 118.87 41.5879 120.714C38.3136 117.054 35.063 113.367 31.8517 109.637C28.5657 105.824 25.3151 101.976 22.0998 98.1007C22.0644 98.0575 22.0251 98.0142 21.9897 97.9671C19.5095 95.027 13.4289 89.1231 14.6119 87.3032C16.8485 83.8599 20.221 89.0051 22.0959 91.0255C23.1493 92.1614 24.2695 93.3877 25.4291 94.681C30.9988 100.883 37.4845 108.537 42.0911 114.46C42.2758 114.696 42.4566 114.936 42.6374 115.171Z" fill="#BEB9C4"/>
<path d="M25.429 94.681C25.1892 95.7187 24.1437 96.6228 23.3065 97.2242C22.9173 97.5032 22.4536 97.8491 21.9897 97.9671C19.5095 95.027 13.4289 89.1231 14.6119 87.3032C16.8485 83.8599 20.221 89.0051 22.0959 91.0255C23.1492 92.1614 24.2695 93.3877 25.429 94.681Z" fill="#2B0B0B"/>
<path d="M6.17696 75.4769C5.10779 76.1404 9.31783 85.4157 11.1779 87.2042C12.6706 88.6394 14.8244 88.872 16.3707 87.3754C17.8401 85.9531 17.4491 83.7127 16.4253 82.1677C14.8486 79.7885 6.94787 74.9985 6.17696 75.4769Z" fill="#647DF9"/>
<path d="M52.7597 119.356C41.2811 113.796 26.9061 106.885 16.2563 101.727C13.5249 100.404 10.7788 106.062 13.5149 107.387C24.9628 112.932 37.6822 119.092 49.9685 125.043C53.4495 124.434 53.6818 121.664 52.7597 119.356Z" fill="#F99F4E"/>
<path d="M6.36855 98.9807C6.3844 99.1208 6.3898 99.2614 6.38213 99.4024C6.34806 100.025 5.98228 100.657 5.4802 101.035C5.32415 101.152 5.15402 101.254 4.97095 101.341L13.232 107.25C14.3416 106.539 15.4169 105.642 15.8018 104.427C16.0736 103.57 16.0449 102.551 15.919 101.564L6.36855 98.9807Z" fill="#FFD4A6"/>
<path d="M6.38209 99.4023C6.38976 99.2614 6.38436 99.1208 6.36851 98.9806L0.358256 97.355C0.0533363 97.2828 -0.13364 97.6785 0.115955 97.8681L4.97091 101.341C5.15399 101.254 5.32412 101.152 5.48016 101.034C5.98224 100.657 6.34802 100.024 6.38209 99.4023Z" fill="#F99F4E"/>
<path d="M17.6251 106.324C20.5242 107.967 23.5717 109.382 26.5517 110.87C31.4821 113.332 36.4233 115.773 41.3758 118.19C43.7214 119.335 46.0691 120.476 48.4261 121.597C49.1078 121.922 49.7068 120.905 49.0212 120.579C44.4866 118.422 39.9797 116.206 35.4763 113.984C30.9546 111.754 26.437 109.515 21.94 107.235C20.6959 106.604 19.4343 105.994 18.2204 105.306C17.5592 104.931 16.9643 105.949 17.6251 106.324Z" fill="#2B0B0B"/>
<path d="M61.3586 121.894C60.863 121.419 60.2149 121.078 59.5559 120.862C58.0453 120.366 56.3709 120.438 54.9961 119.563C53.7572 118.774 52.9926 117.479 52.3544 116.195C50.9725 113.413 49.9919 110.491 49.1436 107.509C48.5839 105.543 48.2359 103.463 46.6711 101.998C44.7039 100.157 41.6564 100.973 40.3399 103.152C39.6882 104.23 39.4149 105.496 39.2786 106.748C38.9466 109.799 39.5946 112.823 40.2773 115.78C40.9304 118.609 41.1969 121.544 42.1741 124.292C43.0806 126.84 44.6674 128.52 47.2911 129.224C51.6815 130.403 57.585 129.611 60.9625 126.349C61.8908 125.452 62.5795 124.191 62.0555 122.901C61.8987 122.515 61.6562 122.18 61.3586 121.894Z" fill="#FFB7B3"/>
<path d="M40.0299 108.714C39.5568 105.912 40.0215 102.208 43.1265 101.147C44.1792 100.787 45.314 100.801 46.3506 101.224C47.6798 101.768 48.4507 102.945 48.9879 104.258C50.0854 106.94 50.153 109.905 50.8678 112.689C51.0565 113.423 52.194 113.112 52.0049 112.375C51.3088 109.664 51.2144 106.803 50.2134 104.171C49.5917 102.536 48.6849 101.002 47.0421 100.248C44.3841 99.0275 41.211 100.028 39.7105 102.535C38.5462 104.48 38.5261 106.856 38.8929 109.027C39.019 109.774 40.1555 109.457 40.0299 108.714Z" fill="#2B0B0B"/>
<path d="M68.3395 7.10974C68.0878 6.05591 67.5856 5.04974 66.8916 4.20565C65.6126 2.64999 63.7499 1.675 61.8355 1.04969C44.4186 -4.63917 18.3199 13.754 23.4142 33.0966C24.9427 38.9001 28.7828 44.4575 33.281 48.384C34.9296 49.8231 38.3006 49.1974 39.1452 47.1029C39.6892 45.7537 38.9818 44.2193 38.0653 43.0894C34.7766 39.0349 31.722 33.6568 35.4753 28.7192C38.2336 25.0907 43.5302 24.3807 47.7611 24.1923C52.2717 23.9915 58.2997 19.3073 53.4287 14.8644C53.3658 14.8068 53.2396 14.6997 53.0799 14.571C53.1192 14.5619 53.1605 14.5514 53.1902 14.5474C54.3475 14.39 55.5533 14.441 56.7192 14.4575C60.2815 14.508 65.1953 15.2586 67.5488 11.8411C68.5269 10.4209 68.7219 8.71029 68.3395 7.10974Z" fill="#647DF9"/>
<path d="M71.3448 17.7279C70.6309 17.2464 69.8 16.9375 68.9668 16.8652C68.1548 16.7946 67.3154 16.9293 66.5999 17.3196C65.7046 17.8077 65.0456 18.6809 64.7399 19.6537C63.5408 23.4706 67.6017 27.4515 71.2603 25.2329C72.7446 24.3329 73.6122 22.5114 73.3757 20.7917C73.202 19.5309 72.4014 18.4404 71.3448 17.7279Z" fill="#647DF9"/>
<path d="M171.569 117.73C171.484 117.644 171.394 117.562 171.299 117.484C169.591 116.089 166.665 116.792 166.145 119.056C165.87 120.251 166.399 121.573 167.383 122.306C170.539 124.655 174.347 120.555 171.569 117.73Z" fill="#647DF9"/>
<path d="M45.1332 155.366C40.6491 155.366 35.6724 155.129 29.9376 154.319C19.1701 152.798 14.5797 150.735 11.2233 148.731C8.94342 147.371 6.79112 145.757 4.82593 143.934C4.56452 143.691 4.54917 143.283 4.79173 143.021C5.03378 142.76 5.44231 142.745 5.70385 142.987C7.60278 144.749 9.68239 146.308 11.8849 147.623C15.1254 149.557 19.5773 151.552 30.1184 153.041C40.0016 154.437 47.6359 154.111 54.3703 153.821C63.0414 153.449 68.2721 153.225 75.4718 151.48C84.0882 149.393 90.7436 146.397 95.2528 142.575C96.7757 141.284 98.2053 139.854 99.5014 138.326C99.7325 138.054 100.14 138.021 100.411 138.252C100.683 138.482 100.717 138.89 100.486 139.161C99.1442 140.743 97.6642 142.223 96.0874 143.56C91.4233 147.513 84.5896 150.6 75.7757 152.735C68.4535 154.509 63.1753 154.736 54.4308 155.111C51.5318 155.235 48.4687 155.366 45.1332 155.366Z" fill="#2B0B0B"/>
<path d="M134.145 55.7129C133.811 55.4769 133.525 55.2461 133.199 54.944C132.889 54.6557 132.596 54.3478 132.323 54.0231C132.072 53.7241 131.855 53.4269 131.624 53.0652C131.389 52.6985 131.18 52.3165 130.995 51.9231C130.858 51.6353 130.446 51.5609 130.188 51.7116C129.893 51.884 129.84 52.2293 129.976 52.5183C130.776 54.2097 132.024 55.6535 133.549 56.7312C133.81 56.915 134.205 56.7777 134.356 56.5197C134.529 56.2246 134.405 55.8973 134.145 55.7129Z" fill="#2B0B0B"/>
<path d="M199.711 127.362C198.344 126.851 196.9 126.547 195.435 126.49C193.12 126.4 190.748 126.995 188.871 128.354C186.724 129.909 185 132.722 185.742 135.417C186.458 138.023 189.181 139.2 190.078 141.67C190.558 142.991 190.287 144.508 189.578 145.721C188.711 147.203 187.177 148.533 185.507 148.988C183.96 149.409 181.901 149.191 181.274 151.066C180.948 152.039 181.39 152.929 182.163 153.521C182.965 154.136 183.857 154.501 184.76 154.902C190.999 157.676 200.202 154.553 204.133 151.015C209.04 146.598 210.572 138.067 206.398 132.402C204.721 130.125 202.359 128.353 199.711 127.362Z" fill="#647DF9"/>
<path d="M188.586 153.764C187.593 152.391 186.871 151.687 185.215 150.569C184.495 150.083 183.186 149.344 182.362 149.069C181.605 148.816 180.696 148.717 179.888 148.736C178.947 148.759 178.308 149.65 178.455 150.576C178.574 151.334 179.008 152.054 179.536 152.628C179.22 152.739 178.875 152.779 178.539 152.777C177.991 152.774 177.448 152.673 176.9 152.657C173.393 152.551 171.733 155.756 169.775 158.089C167.799 160.443 165.87 162.839 164.112 165.362C162.968 167.003 163.469 169.022 163.844 169.894C165.512 173.77 171.636 177.07 176.029 176.97C176.615 176.956 177.208 176.842 178.781 174.611C180.3 172.457 179.988 172.629 182.604 168.389C184.813 164.809 186.274 164.037 186.191 161.829C186.163 161.078 186.296 160.561 185.784 158.549C185.711 158.262 185.274 157.429 185.216 157.142C186.043 157.617 187.402 158.199 188.367 157.732C190.051 156.917 189.468 154.983 188.586 153.764Z" fill="#F1F1F1"/>
<path d="M176.728 175.956C174.142 171.287 169.674 167.773 164.531 166.349C163.798 166.146 163.486 167.284 164.217 167.486C169.077 168.831 173.267 172.142 175.71 176.552C176.078 177.215 177.096 176.621 176.728 175.956Z" fill="#2B0B0B"/>
<path d="M185.047 156.727C184.974 156.64 184.9 156.554 184.826 156.467C184.807 156.445 184.785 156.427 184.762 156.41C183.342 154.828 181.603 153.534 179.674 152.642C179.385 152.508 179.038 152.56 178.867 152.853C178.718 153.108 178.788 153.525 179.078 153.66C181.058 154.575 182.802 155.899 184.214 157.561C184.42 157.803 184.835 157.773 185.047 157.561C185.288 157.32 185.254 156.97 185.047 156.727Z" fill="#2B0B0B"/>
<path d="M189.149 156.371C186.846 152.982 183.582 150.373 179.779 148.856C179.074 148.575 178.768 149.715 179.466 149.993C182.964 151.389 186.015 153.853 188.131 156.966C188.555 157.59 189.577 157.001 189.149 156.371Z" fill="#2B0B0B"/>
<path d="M154.141 142.533L149.294 140.539C148.223 140.099 146.998 140.61 146.558 141.681L146.508 141.802C146.068 142.873 146.579 144.098 147.65 144.538L147.908 144.644C147.789 144.993 147.67 145.342 147.551 145.69C147.425 146.062 147.52 146.481 147.741 146.814C147.849 147.059 148.029 147.275 148.285 147.425C148.408 147.496 148.544 147.54 148.684 147.569C148.856 147.954 149.2 148.274 149.59 148.382C150.248 148.563 150.825 148.241 151.142 147.708C151.413 147.599 151.658 147.406 151.854 147.138C152.016 146.916 152.165 146.687 152.304 146.452L152.496 146.531C153.567 146.972 154.792 146.461 155.233 145.39L155.282 145.269C155.723 144.198 155.212 142.973 154.141 142.533Z" fill="#340647"/>
<path d="M143.82 179C141.765 178.931 139.177 178.223 136.188 176.842C134.202 175.924 133.175 175.43 131.537 174.017C130.736 173.242 130.476 172.991 130.153 172.074C129.952 171.502 129.983 170.849 130.302 170.269L143.566 146.129C144.117 145.126 145.335 144.697 146.393 145.134C147.323 145.283 148.463 145.543 149.716 146.015C151.002 146.5 152.053 147.073 152.861 147.588C153.063 147.699 153.702 148.084 154.047 148.896C154.345 149.599 154.255 150.228 154.208 150.467L147.191 177.189C146.85 178.488 145.641 178.875 143.82 179Z" fill="#F99F4E"/>
<path d="M146.383 176.567C141.832 173.423 136.608 171.29 131.157 170.354C130.415 170.226 130.096 171.362 130.843 171.491C136.208 172.412 141.31 174.491 145.788 177.585C146.413 178.018 147.004 176.996 146.383 176.567Z" fill="#2B0B0B"/>
<path d="M154.884 145.04C152.738 143.019 149.825 141.905 146.875 142.01C146.119 142.038 146.115 143.217 146.875 143.19C149.517 143.095 152.124 144.059 154.05 145.874C154.603 146.394 155.438 145.562 154.884 145.04Z" fill="#F99F4E"/>
</svg>
