<svg width="198" height="201" viewBox="0 0 198 201" fill="none" xmlns="http://www.w3.org/2000/svg">
<path d="M1.5527 69.8729C2.08027 75.3643 1.86773 77.6654 1.70134 83.2286C1.33927 77.928 3.25432 71.9135 8.25582 69.3471C13.2573 66.7807 19.1422 66.8295 24.7632 66.9169C73.8446 67.6788 122.949 66.9232 171.985 64.6518C175.534 64.4876 179.215 64.28 182.35 62.6085C189.499 58.7966 190.943 49.3576 191.546 41.2785C191.93 36.1235 192.307 30.8655 191.071 25.8458C189.835 20.8261 186.692 15.9933 181.894 14.0689C179.703 13.1903 177.313 12.9623 174.962 12.7537C123.429 8.18262 71.4627 8.50831 19.9911 13.7241C13.2933 14.403 5.67653 15.7213 2.12996 21.4433C-0.227026 25.2464 -0.101898 30.0256 0.0991027 34.4951C0.616912 45.9969 1.04288 55.4635 1.56069 66.9653L1.5527 69.8729Z" fill="#EF7E6C"/>
<path d="M4.85686 53.9082C4.96557 56.3269 5.05076 58.7278 5.04411 61.1474C5.35116 64.4911 5.35959 67.803 5.28638 71.1344C5.16348 72.2503 5.13419 73.3786 5.19276 74.503C5.21184 74.8673 7.74453 74.4498 7.7645 73.8139C7.79911 72.7024 7.83238 71.5954 7.85723 70.4906C8.08308 68.4366 8.64437 66.4293 9.66668 64.6074C11.9331 60.5665 16.0539 59.0229 20.4843 58.5344C24.657 58.0738 28.9166 58.3378 33.1043 58.395C37.513 58.4554 41.9217 58.5033 46.3304 58.5392C63.9661 58.6821 81.6031 58.6297 99.2375 58.3813C116.725 58.135 134.21 57.6957 151.688 57.0643C160.317 56.7524 168.96 56.4853 177.581 55.9803C183.37 55.6413 189.237 54.2956 192.841 49.3762C196.225 44.7576 197.04 38.6056 197.513 33.0548C198.139 25.7233 198.827 17.623 194.951 11.0059C193.429 8.40623 191.236 6.11048 188.477 4.83126C185.04 3.2379 181.014 3.22458 177.308 2.91177C168.789 2.19296 160.258 1.60682 151.72 1.1529C117.04 -0.690267 82.2465 -0.319331 47.6119 2.23644C39.2683 2.85186 30.8525 3.38965 22.5587 4.51002C17.2785 5.22306 11.3315 6.49473 7.41751 10.3967C2.46216 15.3365 3.46007 22.8942 3.74626 29.2486C4.1172 37.4688 4.48681 45.6885 4.85686 53.9082ZM6.1556 19.0122C6.43869 15.4226 7.60609 11.971 10.3713 9.54079C12.9266 7.29518 16.2673 6.31325 19.5521 5.73377C27.3778 4.35339 35.4968 4.01749 43.4117 3.4034C77.1234 0.789058 111.001 0.280575 144.777 1.85929C153.317 2.25863 161.85 2.79064 170.374 3.45931C177.909 4.05033 186.623 3.50456 191.498 10.3346C195.766 16.3162 195.645 23.9103 195.157 30.9218C194.741 36.9079 194.274 43.4171 191.098 48.68C189.031 52.1059 185.924 54.2215 181.915 54.7677C177.744 55.3361 173.44 55.2913 169.238 55.471C160.722 55.8352 152.204 56.1543 143.684 56.4272C126.791 56.9685 109.893 57.3301 92.9923 57.512C76.2387 57.6922 59.4833 57.6957 42.7302 57.5227C35.1853 57.4446 27.2744 56.6379 19.7908 57.8448C15.1341 58.5956 10.567 60.2968 7.83949 64.0559C7.796 62.8592 7.72678 61.6607 7.61629 60.4583C7.63271 54.2108 7.19211 47.9594 6.91124 41.7191C6.73908 37.8992 6.56737 34.0793 6.39521 30.2598C6.22704 26.5318 5.86142 22.7412 6.1556 19.0122Z" fill="black"/>
<path d="M122.351 173.476C120.761 163.81 129.874 155.257 139.379 152.889C148.884 150.52 158.866 152.315 168.661 152.149C174.043 152.058 180.146 150.932 183.016 146.377C185.294 142.762 184.791 138.123 184.208 133.89C182.517 121.608 180.825 109.325 179.133 97.0433C178.418 91.8472 177.276 85.9682 172.802 83.23C169.721 81.3443 165.857 81.5004 162.251 81.7177C137.788 83.1892 113.324 84.6607 88.8614 86.1317C82.7882 86.4968 76.2694 87.0296 71.5714 90.8951C67.7231 94.0614 65.7392 99.0513 65.1911 104.005C64.643 108.958 65.3755 113.954 66.1062 118.883C68.0224 131.814 70.7027 146.089 81.1212 153.984C91.6653 161.973 106.331 160.556 119.437 158.76C120.633 163.521 121.829 168.282 123.024 173.043L122.351 173.476Z" fill="#F8F4B4"/>
<path d="M78.3492 123.102C80.6287 134.206 85.0677 145.772 95.6382 151.392C106.171 156.992 118.814 155.733 130.239 154.2C131.12 157.707 132.001 161.214 132.882 164.721C132.796 165.732 132.811 166.77 132.935 167.832C132.909 167.935 132.921 168.033 132.966 168.122C132.97 168.149 132.971 168.176 132.975 168.204C133.082 168.968 134.266 168.944 135.027 168.493C135.086 168.466 135.145 168.439 135.198 168.404C135.422 168.26 135.646 168.117 135.871 167.972C136.167 167.783 136.421 167.404 136.329 167.039C136.087 166.077 135.846 165.114 135.604 164.151C136.059 159.8 138.56 155.903 141.979 153.04C146.806 148.999 152.668 147.451 158.853 147.069C165.491 146.658 172.13 147.447 178.768 147.458C183.533 147.466 188.679 147.07 192.779 144.379C197.176 141.492 198.294 136.683 197.938 131.69C197.463 125.02 196.198 118.333 195.286 111.709C194.337 104.82 193.413 97.9254 192.439 91.0392C191.792 86.4653 190.922 81.2771 187.332 78.0034C183.08 74.1268 176.85 74.9923 171.591 75.3087C164.558 75.7317 157.524 76.1547 150.491 76.5777C136.425 77.4238 122.358 78.2698 108.292 79.1158C97.8858 79.7417 84.6669 79.1065 78.648 89.4444C75.7824 94.3662 75.3381 100.181 75.7583 105.744C76.1957 111.541 77.1803 117.407 78.3492 123.102ZM78.9839 95.4231C80.3502 89.4074 84.123 84.6667 90.1401 82.8862C95.5706 81.279 101.512 81.3819 107.12 81.0441C120.269 80.2532 133.418 79.4623 146.567 78.6715C152.989 78.2851 159.41 77.8991 165.832 77.5127C168.843 77.3316 171.853 77.1235 174.865 76.9711C178.176 76.8038 181.768 76.7612 184.526 78.9003C188.586 82.0495 189.228 87.9442 189.881 92.6696C190.751 98.96 191.614 105.251 192.481 111.542C193.351 117.859 194.35 124.173 195.075 130.508C195.768 136.569 194.636 142.426 188.2 144.528C182.131 146.509 175.196 145.464 168.949 145.208C162.585 144.947 155.967 144.84 149.814 146.74C143.49 148.692 137.196 153.208 134.369 159.23C133.827 157.072 133.285 154.914 132.743 152.755C132.623 152.277 131.944 152.129 131.529 152.185C121.211 153.589 109.904 155.044 99.9911 150.95C90.1605 146.889 84.9774 137.574 82.3026 127.751C81.0336 123.091 80.2284 118.32 79.5112 113.549C78.6142 107.581 77.6264 101.4 78.9839 95.4231Z" fill="black"/>
<path d="M28.8167 184.629C17.9014 180.702 8.45172 171.532 6.37142 160.12C4.29113 148.708 11.1298 135.722 22.3664 132.839C32.4267 130.258 43.0341 135.873 49.9369 143.633C54.4789 148.74 57.9962 155.065 58.3986 161.888C58.8011 168.71 55.5719 175.981 49.4855 179.091C46.5345 180.598 43.1116 181.085 40.2936 182.829C35.4903 185.8 33.4269 192.509 35.7312 197.666C33.1219 192.852 32.2214 191.19 29.6116 186.376L28.8167 184.629Z" fill="#EF7E6C"/>
<path d="M60.9987 183.305C66.391 181.431 70.9219 179.087 73.6828 173.825C79.5779 162.589 73.3498 149.727 64.8239 141.803C56.6987 134.252 44.596 129.736 34.0056 134.87C24.8394 139.313 19.4978 149.749 20.2903 159.769C21.3034 172.58 31.7655 182.474 43.1893 186.907C45.1956 191.251 47.6689 195.409 49.9487 199.614C50.5733 200.766 53.8282 199.948 53.329 198.709C52.2856 196.122 52.1194 193.421 52.9516 190.736C54.1956 186.718 57.1723 184.634 60.9987 183.305ZM52.2436 186.232C50.8736 187.809 49.9248 189.671 49.4291 191.64C48.3641 189.677 47.3353 187.696 46.4139 185.672C46.3054 185.434 46.0995 185.278 45.84 185.188C45.805 185.173 45.7799 185.156 45.7414 185.141C35.7855 181.431 26.9511 173.369 24.3255 162.817C21.9799 153.391 25.7876 141.951 34.4366 136.951C54.5175 125.343 85.2116 160.322 67.6105 177.632C63.2598 181.911 56.3523 181.502 52.2436 186.232Z" fill="black"/>
</svg>
