<svg width="1021" height="334" viewBox="0 0 1021 334" fill="none" xmlns="http://www.w3.org/2000/svg">
<rect y="93" width="1021" height="206" rx="50" fill="#F7BEB6"/>
<path d="M700.656 90.6785C701.284 89.1463 702.737 85.9786 704.577 84.4343C706.166 83.1001 709.028 82.1506 710.31 81.7717C710.743 81.6439 711.191 81.5894 711.642 81.5894H755.577C756.105 81.5894 756.631 81.6644 757.13 81.8397C758.346 82.267 760.735 83.211 762.05 84.4343C763.818 86.0776 764.981 89.4649 765.412 90.891C765.543 91.325 765.598 91.776 765.598 92.2293V112.172V122.841V224.547L737.965 289.578C736.089 293.995 729.829 293.995 727.952 289.578L700.319 224.547V122.841V112.172V92.4797C700.319 91.8622 700.422 91.25 700.656 90.6785Z" fill="#EF7E6C"/>
<path d="M356.418 235.8H333.773C333.548 235.8 333.329 235.731 333.146 235.601L225.334 159.584C225.045 159.38 224.873 159.048 224.873 158.695V120.756C224.873 120.156 225.36 119.668 225.961 119.668H413.093C413.694 119.668 414.181 120.156 414.181 120.756V234.712C414.181 235.313 413.694 235.8 413.093 235.8H383.394C382.835 235.8 382.369 236.222 382.327 236.78C382.194 238.56 381.988 242.384 382.409 245.038C383.275 250.483 387.746 257.037 390.147 260.24C390.716 260.999 390.151 262.089 389.208 261.993C384.083 261.473 372.288 259.718 366.523 254.275C361.534 249.564 358.33 239.51 357.482 236.603C357.344 236.128 356.912 235.8 356.418 235.8Z" fill="#F1F1F1"/>
<path d="M355.446 116.948C374.661 116.948 393.878 116.969 413.093 117.01C415.092 116.966 416.883 118.76 416.837 120.756C416.753 158.742 416.589 196.727 416.345 234.712C416.38 236.446 414.821 237.995 413.093 237.952C403.46 237.889 393.826 237.821 384.192 237.748C384.027 240.139 383.958 242.587 384.252 244.744C385.133 249.735 388.294 254.724 391.526 259.206C392.973 260.912 391.421 264.036 389.036 263.686C380.913 262.597 372.322 261.267 365.508 255.351C361.908 251.734 359.97 247.325 358.242 242.956C357.504 241.023 356.848 239.054 356.283 237.063C348.78 236.985 341.276 236.905 333.773 236.82C333.341 236.824 332.908 236.689 332.553 236.441C324.424 230.844 316.298 225.243 308.175 219.637C280.105 200.267 252.072 180.844 224.077 161.368C223.217 160.772 222.679 159.742 222.684 158.694C222.604 146.048 222.534 133.402 222.472 120.756C222.427 118.896 224.096 117.221 225.961 117.26C269.123 117.052 312.284 116.948 355.446 116.948ZM227.267 122.082C227.208 134.101 227.141 146.12 227.066 158.139C254.655 177.854 282.207 197.622 309.722 217.442C317.73 223.211 325.736 228.984 333.738 234.761C333.747 234.77 333.759 234.778 333.773 234.78C341.321 234.696 348.87 234.613 356.418 234.535C357.451 234.515 358.434 235.257 358.711 236.245C359.298 238.171 359.983 240.102 360.741 241.972C362.453 246.117 364.514 250.312 367.539 253.2C372.841 257.721 380.597 259.271 387.94 260.138C384.765 255.766 381.754 251.178 380.567 245.331C380.112 242.271 380.236 239.48 380.402 236.637C380.477 235.105 381.903 233.823 383.394 233.857C392.933 233.785 402.473 233.717 412.012 233.654C411.775 196.546 411.614 159.437 411.531 122.329C392.836 122.368 374.14 122.388 355.446 122.388C312.719 122.388 269.993 122.286 227.267 122.082Z" fill="#5C150A"/>
<path d="M608.185 136.92C616.22 133.868 623.993 131.784 629.814 132.244C632.739 132.475 635.325 133.38 636.866 135.469C638.43 137.589 638.356 140.157 637.75 142.384C637.65 142.752 637.531 143.125 637.395 143.504C640.985 142.725 644.616 142.054 648.061 141.485C653.624 140.567 658.736 139.907 662.455 139.476C664.315 139.261 665.83 139.103 666.882 138.998C667.408 138.946 667.819 138.907 668.099 138.881C668.239 138.868 668.346 138.858 668.42 138.851C668.456 138.848 668.484 138.846 668.503 138.844C668.513 138.843 668.52 138.842 668.525 138.842H668.533C668.534 138.846 668.544 138.952 668.768 141.551L668.534 138.842C670.031 138.713 671.348 139.821 671.477 141.317C671.599 142.721 670.632 143.966 669.278 144.223L669.002 144.262C669.001 144.262 668.999 144.261 668.998 144.262C668.994 144.262 668.988 144.263 668.979 144.264C668.963 144.265 668.938 144.267 668.904 144.27C668.836 144.276 668.734 144.285 668.6 144.298C668.332 144.323 667.933 144.36 667.42 144.411C666.393 144.513 664.908 144.668 663.08 144.88C659.421 145.304 654.401 145.953 648.948 146.853C644.043 147.663 638.817 148.672 633.932 149.896C632.367 152.158 630.485 154.451 628.482 156.645C624.076 161.471 618.738 166.216 613.918 169.74C611.51 171.5 609.175 172.995 607.108 174.046C605.181 175.026 603.024 175.867 601.143 175.749C599.813 175.666 598.419 175.36 597.305 174.525C596.04 173.578 595.464 172.199 595.483 170.771C595.5 169.5 595.977 168.291 596.539 167.27C597.12 166.211 597.918 165.127 598.845 164.051C602.514 159.796 609.049 154.72 616.274 150.551C620.04 148.379 625.137 146.607 630.533 145.158C631.496 143.586 632.173 142.165 632.501 140.957C632.899 139.496 632.646 138.91 632.489 138.697C632.308 138.453 631.63 137.844 629.387 137.667C624.873 137.31 618.094 138.975 610.116 142.005C602.254 144.991 593.625 149.143 585.58 153.377C577.546 157.605 570.144 161.888 564.749 165.116C562.053 166.729 559.861 168.077 558.345 169.02C557.587 169.492 556.998 169.863 556.6 170.115C556.401 170.241 556.25 170.336 556.149 170.401C556.098 170.433 556.06 170.458 556.035 170.474C556.023 170.482 556.013 170.487 556.007 170.491C556.004 170.493 556.001 170.494 556 170.495L555.999 170.496C554.734 171.307 553.052 170.94 552.241 169.675C551.43 168.41 551.798 166.728 553.062 165.917L554.53 168.207C553.131 166.024 553.066 165.922 553.063 165.917C553.064 165.917 553.064 165.915 553.065 165.915C553.067 165.914 553.07 165.912 553.074 165.91C553.081 165.905 553.092 165.898 553.106 165.889C553.133 165.872 553.173 165.846 553.226 165.813C553.332 165.745 553.489 165.646 553.693 165.516C554.102 165.258 554.702 164.881 555.472 164.402C557.011 163.444 559.231 162.079 561.957 160.447C567.408 157.186 574.899 152.851 583.047 148.562C591.186 144.279 600.033 140.016 608.185 136.92ZM624.75 152.658C622.534 153.475 620.584 154.345 618.992 155.264C612.074 159.255 606.097 163.971 602.966 167.603C602.193 168.5 601.648 169.268 601.307 169.889C601.227 170.035 601.16 170.166 601.107 170.283C601.214 170.297 601.339 170.311 601.483 170.32C601.779 170.338 602.785 170.142 604.643 169.197C606.363 168.322 608.44 167.004 610.707 165.348C615.236 162.037 620.302 157.535 624.464 152.977C624.56 152.871 624.654 152.764 624.75 152.658Z" fill="#E73D24"/>
<path d="M466.703 319.195C468.905 320.066 471.223 320.615 473.391 320.321C475.781 319.996 477.575 318.669 478.474 316.574C479.272 314.715 479.244 312.535 478.921 310.496C478.877 310.214 478.824 309.928 478.766 309.637C480.311 310.167 481.829 310.635 483.265 311.043C486.552 311.976 489.569 312.645 491.762 313.082C492.861 313.3 493.757 313.461 494.382 313.567C494.695 313.621 494.94 313.661 495.109 313.688C495.194 313.701 495.259 313.711 495.305 313.718C495.327 313.722 495.345 313.725 495.358 313.727C495.364 313.728 495.369 313.728 495.373 313.729C495.375 313.729 495.377 313.73 495.378 313.73H495.379C495.38 313.73 495.38 313.73 495.688 311.655L495.38 313.73C496.866 313.951 498.249 312.925 498.47 311.439C498.69 309.954 497.665 308.571 496.179 308.351L496.18 308.35L496.178 308.349C496.177 308.348 496.174 308.348 496.171 308.348C496.163 308.346 496.149 308.345 496.131 308.342C496.095 308.337 496.038 308.328 495.963 308.316C495.814 308.292 495.589 308.255 495.298 308.205C494.716 308.106 493.869 307.954 492.824 307.746C490.731 307.33 487.862 306.692 484.75 305.809C482.042 305.041 479.261 304.113 476.683 303.033C475.805 300.877 474.749 298.67 473.61 296.525C471.051 291.709 467.939 286.95 465.109 283.395C463.701 281.626 462.304 280.082 461.031 278.97C460.398 278.417 459.725 277.906 459.035 277.534C458.405 277.193 457.426 276.782 456.301 276.902C455.111 277.03 453.909 277.535 453.063 278.624C452.263 279.653 452.057 280.854 452.065 281.851C452.08 283.77 452.89 285.963 453.923 288.022C456.057 292.275 459.886 297.398 464.158 301.634C466.335 303.792 469.256 305.594 472.405 307.085C472.954 308.647 473.349 310.087 473.548 311.346C473.808 312.989 473.677 313.957 473.475 314.428C473.375 314.662 473.272 314.846 472.66 314.93C471.826 315.043 470.528 314.859 468.703 314.137C466.922 313.432 464.871 312.309 462.631 310.848C458.154 307.925 453.198 303.832 448.54 299.619C443.896 295.419 439.613 291.161 436.488 287.947C434.927 286.342 433.658 285 432.781 284.062C432.343 283.594 432.002 283.225 431.772 282.976C431.657 282.851 431.57 282.755 431.512 282.692C431.484 282.66 431.462 282.636 431.448 282.621C431.441 282.613 431.435 282.607 431.432 282.604C431.43 282.602 431.428 282.601 431.427 282.6V282.599C430.418 281.487 428.698 281.403 427.586 282.412C426.473 283.422 426.389 285.143 427.399 286.255L429.413 284.427C427.498 286.165 427.404 286.251 427.4 286.255L427.401 286.258C427.402 286.259 427.404 286.261 427.406 286.263C427.41 286.268 427.417 286.274 427.425 286.283C427.441 286.301 427.465 286.328 427.496 286.362C427.559 286.43 427.65 286.53 427.769 286.66C428.008 286.92 428.359 287.298 428.807 287.778C429.705 288.738 431 290.106 432.589 291.74C435.764 295.005 440.133 299.352 444.891 303.655C449.635 307.944 454.832 312.253 459.658 315.402C462.069 316.976 464.458 318.307 466.703 319.195ZM467.987 297.771C464.043 293.86 460.603 289.206 458.786 285.584C458.369 284.753 458.074 284.039 457.87 283.449C458.72 284.253 459.736 285.38 460.854 286.783C463.248 289.79 465.92 293.819 468.216 297.989C468.139 297.917 468.062 297.844 467.987 297.771Z" fill="#E73D24"/>
<path d="M394.118 152.478L506.401 94.1188L525.307 184.339L484.469 201.691L394.118 152.478Z" fill="#F8F4B4"/>
<path d="M507.333 92.1522C507.948 92.4437 508.391 93.0064 508.53 93.6723L527.436 183.893C527.649 184.91 527.114 185.936 526.158 186.342L485.321 203.694C484.709 203.953 484.012 203.919 483.428 203.602L393.077 154.39C392.371 154.005 391.935 153.262 391.942 152.458C391.95 151.654 392.401 150.919 393.115 150.548L505.398 92.1883L505.628 92.0847C506.179 91.8757 506.795 91.8971 507.333 92.1522ZM398.75 152.522L482.925 198.37L503.357 98.1521L398.75 152.522ZM487.429 198.068L522.811 183.034L506.43 104.866L487.429 198.068Z" fill="#5C150A"/>
<path d="M878.748 301.361C878.748 313.378 820.782 323.12 749.278 323.12C677.775 323.12 619.809 313.378 619.809 301.361C619.809 289.343 677.775 279.601 749.278 279.601C820.782 279.601 878.748 289.343 878.748 301.361Z" fill="#EF7E6C"/>
<path d="M716.976 99.3821C717.604 97.8499 719.057 94.6822 720.896 93.1379C722.486 91.8037 725.348 90.8542 726.63 90.4753C727.063 90.3475 727.511 90.293 727.962 90.293H771.896C772.425 90.293 772.951 90.3681 773.449 90.5433C774.666 90.9706 777.055 91.9146 778.37 93.1379C780.137 94.7813 781.301 98.1685 781.731 99.5946C781.862 100.029 781.918 100.48 781.918 100.933V120.876V131.545V233.251L754.285 298.282C752.408 302.698 746.149 302.698 744.272 298.282L716.639 233.251V131.545V120.876V101.183C716.639 100.566 716.742 99.9536 716.976 99.3821Z" fill="#F1F1F1"/>
<path d="M779.198 100.933C779.198 100.699 779.169 100.518 779.128 100.38C778.932 99.7331 778.575 98.659 778.081 97.5839C777.561 96.4519 777.007 95.5842 776.518 95.1296C776.156 94.7923 775.515 94.391 774.688 93.9906C773.898 93.6084 773.1 93.3037 772.548 93.1098C772.384 93.0523 772.17 93.0131 771.896 93.0131H727.962C727.729 93.0131 727.545 93.0417 727.401 93.0843C726.815 93.2575 725.881 93.5576 724.932 93.9566C723.94 94.3733 723.126 94.8177 722.645 95.221C722.095 95.6834 721.461 96.5311 720.843 97.6137C720.251 98.6511 719.781 99.7091 719.493 100.413C719.412 100.61 719.359 100.865 719.359 101.184V118.157H779.198V100.933ZM746.775 297.218C747.714 299.427 750.843 299.426 751.782 297.218L777.806 235.972H720.751L746.775 297.218ZM751.998 230.532H779.198V134.265H751.998V230.532ZM719.359 230.532H746.559V134.265H719.359V230.532ZM719.359 128.825H779.198V123.597H719.359V128.825ZM784.638 233.252C784.638 233.617 784.564 233.979 784.421 234.315L756.788 299.345C753.973 305.97 744.584 305.97 741.769 299.345L714.136 234.315C713.993 233.979 713.919 233.617 713.919 233.252V101.184C713.919 100.267 714.071 99.2967 714.459 98.351C714.798 97.5231 715.369 96.2312 716.12 94.916C716.845 93.6456 717.859 92.1368 719.148 91.055C720.256 90.1242 721.668 89.4269 722.825 88.9407C724.024 88.4368 725.163 88.0733 725.859 87.8675C726.58 87.6546 727.293 87.5732 727.962 87.5732H771.896C772.68 87.5733 773.517 87.6841 774.351 87.977C775.015 88.2104 776.02 88.5912 777.058 89.0936C778.058 89.5779 779.269 90.2604 780.222 91.1464C781.5 92.3352 782.413 93.9834 783.024 95.3123C783.661 96.6977 784.1 98.0302 784.335 98.8089C784.555 99.5392 784.638 100.26 784.638 100.933V233.252Z" fill="#5C150A"/>
<path d="M206.378 291.775C205.245 297.359 199.915 303.522 196.794 306.74C196.07 307.486 196.658 308.756 197.688 308.617C203.533 307.829 215.944 305.53 222.211 299.714C227.444 294.858 231.468 284.697 232.505 281.91C232.667 281.475 233.078 281.189 233.541 281.189H298.547C298.675 281.189 298.798 281.168 298.918 281.123C300.584 280.496 313.543 275.493 319.851 269.28C324.703 264.502 329.513 255.174 330.296 253.623C330.372 253.474 330.407 253.315 330.407 253.148V195.18C330.407 195.18 328.648 179.661 322.49 172.685C315.133 164.351 296.101 162.1 296.101 162.1H172.259C172.135 162.1 172.015 162.12 171.899 162.162C170.277 162.757 157.677 167.521 152.28 174.009C147.535 179.712 144.696 191.147 144.39 192.418C144.371 192.498 144.363 192.575 144.363 192.658V249.293C144.363 249.385 144.373 249.472 144.398 249.561C144.774 250.959 148.207 263.3 153.599 269.28C159.881 276.247 174.321 280.681 175.891 281.148C175.988 281.177 176.082 281.189 176.183 281.189H205.418C205.966 281.189 206.427 281.594 206.48 282.14C206.671 284.101 207.008 288.668 206.378 291.775Z" fill="#EFE546"/>
<path d="M266.298 159.38C276.232 159.38 286.167 159.386 296.101 159.397C296.165 159.397 296.355 159.407 296.418 159.415C306.258 161.084 316.405 162.881 324.481 170.928C330.32 178.339 331.709 186.602 332.982 194.888C332.988 194.946 332.998 195.121 332.999 195.18C332.938 214.502 332.857 233.825 332.755 253.148C332.758 253.638 332.634 254.206 332.39 254.68C329.35 260.387 326.226 265.945 321.422 270.875C314.89 276.822 307.324 280.043 299.652 283.071C299.296 283.206 298.901 283.271 298.547 283.269C276.973 283.119 255.399 282.943 233.826 282.741C231.357 288.863 228.581 294.933 223.844 299.994C223.612 300.229 223.364 300.468 223.118 300.691C215.756 306.814 206.57 308.391 197.828 309.659C195.838 309.991 194.679 307.271 196.062 306.029C200.02 301.754 203.982 296.917 205.185 291.533C205.671 288.708 205.489 285.559 205.192 282.525C204.97 282.527 204.747 282.529 204.525 282.531C195.078 282.627 185.63 282.719 176.183 282.804C175.963 282.807 175.675 282.773 175.43 282.699C167.188 280.057 158.871 277.136 152.234 270.511C147.038 264.373 144.648 257.256 142.459 250.083C142.387 249.824 142.353 249.531 142.354 249.293C142.216 230.415 142.098 211.536 142 192.658C141.998 192.427 142.028 192.127 142.091 191.866C143.863 185.129 145.748 178.522 150.388 172.434C156.291 165.898 163.626 162.752 171.021 159.765C171.422 159.616 171.864 159.544 172.258 159.545C203.605 159.435 234.952 159.38 266.298 159.38ZM172.533 164.654C165.78 167.267 158.611 170.636 154.172 175.582C150.553 180.145 148.362 186.693 146.725 192.839C146.628 211.615 146.509 230.391 146.372 249.166C148.278 255.883 150.736 262.963 154.964 268.049C160.307 273.658 168.526 276.987 176.285 279.574C185.698 279.659 195.112 279.75 204.525 279.845C204.822 279.849 205.121 279.852 205.418 279.855C206.583 279.83 207.709 280.816 207.792 282.012C208.042 285.298 208.227 288.568 207.571 292.016C205.941 298.414 201.701 303.079 197.526 307.45C197.455 307.518 197.563 307.63 197.547 307.576C206.02 306.207 215.096 304.202 221.304 298.736C221.509 298.542 221.718 298.332 221.914 298.124C226.082 293.522 228.808 287.373 231.065 281.373C231.418 280.365 232.464 279.627 233.541 279.639C255.14 279.437 276.739 279.26 298.338 279.11C305.511 276.2 312.967 272.706 318.281 267.685C322.187 263.618 325.315 258.158 328.057 252.844C327.956 233.684 327.875 214.524 327.816 195.365C326.719 187.944 324.818 179.676 320.5 174.442C314.829 168.584 304.76 166.153 295.898 164.803C286.031 164.813 276.165 164.82 266.298 164.82C235.043 164.82 203.788 164.764 172.533 164.654Z" fill="#5C150A"/>
<path d="M760.539 277.969H738.018C737.201 277.969 736.675 278.836 737.053 279.56L748.314 301.144C748.721 301.924 749.836 301.924 750.243 301.144L761.504 279.56C761.882 278.836 761.356 277.969 760.539 277.969Z" fill="#5C150A"/>
<path d="M648.097 277.969C648.097 308.914 623.011 334 592.066 334C561.121 334 536.035 308.914 536.035 277.969C536.035 247.024 561.121 221.938 592.066 221.938C623.011 221.938 648.097 247.024 648.097 277.969Z" fill="#E73D24"/>
<path d="M646.057 277.969C645.832 272.302 644.734 266.727 642.814 261.478C635.293 240.254 613.747 225.751 592.066 226.528C564.679 226.501 540.845 251.082 541.475 277.969C540.845 304.856 564.679 329.437 592.066 329.41C613.747 330.187 635.293 315.684 642.814 294.46C644.734 289.211 645.832 283.636 646.057 277.969ZM648.097 277.969C648.097 308.914 623.011 334 592.066 334C561.121 334 536.035 308.914 536.035 277.969C536.035 247.024 561.121 221.938 592.066 221.938C623.011 221.938 648.097 247.024 648.097 277.969Z" fill="#5C150A"/>
</svg>
