<svg width="1021" height="305" viewBox="0 0 1021 305" fill="none" xmlns="http://www.w3.org/2000/svg">
<rect y="67" width="1021" height="206" rx="50" fill="#C9B7E1"/>
<path d="M157.995 33.945C157.407 26.9572 163.145 21.0688 170.146 21.4764L372.762 33.2743C379.177 33.6478 384.046 39.197 383.583 45.6061L366.988 275.349C366.469 282.529 359.567 287.48 352.599 285.67L183.213 241.66C178.481 240.43 175.04 236.348 174.63 231.476L157.995 33.945Z" fill="#E6ADCE"/>
<path d="M167.212 30.4885C166.624 23.5007 172.362 17.6123 179.363 18.02L381.979 29.8179C388.394 30.1914 393.263 35.7406 392.8 42.1497L376.205 271.892C375.686 279.072 368.784 284.024 361.816 282.213L192.43 238.204C187.698 236.974 184.257 232.891 183.847 228.019L167.212 30.4885Z" fill="#F1F1F1"/>
<path d="M167.212 30.4885C166.624 23.5007 172.362 17.6123 179.363 18.02L381.979 29.8179C388.394 30.1914 393.263 35.7406 392.8 42.1497L376.205 271.892C375.686 279.072 368.784 284.024 361.816 282.213L192.43 238.204C187.698 236.974 184.257 232.891 183.847 228.019L167.212 30.4885Z" fill="#F1F1F1"/>
<path d="M167.212 30.4881C166.624 23.5005 172.362 17.613 179.363 18.0206L381.979 29.8175C388.394 30.1912 393.263 35.7409 392.801 42.15L376.205 271.892C375.686 279.072 368.784 284.024 361.817 282.214L192.43 238.204C187.698 236.974 184.256 232.891 183.846 228.019L167.212 30.4881ZM179.238 20.1763C173.77 19.8082 168.959 25.0486 169.68 30.281C170.483 38.3115 171.283 46.3422 172.079 54.3733C177.798 112.104 183.33 169.851 188.675 227.613C188.911 230.364 191.035 232.794 193.677 233.404C250.253 247.637 306.781 262.055 363.26 276.657C366.577 277.637 370.341 274.923 370.462 271.478C370.751 267.458 371.041 263.438 371.331 259.418C376.572 186.857 382.108 114.317 387.94 41.7989C388.345 38.2538 385.358 34.701 381.705 34.5272C328.817 30.9796 275.939 27.2758 223.07 23.4144C208.459 22.3472 193.848 21.2675 179.238 20.1763Z" fill="#252C55"/>
<path opacity="0.5" d="M405.045 78.1406L427.467 104.774L348.382 171.355L325.96 144.722L405.045 78.1406Z" fill="#E6ADCE"/>
<path d="M140.229 198.084C146.427 195.432 152.973 193.696 159.104 194.18C165.287 194.668 169.733 197.167 172.527 200.908C172.779 201.245 173.014 201.589 173.236 201.94C179.476 198.222 186.271 196.302 191.615 195.301C194.616 194.738 197.207 194.455 199.055 194.314C199.98 194.243 200.721 194.208 201.239 194.19C201.498 194.181 201.701 194.176 201.843 194.173C201.914 194.172 201.971 194.171 202.011 194.171H202.082C202.082 194.173 202.083 194.234 202.083 195.679V194.171C203.674 194.171 204.963 195.46 204.963 197.051C204.963 198.642 203.674 199.93 202.083 199.93L202.084 199.932H202.058C202.034 199.932 201.995 199.933 201.941 199.934C201.832 199.936 201.664 199.938 201.442 199.946C200.996 199.962 200.333 199.994 199.494 200.059C197.814 200.187 195.435 200.445 192.677 200.962C187.474 201.938 181.08 203.804 175.459 207.33C175.926 209.308 176.089 211.334 176.014 213.291C175.852 217.49 174.609 221.65 172.674 224.803C170.84 227.795 167.818 230.703 163.883 230.457C160.892 230.27 158.283 228.995 157.102 226.285C156.038 223.846 156.519 221.044 157.5 218.592C159.233 214.26 163.155 209.383 168.483 205.212C168.306 204.916 168.117 204.63 167.912 204.356C166.242 202.12 163.415 200.299 158.652 199.923C153.838 199.543 148.286 200.903 142.495 203.381C136.74 205.844 130.973 209.312 125.809 212.885C120.654 216.451 116.16 220.078 112.953 222.815C111.351 224.183 110.074 225.324 109.202 226.121C108.766 226.519 108.431 226.832 108.207 227.042C108.095 227.148 108.01 227.226 107.955 227.279C107.928 227.305 107.907 227.325 107.894 227.337L107.879 227.353L107.656 227.547C106.507 228.448 104.84 228.351 103.806 227.277C102.702 226.131 102.736 224.307 103.882 223.204L105.331 224.708C103.907 223.228 103.883 223.203 103.883 223.202L103.891 223.195C103.896 223.19 103.903 223.184 103.911 223.175C103.928 223.159 103.953 223.136 103.985 223.106C104.048 223.045 104.142 222.956 104.264 222.842C104.506 222.615 104.861 222.285 105.318 221.868C106.232 221.033 107.557 219.848 109.213 218.434C112.522 215.609 117.174 211.855 122.532 208.148C127.881 204.448 133.996 200.752 140.229 198.084ZM170.235 211.237C166.478 214.534 163.942 217.998 162.849 220.732C162.102 222.599 162.222 223.615 162.383 223.983C162.426 224.082 162.626 224.607 164.243 224.708C164.916 224.75 166.287 224.201 167.764 221.793C169.142 219.546 170.131 216.361 170.258 213.071C170.281 212.452 170.274 211.839 170.235 211.237Z" fill="#444F9B"/>
<path d="M245.066 212.586C245.355 211.022 246.857 209.988 248.421 210.277L323.31 224.102C324.874 224.391 325.907 225.893 325.618 227.458C325.329 229.022 323.827 230.055 322.263 229.766L247.375 215.941C245.811 215.652 244.778 214.15 245.066 212.586Z" fill="#252C55"/>
<path d="M233.574 227.421C233.942 225.874 235.494 224.917 237.042 225.284L351.102 252.359C352.65 252.726 353.607 254.279 353.24 255.826C352.873 257.374 351.32 258.331 349.773 257.964L235.712 230.889C234.164 230.522 233.207 228.969 233.574 227.421Z" fill="#252C55"/>
<path d="M429.934 222.326C424.641 224.905 418.989 232.695 418.989 232.695L451.248 283.965C451.248 283.965 462.128 286.901 467.954 283.965C473.54 281.15 477.747 271.291 477.747 271.291L444.336 220.022C444.336 220.022 435.054 219.831 429.934 222.326Z" fill="#444F9B"/>
<path d="M444.262 217.14C444.302 217.141 444.333 217.141 444.355 217.141H444.394C444.395 217.142 444.395 217.159 444.362 218.775L444.395 217.142L445.918 217.173L481 271.008L480.397 272.422L477.747 271.291L480.396 272.423C480.395 272.424 480.394 272.426 480.394 272.428C480.393 272.43 480.392 272.433 480.39 272.437C480.387 272.444 480.383 272.454 480.378 272.466C480.367 272.49 480.353 272.524 480.334 272.566C480.297 272.65 480.243 272.769 480.174 272.919C480.037 273.219 479.837 273.644 479.581 274.159C479.071 275.186 478.326 276.589 477.392 278.093C475.611 280.958 472.81 284.743 469.25 286.537C465.533 288.41 460.615 288.302 457.111 287.93C455.271 287.734 453.633 287.441 452.457 287.198C451.867 287.076 451.388 286.967 451.051 286.885C450.883 286.845 450.75 286.81 450.657 286.786C450.61 286.774 450.573 286.765 450.546 286.758C450.533 286.755 450.523 286.751 450.515 286.749C450.511 286.748 450.507 286.748 450.505 286.747C450.503 286.747 450.501 286.746 450.5 286.746L451.248 283.965L450.498 286.746L449.41 286.452L415.513 232.58L416.658 231.004L418.989 232.695C416.687 231.025 416.658 231.005 416.658 231.004L416.661 230.999C416.662 230.998 416.664 230.995 416.665 230.993C416.67 230.987 416.675 230.979 416.681 230.97C416.695 230.952 416.714 230.926 416.739 230.894C416.787 230.828 416.856 230.735 416.945 230.618C417.122 230.383 417.377 230.05 417.699 229.645C418.342 228.836 419.258 227.729 420.35 226.534C422.462 224.224 425.506 221.28 428.673 219.737C431.736 218.245 435.785 217.639 438.799 217.37C440.358 217.231 441.744 217.174 442.741 217.151C443.241 217.14 443.647 217.138 443.931 217.138C444.072 217.138 444.184 217.139 444.262 217.14ZM442.781 222.913C441.885 222.935 440.667 222.986 439.311 223.107C436.404 223.366 433.253 223.912 431.195 224.915C429.069 225.951 426.64 228.192 424.602 230.421C423.774 231.328 423.055 232.182 422.5 232.867L453.06 281.435C453.23 281.473 453.417 281.515 453.621 281.557C454.667 281.773 456.114 282.03 457.721 282.202C461.114 282.563 464.549 282.455 466.658 281.393C468.684 280.371 470.779 277.82 472.499 275.053C473.314 273.74 473.971 272.503 474.424 271.593C474.436 271.569 474.447 271.544 474.459 271.521L442.781 222.913Z" fill="#252C55"/>
<path d="M321.155 68.5506C349.524 42.7617 396.888 48.6598 426.945 81.7235C457.001 114.787 458.368 162.496 429.999 188.285C401.63 214.074 354.268 208.177 324.211 175.113C294.155 142.049 292.786 94.3396 321.155 68.5506ZM415.613 93.2077C393.673 69.0727 359.099 64.7677 338.391 83.5924C317.683 102.417 318.681 137.243 340.621 161.378C362.561 185.512 397.134 189.816 417.843 170.992C438.55 152.167 437.552 117.342 415.613 93.2077Z" fill="#F1F1F1"/>
<path d="M321.155 68.5506C349.524 42.7617 396.888 48.6598 426.945 81.7235C457.001 114.787 458.368 162.496 429.999 188.285C401.63 214.074 354.268 208.177 324.211 175.113C294.155 142.049 292.786 94.3396 321.155 68.5506ZM423.348 84.9931C403.923 62.5282 371.347 49.5278 342.258 59.0974C335.107 61.4593 328.4 65.2001 322.608 70.1494C317.131 75.4443 312.77 81.7651 309.739 88.6588C297.447 116.706 307.292 150.371 327.808 171.844C352.499 199.461 398.981 209.257 426.125 184.022C453.826 159.4 448.493 112.198 423.348 84.9931ZM334.516 79.3293C354.31 61.0291 385.293 63.3322 405.683 77.1949C410.917 80.6215 415.682 84.719 419.876 89.3327C424.07 93.9459 427.696 99.0781 430.609 104.614C442.47 126.23 441.816 157.291 421.717 175.255C396.339 198.372 356.351 188.402 336.358 165.253C315.214 143.149 309.091 102.395 334.516 79.3293ZM415.613 93.2077C393.673 69.0727 359.099 64.7677 338.391 83.5924C317.683 102.417 318.681 137.243 340.621 161.378C362.561 185.512 397.134 189.816 417.843 170.992C438.55 152.167 437.552 117.342 415.613 93.2077Z" fill="#252C55"/>
<path d="M400.663 197.478C401.978 196.583 403.77 196.924 404.665 198.239L424.251 227.042C425.145 228.358 424.805 230.15 423.489 231.044C422.174 231.939 420.382 231.598 419.487 230.283L399.901 201.48C399.007 200.164 399.348 198.372 400.663 197.478Z" fill="#252C55"/>
<path d="M420.224 190.006C421.53 189.097 423.326 189.42 424.234 190.726L442.668 217.225C443.576 218.53 443.254 220.326 441.948 221.235C440.642 222.143 438.847 221.82 437.938 220.514L419.504 194.016C418.596 192.71 418.918 190.914 420.224 190.006Z" fill="#252C55"/>
<path d="M194.935 170.031C195.183 168.46 196.659 167.387 198.23 167.635L318.627 186.645C320.198 186.893 321.271 188.368 321.023 189.939C320.775 191.51 319.3 192.584 317.729 192.336L197.332 173.326C195.761 173.078 194.687 171.603 194.935 170.031ZM198.197 144.012L296.704 158.413C298.278 158.643 299.367 160.106 299.137 161.68C298.907 163.253 297.445 164.343 295.871 164.113L197.365 149.712C195.791 149.482 194.701 148.019 194.931 146.445C195.161 144.872 196.623 143.782 198.197 144.012ZM188.227 74.864L291.919 83.505C293.504 83.6373 294.681 85.0297 294.549 86.6148C294.417 88.1998 293.024 89.3774 291.439 89.2453L187.748 80.6044C186.163 80.4721 184.985 79.0797 185.118 77.4946C185.25 75.9095 186.642 74.7319 188.227 74.864ZM188.234 50.0933L309.207 60.4625C310.792 60.5985 311.967 61.9942 311.831 63.579C311.695 65.1638 310.299 66.3387 308.714 66.2028L187.741 55.8337C186.157 55.6977 184.982 54.3019 185.118 52.7171C185.254 51.1324 186.649 49.9575 188.234 50.0933Z" fill="#252C55"/>
<path d="M552.221 298.732L506.312 137.081C506.312 137.081 505.609 133.04 506.312 130.615C507.073 127.991 510.192 124.795 510.192 124.795L576.792 80.826C576.792 80.826 584.92 77.6283 590.371 77.593C594.73 77.5647 601.363 79.5328 601.363 79.5328L670.55 102.811C670.55 102.811 679.314 103.826 684.775 102.811C689.802 101.876 697.061 98.2843 697.061 98.2843L753.316 80.826L769.481 91.1717L808.924 232.132C808.924 232.132 809.773 236.6 808.924 239.244C807.557 243.497 800.518 247.003 800.518 247.003L746.203 281.92C746.203 281.92 738.139 285.753 732.624 285.8C727.968 285.839 720.985 283.213 720.985 283.213L654.385 261.229C654.385 261.229 647.289 259.411 642.746 259.936C638.224 260.457 631.754 263.815 631.754 263.815L571.62 301.965C571.62 301.965 564.481 305.747 559.981 304.551C556.32 303.579 552.221 298.732 552.221 298.732Z" fill="#E6ADCE"/>
<path d="M845.788 144.354C852.745 147.331 860.092 149.279 866.975 148.736C873.914 148.188 878.904 145.383 882.041 141.184C882.323 140.806 882.588 140.419 882.837 140.026C889.841 144.199 897.469 146.354 903.466 147.478C906.835 148.11 909.743 148.427 911.818 148.586C912.855 148.665 913.688 148.704 914.269 148.725C914.559 148.735 914.788 148.741 914.947 148.744C915.027 148.745 915.09 148.746 915.135 148.746H915.215C915.216 148.743 915.216 148.675 915.216 147.054V148.746C917.002 148.746 918.449 147.299 918.449 145.513C918.449 143.728 917.002 142.281 915.216 142.281L915.217 142.28H915.188C915.162 142.28 915.118 142.279 915.057 142.278C914.935 142.276 914.746 142.272 914.496 142.264C913.996 142.246 913.252 142.21 912.31 142.137C910.424 141.993 907.755 141.704 904.658 141.123C898.819 140.028 891.641 137.933 885.332 133.975C885.857 131.756 886.039 129.481 885.955 127.284C885.773 122.572 884.378 117.903 882.206 114.362C880.147 111.005 876.756 107.74 872.338 108.016C868.981 108.226 866.052 109.658 864.727 112.699C863.533 115.438 864.072 118.582 865.174 121.335C867.119 126.197 871.521 131.672 877.502 136.353C877.303 136.685 877.091 137.007 876.861 137.314C874.986 139.824 871.813 141.868 866.467 142.29C861.064 142.717 854.832 141.19 848.332 138.408C841.871 135.644 835.398 131.751 829.602 127.74C823.816 123.738 818.772 119.667 815.172 116.594C813.374 115.059 811.941 113.778 810.961 112.884C810.472 112.437 810.096 112.085 809.845 111.849C809.719 111.731 809.624 111.643 809.562 111.584C809.531 111.555 809.508 111.532 809.494 111.518L809.476 111.501L809.226 111.284C807.937 110.272 806.065 110.381 804.904 111.587C803.666 112.873 803.704 114.92 804.99 116.158L806.617 114.47C805.018 116.131 804.991 116.159 804.991 116.16L805 116.168C805.006 116.174 805.014 116.181 805.023 116.19C805.042 116.208 805.07 116.234 805.105 116.268C805.177 116.336 805.282 116.436 805.418 116.564C805.69 116.819 806.089 117.189 806.602 117.657C807.628 118.594 809.115 119.925 810.974 121.512C814.688 124.682 819.91 128.897 825.924 133.057C831.928 137.21 838.791 141.36 845.788 144.354ZM879.468 129.591C875.251 125.889 872.405 122.001 871.178 118.933C870.339 116.837 870.474 115.697 870.655 115.283C870.703 115.172 870.927 114.583 872.742 114.47C873.497 114.423 875.037 115.038 876.695 117.742C878.242 120.264 879.352 123.839 879.494 127.532C879.52 128.227 879.512 128.915 879.468 129.591Z" fill="#444F9B"/>
<path d="M556.101 281.92L510.192 120.268C510.192 120.268 509.489 116.228 510.192 113.802C510.952 111.179 514.072 107.983 514.072 107.983L580.672 64.0138C580.672 64.0138 588.8 60.8162 594.251 60.7808C598.61 60.7525 605.243 62.7206 605.243 62.7206L674.43 85.9984C674.43 85.9984 683.193 87.0142 688.655 85.9984C693.682 85.0635 700.941 81.4722 700.941 81.4722L757.195 64.0138L773.36 74.3595L812.803 215.319C812.803 215.319 813.653 219.788 812.803 222.432C811.436 226.685 804.397 230.191 804.397 230.191L750.083 265.108C750.083 265.108 742.019 268.941 736.504 268.988C731.848 269.027 724.865 266.401 724.865 266.401L658.265 244.417C658.265 244.417 651.169 242.599 646.626 243.123C642.103 243.645 635.633 247.003 635.633 247.003L575.499 285.153C575.499 285.153 568.36 288.935 563.86 287.739C560.2 286.767 556.101 281.92 556.101 281.92Z" fill="#F1F1F1"/>
<path d="M594.238 58.7258C598.444 58.7755 602.07 59.6692 605.849 60.6783L605.922 60.7023C628.938 68.2777 651.949 75.8679 674.953 83.4761C679.379 83.8827 684.148 84.11 688.175 83.413C691.915 82.631 696.018 80.8554 699.747 79.0598L700.143 78.9019C718.868 72.9961 737.596 67.1004 756.327 61.2163L757.638 60.8147L758.775 61.5471C764.175 64.9769 769.574 68.408 774.973 71.8398L775.94 72.4624L776.242 73.5535C789.534 120.5 802.758 167.465 815.916 214.449L815.978 214.715C816.382 217.518 816.823 219.861 815.882 223.421C815.321 225.121 814.415 226.349 813.505 227.392C811.21 229.897 808.822 231.471 806.073 232.956C787.99 244.576 769.9 256.186 751.802 267.784L751.448 267.981C746.757 270.017 742.361 271.877 736.53 272.146C731.623 272.019 727.844 270.75 723.761 269.337L723.882 269.38C701.737 262.022 679.596 254.649 657.461 247.26C653.993 246.429 650.029 245.733 646.96 246.016C643.918 246.41 640.222 247.948 637.03 249.512C616.983 262.124 596.929 274.722 576.865 287.306L576.693 287.405C572.637 289.234 568.786 291.19 563.222 290.141C558.932 288.698 556.713 286.16 554.244 283.489L553.762 282.584C542.813 243.193 531.912 203.788 521.058 164.37C517.041 149.782 513.03 135.192 509.026 120.6L508.998 120.477C508.66 118.184 508.361 116.01 508.973 113.449C509.869 110.734 511.442 108.932 513.119 107.053L513.339 106.873C522.144 100.95 530.951 95.0287 539.76 89.1112C553.034 80.1945 566.311 71.2836 579.593 62.3794L579.955 62.1912C584.523 60.4962 588.968 58.953 594.238 58.7258ZM594.264 62.8366C590.216 62.9223 585.68 64.2914 581.548 65.7791C568.209 74.4506 554.866 83.1169 541.519 91.7759C532.66 97.5232 523.798 103.266 514.935 109.008C513.484 110.549 511.985 112.417 511.412 114.156C510.955 115.807 511.103 118.044 511.379 120.008C515.635 134.503 519.886 149 524.129 163.499C535.56 202.554 546.943 241.623 558.28 280.706C560.137 282.72 562.598 284.821 564.499 285.337C566.977 285.928 571.116 284.512 574.233 282.935C594.179 270.136 614.133 257.351 634.096 244.581L634.312 244.457C638.086 242.613 641.608 240.939 646.292 240.231C651.035 239.825 654.871 240.635 658.997 241.557L659.19 241.613C681.414 248.867 703.634 256.138 725.848 263.423L725.969 263.465C729.394 264.675 733.377 265.807 736.477 265.829C740.107 265.714 744.674 264.05 748.568 262.299C766.587 250.679 784.615 239.07 802.649 227.472L802.956 227.298C805.002 226.224 807.277 224.671 808.662 223.109C809.213 222.493 809.598 221.859 809.725 221.443C810.078 220.39 809.967 217.893 809.642 216.018C796.621 169.449 783.669 122.862 770.781 76.2561C766.104 73.2422 761.426 70.228 756.75 67.2125C738.469 72.8163 720.185 78.4107 701.897 83.9939C697.82 85.8859 693.884 87.6093 689.136 88.5833C683.829 89.4117 679.087 89.0295 674.135 88.5391L673.613 88.4229C650.603 80.5491 627.599 72.6579 604.6 64.7511C601.215 63.7836 597.52 62.8989 594.264 62.8366Z" fill="#252C55"/>
<path d="M782.413 47.8488C782.413 74.2749 760.99 95.6975 734.564 95.6975C708.138 95.6975 686.715 74.2749 686.715 47.8488C686.715 21.4226 708.138 0 734.564 0C760.99 0 782.413 21.4226 782.413 47.8488Z" fill="#444F9B"/>
<path d="M715.166 97.6374C708.516 91.6378 698.354 78.8859 698.354 78.8859H770.774C770.774 78.8859 759.872 90.873 752.022 97.6374C745.44 103.309 733.918 110.57 733.918 110.57C733.918 110.57 721.771 103.596 715.166 97.6374Z" fill="#444F9B"/>
<path d="M747.496 47.2022C747.496 53.9873 741.996 59.4877 735.211 59.4877C728.426 59.4877 722.925 53.9873 722.925 47.2022C722.925 40.4172 728.426 34.9167 735.211 34.9167C741.996 34.9167 747.496 40.4172 747.496 47.2022Z" fill="#E6ADCE"/>
<path opacity="0.5" d="M619.468 210.147C619.468 222.646 609.336 232.778 596.837 232.778C584.338 232.778 574.206 222.646 574.206 210.147C574.206 197.648 584.338 187.516 596.837 187.516C609.336 187.516 619.468 197.648 619.468 210.147Z" fill="#E6ADCE"/>
<path d="M613.002 210.147C613.002 219.074 605.765 226.312 596.837 226.312C587.909 226.312 580.672 219.074 580.672 210.147C580.672 201.219 587.909 193.981 596.837 193.981C605.765 193.981 613.002 201.219 613.002 210.147Z" fill="#E6ADCE"/>
<path d="M609.123 210.147C609.123 203.361 603.622 197.861 596.837 197.861C590.052 197.861 584.552 203.361 584.552 210.147C584.552 216.932 590.052 222.432 596.837 222.432V226.312C587.909 226.312 580.672 219.074 580.672 210.147C580.672 201.219 587.909 193.981 596.837 193.981C605.765 193.981 613.002 201.219 613.002 210.147C613.002 219.074 605.765 226.312 596.837 226.312V222.432C603.622 222.432 609.123 216.932 609.123 210.147Z" fill="#CA5399"/>
<path opacity="0.5" d="M774.654 108.63C774.654 112.201 756.705 115.096 734.564 115.096C712.423 115.096 694.475 112.201 694.475 108.63C694.475 105.059 712.423 102.164 734.564 102.164C756.705 102.164 774.654 105.059 774.654 108.63Z" fill="#444F9B"/>
<path d="M617.078 205.649C616.108 206.193 615.308 206.619 614.748 206.91C614.468 207.055 614.247 207.167 614.095 207.243C614.019 207.281 613.96 207.312 613.919 207.332C613.899 207.342 613.884 207.349 613.873 207.354C613.867 207.357 613.862 207.359 613.859 207.361C613.857 207.361 613.856 207.363 613.855 207.363L613.854 207.365C612.891 207.834 611.729 207.433 611.26 206.47C610.79 205.508 611.19 204.347 612.152 203.878L612.154 203.876L612.353 203.777C612.491 203.707 612.697 203.603 612.961 203.466C613.489 203.191 614.253 202.785 615.182 202.265L617.078 205.649ZM629.123 197.51C627.197 199.118 625.175 200.585 623.262 201.865L621.105 198.639C622.934 197.416 624.841 196.031 626.638 194.532L629.123 197.51ZM638.345 185.203C637.99 186.522 637.43 187.836 636.659 189.146C636.02 190.231 635.263 191.281 634.429 192.288L631.442 189.813C632.169 188.935 632.799 188.054 633.315 187.178C633.925 186.141 634.341 185.147 634.598 184.194L638.345 185.203ZM691.105 181.695C692.151 182.017 693.32 182.242 694.632 182.349C696.037 182.463 697.192 182.413 698.147 182.244L698.823 186.064C697.475 186.303 695.979 186.351 694.317 186.216C692.751 186.088 691.303 185.815 689.965 185.403L691.105 181.695ZM681.74 171.609C682.717 174.13 683.877 176.272 685.355 177.963L682.435 180.518C680.558 178.372 679.197 175.784 678.123 173.011L681.74 171.609ZM708.882 172.31C708.279 175.192 707.614 178.09 706.385 180.455L702.944 178.665C703.891 176.844 704.469 174.457 705.084 171.516L708.882 172.31ZM633.602 169.719C635.435 171.898 636.948 174.207 637.863 176.657L634.228 178.013C633.518 176.113 632.29 174.186 630.632 172.217L633.602 169.719ZM622.238 159.31C624.257 160.907 626.251 162.532 628.112 164.186L625.534 167.086C623.754 165.503 621.827 163.931 619.832 162.353L622.238 159.31ZM677.654 156.376C678.307 159.088 678.86 161.613 679.494 164.17L675.728 165.104C675.103 162.584 674.498 159.839 673.883 157.284L677.654 156.376ZM713.518 157.695C712.225 159.906 711.332 162.253 710.644 164.639L706.917 163.563C707.664 160.975 708.666 158.308 710.169 155.737L713.518 157.695ZM610.542 149.987C612.338 151.54 614.287 153.098 616.304 154.678L613.91 157.731C611.879 156.141 609.873 154.537 608.005 152.921L610.542 149.987ZM724.496 148.08C721.955 149.249 719.895 150.595 718.206 152.051L715.674 149.112C717.655 147.405 720.026 145.868 722.875 144.557L724.496 148.08ZM672.081 140.798C673.479 143.219 674.561 145.825 675.454 148.487L671.775 149.721C670.938 147.224 669.953 144.872 668.722 142.739L672.081 140.798ZM601.751 139.234C602.394 141.06 603.621 142.953 605.35 144.936L602.428 147.487C600.519 145.299 598.957 142.981 598.091 140.52L601.751 139.234ZM739.878 142.349C738.807 143.622 737.359 144.494 735.544 144.811C734.202 145.045 732.936 145.312 731.74 145.606L730.812 141.839C732.099 141.522 733.453 141.238 734.877 140.989C735.788 140.83 736.422 140.43 736.911 139.85L739.878 142.349ZM659.516 129.441C660.738 130.129 661.945 130.828 663.133 131.531C664.424 132.296 665.6 133.155 666.671 134.095L664.112 137.011C663.218 136.227 662.237 135.511 661.155 134.87C659.989 134.18 658.807 133.494 657.612 132.821L659.516 129.441ZM741.729 126.296C742.145 128.832 742.429 131.558 742.357 134.104L738.479 133.995C738.541 131.786 738.293 129.325 737.899 126.925L741.729 126.296ZM606.123 127.655C605.231 128.508 604.366 129.46 603.536 130.518C602.772 131.491 602.23 132.419 601.865 133.3L598.281 131.814C598.799 130.565 599.533 129.336 600.485 128.124C601.425 126.926 602.412 125.836 603.443 124.85L606.123 127.655ZM644.43 122.067C647.012 123.105 649.58 124.271 652.109 125.518L650.394 128.998C647.939 127.787 645.46 126.664 642.982 125.667L644.43 122.067ZM619.754 121.365C617.166 121.662 614.704 122.312 612.394 123.37L610.777 119.843C613.496 118.597 616.361 117.849 619.312 117.51L619.754 121.365ZM628.018 117.589C630.791 117.918 633.602 118.511 636.414 119.305L635.361 123.039C632.709 122.291 630.099 121.744 627.56 121.442L628.018 117.589ZM736.532 113.904C737.547 113.562 738.647 114.108 738.989 115.124C738.99 115.125 738.991 115.128 738.992 115.13C738.993 115.133 738.994 115.139 738.996 115.145C739 115.158 739.007 115.175 739.015 115.198C739.03 115.244 739.051 115.312 739.079 115.399C739.135 115.572 739.215 115.824 739.314 116.144C739.511 116.784 739.782 117.698 740.082 118.806L736.336 119.818C736.05 118.759 735.792 117.889 735.606 117.286C735.513 116.984 735.438 116.75 735.387 116.592C735.362 116.514 735.343 116.454 735.331 116.415C735.324 116.396 735.319 116.382 735.316 116.373C735.314 116.369 735.314 116.366 735.313 116.364L735.312 116.361C734.97 115.346 735.517 114.246 736.532 113.904Z" fill="#252C55"/>
</svg>
